<svg width="382" height="382" viewBox="0 0 382 382" fill="none" xmlns="http://www.w3.org/2000/svg">
<g clip-path="url(#clip0_1_632)">
<mask id="mask0_1_632" style="mask-type:luminance" maskUnits="userSpaceOnUse" x="0" y="0" width="382" height="382">
<path d="M382 0H0V382H382V0Z" fill="white"/>
</mask>
<g mask="url(#mask0_1_632)">
<path d="M348.675 237.992C350.466 225.102 343.056 212.56 333.732 203.482C324.407 194.404 313.046 187.643 303.618 178.673C294.188 169.704 286.51 157.4 287.852 144.456C289.028 133.104 296.843 123.487 299.4 112.364C303.45 94.7326 291.696 74.9649 274.269 70.1058C259.383 65.9543 243.473 71.8661 230.368 80.0569C217.263 88.2478 205.595 98.8032 191.647 105.458C177.699 112.114 160.088 114.194 147.439 105.315C137.901 98.6191 133.037 87.1392 125.047 78.655C114.27 67.2126 97.4699 61.7958 82.0394 64.7899C66.6089 67.7833 53.0517 79.089 47.3355 93.731C39.7054 113.274 46.0115 135.667 56.3675 153.912C66.7235 172.158 80.9431 188.022 90.8812 206.5C96.4187 216.795 100.117 230.711 92.1135 239.23C80.9064 251.16 58.8383 240.602 45.4835 250.066C34.3712 257.941 35.6539 275.046 41.2938 287.443C50.1562 306.925 66.9626 322.65 86.9901 330.199L325.545 327.85C321.279 313.436 317.03 297.83 322.119 283.685C328.143 266.945 346.228 255.614 348.675 237.992Z" fill="#0165FC"/>
<path d="M146.652 95.3051C150.996 100.961 157.977 104.681 165.105 104.484C172.234 104.287 179.243 99.8975 181.976 93.3103C182.897 91.0909 183.341 88.6086 182.812 86.2647C182.282 83.9207 180.673 81.7532 178.413 80.935C175.655 79.9372 172.567 81.0374 169.677 80.5423C165.796 79.8776 163.015 76.5443 159.624 74.5434C155.257 71.9664 145.174 70.9709 141.642 75.8124C138.202 80.5293 143.718 91.4851 146.652 95.3051Z" fill="#0165FC"/>
<path d="M307.996 145.644C305.928 142.004 304.797 137.738 305.372 133.593C305.947 129.447 308.374 125.476 312.086 123.543C316.828 121.074 322.963 122.347 327.021 125.828C331.078 129.31 333.231 134.624 333.815 139.939C334.358 144.88 335.109 157.875 327.692 158.069C319.925 158.272 311.664 152.102 307.996 145.644Z" fill="#0165FC"/>
<path d="M35.7599 164.224C38.2521 170.04 42.7452 174.977 48.3017 178.004C50.5189 179.211 53.4129 180.07 55.4383 178.562C57.388 177.11 57.4804 174.255 57.223 171.837C56.5293 165.307 54.6261 158.908 51.6397 153.06C49.8152 149.488 47.3979 145.951 43.7521 144.277C30.4555 138.169 33.0187 157.827 35.7599 164.224Z" fill="#0165FC"/>
<path d="M255.024 55.6443C256.67 55.493 258.355 54.8116 259.3 53.4555C262.916 48.2656 253.516 38.8493 248.109 41.1734C240.063 44.632 248.347 56.2586 255.024 55.6443Z" fill="#0165FC"/>
<path d="M29.506 64.8536C31.6834 64.3578 33.1725 62.0428 33.0586 59.812C32.8516 55.7628 27.4081 51.5455 24.3223 55.6245C21.6109 59.2084 24.6256 65.966 29.506 64.8536Z" fill="#0165FC"/>
<path d="M345.738 233.989C347.529 221.1 340.119 208.557 330.794 199.479C321.469 190.402 310.109 183.64 300.68 174.671C291.252 165.701 283.573 153.398 284.914 140.454C286.091 129.101 293.906 119.485 296.462 108.362C300.513 90.7302 288.758 70.9632 271.332 66.1034C256.445 61.9518 240.536 67.8637 227.431 76.0545C214.325 84.2453 202.658 94.8008 188.709 101.456C174.762 108.112 157.151 110.192 144.502 101.312C134.963 94.6159 130.1 83.1368 122.11 74.6526C111.333 63.2101 94.5324 57.7934 79.1019 60.7875C63.6714 63.7808 50.1142 75.0865 44.398 89.7286C36.7679 109.272 43.0747 131.665 53.43 149.91C63.7852 168.155 78.0056 184.021 87.9437 202.497C93.4812 212.792 97.1797 226.708 89.176 235.228C77.9689 247.158 55.9008 236.599 42.546 246.064C31.4337 253.939 32.7164 271.043 38.3563 283.441C47.2187 302.923 64.0251 318.647 84.0526 326.197L322.607 323.848C318.342 309.434 314.092 293.827 319.181 279.683C325.205 262.943 343.29 251.612 345.738 233.989Z" stroke="#0165FC" stroke-width="0.5" stroke-miterlimit="10"/>
<path d="M143.712 91.3026C148.057 96.9585 155.037 100.678 162.166 100.481C169.295 100.284 176.304 95.895 179.037 89.3078C179.957 87.0884 180.401 84.6062 179.873 82.2622C179.344 79.9183 177.733 77.7508 175.473 76.9326C172.716 75.9348 169.628 77.0349 166.738 76.5399C162.857 75.8752 160.076 72.5419 156.684 70.5409C152.317 67.964 142.235 66.9685 138.703 71.8099C135.263 76.5269 140.778 87.4826 143.712 91.3026Z" stroke="#0165FC" stroke-width="0.5" stroke-miterlimit="10"/>
<path d="M305.058 141.641C302.991 138.001 301.859 133.736 302.435 129.591C303.01 125.444 305.436 121.474 309.149 119.541C313.891 117.072 320.026 118.344 324.083 121.826C328.141 125.308 330.294 130.622 330.878 135.936C331.421 140.878 332.172 153.873 324.756 154.067C316.988 154.269 308.726 148.1 305.058 141.641Z" stroke="#0165FC" stroke-width="0.5" stroke-miterlimit="10"/>
<path d="M32.8202 160.222C35.3124 166.038 39.8055 170.974 45.3621 174.001C47.58 175.209 50.4732 176.068 52.4986 174.56C54.4483 173.107 54.5408 170.253 54.2833 167.835C53.5896 161.305 51.6865 154.906 48.7 149.058C46.8755 145.486 44.4583 141.948 40.8124 140.274C27.5166 134.167 30.079 153.825 32.8202 160.222Z" stroke="#0165FC" stroke-width="0.5" stroke-miterlimit="10"/>
<path d="M252.084 51.6419C253.731 51.4906 255.415 50.8091 256.36 49.453C259.976 44.2632 250.576 34.8469 245.169 37.1709C237.124 40.6296 245.407 52.2561 252.084 51.6419Z" stroke="#0165FC" stroke-width="0.5" stroke-miterlimit="10"/>
<path d="M26.5669 60.8512C28.7443 60.3553 30.2333 58.0404 30.1187 55.8095C29.9117 51.7603 24.4682 47.543 21.3824 51.622C18.6717 55.206 21.6865 61.9635 26.5669 60.8512Z" stroke="#0165FC" stroke-width="0.5" stroke-miterlimit="10"/>
<path d="M325.648 280.364C314.911 278.144 305.134 271.593 298.998 262.507C296.729 259.148 294.901 255.275 295.034 251.223C295.168 247.172 297.739 242.998 301.687 242.079C304.208 241.492 306.892 242.284 309.083 243.663C311.275 245.042 313.058 246.966 314.814 248.869C310.553 242.812 306.653 235.846 306.63 228.439C306.621 225.655 307.542 222.505 310.063 221.325C312.306 220.275 315.076 221.232 316.849 222.961C318.623 224.69 319.619 227.042 320.571 229.329C319.813 223.974 318.619 218.045 319.192 212.668C319.765 207.29 321.818 201.874 325.868 198.29C329.917 194.706 336.186 193.382 340.909 196.017C345.014 198.307 347.215 202.972 348.296 207.547C350.352 216.249 349.88 225.104 345.775 233.048C347.347 231.134 348.98 229.17 351.177 228.027C353.374 226.884 356.302 226.768 358.147 228.421C360.22 230.278 360.19 233.561 359.378 236.224C357.217 243.308 351.472 248.851 345.642 253.418C347.873 252.105 350.137 250.777 352.632 250.09C355.128 249.402 357.927 249.42 360.171 250.71C363.685 252.73 364.941 257.468 363.899 261.386C362.856 265.304 359.988 268.483 356.846 271.044C348.346 277.97 337.094 281.418 326.173 280.442" fill="#4EBC7F"/>
<path d="M327.103 276.876C325.168 269.709 326.429 262.063 328.482 254.929C330.534 247.795 333.372 240.861 334.652 233.549C336.384 223.644 335.188 213.488 333.988 203.505" stroke="white" stroke-width="0.7187" stroke-miterlimit="10" stroke-linecap="round" stroke-linejoin="round"/>
<path d="M313.037 228.21C314.721 238.131 320.634 247.261 328.996 252.857" stroke="white" stroke-width="0.7187" stroke-miterlimit="10" stroke-linecap="round" stroke-linejoin="round"/>
<path d="M355.59 231.873C350.148 238.477 341.329 242.139 332.809 241.331" stroke="white" stroke-width="0.7187" stroke-miterlimit="10" stroke-linecap="round" stroke-linejoin="round"/>
<path d="M304.133 251.594C309.084 259.625 317.069 265.735 326.115 268.412" stroke="white" stroke-width="0.7187" stroke-miterlimit="10" stroke-linecap="round" stroke-linejoin="round"/>
<path d="M353.945 260.128C346.669 267.153 336.456 271.034 326.352 270.615" stroke="white" stroke-width="0.7187" stroke-miterlimit="10" stroke-linecap="round" stroke-linejoin="round"/>
<path d="M22.8331 187.372C24.8967 180.299 27.6295 173.559 31.04 167.026C31.4709 176.318 36.5767 184.833 42.9271 191.629C49.2782 198.426 56.9114 203.873 63.8852 210.028C70.859 216.184 77.356 223.339 80.412 232.125C83.2052 240.156 82.8935 249.047 80.6366 257.245C78.3798 265.443 74.2679 273.019 69.577 280.111L68.1819 279.913C66.4087 274.998 63.3458 270.462 60.3517 266.11C53.9501 256.805 47.5394 247.487 40.386 238.747C32.9332 229.641 24.4062 220.652 21.6917 209.203C19.9918 202.033 20.7696 194.446 22.8331 187.372Z" fill="#4EBC7F"/>
<path d="M69.0545 274.405C70.7445 262.219 71.711 249.173 66.1391 238.204C62.9089 231.844 57.7214 226.716 52.4123 221.952C47.1041 217.188 41.5353 212.614 37.2187 206.936C32.9021 201.257 29.8881 194.215 30.5871 187.117" stroke="white" stroke-width="0.9029" stroke-miterlimit="10" stroke-linecap="round" stroke-linejoin="round"/>
<path d="M68.3828 242.736C71.0362 236.253 72.8247 229.417 73.685 222.466" stroke="white" stroke-width="0.9029" stroke-miterlimit="10" stroke-linecap="round" stroke-linejoin="round"/>
<path d="M70.3327 259.812C63.9747 257.82 57.839 255.12 52.0762 251.777" stroke="white" stroke-width="0.9029" stroke-miterlimit="10" stroke-linecap="round" stroke-linejoin="round"/>
<path d="M60.704 230.176C53.0839 230.252 45.4523 229.003 38.2539 226.5" stroke="white" stroke-width="0.9029" stroke-miterlimit="10" stroke-linecap="round" stroke-linejoin="round"/>
<path d="M46.9805 216.778C48.8928 211.616 49.2702 205.896 48.0524 200.528" stroke="white" stroke-width="0.9029" stroke-miterlimit="10" stroke-linecap="round" stroke-linejoin="round"/>
<path d="M35.0576 204.015C30.8716 202.614 26.895 200.59 23.2988 198.03" stroke="white" stroke-width="0.9029" stroke-miterlimit="10" stroke-linecap="round" stroke-linejoin="round"/>
<path d="M70.7925 312.298C79.8108 306.062 86.2543 296.214 88.3569 285.453C89.1339 281.474 89.305 277.196 87.6005 273.518C85.896 269.84 81.8995 267.002 77.9061 267.697C75.3559 268.141 73.1938 269.918 71.7147 272.043C70.2363 274.168 69.3455 276.636 68.4715 279.072C70.0308 271.832 70.9002 263.896 68.0299 257.069C66.9511 254.503 64.8738 251.961 62.0921 251.859C59.6175 251.769 57.4401 253.731 56.4828 256.015C55.5255 258.298 55.5263 260.854 55.5423 263.33C54.1495 258.105 52.934 252.18 50.3074 247.453C47.6807 242.726 43.6751 238.541 38.5471 236.822C33.4199 235.103 27.1314 236.332 23.8126 240.602C20.9278 244.313 20.7215 249.467 21.513 254.102C23.0173 262.916 26.9091 270.885 33.7905 276.595C31.5963 275.446 29.3256 274.276 26.8564 274.081C24.3879 273.886 21.6467 274.924 20.5939 277.165C19.4105 279.684 20.7192 282.695 22.5069 284.829C27.2628 290.506 34.7157 293.368 41.8659 295.297C39.2997 294.958 36.6975 294.62 34.1312 294.961C31.5649 295.303 28.9956 296.411 27.4332 298.476C24.9861 301.707 25.6798 306.56 28.1689 309.76C30.6581 312.96 34.5407 314.767 38.4333 315.898C48.9627 318.956 60.668 317.738 70.341 312.575" fill="#6EEBA9"/>
<path d="M68.091 309.655C67.0741 302.301 62.9279 295.755 58.253 289.989C53.578 284.223 48.2583 278.946 44.2259 272.715C38.7633 264.272 35.8998 254.455 33.1074 244.795" stroke="white" stroke-width="0.7187" stroke-miterlimit="10" stroke-linecap="round" stroke-linejoin="round"/>
<path d="M62.0418 259.359C64.3644 269.15 62.4864 279.864 56.9727 288.281" stroke="white" stroke-width="0.7187" stroke-miterlimit="10" stroke-linecap="round" stroke-linejoin="round"/>
<path d="M24.2969 279.345C31.8849 283.301 41.4342 283.229 48.9626 279.159" stroke="white" stroke-width="0.7187" stroke-miterlimit="10" stroke-linecap="round" stroke-linejoin="round"/>
<path d="M79.3671 277.412C77.9445 286.739 72.9785 295.48 65.6953 301.478" stroke="white" stroke-width="0.7187" stroke-miterlimit="10" stroke-linecap="round" stroke-linejoin="round"/>
<path d="M36.8418 304.715C46.2825 308.342 57.2009 307.928 66.3398 303.597" stroke="white" stroke-width="0.7187" stroke-miterlimit="10" stroke-linecap="round" stroke-linejoin="round"/>
<path d="M369.151 250.94C367.413 243.779 364.989 236.922 361.88 230.241C361.026 239.504 355.538 247.777 348.884 254.277C342.23 260.778 334.357 265.87 327.109 271.702C319.862 277.534 313.046 284.386 309.592 293.024C306.436 300.919 306.342 309.815 308.223 318.107C310.104 326.398 313.867 334.154 318.23 341.452L319.633 341.318C321.628 336.489 324.894 332.097 328.084 327.885C334.903 318.881 341.731 309.865 349.275 301.461C357.135 292.704 366.063 284.113 369.297 272.799C371.322 265.715 370.89 258.101 369.151 250.94Z" fill="#6EEBA9"/>
<path d="M319.015 335.777C317.882 323.526 317.51 310.45 323.576 299.746C327.093 293.54 332.509 288.654 338.029 284.137C343.549 279.619 349.321 275.304 353.891 269.829C358.462 264.352 361.794 257.456 361.418 250.332" stroke="white" stroke-width="0.9029" stroke-miterlimit="10" stroke-linecap="round" stroke-linejoin="round"/>
<path d="M321.127 304.171C318.772 297.575 317.296 290.664 316.754 283.681" stroke="white" stroke-width="0.9029" stroke-miterlimit="10" stroke-linecap="round" stroke-linejoin="round"/>
<path d="M318.4 321.141C324.842 319.441 331.094 317.023 337.004 313.946" stroke="white" stroke-width="0.9029" stroke-miterlimit="10" stroke-linecap="round" stroke-linejoin="round"/>
<path d="M329.369 291.974C336.978 292.398 344.659 291.498 351.964 289.326" stroke="white" stroke-width="0.9029" stroke-miterlimit="10" stroke-linecap="round" stroke-linejoin="round"/>
<path d="M343.689 279.216C342.014 273.972 341.898 268.242 343.359 262.934" stroke="white" stroke-width="0.9029" stroke-miterlimit="10" stroke-linecap="round" stroke-linejoin="round"/>
<path d="M356.182 267.009C360.427 265.8 364.492 263.96 368.201 261.567" stroke="white" stroke-width="0.9029" stroke-miterlimit="10" stroke-linecap="round" stroke-linejoin="round"/>
<path d="M58.9554 91.8521C57.8972 93.8049 56.9835 95.8959 56.8246 98.1115C56.6656 100.327 57.3701 102.7 59.0829 104.114C61.3322 105.972 64.8007 105.71 67.2723 104.161C69.7438 102.612 71.3841 100.037 72.6646 97.4155C74.1467 94.3809 75.269 91.1133 75.4165 87.7395C75.596 83.6231 73.9045 76.1932 68.6834 79.91C64.6311 82.7926 61.2886 87.5447 58.9554 91.8521Z" fill="white"/>
<path d="M250.556 175.46C251.527 176.816 252.697 178.068 254.162 178.866C255.626 179.664 257.42 179.962 258.988 179.396C260.594 178.817 261.795 177.396 262.432 175.812C263.069 174.229 263.204 172.488 263.189 170.781C263.151 166.615 262.186 162.311 259.589 159.053C257.883 156.913 255.385 155.315 252.68 154.818C249.204 154.18 248.475 155.443 247.62 158.579C246.07 164.263 247.113 170.655 250.556 175.46Z" fill="white"/>
<path d="M257.411 170.228C257.411 170.228 250.082 171.788 245.796 175.588C241.509 179.387 222.902 191.175 222.902 191.175L225.533 216.114L250.569 203.97L257.411 170.228Z" fill="#2A9AD7"/>
<path d="M299.222 145.713C304.188 141.883 307.972 136.537 309.915 130.574C310.355 129.223 310.705 127.775 310.378 126.393C310.051 125.011 308.851 123.742 307.431 123.787C308.532 121.529 309.643 119.247 310.201 116.798C310.759 114.35 310.724 111.683 309.599 109.437C308.474 107.192 306.114 105.479 303.604 105.584C304.517 101.981 302.579 98.0046 299.727 95.6202C296.876 93.2358 293.205 92.0852 289.581 91.257C287.553 90.794 285.387 90.4212 283.43 91.1287C281.474 91.8361 279.898 94.0059 280.566 95.9762C276.098 92.9959 270.217 92.2471 265.145 94.0128C262.877 94.802 260.672 96.1764 259.61 98.3301C258.548 100.484 259.036 103.496 261.119 104.69C259.293 105.216 257.853 106.71 257.037 108.427C256.221 110.145 255.962 112.074 255.884 113.973C255.748 117.334 256.192 120.83 257.942 123.703C259.693 126.574 262.958 128.685 266.305 128.347C272.53 127.717 277.733 132.359 282.965 135.791C288.198 139.222 293.475 143.236 299.222 145.713Z" fill="#320A0A"/>
<path d="M249.537 274.78H283.206H316.875C321.904 291.671 323.063 309.453 323.252 327.771H283.206H243.16C243.349 309.453 244.508 291.672 249.537 274.78Z" fill="#15113B"/>
<path d="M369.549 309.3H12.7246V371.214H369.549V309.3Z" fill="white"/>
<path d="M65.4141 309.3C65.4141 316.642 105.204 322.593 154.287 322.593C203.37 322.593 243.16 316.642 243.16 309.3H65.4141Z" fill="#D1DCE6"/>
<path d="M82.7263 261.422H47.457V132.275C47.457 122.535 55.3522 114.64 65.0917 114.64C74.8311 114.64 82.7263 122.535 82.7263 132.275V261.422Z" fill="#AABDCF"/>
<path d="M223.988 310.433H80.5849C75.7733 310.433 71.873 306.533 71.873 301.722V142.22C71.873 137.408 75.7733 133.508 80.5849 133.508H223.989C228.8 133.508 232.7 137.408 232.7 142.22V301.722C232.7 306.532 228.799 310.433 223.988 310.433Z" fill="#15113B"/>
<path d="M227.665 310.433H84.2627C79.451 310.433 75.5508 306.533 75.5508 301.722V142.22C75.5508 137.408 79.451 133.508 84.2627 133.508H227.666C232.478 133.508 236.378 137.408 236.378 142.22V301.722C236.378 306.532 232.477 310.433 227.665 310.433Z" fill="#271F6C"/>
<path d="M229.037 125.85V134.936C229.037 137.357 227.074 139.319 224.654 139.319H89.7706C85.8796 139.319 82.7258 136.164 82.7258 132.274C82.7258 127.407 80.7546 122.997 77.5634 119.806C74.3722 116.609 69.9677 114.638 65.0957 114.638H217.825C224.017 114.638 229.037 119.658 229.037 125.85Z" fill="white"/>
<path d="M227.359 147.402V299.735C227.359 302.067 225.464 303.956 223.138 303.956H85.434C83.1015 303.956 81.2129 302.067 81.2129 299.735V147.402C81.2129 145.075 83.1015 143.181 85.434 143.181H223.138C225.464 143.181 227.359 145.075 227.359 147.402Z" fill="#ABABAB"/>
<path d="M227.359 147.402V170.917H81.2129V147.402C81.2129 145.075 83.1015 143.181 85.434 143.181H223.138C225.464 143.181 227.359 145.075 227.359 147.402Z" fill="#BF9930"/>
<path d="M231.676 147.402V299.735C231.676 302.067 229.781 303.956 227.455 303.956H89.7504C87.4179 303.956 85.5293 302.067 85.5293 299.735V147.402C85.5293 145.075 87.4179 143.181 89.7504 143.181H227.455C229.782 143.181 231.676 145.075 231.676 147.402Z" fill="white"/>
<path d="M231.678 147.402V170.917H85.5312V147.402C85.5312 145.075 87.4199 143.181 89.7523 143.181H227.456C229.784 143.181 231.678 145.075 231.678 147.402Z" fill="#FFCC3F"/>
<path d="M97.8115 160.364C97.2958 160.228 96.8771 160.048 96.5547 159.823L97.1827 158.412C97.4852 158.611 97.8367 158.772 98.2363 158.894C98.6358 159.017 99.0285 159.078 99.4159 159.078C100.15 159.078 100.518 158.894 100.518 158.527C100.518 158.334 100.413 158.19 100.204 158.097C99.9942 158.004 99.6581 157.905 99.1936 157.802C98.684 157.693 98.2592 157.574 97.9177 157.449C97.5762 157.324 97.2828 157.122 97.0383 156.845C96.7938 156.568 96.6708 156.194 96.6708 155.723C96.6708 155.31 96.7839 154.938 97.0093 154.607C97.2346 154.274 97.5716 154.012 98.0193 153.819C98.467 153.626 99.0163 153.529 99.6672 153.529C100.112 153.529 100.55 153.578 100.981 153.679C101.413 153.779 101.793 153.925 102.122 154.119L101.532 155.54C100.888 155.191 100.262 155.018 99.6573 155.018C99.2768 155.018 99.0003 155.074 98.8261 155.187C98.6519 155.3 98.5648 155.446 98.5648 155.627C98.5648 155.807 98.6679 155.942 98.8742 156.032C99.0805 156.123 99.4121 156.216 99.8697 156.313C100.385 156.423 100.812 156.54 101.15 156.666C101.489 156.791 101.782 156.991 102.03 157.265C102.277 157.539 102.402 157.911 102.402 158.381C102.402 158.787 102.289 159.154 102.063 159.483C101.838 159.811 101.499 160.074 101.049 160.27C100.598 160.467 100.049 160.565 99.4052 160.565C98.8581 160.567 98.3264 160.499 97.8115 160.364Z" fill="#0165FC"/>
<path d="M121.867 160.432L121.848 156.846L120.108 159.765H119.258L117.528 156.943V160.432H115.76V153.667H117.335L119.713 157.571L122.032 153.667H123.608L123.627 160.432H121.867Z" fill="white"/>
<path d="M138.896 155.184H136.818V153.667H142.878V155.184H140.81V160.432H138.896V155.184Z" fill="white"/>
<path d="M166.681 153.666L164.487 160.431H162.438L161.143 156.314L159.79 160.431H157.741L155.547 153.666H157.519L158.882 157.986L160.312 153.666H162.071L163.434 158.024L164.855 153.666H166.681Z" fill="white"/>
<path d="M181.431 155.184H179.354V153.667H185.414V155.184H183.345V160.432H181.432L181.431 155.184Z" fill="white"/>
<path d="M200.519 155.145V156.633H203.505V158.112H200.519V160.432H198.605V153.667H203.911V155.146L200.519 155.145Z" fill="white"/>
<path d="M218.07 160.364C217.556 160.228 217.136 160.048 216.814 159.823L217.442 158.412C217.745 158.611 218.096 158.772 218.496 158.894C218.896 159.017 219.288 159.078 219.676 159.078C220.41 159.078 220.777 158.894 220.777 158.527C220.777 158.334 220.673 158.19 220.463 158.097C220.254 158.004 219.917 157.905 219.453 157.802C218.944 157.693 218.518 157.574 218.177 157.449C217.836 157.324 217.543 157.122 217.298 156.845C217.053 156.568 216.931 156.194 216.931 155.723C216.931 155.31 217.044 154.938 217.269 154.607C217.494 154.274 217.831 154.012 218.279 153.819C218.727 153.626 219.276 153.529 219.927 153.529C220.372 153.529 220.81 153.578 221.241 153.679C221.673 153.779 222.053 153.925 222.382 154.119L221.792 155.54C221.147 155.191 220.523 155.018 219.917 155.018C219.537 155.018 219.26 155.074 219.086 155.187C218.912 155.3 218.825 155.446 218.825 155.627C218.825 155.807 218.928 155.942 219.134 156.032C219.34 156.123 219.672 156.216 220.129 156.313C220.645 156.423 221.071 156.54 221.41 156.666C221.748 156.791 222.042 156.991 222.289 157.265C222.538 157.539 222.661 157.911 222.661 158.381C222.661 158.787 222.548 159.154 222.324 159.483C222.098 159.811 221.76 160.074 221.308 160.27C220.858 160.467 220.309 160.565 219.665 160.565C219.118 160.567 218.587 160.499 218.07 160.364Z" fill="#0165FC"/>
<path d="M144.463 191.497H135.235C133.62 191.497 132.312 190.188 132.312 188.574V179.346C132.312 177.732 133.621 176.423 135.235 176.423H144.463C146.077 176.423 147.386 177.732 147.386 179.346V188.574C147.386 190.188 146.077 191.497 144.463 191.497Z" stroke="#0165FC" stroke-width="0.8575" stroke-miterlimit="10"/>
<path d="M165.731 191.497H156.503C154.889 191.497 153.58 190.188 153.58 188.574V179.346C153.58 177.732 154.889 176.423 156.503 176.423H165.731C167.346 176.423 168.654 177.732 168.654 179.346V188.574C168.655 190.188 167.346 191.497 165.731 191.497Z" stroke="#0165FC" stroke-width="0.8575" stroke-miterlimit="10"/>
<path d="M186.998 191.497H177.77C176.156 191.497 174.848 190.188 174.848 188.574V179.346C174.848 177.732 176.156 176.423 177.77 176.423H186.998C188.613 176.423 189.921 177.732 189.921 179.346V188.574C189.921 190.188 188.613 191.497 186.998 191.497Z" stroke="#0165FC" stroke-width="0.8575" stroke-miterlimit="10"/>
<path d="M205.873 191.497H196.645C195.031 191.497 193.723 190.188 193.723 188.574V179.346C193.723 177.732 195.031 176.423 196.645 176.423H205.873C207.488 176.423 208.796 177.732 208.796 179.346V188.574C208.796 190.188 207.488 191.497 205.873 191.497Z" stroke="#0165FC" stroke-width="0.8575" stroke-miterlimit="10"/>
<path d="M224.353 191.497H215.124C213.51 191.497 212.201 190.188 212.201 188.574V179.346C212.201 177.732 213.51 176.423 215.124 176.423H224.353C225.967 176.423 227.276 177.732 227.276 179.346V188.574C227.276 190.188 225.967 191.497 224.353 191.497Z" stroke="#0165FC" stroke-width="0.8575" stroke-miterlimit="10"/>
<path d="M104.064 212.163H94.8352C93.2208 212.163 91.9121 210.854 91.9121 209.24V200.011C91.9121 198.397 93.2208 197.089 94.8352 197.089H104.064C105.678 197.089 106.987 198.398 106.987 200.011V209.24C106.987 210.854 105.678 212.163 104.064 212.163Z" stroke="#0165FC" stroke-width="0.8575" stroke-miterlimit="10"/>
<path d="M124.306 212.163H115.077C113.463 212.163 112.154 210.854 112.154 209.24V200.011C112.154 198.397 113.463 197.089 115.077 197.089H124.306C125.92 197.089 127.229 198.398 127.229 200.011V209.24C127.229 210.854 125.92 212.163 124.306 212.163Z" stroke="#0165FC" stroke-width="0.8575" stroke-miterlimit="10"/>
<path d="M144.463 212.163H135.235C133.62 212.163 132.312 210.854 132.312 209.24V200.011C132.312 198.397 133.621 197.089 135.235 197.089H144.463C146.077 197.089 147.386 198.398 147.386 200.011V209.24C147.386 210.854 146.077 212.163 144.463 212.163Z" stroke="#0165FC" stroke-width="0.8575" stroke-miterlimit="10"/>
<path d="M165.73 212.163H156.501C154.887 212.163 153.578 210.854 153.578 209.24V200.011C153.578 198.397 154.887 197.089 156.501 197.089H165.73C167.344 197.089 168.652 198.398 168.652 200.011V209.24C168.653 210.854 167.344 212.163 165.73 212.163Z" stroke="#0165FC" stroke-width="0.8575" stroke-miterlimit="10"/>
<path d="M186.996 212.163H177.768C176.154 212.163 174.846 210.854 174.846 209.24V200.011C174.846 198.397 176.154 197.089 177.768 197.089H186.996C188.611 197.089 189.919 198.398 189.919 200.011V209.24C189.919 210.854 188.611 212.163 186.996 212.163Z" stroke="#0165FC" stroke-width="0.8575" stroke-miterlimit="10"/>
<path d="M205.873 212.163H196.645C195.031 212.163 193.723 210.854 193.723 209.24V200.011C193.723 198.397 195.031 197.089 196.645 197.089H205.873C207.488 197.089 208.796 198.398 208.796 200.011V209.24C208.796 210.854 207.488 212.163 205.873 212.163Z" stroke="#0165FC" stroke-width="0.8575" stroke-miterlimit="10"/>
<path d="M224.351 212.163H215.122C213.508 212.163 212.199 210.854 212.199 209.24V200.011C212.199 198.397 213.508 197.089 215.122 197.089H224.351C225.965 197.089 227.274 198.398 227.274 200.011V209.24C227.274 210.854 225.965 212.163 224.351 212.163Z" stroke="#0165FC" stroke-width="0.8575" stroke-miterlimit="10"/>
<path d="M104.064 232.829H94.8352C93.2208 232.829 91.9121 231.52 91.9121 229.907V220.678C91.9121 219.064 93.2208 217.755 94.8352 217.755H104.064C105.678 217.755 106.987 219.064 106.987 220.678V229.907C106.987 231.52 105.678 232.829 104.064 232.829Z" stroke="#0165FC" stroke-width="0.8575" stroke-miterlimit="10"/>
<path d="M124.306 232.829H115.077C113.463 232.829 112.154 231.52 112.154 229.907V220.678C112.154 219.064 113.463 217.755 115.077 217.755H124.306C125.92 217.755 127.229 219.064 127.229 220.678V229.907C127.229 231.52 125.92 232.829 124.306 232.829Z" stroke="#0165FC" stroke-width="0.8575" stroke-miterlimit="10"/>
<path d="M144.463 232.829H135.235C133.62 232.829 132.312 231.52 132.312 229.907V220.678C132.312 219.064 133.621 217.755 135.235 217.755H144.463C146.077 217.755 147.386 219.064 147.386 220.678V229.907C147.386 231.52 146.077 232.829 144.463 232.829Z" stroke="#0165FC" stroke-width="0.8575" stroke-miterlimit="10"/>
<path d="M165.73 232.829H156.501C154.887 232.829 153.578 231.52 153.578 229.907V220.678C153.578 219.064 154.887 217.755 156.501 217.755H165.73C167.344 217.755 168.652 219.064 168.652 220.678V229.907C168.653 231.52 167.344 232.829 165.73 232.829Z" stroke="#0165FC" stroke-width="0.8575" stroke-miterlimit="10"/>
<path d="M186.996 232.829H177.768C176.154 232.829 174.846 231.52 174.846 229.907V220.678C174.846 219.064 176.154 217.755 177.768 217.755H186.996C188.611 217.755 189.919 219.064 189.919 220.678V229.907C189.919 231.52 188.611 232.829 186.996 232.829Z" fill="#0165FC"/>
<path d="M205.873 232.829H196.645C195.031 232.829 193.723 231.52 193.723 229.907V220.678C193.723 219.064 195.031 217.755 196.645 217.755H205.873C207.488 217.755 208.796 219.064 208.796 220.678V229.907C208.796 231.52 207.488 232.829 205.873 232.829Z" stroke="#0165FC" stroke-width="0.8575" stroke-miterlimit="10"/>
<path d="M224.351 232.829H215.122C213.508 232.829 212.199 231.52 212.199 229.907V220.678C212.199 219.064 213.508 217.755 215.122 217.755H224.351C225.965 217.755 227.274 219.064 227.274 220.678V229.907C227.274 231.52 225.965 232.829 224.351 232.829Z" stroke="#0165FC" stroke-width="0.8575" stroke-miterlimit="10"/>
<path d="M104.064 253.495H94.8352C93.2208 253.495 91.9121 252.187 91.9121 250.572V241.344C91.9121 239.73 93.2208 238.421 94.8352 238.421H104.064C105.678 238.421 106.987 239.73 106.987 241.344V250.572C106.987 252.187 105.678 253.495 104.064 253.495Z" stroke="#0165FC" stroke-width="0.8575" stroke-miterlimit="10"/>
<path d="M124.306 253.495H115.077C113.463 253.495 112.154 252.187 112.154 250.572V241.344C112.154 239.73 113.463 238.421 115.077 238.421H124.306C125.92 238.421 127.229 239.73 127.229 241.344V250.572C127.229 252.187 125.92 253.495 124.306 253.495Z" stroke="#0165FC" stroke-width="0.8575" stroke-miterlimit="10"/>
<path d="M144.463 253.495H135.235C133.62 253.495 132.312 252.187 132.312 250.572V241.344C132.312 239.73 133.621 238.421 135.235 238.421H144.463C146.077 238.421 147.386 239.73 147.386 241.344V250.572C147.386 252.187 146.077 253.495 144.463 253.495Z" stroke="#0165FC" stroke-width="0.8575" stroke-miterlimit="10"/>
<path d="M165.73 253.495H156.501C154.887 253.495 153.578 252.187 153.578 250.572V241.344C153.578 239.73 154.887 238.421 156.501 238.421H165.73C167.344 238.421 168.652 239.73 168.652 241.344V250.572C168.653 252.187 167.344 253.495 165.73 253.495Z" stroke="#0165FC" stroke-width="0.8575" stroke-miterlimit="10"/>
<path d="M186.996 253.495H177.768C176.154 253.495 174.846 252.187 174.846 250.572V241.344C174.846 239.73 176.154 238.421 177.768 238.421H186.996C188.611 238.421 189.919 239.73 189.919 241.344V250.572C189.919 252.187 188.611 253.495 186.996 253.495Z" stroke="#0165FC" stroke-width="0.8575" stroke-miterlimit="10"/>
<path d="M205.873 253.495H196.645C195.031 253.495 193.723 252.187 193.723 250.572V241.344C193.723 239.73 195.031 238.421 196.645 238.421H205.873C207.488 238.421 208.796 239.73 208.796 241.344V250.572C208.796 252.187 207.488 253.495 205.873 253.495Z" stroke="#0165FC" stroke-width="0.8575" stroke-miterlimit="10"/>
<path d="M224.351 253.495H215.122C213.508 253.495 212.199 252.187 212.199 250.572V241.344C212.199 239.73 213.508 238.421 215.122 238.421H224.351C225.965 238.421 227.274 239.73 227.274 241.344V250.572C227.274 252.187 225.965 253.495 224.351 253.495Z" stroke="#0165FC" stroke-width="0.8575" stroke-miterlimit="10"/>
<path d="M104.064 274.162H94.8352C93.2208 274.162 91.9121 272.854 91.9121 271.239V262.011C91.9121 260.397 93.2208 259.088 94.8352 259.088H104.064C105.678 259.088 106.987 260.397 106.987 262.011V271.239C106.987 272.854 105.678 274.162 104.064 274.162Z" stroke="#0165FC" stroke-width="0.8575" stroke-miterlimit="10"/>
<path d="M124.306 274.162H115.077C113.463 274.162 112.154 272.854 112.154 271.239V262.011C112.154 260.397 113.463 259.088 115.077 259.088H124.306C125.92 259.088 127.229 260.397 127.229 262.011V271.239C127.229 272.854 125.92 274.162 124.306 274.162Z" stroke="#0165FC" stroke-width="0.8575" stroke-miterlimit="10"/>
<path d="M144.463 274.162H135.235C133.62 274.162 132.312 272.854 132.312 271.239V262.011C132.312 260.397 133.621 259.088 135.235 259.088H144.463C146.077 259.088 147.386 260.397 147.386 262.011V271.239C147.386 272.854 146.077 274.162 144.463 274.162Z" stroke="#0165FC" stroke-width="0.8575" stroke-miterlimit="10"/>
<path d="M165.73 274.162H156.501C154.887 274.162 153.578 272.854 153.578 271.239V262.011C153.578 260.397 154.887 259.088 156.501 259.088H165.73C167.344 259.088 168.652 260.397 168.652 262.011V271.239C168.653 272.854 167.344 274.162 165.73 274.162Z" stroke="#0165FC" stroke-width="0.8575" stroke-miterlimit="10"/>
<path d="M186.996 274.162H177.768C176.154 274.162 174.846 272.854 174.846 271.239V262.011C174.846 260.397 176.154 259.088 177.768 259.088H186.996C188.611 259.088 189.919 260.397 189.919 262.011V271.239C189.919 272.854 188.611 274.162 186.996 274.162Z" stroke="#0165FC" stroke-width="0.8575" stroke-miterlimit="10"/>
<path d="M224.686 300.244H92.2378C90.4501 300.244 89 298.795 89 297.007V281.125H227.923V297.007C227.923 298.795 226.473 300.244 224.686 300.244Z" fill="#FFCC3F"/>
<path d="M128.824 296.42C128.214 296.162 127.714 295.792 127.326 295.307L128.897 293.445C129.439 294.152 130.026 294.506 130.656 294.506C131.074 294.506 131.391 294.381 131.609 294.128C131.828 293.876 131.936 293.507 131.936 293.022V288.644H128.416V286.419H134.787V292.847C134.787 294.166 134.455 295.155 133.791 295.815C133.127 296.474 132.15 296.803 130.86 296.803C130.114 296.805 129.435 296.676 128.824 296.42Z" fill="white"/>
<path d="M145.18 295.569C144.341 294.745 143.922 293.576 143.922 292.064V286.42H146.801V291.976C146.801 293.605 147.446 294.419 148.736 294.419C150.016 294.419 150.656 293.605 150.656 291.976V286.42H153.492V292.064C153.492 293.576 153.072 294.745 152.233 295.569C151.395 296.393 150.219 296.805 148.707 296.805C147.195 296.805 146.019 296.393 145.18 295.569Z" fill="white"/>
<path d="M172.4 286.42V296.601H170.029L165.534 291.176V296.601H162.713V286.42H165.084L169.578 291.845V286.42H172.4Z" fill="white"/>
<path d="M189.881 294.376V296.601H181.707V286.42H189.692V288.646H184.558V290.363H189.081V292.515H184.558V294.377H189.881V294.376Z" fill="white"/>
<path d="M109.67 148.375H109.078V164.321H109.67V148.375Z" fill="white"/>
<path d="M130.477 148.375H129.885V164.321H130.477V148.375Z" fill="white"/>
<path d="M150.297 148.375H149.705V164.321H150.297V148.375Z" fill="white"/>
<path d="M173.041 148.375H172.449V164.321H173.041V148.375Z" fill="white"/>
<path d="M192.6 148.375H192.008V164.321H192.6V148.375Z" fill="white"/>
<path d="M211.453 148.375H210.861V164.321H211.453V148.375Z" fill="white"/>
<path d="M273.108 172.699H293.307V150.738H273.108V172.699Z" fill="#F88D7D"/>
<path d="M273.109 156.382C278.371 158.3 283.207 158.056 283.207 158.056C283.207 158.056 288.033 158.3 293.305 156.382V151.203H273.109V156.382Z" fill="#F86A54"/>
<path d="M283.208 103.571C307.117 104.057 302.725 115.359 301.682 135.572C300.601 156.536 283.208 155.436 283.208 155.436C283.208 155.436 265.814 156.536 264.733 135.572C263.691 115.359 259.299 104.057 283.208 103.571Z" fill="#F88D7D"/>
<path d="M299.627 126.14C300.704 125.023 302.681 124.784 304.208 125.39C305.736 125.996 306.811 127.312 307.28 128.732C307.749 130.151 307.671 131.668 307.377 133.117C307.146 134.263 306.775 135.402 306.091 136.393C305.407 137.384 304.384 138.222 303.135 138.585C301.886 138.947 300.405 138.777 299.403 138.011C299.347 134.013 299.682 130.138 299.627 126.14Z" fill="#F88D7D"/>
<path d="M248.42 181.336C248.507 176.207 251.792 171.85 256.413 170.792C263.905 169.077 271.559 168.07 279.248 167.785V167.745C280.568 167.709 281.887 167.695 283.206 167.701C284.526 167.695 285.846 167.709 287.165 167.745V167.785C294.854 168.07 302.507 169.077 310 170.792C314.621 171.85 317.906 176.207 317.993 181.336L317.243 275.894H286.845H279.567H249.169L248.42 181.336Z" fill="#F88D7D"/>
<path d="M302.631 125.129C302.628 129.797 302.174 134.54 301.252 139.118C301.173 139.072 301.099 139.032 301.027 138.996C300.494 138.728 300.069 138.275 299.898 137.704C298.888 134.317 298.681 130.721 299.197 127.218C297.499 127.013 295.887 126.169 294.751 124.89C293.615 123.612 293.157 121.983 293.151 120.273C283.441 123.878 272.083 122.713 263.308 117.211C262.549 112.485 265.078 107.578 269.212 105.163C272.695 103.129 277.003 102.959 280.894 102.614C284.953 102.255 289.053 102.525 293.003 103.523C295.615 104.183 298.325 105.235 300.153 107.265C301.566 108.834 302.35 110.876 302.841 112.93C303.824 117.053 302.634 120.891 302.631 125.129Z" fill="#320A0A"/>
<path d="M266.924 117.709C266.42 120.692 263.944 123.24 260.978 123.83C260.071 122.386 259.522 120.65 259.93 118.994C260.21 117.856 260.827 116.78 261.759 116.069C262.691 115.357 263.95 115.044 265.078 115.363C266.207 115.683 267.12 116.553 266.924 117.709Z" fill="#320A0A"/>
<path d="M321.049 264.536C320.237 261.475 319.456 258.324 319.792 255.175C320.119 252.113 321.494 249.192 321.461 246.114C321.431 243.225 320.167 240.514 319.389 237.732C318.166 233.354 318.77 227.785 318.811 223.223C318.928 210.163 318.822 196.978 318.532 183.919C318.456 180.5 318.305 176.846 316.301 174.074C314.179 171.139 310.437 169.865 306.86 169.297C303.283 168.73 300.159 168.353 296.047 167.988C296.184 171.411 295.498 174.894 293.855 177.901C292.211 180.906 289.574 182.748 286.394 184.023C283.215 185.297 279.493 185.282 276.419 183.771C273.609 182.389 271.467 180.499 270.276 177.603C269.086 174.706 268.811 171.485 269.166 168.374C265.859 168.728 262.704 169.255 259.557 169.79C256.41 170.326 253.189 171.253 250.834 173.409C247.65 176.325 247.711 181.287 247.59 185.603C247.245 197.82 247.883 210.125 247.044 222.319C246.641 228.167 245.924 234.019 246.261 239.87C246.462 243.332 247.03 246.785 246.852 250.248C246.584 255.477 244.63 260.468 243.843 265.644C243.563 267.488 243.472 269.426 243.643 271.314C245.206 273.805 246.854 276.035 248.905 277.06C271.836 287.543 296.732 283.612 320.973 277.716C321.318 277.716 321.642 277.61 321.954 277.433C322.284 276.245 322.458 274.989 322.525 273.877C322.714 270.716 321.86 267.597 321.049 264.536Z" fill="#2A9AD7"/>
<path d="M248.906 277.061C246.856 276.036 245.206 273.806 243.645 271.315C243.954 274.727 245.13 277.975 247.665 280.196C255.069 286.684 265.975 285.755 275.82 285.748C290.017 285.738 304.214 284.462 318.186 281.939C320.206 281.575 321.349 279.622 321.956 277.433C321.644 277.61 321.32 277.716 320.975 277.716C296.733 283.612 271.838 287.544 248.906 277.061Z" fill="#2160A8"/>
<path d="M231.295 221.474L213.63 222.151C210.847 222.255 208.505 224.409 208.239 227.256C207.951 230.353 210.228 233.096 213.325 233.384L230.807 235.009C230.942 230.496 231.173 225.986 231.295 221.474Z" fill="#F88D7D"/>
<path d="M180.291 224.607C180.544 224.419 180.849 224.318 181.156 224.242C181.915 224.052 182.685 223.915 183.467 223.878C188.719 223.632 193.925 222.462 198.779 220.442C197.535 220.229 196.359 219.737 195.177 219.292C193.995 218.846 192.876 218.159 192.106 217.156C191.578 216.467 191.232 215.617 191.177 214.756C191.14 214.18 191.723 213.763 192.261 213.971C198.458 216.365 204.443 217.907 210.183 222.238L219.224 221.969L219.296 233.937L207.483 232.774C205.397 234.258 203.158 235.642 200.649 236.15C198.14 236.659 195.294 236.145 193.537 234.281C193.359 234.093 193.301 233.661 193.387 233.416C192.671 233.223 192.034 232.736 191.73 232.06C191.426 231.384 191.441 230.571 191.77 229.907C191.215 229.396 190.935 228.711 190.97 227.958C191.005 227.204 191.387 226.475 191.986 226.018C188.607 227.078 184.93 227.093 181.426 226.58C181.081 226.53 180.729 226.471 180.423 226.304C180.117 226.136 179.859 225.84 179.833 225.492C179.804 225.147 180.012 224.814 180.291 224.607Z" fill="#F88D7D"/>
<path d="M222.744 221.801L217.629 221.997L219.404 233.948L222.902 234.273L222.744 221.801Z" fill="#F86A54"/>
<path d="M225.236 220.926C223.993 220.959 222.747 220.996 221.505 221.022C220.998 225.833 221.114 230.709 221.85 235.49C222.893 236.383 224.268 236.713 225.673 236.845C224.734 231.658 224.726 226.077 225.236 220.926Z" fill="#2160A8"/>
<path d="M314.333 177.666L307.197 176.428L294.265 179.185C285.803 191.825 278.118 205.007 271.54 218.722C256.162 219.551 240.652 220.513 225.237 220.927C224.726 226.078 224.734 231.659 225.674 236.847C226.306 236.906 226.943 236.93 227.559 236.94C229.548 236.972 231.581 236.799 233.489 237.357C235.919 238.068 237.91 239.898 240.354 240.556C243.42 241.382 246.622 240.248 249.757 239.745C258.935 238.27 268.059 242.257 277.312 243.059C279.567 243.255 281.753 242.228 283.029 240.359C294.564 223.453 306.174 206.564 317.701 189.656L314.333 177.666Z" fill="#2A9AD7"/>
<path d="M315.013 193.171L283.029 240.358L305.408 217.319C311.682 210.86 315.136 202.175 315.013 193.171Z" fill="#2179A8"/>
<path d="M247.184 220.046C255.317 219.633 263.447 219.158 271.541 218.721C275.259 210.969 279.33 203.388 283.696 195.978" stroke="#1D6E99" stroke-width="0.8575" stroke-miterlimit="10"/>
<path d="M317.701 189.655C306.495 206.091 295.212 222.509 283.994 238.943C282.044 241.799 278.65 243.283 275.223 242.825C266.683 241.685 258.244 238.38 249.758 239.743C248.61 239.927 247.453 240.196 246.297 240.422" stroke="#1D6E99" stroke-width="0.8575" stroke-miterlimit="10"/>
<path d="M247.972 192.052L242.666 207.803L247.555 205.412L247.972 192.052Z" fill="#2179A8"/>
<path d="M273.803 183.258C288.227 189.491 299.04 178.742 298.216 168.144C297.519 168.091 296.804 168.039 296.049 167.988C296.186 170.606 295.5 173.269 293.857 175.568C292.213 177.866 289.585 179.778 286.405 180.752C283.226 181.727 279.504 181.715 276.43 180.56C273.62 179.504 271.468 177.554 270.277 175.34C269.087 173.126 268.812 170.663 269.167 168.284C268.524 168.365 267.384 168.573 266.736 168.667C266.689 174.376 267.084 180.455 273.803 183.258Z" fill="#2160A8"/>
<path d="M247.504 205.456L247.973 190.723" stroke="#1D6E99" stroke-width="0.8575" stroke-miterlimit="10"/>
<path d="M271.543 131.405C271.543 132.176 272.168 132.801 272.94 132.801C273.71 132.801 274.336 132.177 274.336 131.405C274.336 130.634 273.711 130.008 272.94 130.008C272.168 130.009 271.543 130.634 271.543 131.405Z" fill="#33090A"/>
<path d="M286.492 131.405C286.492 132.176 287.117 132.801 287.889 132.801C288.66 132.801 289.285 132.177 289.285 131.405C289.285 130.634 288.66 130.008 287.889 130.008C287.117 130.008 286.492 130.634 286.492 131.405Z" fill="#33090A"/>
<path d="M292.168 127.973C289.84 126.874 287.133 126.602 284.633 127.215" stroke="#33090A" stroke-width="1.8681" stroke-miterlimit="10" stroke-linecap="round"/>
<path d="M268.738 127.973C271.065 126.874 273.774 126.602 276.274 127.215" stroke="#33090A" stroke-width="1.8681" stroke-miterlimit="10" stroke-linecap="round"/>
<path d="M274.965 145.182H287.306C287.169 147.173 286.216 148.848 284.484 149.842C282.753 150.836 280.525 150.904 278.737 150.019C276.948 149.133 275.224 147.16 274.965 145.182Z" fill="white"/>
<path d="M288.078 141.842C288.646 143.003 290.645 143.191 292.543 142.262C294.44 141.333 295.518 139.638 294.949 138.478C294.381 137.317 292.382 137.129 290.484 138.058C288.587 138.987 287.509 140.681 288.078 141.842Z" fill="#FA7270"/>
<path d="M273.642 141.842C273.074 143.003 271.075 143.191 269.178 142.262C267.28 141.333 266.203 139.638 266.771 138.478C267.339 137.317 269.338 137.129 271.236 138.058C273.134 138.987 274.211 140.681 273.642 141.842Z" fill="#FA7270"/>
<path d="M280.171 130.857C279.963 132.158 279.333 133.347 278.738 134.521C278.142 135.695 277.56 136.918 277.462 138.232C277.363 139.545 277.849 140.983 278.974 141.666C279.922 142.242 281.107 142.188 282.214 142.116" stroke="#33090A" stroke-width="0.9341" stroke-miterlimit="10" stroke-linecap="round"/>
<path d="M272.176 136.623C269.172 136.623 266.738 134.189 266.738 131.186V127.208H277.613V131.186C277.612 134.188 275.178 136.623 272.176 136.623Z" stroke="#E8F4FF" stroke-width="0.9733" stroke-miterlimit="10" stroke-linecap="round" stroke-linejoin="round"/>
<path d="M288.402 136.623C285.399 136.623 282.965 134.189 282.965 131.186V127.208H293.84V131.186C293.84 134.188 291.405 136.623 288.402 136.623Z" stroke="#E8F4FF" stroke-width="0.9733" stroke-miterlimit="10" stroke-linecap="round" stroke-linejoin="round"/>
<path d="M277.613 128.418H282.965" stroke="#E8F4FF" stroke-width="0.9733" stroke-miterlimit="10" stroke-linecap="round" stroke-linejoin="round"/>
<path d="M277.613 129.832H282.965" stroke="#E8F4FF" stroke-width="0.9733" stroke-miterlimit="10" stroke-linecap="round" stroke-linejoin="round"/>
<path d="M293.84 128.954L302.377 125.665" stroke="#E8F4FF" stroke-width="0.9733" stroke-miterlimit="10" stroke-linecap="round" stroke-linejoin="round"/>
<path d="M266.739 128.801L264.111 126.655" stroke="#E8F4FF" stroke-width="0.9733" stroke-miterlimit="10" stroke-linecap="round" stroke-linejoin="round"/>
<path d="M318.401 285.52C295.788 290.701 272.129 292.64 248.787 286.056" stroke="white" stroke-width="0.9693" stroke-miterlimit="10"/>
<path d="M280.51 316.609C276.765 308.186 274.996 299.358 275.698 290.168" stroke="white" stroke-width="0.9693" stroke-miterlimit="10"/>
<path d="M278.514 311.652C279.867 311.86 281.241 311.044 281.964 309.88C282.687 308.716 282.841 307.276 282.698 305.913C282.554 304.551 282.137 303.236 281.787 301.912C280.73 297.917 280.259 294.375 280.432 290.248" stroke="white" stroke-width="0.9693" stroke-miterlimit="10"/>
<path d="M319.68 302.155C315.946 302.511 312.083 301.18 309.36 298.6C306.636 296.02 305.088 291.862 305.241 288.114" stroke="white" stroke-width="0.9693" stroke-miterlimit="10"/>
<path d="M246.85 300.967C250.584 301.322 254.447 299.992 257.17 297.412C259.606 295.105 261.093 291.833 261.271 288.487" stroke="white" stroke-width="0.9693" stroke-miterlimit="10"/>
<path d="M344.352 331.482C344.352 333.485 334.905 335.109 323.251 335.109C311.598 335.109 302.15 333.485 302.15 331.482C302.15 329.479 311.597 327.855 323.251 327.855C334.905 327.855 344.352 329.479 344.352 331.482Z" fill="#D1DCE6"/>
<path d="M335.681 281.653V294.664C335.681 296.602 334.894 298.358 333.628 299.63C332.357 300.895 330.601 301.682 328.662 301.682C327.426 301.682 326.422 302.685 326.422 303.922V307.891H320.082V303.922C320.082 303.301 319.831 302.742 319.426 302.337C319.022 301.932 318.463 301.682 317.841 301.682C316.542 301.682 315.321 301.328 314.278 300.712C313.32 300.148 312.511 299.361 311.912 298.426C311.456 297.702 311.125 296.892 310.954 296.026C310.868 295.586 310.822 295.13 310.822 294.663V281.652H335.681V281.653Z" fill="#9CDCFF"/>
<path d="M335.681 314.909V327.92H310.822V314.909C310.822 312.97 311.609 311.214 312.875 309.949C314.146 308.678 315.903 307.891 317.841 307.891C319.078 307.891 320.082 306.888 320.082 305.65V301.682H326.422V305.65C326.422 306.266 326.672 306.83 327.077 307.235C327.242 307.4 327.436 307.543 327.653 307.652C327.956 307.805 328.297 307.891 328.662 307.891C330.864 307.891 332.83 308.905 334.119 310.491C334.632 311.123 335.037 311.853 335.311 312.651C335.55 313.358 335.681 314.116 335.681 314.909Z" fill="#9CDCFF"/>
<path d="M337.033 327.917H309.47C308.323 327.917 307.393 328.846 307.393 329.994C307.393 331.141 308.322 332.071 309.47 332.071H337.033C338.18 332.071 339.11 331.141 339.11 329.994C339.11 328.846 338.18 327.917 337.033 327.917Z" fill="#271F6C"/>
<path d="M333.398 325.636H313.105C313.105 321.822 315.284 318.344 318.716 316.679L323.252 314.479L327.788 316.679C331.219 318.344 333.398 321.822 333.398 325.636Z" fill="white"/>
<path d="M333.397 293.746V294.573C333.397 297.183 331.324 299.427 328.714 299.398C326.197 299.37 324.141 301.41 324.141 303.92V305.611H322.361V303.92C322.361 301.43 320.349 299.387 317.859 299.397C315.239 299.408 313.105 297.28 313.105 294.663V293.745L319.568 291.486C321.953 290.652 324.55 290.652 326.935 291.486L333.397 293.746Z" fill="white"/>
<path d="M325.327 281.652L310.954 296.025C310.868 295.586 310.822 295.13 310.822 294.662V286.857L316.027 281.652H325.327Z" fill="#D6F1FF"/>
<path d="M333.338 281.652L314.278 300.712C313.32 300.147 312.511 299.36 311.912 298.426L328.686 281.652H333.338Z" fill="#D6F1FF"/>
<path d="M334.118 310.49L316.689 327.92H310.822V324.482L327.653 307.651C327.956 307.805 328.297 307.89 328.662 307.89C330.862 307.89 332.829 308.905 334.118 310.49Z" fill="#D6F1FF"/>
<path d="M335.679 314.909V316.933L324.693 327.919H320.041L335.31 312.65C335.549 313.358 335.679 314.117 335.679 314.909Z" fill="#D6F1FF"/>
<path d="M337.033 277.501H309.47C308.323 277.501 307.393 278.431 307.393 279.578C307.393 280.725 308.322 281.656 309.47 281.656H337.033C338.18 281.656 339.11 280.726 339.11 279.578C339.11 278.431 338.18 277.501 337.033 277.501Z" fill="#271F6C"/>
<path d="M247.544 97.2107L241.923 83.6818C243.499 81.2737 244.383 78.5997 244.383 75.7798C244.383 65.2496 232.139 56.7134 217.034 56.7134C201.93 56.7134 189.686 65.2496 189.686 75.7798C189.686 86.31 201.93 94.8461 217.034 94.8461C222.46 94.8461 227.513 93.7399 231.765 91.8398L244.409 99.8503C246.183 100.975 248.35 99.1498 247.544 97.2107Z" fill="#FFCC3F"/>
<path d="M211.995 88.026C211.147 88.026 210.299 87.702 209.651 87.0549L202.272 79.6754C200.977 78.3805 200.977 76.2817 202.272 74.9868C203.565 73.6926 205.666 73.6926 206.96 74.9868L211.995 80.0223L227.179 64.8393C228.473 63.5451 230.574 63.5451 231.867 64.8393C233.162 66.1335 233.162 68.233 231.867 69.528L214.34 87.0549C213.693 87.702 212.844 88.026 211.995 88.026Z" fill="white"/>
</g>
</g>
<defs>
<clipPath id="clip0_1_632">
<rect width="382" height="382" fill="white"/>
</clipPath>
</defs>
</svg>
