<svg width="750" height="500" viewBox="0 0 750 500" fill="none" xmlns="http://www.w3.org/2000/svg">
<g clip-path="url(#clip0_1_2)">
<path d="M82.832 371.368C68.486 371.473 55.958 379.444 54.186 388.38C52.411 397.315 60.291 406.4 72.215 411.406C83.186 416.011 96.71 417.426 108.79 420.768C120.869 424.111 132.569 430.788 131.899 439.06C131.254 447.038 119.268 453.712 120.626 461.654C121.685 467.818 130.515 472.28 139.395 474.996C175.575 486.062 218.859 479.438 256.407 470.346C293.957 461.253 332.007 449.654 372.168 451.315C390.255 452.063 407.736 455.501 425.35 458.193C540.641 475.801 464.638 437.309 563.383 452.39C622.374 461.401 685.141 395.544 684.073 382.699C681.305 349.418 561.586 367.328 430.593 364.76C313.183 362.458 195.331 370.543 82.832 371.368Z" fill="#E9F8FF"/>
<path d="M676.669 364.182H46.936V375.108H676.669V364.182Z" fill="#C6E5FA"/>
<path d="M462.691 46.643H357.777V85.112H462.691V46.643Z" fill="#D7F1FF"/>
<path d="M410.235 42.654H345.66V88.118H410.235V42.654Z" fill="#C6E5FA"/>
<path d="M460.193 61.333H351.781V68.327H460.193V61.333Z" fill="white"/>
<path d="M398.229 56.524H385.117V66.141H398.229V56.524Z" fill="#D7F1FF"/>
<path d="M428.247 187.27C423.133 187.27 418.113 183.803 415.424 178.396C413.386 174.299 412.584 169.302 412.901 162.668C413.444 151.331 416.63 140.28 419.711 129.593C421.126 124.685 422.59 119.61 423.771 114.587L425.855 115.077C424.661 120.152 423.19 125.253 421.767 130.186C418.719 140.755 415.57 151.684 415.039 162.77C414.74 169.023 415.472 173.686 417.341 177.442C419.251 181.283 423.355 185.128 428.245 185.128C428.289 185.128 428.332 185.127 428.376 185.127C433.857 185.052 438.133 180.201 439.783 175.726C441.687 170.566 441.389 164.743 440.784 159.218C439.585 148.291 437.254 137.458 433.853 127.019C433.405 125.641 432.935 124.255 432.465 122.865C429.361 113.694 426.151 104.212 427.963 94.625L430.066 95.022C428.359 104.058 431.476 113.27 434.493 122.178C434.967 123.576 435.438 124.97 435.889 126.356C439.334 136.934 441.697 147.912 442.911 158.985C443.545 164.77 443.848 170.891 441.791 176.467C439.831 181.778 434.933 187.177 428.404 187.267C428.352 187.269 428.3 187.27 428.247 187.27Z" fill="#C6E5FA"/>
<path d="M424.921 96.031C424.802 102.136 424.416 108.236 423.762 114.31C423.664 115.223 423.819 116.481 424.734 116.569C425.638 116.655 426.04 115.47 426.125 114.566C426.695 108.535 427.265 102.507 427.834 96.476C426.896 96.235 425.916 96.165 424.921 96.031Z" fill="#C6E5FA"/>
<path d="M424.455 49.52C425.158 63.273 424.899 77.076 423.681 90.792C423.533 92.469 423.393 94.265 424.216 95.733C425.041 97.198 427.246 97.993 428.445 96.812C429.175 96.093 429.267 94.965 429.312 93.942C429.944 79.76 430.251 65.565 430.229 51.369C430.229 50.992 430.211 50.574 429.948 50.305C429.709 50.062 429.339 50.017 429 49.99C427.602 49.88 426.196 49.848 424.455 49.52Z" fill="#E9F8FF"/>
<path d="M431.412 57.986H423.106V64.543H431.412V57.986Z" fill="#C6E5FA"/>
<path d="M422.678 35.589C422.678 35.589 422.434 34.831 421.551 41.05C420.667 47.269 420.784 48.838 422.757 50.575C424.734 52.313 429.223 52.233 430.984 50.916C432.471 49.805 433.944 47.375 432.981 43.098C431.887 38.23 430.804 35.669 430.804 35.669L422.678 35.589Z" fill="#C6E5FA"/>
<path d="M423.649 73.113C422.61 78.742 422.148 84.477 422.268 90.2C422.306 91.983 422.415 93.822 423.204 95.422C423.992 97.021 425.628 98.33 427.408 98.204C428.976 98.092 430.306 96.893 430.995 95.48C431.684 94.065 431.843 92.458 431.935 90.887C432.29 84.963 431.891 78.993 430.75 73.166C428.441 73.181 426.132 73.194 423.649 73.113Z" fill="#C6E5FA"/>
<path d="M702.508 251.452H496.324V375.162H702.508V251.452Z" fill="#D7F1FF"/>
<path d="M688.025 253.249H510.807V362.774H688.025V253.249Z" fill="#E9F8FF"/>
<path d="M596.251 264.654H518.556V305.882H596.251V264.654Z" fill="#D7F1FF"/>
<path d="M574.872 282.494H539.935V288.045H574.872V282.494Z" fill="#C6E5FA"/>
<path d="M680.276 264.654H602.581V305.882H680.276V264.654Z" fill="#D7F1FF"/>
<path d="M658.898 282.494H623.961V288.045H658.898V282.494Z" fill="#C6E5FA"/>
<path d="M596.251 312.703H518.556V353.932H596.251V312.703Z" fill="#D7F1FF"/>
<path d="M574.872 330.543H539.935V336.094H574.872V330.543Z" fill="#C6E5FA"/>
<path d="M680.276 312.703H602.581V353.932H680.276V312.703Z" fill="#D7F1FF"/>
<path d="M658.898 330.543H623.961V336.094H658.898V330.543Z" fill="#C6E5FA"/>
<path d="M489.451 247.138L495.465 243.129L701.667 242.557L709.38 247.138H489.451Z" fill="#D7F1FF"/>
<path d="M709.38 247.004H489.451V255.9H709.38V247.004Z" fill="#C6E5FA"/>
<path d="M686.246 237.685H589.322V246.74H686.246V237.685Z" fill="#E9F8FF"/>
<path d="M675.975 181.161H673.951H601.619H599.594H599.418V237.44H601.619V199.89H606.606V230.804C606.606 233.034 608.413 234.843 610.643 234.843C612.872 234.843 614.68 233.035 614.68 230.804V199.89H620.175V230.804C620.175 233.034 621.984 234.843 624.212 234.843C626.443 234.843 628.249 233.035 628.249 230.804V199.89H633.746V230.804C633.746 233.034 635.552 234.843 637.781 234.843C640.013 234.843 641.819 233.035 641.819 230.804V199.89H647.314V230.804C647.314 233.034 649.122 234.843 651.352 234.843C653.583 234.843 655.39 233.035 655.39 230.804V199.89H660.885V230.804C660.885 233.034 662.692 234.843 664.921 234.843C667.151 234.843 668.959 233.035 668.959 230.804V199.89H673.949V237.44H676.151V181.161H675.975ZM673.95 182.835V184.635H601.618V182.835H673.95ZM668.96 198.22V194.351H670.345V190.487H659.503V194.351H660.886V198.22H655.391V194.351H656.774V190.487H645.934V194.351H647.315V198.22H641.82V194.351H643.206V190.487H632.364H632.363V194.351H632.364H633.747V198.22H628.25V194.351H629.636V190.487H618.794V194.351H620.176V198.22H614.681V194.351H616.064V190.487H605.224V194.351H606.607V198.22H601.62V185.964H673.952V198.22H668.96Z" fill="#E9F8FF"/>
<path d="M253.678 268.503H47.494V392.213H253.678V268.503Z" fill="#D7F1FF"/>
<path d="M239.194 270.3H61.976V379.825H239.194V270.3Z" fill="#E9F8FF"/>
<path d="M147.42 281.705H69.725V322.933H147.42V281.705Z" fill="#D7F1FF"/>
<path d="M126.042 299.545H91.105V305.096H126.042V299.545Z" fill="#C6E5FA"/>
<path d="M231.446 281.705H153.751V322.933H231.446V281.705Z" fill="#D7F1FF"/>
<path d="M210.067 299.545H175.13V305.096H210.067V299.545Z" fill="#C6E5FA"/>
<path d="M147.42 329.754H69.725V370.983H147.42V329.754Z" fill="#D7F1FF"/>
<path d="M126.042 347.594H91.105V353.145H126.042V347.594Z" fill="#C6E5FA"/>
<path d="M231.446 329.754H153.751V370.983H231.446V329.754Z" fill="#D7F1FF"/>
<path d="M210.067 347.594H175.13V353.145H210.067V347.594Z" fill="#C6E5FA"/>
<path d="M40.621 264.189L46.634 260.18L252.836 259.607L260.549 264.189H40.621Z" fill="#D7F1FF"/>
<path d="M260.55 264.055H40.621V272.951H260.55V264.055Z" fill="#C6E5FA"/>
<path d="M137.545 254.735H40.621V263.79H137.545V254.735Z" fill="#E9F8FF"/>
<path d="M127.273 198.212H125.249H52.917H50.892H50.716V254.491H52.917V216.941H57.904V247.855C57.904 250.085 59.711 251.893 61.941 251.893C64.17 251.893 65.978 250.085 65.978 247.855V216.941H71.473V247.855C71.473 250.085 73.282 251.893 75.51 251.893C77.741 251.893 79.547 250.085 79.547 247.855V216.941H85.044V247.855C85.044 250.085 86.85 251.893 89.079 251.893C91.311 251.893 93.117 250.085 93.117 247.855V216.941H98.612V247.855C98.612 250.085 100.421 251.893 102.65 251.893C104.88 251.893 106.688 250.085 106.688 247.855V216.941H112.183V247.855C112.183 250.085 113.99 251.893 116.219 251.893C118.449 251.893 120.257 250.085 120.257 247.855V216.941H125.247V254.491H127.449V198.212H127.273ZM125.249 199.886V201.686H52.917V199.886H125.249ZM120.258 215.271V211.402H121.643V207.538H110.801V211.402H112.184V215.271H106.689V211.402H108.072V207.538H97.232V211.402H98.613V215.271H93.118V211.402H94.504V207.538H83.662L83.661 211.402H85.045V215.271H79.548V211.402H80.934V207.538H70.091V211.402H71.473V215.271H65.978V211.402H67.361V207.538H56.521V211.402H57.904V215.271H52.917V203.015H125.249V215.271H120.258Z" fill="#E9F8FF"/>
<path d="M147.42 34.868H48.983V180.768H147.42V34.868Z" fill="#E9F8FF"/>
<path d="M137.419 45.471H58.984V170.794H137.419V45.471Z" fill="#D7F1FF"/>
<path d="M147.42 88.848H48.983V98.077H147.42V88.848Z" fill="#E9F8FF"/>
<path d="M147.42 129.139H48.983V138.368H147.42V129.139Z" fill="#E9F8FF"/>
<path d="M73.438 50.669H63.438V88.222H73.438V50.669Z" fill="#C6E5FA"/>
<path d="M86.757 50.669H76.757V88.222H86.757V50.669Z" fill="#C6E5FA"/>
<path d="M112.699 98.077H102.699V129.862H112.699V98.077Z" fill="#C6E5FA"/>
<path d="M126.018 98.077H116.018V129.862H126.018V98.077Z" fill="#C6E5FA"/>
<path d="M75.098 139.165H65.098V170.95H75.098V139.165Z" fill="#C6E5FA"/>
<path d="M88.417 139.165H78.417V170.95H88.417V139.165Z" fill="#C6E5FA"/>
<path d="M71.359 107.818L106.025 152.708" stroke="white" stroke-miterlimit="10"/>
<path d="M76.757 78.129L128.025 144.04" stroke="white" stroke-miterlimit="10"/>
<path d="M88.724 52.39L139.992 118.301" stroke="white" stroke-miterlimit="10"/>
<path d="M259.541 34.868H161.104V180.768H259.541V34.868Z" fill="#E9F8FF"/>
<path d="M249.54 45.471H171.105V170.794H249.54V45.471Z" fill="#D7F1FF"/>
<path d="M259.541 88.848H161.104V98.077H259.541V88.848Z" fill="#E9F8FF"/>
<path d="M259.541 129.139H161.104V138.368H259.541V129.139Z" fill="#E9F8FF"/>
<path d="M183.509 137.815H173.509V169.6H183.509V137.815Z" fill="#C6E5FA"/>
<path d="M196.828 137.815H186.828V169.6H196.828V137.815Z" fill="#C6E5FA"/>
<path d="M212.852 137.815H202.852V169.6H212.852V137.815Z" fill="#C6E5FA"/>
<path d="M226.172 137.815H216.172V169.6H226.172V137.815Z" fill="#C6E5FA"/>
<path d="M185.169 57.204H175.169V88.989H185.169V57.204Z" fill="#C6E5FA"/>
<path d="M198.488 57.204H188.488V88.989H198.488V57.204Z" fill="#C6E5FA"/>
<path d="M183.48 107.818L218.146 152.708" stroke="white" stroke-miterlimit="10"/>
<path d="M188.878 78.129L240.146 144.04" stroke="white" stroke-miterlimit="10"/>
<path d="M200.845 52.39L252.113 118.301" stroke="white" stroke-miterlimit="10"/>
<path d="M495.68 141.532C501.738 156.487 507.908 171.632 517.621 184.515C523.004 191.651 530.158 198.374 539.04 199.363C548.402 200.405 557.51 194.578 562.793 186.783C568.078 178.989 570.198 169.511 571.676 160.21L558.962 154.119C557.177 159.852 555.394 165.585 553.608 171.318C552.948 173.431 552.261 175.602 550.868 177.322C547.653 181.295 541.427 181.669 536.827 179.447C532.223 177.224 528.931 173.016 526.062 168.786C519.798 159.549 514.722 149.506 511.001 138.982C506.019 139.908 501.037 140.833 495.68 141.532Z" fill="#F79A9A"/>
<path d="M563.966 436.457C561.685 440.891 557.785 444.466 553.173 446.361C551.393 447.095 549.492 447.593 547.868 448.631C547.425 448.917 546.993 449.254 546.738 449.719C546.246 450.625 546.588 451.814 547.306 452.556C548.02 453.299 549.032 453.682 550.029 453.946C552.306 454.552 554.703 454.685 557.031 454.325C561.626 453.624 565.778 451.086 570.364 450.34C571.401 450.169 572.494 450.076 573.376 449.512C574.232 448.96 574.772 448.031 575.149 447.085C576.452 443.797 576.1 440.118 575.734 436.602C571.848 435.6 567.677 435.718 563.966 436.457Z" fill="#94DCF8"/>
<path d="M552.61 456.46C553.09 456.494 553.563 456.188 554.034 456.297C554.321 456.364 554.57 456.53 554.83 456.668C556.061 457.318 557.622 457.292 558.833 456.601C559.756 456.068 560.657 455.14 561.687 455.394C561.965 455.465 562.214 455.614 562.484 455.703C563.407 456.015 564.422 455.577 565.185 454.97C565.949 454.363 566.572 453.586 567.385 453.048C568.198 452.511 569.316 452.252 570.128 452.788C570.435 452.99 570.67 453.285 570.965 453.505C572.149 454.378 573.957 453.693 574.762 452.456C574.89 452.261 575.029 452.032 575.259 451.985C575.46 451.939 575.658 452.054 575.851 452.131C576.897 452.546 578.216 451.602 578.164 450.474C578.671 450.789 579.379 450.409 579.617 449.862C579.855 449.312 579.765 448.683 579.668 448.092C579.263 445.628 578.653 442.885 576.56 441.531C576.4 441.425 576.222 441.328 576.032 441.319C575.498 441.297 575.531 443.683 571.26 447.401C570.298 448.24 568.959 448.496 567.771 448.957C565.605 449.793 563.331 453.276 556.361 453.809C553.85 454.001 548.91 454.096 546.575 450.832C546.516 450.746 544.479 455.891 552.61 456.46Z" fill="#36A9CE"/>
<path d="M554.851 445.828C555.786 447.096 556.723 448.366 557.844 449.463C558.168 449.779 558.524 450.088 558.962 450.184C559.401 450.282 559.936 450.086 560.068 449.657C560.208 449.214 559.886 448.77 559.588 448.419C558.786 447.468 557.981 446.52 557.177 445.568C556.86 445.193 556.526 444.81 556.08 444.606C555.633 444.406 555.033 444.449 554.733 444.832C554.432 445.218 554.668 445.934 554.851 445.828Z" fill="#D3405F"/>
<path d="M558.104 442.709C557.657 442.931 557.137 443.299 557.246 443.788C557.285 443.951 557.393 444.091 557.504 444.221C557.976 444.789 558.492 445.322 559.01 445.847L561.234 448.129C561.517 448.419 561.853 448.73 562.257 448.718C562.82 448.698 563.168 448.019 563.06 447.471C562.954 446.916 562.546 446.48 562.156 446.074C561.222 445.105 560.29 444.137 559.354 443.17C559.112 442.917 558.841 442.649 558.494 442.604C558.146 442.559 557.741 442.871 558.104 442.709Z" fill="#D3405F"/>
<path d="M560.763 440.866C560.242 441.258 560.053 442.029 560.333 442.618C560.457 442.879 560.656 443.096 560.855 443.306C561.77 444.259 562.752 445.147 563.798 445.959C564.174 446.251 564.645 446.551 565.097 446.396C565.551 446.243 565.754 445.67 565.653 445.2C565.552 444.728 565.234 444.338 564.927 443.967C563.995 442.844 563.019 441.685 561.698 441.059C561.462 440.945 561.203 440.849 560.939 440.881C560.682 440.911 560.421 441.106 560.763 440.866Z" fill="#D3405F"/>
<path d="M565.883 244.356C547.043 305.506 563.899 372.707 559.429 436.617C568.913 439.944 570.441 439.569 580.433 438.471C586.751 373.711 593.07 308.942 598.553 244.101C587.696 244.732 576.839 245.36 565.883 244.356Z" fill="#0886A8"/>
<path d="M579.931 431.127C585.841 403.295 573.21 375.272 569.33 347.088C566.348 325.4 568.654 302.997 575.998 282.372C577.011 279.532 579.2 276.129 582.102 276.933C583.606 277.348 584.556 278.802 585.284 280.182C592.142 293.214 591.454 308.762 590.594 323.466C588.502 359.278 586.404 395.178 579.931 431.127Z" fill="#027691"/>
<path d="M636.185 434.668C635.894 439.644 633.78 444.496 630.332 448.097C629 449.488 627.466 450.713 626.405 452.32C626.111 452.763 625.853 453.247 625.807 453.774C625.726 454.801 626.521 455.749 627.479 456.138C628.435 456.528 629.511 456.464 630.532 456.303C632.856 455.936 635.104 455.08 637.085 453.815C641.003 451.309 643.769 447.305 647.659 444.763C648.538 444.185 649.499 443.659 650.077 442.785C650.637 441.937 650.755 440.869 650.714 439.85C650.573 436.314 648.759 433.093 646.998 430.028C643.04 430.69 639.278 432.487 636.185 434.668Z" fill="#94DCF8"/>
<path d="M633.911 457.557C634.365 457.393 634.673 456.92 635.147 456.831C635.434 456.775 635.732 456.827 636.025 456.85C637.413 456.944 638.83 456.284 639.653 455.161C640.282 454.299 640.73 453.088 641.779 452.903C642.059 452.852 642.346 452.89 642.629 452.862C643.598 452.773 644.351 451.959 644.801 451.095C645.254 450.234 645.509 449.269 646.032 448.447C646.558 447.626 647.475 446.941 648.436 447.099C648.798 447.161 649.132 447.336 649.492 447.415C650.928 447.733 652.3 446.372 652.539 444.918C652.577 444.686 652.611 444.421 652.801 444.282C652.969 444.161 653.195 444.184 653.402 444.177C654.525 444.132 655.349 442.735 654.846 441.725C655.438 441.812 655.927 441.172 655.925 440.575C655.921 439.975 655.581 439.439 655.254 438.94C653.883 436.851 652.215 434.59 649.754 434.198C649.563 434.171 649.362 434.149 649.184 434.221C648.687 434.418 649.684 436.581 647.286 441.715C646.748 442.873 645.63 443.648 644.728 444.551C643.086 446.194 642.42 450.301 636.264 453.61C634.045 454.803 629.568 456.892 626.114 454.858C626.021 454.807 626.246 460.333 633.911 457.557Z" fill="#36A9CE"/>
<path d="M631.651 446.93C633.013 447.708 634.388 448.491 635.861 449.039C636.28 449.195 636.733 449.336 637.174 449.241C637.614 449.156 638.024 448.761 637.97 448.314C637.919 447.851 637.446 447.578 637.028 447.372C635.91 446.834 634.791 446.291 633.672 445.748C633.231 445.534 632.769 445.316 632.28 445.314C631.787 445.309 631.256 445.589 631.139 446.063C631.018 446.542 631.523 447.1 631.651 446.93Z" fill="#D3405F"/>
<path d="M633.356 442.76C633.038 443.142 632.713 443.692 633.008 444.091C633.112 444.229 633.267 444.31 633.42 444.384C634.082 444.712 634.771 444.987 635.456 445.262C636.439 445.657 637.428 446.05 638.414 446.444C638.79 446.595 639.222 446.747 639.589 446.567C640.095 446.323 640.14 445.563 639.817 445.102C639.497 444.64 638.946 444.405 638.423 444.193C637.177 443.685 635.932 443.179 634.685 442.67C634.361 442.539 634.005 442.407 633.67 442.503C633.335 442.603 633.094 443.054 633.356 442.76Z" fill="#D3405F"/>
<path d="M635.044 439.994C634.725 440.564 634.862 441.348 635.359 441.777C635.578 441.962 635.848 442.08 636.114 442.187C637.34 442.692 638.6 443.105 639.884 443.423C640.345 443.537 640.897 443.619 641.247 443.295C641.603 442.969 641.553 442.366 641.27 441.977C640.989 441.584 640.539 441.357 640.11 441.145C638.797 440.494 637.436 439.827 635.976 439.79C635.715 439.783 635.437 439.805 635.213 439.936C634.986 440.07 634.827 440.353 635.044 439.994Z" fill="#D3405F"/>
<path d="M580.786 236.922C575.38 269.475 586.427 315.416 597.468 348.195C605.077 370.792 617.697 394.84 631.936 437.112C640.871 434.174 644.851 434.472 653.787 431.534C651.939 416.361 648.788 407.514 645.793 396.444C635.178 357.187 626.871 317.386 620.93 277.292C618.887 263.505 617.065 249.476 611.281 236.645C601.513 238.727 591.341 239.157 580.786 236.922Z" fill="#0886A8"/>
<path d="M596.205 265.531C597.398 270.073 598.967 274.582 601.572 278.488C604.177 282.398 607.917 285.687 612.415 287.048" stroke="#1B5970" stroke-miterlimit="10"/>
<path d="M642.692 433.774C639.202 385.579 606.456 343.243 602.73 295.062" stroke="#1B5970" stroke-miterlimit="10"/>
<path d="M560.505 145.754C552.656 160.544 559.877 173.689 562.683 195.92C566.884 229.282 553.346 244.298 554.124 245.673C554.453 246.254 553.658 252.732 603.783 262.377C605.348 255.906 607.843 243.761 607.819 237.106C610.594 244.457 609.698 251.711 610.403 259.534C623.729 255.927 630.386 254.642 629.581 252.184C625.088 238.462 615.481 218.773 613.016 204.551C608.844 180.465 618.168 170.522 613.361 153.987C612.464 150.906 611.254 147.847 609.198 145.382C606.861 142.577 603.58 140.72 600.219 139.278C592.679 136.042 569.13 129.491 560.505 145.754Z" fill="#36A9CE"/>
<path d="M584.761 240.438C582.213 237.549 579.841 234.352 578.15 230.878C574.839 224.084 574.463 216.713 575.155 209.289C576.368 196.263 577.858 183.219 576.616 170.125C576.008 163.722 589.682 150.581 573.392 144.102C563.971 140.354 576.645 137.362 576.418 135.467C576.051 132.364 564.701 135.909 560.153 145.743C553.126 160.942 559.526 173.679 562.329 195.91C566.534 229.271 552.993 244.288 553.773 245.662C554.104 246.243 553.658 252.73 603.783 262.376C603.834 262.166 604.094 261.061 603.647 259.771C599.931 249.046 588.613 244.811 584.761 240.438Z" fill="#027691"/>
<path d="M564.622 167.552C563.116 161.903 561.611 156.253 560.103 150.602C559.974 150.116 559.844 149.601 559.981 149.117C560.119 148.63 560.632 148.215 561.112 148.371C561.548 148.516 561.731 149.022 561.853 149.468C563.557 155.635 565.081 161.855 566.419 168.113C565.734 168.674 564.503 167.906 564.622 167.552Z" fill="#D3405F"/>
<path d="M560.39 160.018C560.009 163.559 560.117 167.151 560.709 170.663C560.928 171.953 561.215 173.243 561.762 174.429C562.462 175.955 563.589 177.282 564.976 178.22C566.312 179.126 568.005 179.676 569.551 179.21C571.858 178.517 572.971 175.947 573.667 173.638C574.931 169.445 575.813 165.105 575.843 160.723C570.824 161.519 565.676 161.474 560.39 160.018Z" fill="#0886A8"/>
<path d="M515.216 154.27C516 160.277 516.337 166.418 518.372 172.127C520.409 177.831 524.527 183.199 530.349 184.881C536.165 186.561 543.367 186.733 548.491 183.51C563.639 173.988 567.016 149.367 567.599 148.378" stroke="#010148" stroke-width="3" stroke-miterlimit="10"/>
<path d="M571.388 114.121C559.828 121.766 560.068 140.902 564.492 145.99C565.394 147.03 566.339 148.26 567.71 148.387" stroke="#010148" stroke-width="2" stroke-miterlimit="10"/>
<path d="M573.341 140.624C579.219 143.398 586.621 142.478 591.756 138.333C589.75 131.406 591.667 121.076 593.37 114.023C587.729 113.843 580.914 116.827 575.27 117.1C576.111 122.673 576.726 127.561 575.547 134.297C575.171 136.463 574.405 137.846 573.341 140.624Z" fill="#FFB6B6"/>
<path d="M575.9 132.36C578.641 132.338 582.838 130.19 585.208 127.136C586.149 125.926 586.824 124.563 587.331 123.141C586.519 123.892 585.418 124.319 584.331 124.693C582.482 125.325 580.587 125.857 578.662 126.281C577.881 126.451 577.081 126.608 576.273 126.549C576.51 126.944 576.088 131.278 575.9 132.36Z" fill="#010148"/>
<path d="M582.586 99.017C575.247 100 572.583 104.111 570.348 111.943C569.448 115.096 568.375 118.815 569.943 122.827C573.358 131.579 584.27 126.197 586.052 124.942C590.003 122.16 593.333 119.068 594.734 114.708C596.138 110.349 595.37 105.303 592.076 101.942C588.782 98.582 586.153 98.539 582.586 99.017Z" fill="#FFB6B6"/>
<path d="M575.281 109.058C575.445 108.555 575.973 108.276 576.463 108.436C576.95 108.595 577.212 109.133 577.048 109.635C576.885 110.138 576.355 110.417 575.867 110.257C575.38 110.097 575.115 109.561 575.281 109.058Z" fill="#010148"/>
<path d="M583.051 113.412C583.214 112.908 583.744 112.631 584.231 112.79C584.718 112.949 584.982 113.487 584.818 113.989C584.652 114.491 584.124 114.77 583.637 114.611C583.147 114.45 582.885 113.914 583.051 113.412Z" fill="#010148"/>
<path d="M579.854 110.267C578.89 112.139 577.289 113.391 575.757 114.489C575.618 114.587 575.47 114.702 575.398 114.881C575.34 115.026 575.35 115.177 575.373 115.316C575.492 116.032 575.96 116.55 576.556 116.625" stroke="#010148" stroke-width="0.25" stroke-miterlimit="10" stroke-linecap="round"/>
<path d="M575.326 107.689C575.488 108.211 575.844 108.665 576.306 108.939C576.767 109.213 577.331 109.305 577.859 109.192" stroke="#010148" stroke-width="0.5" stroke-miterlimit="10"/>
<path d="M583.097 112.043C583.26 112.566 583.615 113.022 584.075 113.293C584.539 113.568 585.101 113.659 585.631 113.545" stroke="#010148" stroke-width="0.5" stroke-miterlimit="10"/>
<path d="M573.106 118.949C573.68 119.551 574.321 120.117 575.092 120.411C575.867 120.704 576.799 120.684 577.475 120.181" stroke="#010148" stroke-miterlimit="10" stroke-linecap="round"/>
<path d="M584.248 109.849C585.678 109.803 587.063 110.809 587.482 112.2" stroke="#010148" stroke-miterlimit="10" stroke-linecap="round"/>
<path d="M576.291 105.685C577.548 105.569 578.824 106.314 579.361 107.474" stroke="#010148" stroke-miterlimit="10" stroke-linecap="round"/>
<path d="M593.483 120.248C594.622 125.133 600.371 127.302 603.229 131.424C605.793 135.119 606.103 140.487 609.856 142.967C612.981 145.033 617.471 144.269 620.362 146.658C623.643 149.373 623.231 154.755 626.105 157.897C627.438 159.356 629.36 160.168 631.304 160.515C639.298 161.933 647.631 154.65 647.298 146.54C647.176 143.565 646.089 140.716 645.732 137.761C645.379 134.805 645.971 131.412 648.399 129.692C649.41 128.977 650.627 128.633 651.723 128.063C656.872 125.401 658.191 117.848 655.034 112.987C651.873 108.129 645.394 106.108 639.702 107.195C636.438 107.82 632.415 109.08 630.289 106.528C629.482 105.561 629.217 104.266 628.645 103.144C627.294 100.482 624.182 98.982 621.198 99.071C618.215 99.159 615.395 100.643 613.21 102.68C611.73 104.059 611.699 108.407 610.22 109.784C606.724 113.046 602.449 108.677 599.907 109.249C598.347 109.602 592.665 116.727 593.483 120.248Z" fill="#CE3657"/>
<path d="M598.279 113.693C601.908 117.158 607.907 115.826 612.555 117.71C616.721 119.4 619.919 123.722 624.417 123.742C628.164 123.76 631.506 120.661 635.23 121.08C639.464 121.555 642.064 126.285 646.189 127.341C648.104 127.833 650.158 127.459 651.972 126.685C659.441 123.496 662.428 112.838 657.706 106.234C655.975 103.812 653.508 102.021 651.592 99.745C649.674 97.466 648.315 94.301 649.404 91.532C649.859 90.382 650.686 89.427 651.295 88.351C654.146 83.304 651.114 76.262 645.812 73.921C640.507 71.586 633.98 73.442 629.811 77.468C627.42 79.777 624.744 83.033 621.567 82.064C620.366 81.695 619.434 80.756 618.343 80.131C615.754 78.644 612.329 79.091 609.879 80.8C607.43 82.508 605.883 85.292 605.169 88.194C604.688 90.156 607.042 93.812 606.559 95.776C605.417 100.42 599.447 99.104 597.632 100.974C596.522 102.122 595.669 111.195 598.279 113.693Z" fill="#CE3657"/>
<path d="M570.679 95.332C569.198 95.578 568.247 97.128 567.863 98.621C567.399 100.425 567.494 102.436 568.437 104.015C569.378 105.594 571.262 106.616 573.034 106.219C574.803 105.821 576.04 104.235 577.378 102.973C578.717 101.713 580.711 100.681 582.266 101.609C581.243 102.24 580.633 103.522 580.787 104.729C580.939 105.938 581.84 107 582.986 107.318C584.266 107.674 585.611 107.141 586.889 106.734C588.165 106.326 589.664 106.071 590.734 106.873C591.827 107.688 592.03 109.328 591.658 110.669C591.285 112.013 590.457 113.166 589.783 114.383C589.603 114.71 589.427 115.097 589.557 115.447C589.751 115.974 590.489 116.012 590.991 115.77C591.49 115.53 591.916 115.107 592.455 114.988C593.491 114.76 594.423 115.716 595.476 115.796C596.48 115.873 597.378 115.144 598.047 114.36C601.393 110.432 601.444 104.128 598.513 99.931C595.583 95.736 590.115 93.771 585.132 94.676C583.954 94.89 582.665 95.23 581.629 94.635C580.796 94.156 580.362 93.2 579.748 92.452C578.389 90.793 575.943 90.192 573.979 91.033C572.012 91.873 570.955 96.285 570.679 95.332Z" fill="#CE3657"/>
<path d="M591.677 115.482C592.504 114.671 593.729 114.291 594.832 114.556C595.939 114.826 596.876 115.76 597.099 116.906C597.265 117.736 597.071 118.609 596.749 119.395C595.616 122.189 592.794 124.182 589.864 124.26C589.519 124.27 589.167 124.252 588.845 124.128C588.235 123.888 587.817 123.267 587.683 122.607C587.546 121.947 587.66 121.256 587.863 120.61C588.553 118.435 590.3 116.827 591.677 115.482Z" fill="#FFB6B6"/>
<path d="M591.139 120.51C591.246 121.206 591.942 121.872 592.664 121.74C593.098 121.66 593.57 121.331 593.783 120.965C594.123 120.392 593.605 119.352 593.031 118.974C592.222 118.442 591.031 119.815 591.139 120.51Z" fill="#36A9CE"/>
<path d="M592.963 121.125C595.986 125.977 594.515 135.674 590.15 139.371C584.069 144.522 567.661 148.831 567.68 148.784" stroke="#010148" stroke-width="2" stroke-miterlimit="10"/>
<path d="M472.934 134.211C476.497 134.363 480.091 133.083 482.702 130.737C486.311 132.682 490.567 133.459 494.636 132.909C496.711 132.631 500.087 131.862 501.253 130.172C505.785 135.037 508.937 136.873 512.694 139.839C516.491 142.835 521.939 145.176 523.573 146.909C524.56 147.951 525.54 149.042 526.101 150.347C526.188 150.55 526.264 150.781 526.173 150.981C526.099 151.147 525.929 151.247 525.771 151.337C521.623 153.685 517.456 156.041 512.991 157.758C508.528 159.477 503.722 160.55 498.917 160.22C496.747 160.07 494.6 159.638 492.505 159.05C487.485 157.639 482.73 155.317 478.557 152.241C476.123 150.447 473.836 148.33 472.511 145.655C470.699 142.012 470.938 137.491 472.934 134.211Z" fill="#F17185"/>
<path d="M504.016 133.937C499.412 126.999 501.338 111.015 501.338 111.015L479.083 105.551L481.093 136.297C481.093 136.297 480.517 142.078 492.768 139.652C505.018 137.226 506.08 137.05 504.016 133.937Z" fill="#F17185"/>
<path d="M501.575 127.845C496.797 127.64 492.64 126.639 489.094 124.135C485.548 121.629 482.189 118.481 481.473 114.803C486.525 118.442 494.122 118.56 500.96 118.03C500.738 118.732 501.06 124.546 501.575 127.845Z" fill="#010148"/>
<path d="M493.324 87.709C497.482 88.465 501.538 89.485 501.882 100.594C502.158 109.579 506.048 111.306 503.986 117.873C502.219 123.506 493.417 125.771 487.005 121.551C483.101 118.98 480.69 116.965 477.455 105.469C473.042 89.798 488.77 86.881 493.324 87.709Z" fill="#F17185"/>
<path d="M508.921 86.207C508.575 89.728 506.612 93.14 502.43 95.836C500.936 96.797 499.901 96.18 499.231 95.547C495.725 92.239 489.883 91.778 485.915 94.494C481.948 97.209 480.264 102.822 482.077 107.286C477.403 107.13 473.049 103.533 472.011 98.967C471.625 97.274 470.791 95.61 471.381 92.75C471.896 90.251 472.446 88.65 474.713 86.658C478.161 83.621 480.758 83.784 490.382 83.924C490.382 83.924 493.226 84.044 494.51 83.504C497.084 82.423 498.13 78.963 502.386 78.978C506.556 78.992 509.268 82.687 508.921 86.207Z" fill="#010148"/>
<path d="M476.016 101.731C474.572 101.962 473.98 103.563 474.113 104.875C474.326 106.989 474.993 108.608 476.623 110.551C477.726 111.867 478.539 112.187 479.927 112.289C481.121 112.377 482.293 111.491 482.595 110.244C483.32 107.243 479.881 101.117 476.016 101.731Z" fill="#F17185"/>
<path d="M479.439 106.91C478.892 105.959 477.98 105.456 477.4 105.788C476.821 106.121 476.798 107.161 477.346 108.112C477.891 109.064 478.804 109.566 479.384 109.234C479.961 108.902 479.986 107.861 479.439 106.91Z" fill="#CE3657"/>
<path d="M491.145 104.72C491.087 104.223 490.635 103.867 490.138 103.926C489.642 103.984 489.287 104.432 489.346 104.931C489.404 105.427 489.856 105.783 490.353 105.726C490.851 105.667 491.203 105.218 491.145 104.72Z" fill="#010148"/>
<path d="M499.267 102.858C499.208 102.36 498.757 102.004 498.26 102.063C497.764 102.122 497.408 102.571 497.468 103.069C497.526 103.565 497.978 103.922 498.474 103.865C498.972 103.805 499.326 103.355 499.267 102.858Z" fill="#010148"/>
<path d="M494.515 103.675C496.772 108.068 496.425 107.271 498.025 110.109C498.526 110.997 495.251 110.991 494.404 110.198" stroke="#010148" stroke-width="0.25" stroke-miterlimit="10"/>
<path d="M499.39 100.123C498.309 99.717 496.911 100.05 496.177 100.887" stroke="#010148" stroke-miterlimit="10"/>
<path d="M491.258 101.993C489.997 101.608 488.342 101.971 487.463 102.825" stroke="#010148" stroke-miterlimit="10"/>
<path d="M498.005 114.963C497.169 115.121 496.304 115.231 495.466 115.07C494.63 114.91 493.818 114.443 493.415 113.691" stroke="#010148" stroke-miterlimit="10"/>
<path d="M510.267 432.019C515.682 398.85 511.923 392.896 505.393 370.02C494.014 330.168 504.595 287.232 500.308 246.009C490.517 245.679 476.574 245.226 466.413 246.241C460.213 284.312 470.043 323.873 479.094 361.368C485.06 386.078 497.05 407.367 495.709 433.564C494.112 442.634 484.433 446.523 479.923 449.915C478.858 450.717 475.692 456.202 480.276 457.82C486.751 460.104 492.675 458.006 497.847 452.762C499.861 450.723 501.851 448.574 504.21 447.241C505.804 446.343 510.193 443.894 511.204 439.425C511.882 436.424 510.254 436.155 510.273 432.095C510.273 432.068 510.269 432.047 510.267 432.019Z" fill="#F17185"/>
<path d="M482.763 364.03C484.975 365.505 488.476 364.109 489.071 361.517" stroke="#1B5970" stroke-miterlimit="10" stroke-linecap="round"/>
<path d="M477.593 454.224C476.937 457.245 479.017 461.66 485.095 461.581C487.49 461.551 490.405 461.331 492.42 460.039C494.821 458.502 497.015 456.644 498.931 454.532C500.178 453.155 502.081 450.471 503.624 449.435C506.08 447.778 508.657 447.164 510.879 445.208C513.553 442.856 513.786 439.758 511.463 437.06C509.086 443.193 502.342 446.147 497.034 450.027C494.083 452.186 491.389 454.816 488 456.179C484.609 457.544 479.52 457.316 477.593 454.224Z" fill="#36A9CE"/>
<path d="M477.681 455.419C477.287 453.322 478.12 451.14 479.424 449.465C480.732 447.793 482.473 446.546 484.185 445.319C486.838 443.426 489.488 441.533 492.14 439.633C495.853 442.326 500.176 444.136 504.676 444.873C500.767 449.805 495.808 453.859 490.251 456.677C488.128 457.751 485.84 458.664 483.477 458.585C481.115 458.514 478.063 457.465 477.681 455.419Z" fill="#94DCF8"/>
<path d="M469.081 264.673C469.085 263.768 468.277 263.079 467.378 263.193C457.99 264.392 448.466 264.528 439.045 263.597C438.168 263.512 437.34 264.19 437.393 265.073C437.401 265.209 437.429 265.32 437.483 265.396C437.75 265.769 437.791 266.222 437.724 266.68C434.662 287.169 434.388 306.484 433.897 325.242C433.578 337.481 432.102 349.658 430.628 361.816C428.364 380.478 426.6 397.411 424.904 415.524C424.872 415.512 424.83 415.503 424.799 415.489C424.794 419.26 423.621 425.814 420.558 428.018C417.495 430.219 413.833 431.396 410.238 432.538C403.332 434.735 395.049 435.023 395.697 437.807C396.502 441.263 402.8 440.941 405.124 441.113C415.505 441.872 417.116 441.847 427.487 440.964C430.257 440.728 433.511 440.104 434.663 437.569C435.092 436.616 435.14 435.543 435.177 434.497C435.323 430.419 436.417 426.531 438.49 419.033C443.996 404.994 448.654 391.782 450.992 376.27C452.423 366.766 452.785 357.128 454.037 347.597C457.588 320.559 469.011 291.896 469.081 264.673Z" fill="#F17185"/>
<path d="M434.747 353.575C437.372 354.619 440.724 352.916 441.421 350.179" stroke="#1B5970" stroke-miterlimit="10" stroke-linecap="round"/>
<path d="M453.186 353.152C456.738 326.116 468.162 297.452 468.233 270.231C468.235 269.325 467.428 268.633 466.528 268.749C460.1 269.568 455.147 270.641 448.668 270.465C445.394 289.746 446.355 308.924 448.288 343.782C449.121 358.833 449.759 384.36 450.141 381.828C451.572 372.321 451.935 362.685 453.186 353.152Z" fill="#CE3657"/>
<path d="M434.943 436.968C434.767 439.187 434.418 442.047 432.628 443.274C431.112 444.312 429.143 443.989 427.362 443.722C424.974 443.365 422.561 443.18 420.146 443.131C417.78 443.081 415.407 443.157 413.049 443.419C410.426 443.707 407.819 444.223 405.185 444.325C402.549 444.428 399.836 444.093 397.532 442.782C396.594 442.249 395.713 441.527 395.225 440.531C394.737 439.536 394.723 438.227 395.4 437.345C396.918 439.053 399.083 440.01 401.288 440.411C403.491 440.812 405.748 440.543 407.991 440.539C431.332 440.508 434.935 436.857 434.943 436.968Z" fill="#36A9CE"/>
<path d="M395.383 437.722C396.047 434.682 398.447 432.254 401.196 430.796C403.943 429.337 407.042 428.709 410.094 428.097L417.279 426.654C417.898 426.527 418.558 426.407 419.152 426.619C419.711 426.822 420.127 427.285 420.516 427.734C423.01 430.609 424.095 435.922 424.135 439.725C424.139 440.053 415.778 441.411 407.318 441.729C403.773 441.863 400.035 441.676 397.017 439.813C396.073 439.228 395.28 438.184 395.383 437.722Z" fill="#94DCF8"/>
<path d="M535.454 160.552C533.629 154.148 518.662 143.986 518.512 144.07C494.754 157.199 483.454 146.175 474.177 133.555C473.763 132.99 460.507 135.072 454.894 144.763C448.814 155.266 448.791 171.3 448.653 187.663C448.548 199.854 448.005 209.351 446.135 221.419C446.155 221.429 446.175 221.439 446.196 221.448C439.972 247.689 428.596 272.607 419.802 298.202C419.374 299.455 418.955 300.859 419.508 302.064C419.962 303.048 420.962 303.651 421.915 304.171C440.25 314.153 477.903 324.85 487.435 311.67C489.074 309.402 489.885 306.561 491.834 304.496C492.623 303.66 493.72 302.884 494.937 303.099C496.399 303.361 497.41 304.803 497.743 306.145C498.215 308.067 497.811 310.15 497.708 312.088C497.65 313.148 497.628 314.237 497.815 315.286C498.118 317.005 503.168 314.478 503.199 314.442C510.468 305.951 509.39 225.259 511.383 219.766C508.855 219.526 505.872 219.084 502.634 218.528C504.946 213.236 508.812 208.091 514.408 200.977C524.096 188.662 539.204 173.711 535.454 160.552Z" fill="#94DCF8"/>
<path d="M465.03 177.198C465.443 161.649 467.689 146.95 471.36 133.791C467.068 134.706 458.966 137.727 454.894 144.763C448.813 155.266 448.79 171.3 448.653 187.663C448.547 199.854 448.004 209.351 446.133 221.419C446.153 221.429 446.173 221.439 446.194 221.448C439.969 247.69 428.593 272.607 419.799 298.202C419.371 299.455 418.952 300.859 419.505 302.064C419.959 303.048 420.959 303.651 421.912 304.171C440.248 314.153 477.9 324.85 487.432 311.67C489.071 309.402 489.882 306.561 491.831 304.496C492.62 303.66 493.717 302.884 494.934 303.099C496.396 303.361 497.408 304.803 497.74 306.145C498.212 308.067 497.806 310.15 497.705 312.088C497.646 313.148 497.627 314.237 497.812 315.286C498.115 317.005 503.165 314.478 503.196 314.442C506.012 311.154 507.573 297.049 508.547 280.674C482.488 271.149 463.679 228.202 465.03 177.198Z" fill="#36A9CE"/>
<path d="M436.649 197.163C433.546 210.007 433.301 223.533 435.934 236.481C436.862 241.03 438.157 245.555 440.4 249.62C444.396 256.869 451.76 263.071 455.594 271.768C455.594 271.768 460.762 281.148 463.166 281.614C465.416 282.049 463.364 280.617 462.976 277.953C464.595 281.697 467.416 282.649 468.016 281.851C469.117 280.382 466.591 277.437 465.285 275.535C466.913 278.316 471.119 282.346 472.679 281.408C473.831 280.712 469.8 276.061 468.36 273.388C470.025 276.263 474.354 281.093 475.545 280.074C477.235 278.63 471.262 273.824 470.584 270.061C473.102 271.059 478.282 270.601 477.601 268.397C477.011 266.491 466.672 266.392 463.207 261.196C459.09 255.032 456.399 249.753 452.814 244.382C450.63 241.113 448.418 237.782 447.288 234.017C445.855 229.261 446.248 224.172 446.692 219.224C447.235 213.196 447.837 207.174 448.497 201.157C444.342 200.199 440.28 198.843 436.649 197.163Z" fill="#F17185"/>
<path d="M467.17 135.635C458.444 136.816 451.156 143.304 446.771 150.942C442.387 158.583 431.082 198.609 432.987 201.305C434.225 203.061 450.829 206.833 453.965 205.909C455.242 205.533 456.496 204.919 457.331 203.885C458.626 202.283 458.67 200.045 458.673 197.986C458.692 180.401 459.937 162.818 462.397 145.406C462.875 142.02 463.545 138.362 467.17 135.635Z" fill="#36A9CE"/>
<path d="M453.301 173.372C453.729 190.156 452.253 207.13 455.232 223.64C458.212 240.152 466.239 256.601 482.465 267.054" stroke="#1B5970" stroke-miterlimit="10" stroke-linecap="round"/>
<path d="M469.367 189.05C469.545 195.618 471.324 202.138 474.506 207.888" stroke="#1B5970" stroke-miterlimit="10" stroke-linecap="round"/>
<path d="M474.409 171.093C472.752 178.793 474.496 187.162 479.087 193.559" stroke="#1B5970" stroke-miterlimit="10" stroke-linecap="round"/>
<path d="M444.759 271.532C443.329 282.322 450.507 292.036 464.021 297.612" stroke="#1B5970" stroke-miterlimit="10" stroke-linecap="round"/>
<path d="M522.256 221.065C521.946 223.039 512.312 220.943 509.239 220.107C492.816 215.642 487.425 202.36 493.708 198.784C502.822 195.639 524.263 205.939 522.256 221.065Z" fill="#027691"/>
<path d="M514.586 217.29C510.288 214.248 505.055 213.39 500.752 210.349C497.367 217.931 493.862 225.697 488.16 231.633C480.545 239.56 469.934 243.29 459.623 245.988C458.13 246.378 456.593 246.739 455.095 246.53C447.218 245.439 444.039 238.894 442.842 240.675C442.081 241.801 443.679 244.246 445.172 246.113C443.455 245.492 441.784 244.082 438.443 242.677C437.935 242.464 437.782 243.49 438.032 243.979C438.283 244.47 438.705 244.847 439.119 245.21C439.87 245.874 440.622 246.538 441.374 247.203C436.856 244.669 436.281 245.76 436.635 246.351C436.848 246.707 437.048 247.008 437.781 247.556C438.757 248.291 439.769 248.98 440.809 249.619C435.008 248.021 435.632 249.343 437.435 250.638C438.379 251.317 439.65 251.471 440.502 252.261C438.377 252.841 437.622 251.372 437.463 253.093C437.413 253.635 443.009 256.39 449.284 257.075C449.282 257.08 449.282 257.09 449.279 257.096C456.366 258.078 479.159 256.51 492.79 248.081C502.613 242.007 506.656 235.866 512.71 223.06C513.092 222.25 515.093 217.796 514.586 217.29Z" fill="#F79A9A"/>
<path d="M517.506 144.551C529.359 139.26 539.949 160.825 538.414 176.828C536.064 201.254 524.05 221.276 521.993 221.232C519.935 221.189 518.387 214.695 505.128 214.887C492.754 215.068 487.322 207.912 489.993 198.456C494.023 184.178 493.761 183.839 501.53 167.594C504.269 161.873 513.718 146.245 517.506 144.551Z" fill="#94DCF8"/>
<path d="M504.617 177.423C500.923 190.927 496.887 198.791 493.733 203.913C491.972 206.767 490.722 210.618 495.569 212.768C505.34 217.101 514.988 213.363 521.993 221.231" stroke="#1B5970" stroke-miterlimit="10" stroke-linecap="round"/>
<path d="M596.953 157.445C590.33 160.285 585.067 167.467 580.734 175.016C576.401 182.565 570.1 198.117 565.208 199.105C562.654 199.62 542.019 185.424 540.613 180.815C539.884 178.422 540.376 175.599 540.034 173.027C539.249 167.107 531.369 161.077 530.421 162.308C528.937 164.237 532.559 166.808 533.629 169.06C532.115 166.707 528.205 165.517 527.395 167.082C526.115 169.552 530.818 170.558 532.809 172.948C530.63 171.685 525.518 170.213 527.378 172.443C528.943 174.319 530.19 175.444 532.486 177.963C530.437 176.424 525.993 177.097 528.259 178.468C537.953 184.328 551.157 219.873 562.598 221.812C575.546 224.007 590.405 204.224 598.662 190.113C602.808 183.036 606.484 172.447 605.534 163.731C605.052 159.311 599.13 156.514 596.953 157.445Z" fill="#FFB6B6"/>
<path d="M592.808 141.783C588.137 142.844 584.562 146.531 581.533 150.239C575.816 157.229 570.979 164.939 567.17 173.126C566.956 173.589 566.737 174.095 566.84 174.597C566.907 174.936 567.114 175.228 567.319 175.508C574.289 185 584.844 191.788 596.372 194.191C603.756 183.55 611.395 172.194 612.22 159.267C612.418 156.125 612.161 152.826 610.565 150.116C609.401 148.141 607.605 146.619 605.728 145.302C601.623 142.427 596.502 140.943 592.808 141.783Z" fill="#36A9CE"/>
<path d="M566.839 174.597C574.463 185.898 589.338 193.001 597.794 194.376C598.285 194.455 598.811 194.521 599.256 194.301C599.786 194.037 600.051 193.441 600.275 192.89C601.926 188.807 603.579 184.724 605.229 180.644C607.212 175.74 609.233 170.562 608.545 165.318" stroke="#1B5970" stroke-miterlimit="10" stroke-linecap="round"/>
<path d="M407.085 89.316H183.669V401.063H407.085V89.316Z" fill="#027691"/>
<path d="M395.128 100.022H195.625V386.229H395.128V100.022Z" fill="white"/>
<path d="M345.792 81.068H248.18V110.843H345.792V81.068Z" fill="#94DCF8"/>
<path d="M328.57 87.58H265.972V104.577H328.57V87.58Z" fill="#027691"/>
<path d="M262.616 96.078C262.616 98.97 260.271 101.315 257.379 101.315C254.487 101.315 252.142 98.97 252.142 96.078C252.142 93.186 254.487 90.841 257.379 90.841C260.271 90.841 262.616 93.186 262.616 96.078Z" fill="#027691"/>
<path d="M342.399 96.078C342.399 98.97 340.054 101.315 337.162 101.315C334.269 101.315 331.925 98.97 331.925 96.078C331.925 93.186 334.269 90.841 337.162 90.841C340.054 90.841 342.399 93.186 342.399 96.078Z" fill="#027691"/>
<path d="M316.514 128.528H214.584V137.955H316.514V128.528Z" fill="#E9F8FF"/>
<path d="M316.514 147.379H214.584V156.807H316.514V147.379Z" fill="#E9F8FF"/>
<path d="M316.514 166.23H214.584V175.657H316.514V166.23Z" fill="#E9F8FF"/>
<path d="M378.87 155.536C378.87 169.426 367.61 180.686 353.72 180.686C339.83 180.686 328.57 169.426 328.57 155.536C328.57 141.646 339.83 130.386 353.72 130.386C367.61 130.385 378.87 141.645 378.87 155.536Z" fill="#94DCF8"/>
<path d="M333.4 140.693L346.37 170.888H359.34L374.04 130.366H364.275L353.716 162.886L342.908 140.137L333.4 140.693Z" fill="#027691"/>
<path d="M294.968 223.126H223.557V228.519H294.968V223.126Z" fill="#E9F8FF"/>
<path d="M294.968 233.909H223.557V239.3H294.968V233.909Z" fill="#E9F8FF"/>
<path d="M294.968 244.69H223.557V250.083H294.968V244.69Z" fill="#E9F8FF"/>
<path d="M294.967 210.556H218.289" stroke="#36A9CE" stroke-miterlimit="10"/>
<path d="M212.483 210.556C212.483 213.316 214.719 215.553 217.479 215.553C220.239 215.553 222.476 213.316 222.476 210.556C222.476 207.796 220.239 205.559 217.479 205.559C214.719 205.559 212.483 207.796 212.483 210.556Z" fill="#94DCF8"/>
<path d="M382.058 202.536H324.403V253.107H382.058V202.536Z" fill="#E9F8FF"/>
<path d="M294.968 281.359H223.557V286.751H294.968V281.359Z" fill="#E9F8FF"/>
<path d="M294.968 292.142H223.557V297.533H294.968V292.142Z" fill="#E9F8FF"/>
<path d="M294.968 302.923H223.557V308.315H294.968V302.923Z" fill="#E9F8FF"/>
<path d="M294.967 268.789H218.289" stroke="#36A9CE" stroke-miterlimit="10"/>
<path d="M212.483 268.789C212.483 271.548 214.719 273.786 217.479 273.786C220.239 273.786 222.476 271.548 222.476 268.789C222.476 266.029 220.239 263.791 217.479 263.791C214.719 263.791 212.483 266.029 212.483 268.789Z" fill="#94DCF8"/>
<path d="M382.058 260.768H324.403V311.338H382.058V260.768Z" fill="#E9F8FF"/>
<path d="M294.968 339.594H223.557V344.986H294.968V339.594Z" fill="#E9F8FF"/>
<path d="M294.968 350.375H223.557V355.766H294.968V350.375Z" fill="#E9F8FF"/>
<path d="M294.968 361.156H223.557V366.548H294.968V361.156Z" fill="#E9F8FF"/>
<path d="M294.967 327.022H218.289" stroke="#36A9CE" stroke-miterlimit="10"/>
<path d="M212.483 327.022C212.483 329.782 214.719 332.019 217.479 332.019C220.239 332.019 222.476 329.782 222.476 327.022C222.476 324.262 220.239 322.024 217.479 322.024C214.719 322.024 212.483 324.263 212.483 327.022Z" fill="#94DCF8"/>
<path d="M382.058 319.002H324.403V369.572H382.058V319.002Z" fill="#E9F8FF"/>
<path fill-rule="evenodd" clip-rule="evenodd" d="M366.649 231.826C366.501 234.371 366.685 236.746 365.948 239.181C363.597 239.829 360.079 237.449 358.73 240.332C358.224 241.414 358.341 243.102 358.4 244.357C358.421 244.79 358.536 245.291 358.652 245.806H342.929C342.789 245.054 343.118 244.086 343.237 243.194C343.604 240.429 343.55 237.436 343.103 234.683C342.721 232.328 340.811 230.177 339.53 228.129C336.523 223.322 335.411 217.738 339.247 212.961C344.061 206.966 351.69 204.012 359.057 207.036C362.742 208.548 365.171 210.898 366.585 214.576C367.433 216.782 368.547 221.373 366.781 223.424L366.942 223.746C368.017 225.335 369.075 227.471 369.719 229.382C370.749 232.435 368.671 230.894 366.649 231.826Z" fill="#0886A8"/>
<path fill-rule="evenodd" clip-rule="evenodd" d="M366.584 233.573C366.584 233.573 354.543 230.993 351.644 232.925C349.634 234.265 350.035 235.823 349.873 238.561C349.712 241.298 349.873 245.807 349.873 245.807H351.967C351.967 245.807 352.083 235.823 353.394 235.179C354.704 234.535 366.584 236.145 366.584 236.145V233.573Z" fill="#E9F8FF"/>
<path fill-rule="evenodd" clip-rule="evenodd" d="M345.118 277.143C340.088 278.217 336.649 281.841 334.799 286.57C333.415 290.106 331.124 297.174 332.546 301.067C334.058 305.206 340.1 303.427 342.944 302.268C346.521 300.811 349.192 298.383 350.43 294.534C351.505 291.194 350.96 286.865 350.001 283.665C349.498 281.985 348.894 280.279 347.78 278.829C346.388 277.014 345.477 277.173 343.426 277.627" fill="#0886A8"/>
<path fill-rule="evenodd" clip-rule="evenodd" d="M361.67 277.143C366.7 278.217 370.139 281.841 371.989 286.57C373.373 290.106 375.664 297.174 374.242 301.067C372.73 305.206 366.688 303.427 363.844 302.268C360.267 300.811 357.596 298.383 356.358 294.534C355.283 291.194 355.828 286.865 356.787 283.665C357.29 281.985 357.894 280.279 359.008 278.829C360.4 277.014 361.311 277.173 363.361 277.627" fill="#0886A8"/>
<path fill-rule="evenodd" clip-rule="evenodd" d="M345.359 283.181L352.228 278.833V270.38C352.228 270.38 353.617 269.172 354.319 270.38C355.021 271.587 354.319 278.833 354.319 278.833L361.784 283.181L359.852 285.355L353.572 281.974L346.809 285.355L345.359 283.181Z" fill="#0886A8"/>
<path d="M362.381 331.976C362.381 332.719 361.453 333.323 360.308 333.323H351.268C350.122 333.323 349.195 332.72 349.195 331.976V325.706C349.195 324.963 350.121 324.358 351.268 324.358H360.308C361.453 324.358 362.381 324.963 362.381 325.706V331.976Z" fill="#0886A8"/>
<path d="M352.011 328.84C352.011 330.047 351.032 331.027 349.825 331.027H346.591C345.384 331.027 344.407 330.048 344.407 328.84C344.407 327.633 345.385 326.654 346.591 326.654H349.825C351.031 326.654 352.011 327.633 352.011 328.84Z" fill="#0886A8"/>
<path d="M362.381 345.424C362.381 346.168 361.453 346.772 360.308 346.772H351.268C350.122 346.772 349.195 346.168 349.195 345.424V339.153C349.195 338.41 350.121 337.807 351.268 337.807H360.308C361.453 337.807 362.381 338.41 362.381 339.153V345.424Z" fill="#0886A8"/>
<path d="M352.011 342.29C352.011 343.495 351.032 344.475 349.825 344.475H346.591C345.384 344.475 344.407 343.495 344.407 342.29C344.407 341.082 345.385 340.103 346.591 340.103H349.825C351.031 340.103 352.011 341.082 352.011 342.29Z" fill="#0886A8"/>
<path d="M362.381 358.873C362.381 359.618 361.453 360.221 360.308 360.221H351.268C350.122 360.221 349.195 359.618 349.195 358.873V352.605C349.195 351.859 350.121 351.257 351.268 351.257H360.308C361.453 351.257 362.381 351.859 362.381 352.605V358.873Z" fill="#0886A8"/>
<path d="M352.011 355.738C352.011 356.945 351.032 357.923 349.825 357.923H346.591C345.384 357.923 344.407 356.945 344.407 355.738C344.407 354.531 345.385 353.552 346.591 353.552H349.825C351.031 353.553 352.011 354.531 352.011 355.738Z" fill="#0886A8"/>
<path d="M213.94 440.9C216.222 445.333 220.122 448.909 224.734 450.805C226.514 451.538 228.414 452.035 230.039 453.073C230.482 453.36 230.914 453.696 231.167 454.162C231.661 455.068 231.318 456.257 230.601 457C229.886 457.742 228.874 458.125 227.878 458.39C225.6 458.995 223.204 459.127 220.875 458.769C216.28 458.067 212.129 455.529 207.542 454.782C206.506 454.612 205.413 454.52 204.53 453.956C203.673 453.403 203.134 452.474 202.756 451.529C201.454 448.24 201.805 444.562 202.171 441.045C206.059 440.042 210.229 440.161 213.94 440.9Z" fill="#027691"/>
<path d="M225.296 460.902C224.815 460.936 224.343 460.631 223.871 460.74C223.584 460.808 223.335 460.974 223.077 461.112C221.845 461.761 220.285 461.736 219.073 461.044C218.15 460.51 217.25 459.584 216.218 459.837C215.941 459.908 215.692 460.058 215.422 460.147C214.499 460.457 213.484 460.02 212.722 459.413C211.958 458.808 211.335 458.03 210.522 457.492C209.708 456.954 208.591 456.695 207.778 457.231C207.472 457.433 207.236 457.727 206.94 457.948C205.757 458.82 203.949 458.136 203.143 456.899C203.017 456.705 202.877 456.474 202.647 456.429C202.445 456.382 202.247 456.496 202.055 456.574C201.01 456.989 199.69 456.044 199.743 454.915C199.236 455.232 198.528 454.852 198.29 454.304C198.05 453.755 198.141 453.125 198.239 452.534C198.645 450.069 199.255 447.328 201.347 445.972C201.508 445.865 201.685 445.769 201.875 445.761C202.409 445.739 202.377 448.123 206.645 451.843C207.607 452.68 208.947 452.937 210.136 453.398C212.303 454.234 214.577 457.717 221.547 458.252C224.057 458.442 228.997 458.536 231.333 455.273C231.392 455.189 233.427 460.335 225.296 460.902Z" fill="#D3405F"/>
<path d="M223.057 450.273C222.121 451.539 221.185 452.809 220.062 453.907C219.739 454.222 219.383 454.53 218.945 454.627C218.506 454.725 217.971 454.528 217.839 454.101C217.699 453.657 218.02 453.213 218.319 452.861C219.121 451.91 219.927 450.963 220.731 450.011C221.048 449.636 221.382 449.253 221.827 449.049C222.274 448.849 222.874 448.892 223.174 449.276C223.476 449.662 223.238 450.377 223.057 450.273Z" fill="#94DCF8"/>
<path d="M219.803 447.152C220.25 447.375 220.769 447.743 220.662 448.231C220.623 448.393 220.515 448.533 220.403 448.664C219.931 449.231 219.414 449.764 218.897 450.29L216.674 452.571C216.391 452.862 216.055 453.174 215.651 453.16C215.087 453.141 214.74 452.462 214.847 451.913C214.953 451.36 215.362 450.923 215.751 450.517C216.685 449.549 217.619 448.581 218.553 447.613C218.795 447.36 219.066 447.091 219.413 447.048C219.76 447.001 220.165 447.315 219.803 447.152Z" fill="#94DCF8"/>
<path d="M217.145 445.309C217.664 445.702 217.855 446.473 217.574 447.062C217.451 447.323 217.251 447.54 217.051 447.751C216.138 448.704 215.155 449.591 214.109 450.404C213.732 450.697 213.262 450.997 212.809 450.841C212.356 450.688 212.152 450.116 212.254 449.644C212.356 449.172 212.673 448.782 212.979 448.412C213.913 447.287 214.889 446.129 216.209 445.502C216.445 445.389 216.704 445.293 216.968 445.325C217.226 445.353 217.486 445.55 217.145 445.309Z" fill="#94DCF8"/>
<path d="M212.023 248.796C230.862 309.949 214.008 377.15 218.477 441.062C208.993 444.388 207.466 444.015 197.474 442.915C191.155 378.155 184.837 313.385 179.353 248.543C190.21 249.174 201.067 249.802 212.023 248.796Z" fill="#36A9CE"/>
<path d="M197.977 435.572C192.067 407.739 204.697 379.715 208.576 351.531C211.559 329.841 209.252 307.44 201.909 286.815C200.896 283.977 198.707 280.571 195.805 281.375C194.299 281.792 193.35 283.247 192.624 284.626C185.765 297.658 186.454 313.207 187.312 327.91C189.404 363.721 191.502 399.621 197.977 435.572Z" fill="#0886A8"/>
<path d="M110.559 431.103C109.866 436.042 110.987 441.211 113.663 445.419C114.695 447.046 115.959 448.548 116.684 450.331C116.884 450.823 117.042 451.348 116.984 451.874C116.861 452.897 115.896 453.671 114.88 453.863C113.867 454.057 112.823 453.784 111.856 453.425C109.648 452.61 107.612 451.33 105.917 449.699C102.567 446.472 100.641 442.005 97.326 438.748C96.576 438.01 95.739 437.304 95.344 436.332C94.961 435.392 95.056 434.322 95.295 433.33C96.128 429.89 98.539 427.09 100.867 424.429C104.616 425.855 107.953 428.357 110.559 431.103Z" fill="#027691"/>
<path d="M108.294 453.994C107.881 453.743 107.672 453.219 107.224 453.038C106.954 452.931 106.652 452.921 106.36 452.885C104.981 452.704 103.722 451.78 103.133 450.517C102.686 449.549 102.484 448.272 101.491 447.885C101.226 447.781 100.938 447.762 100.666 447.679C99.734 447.402 99.154 446.454 98.883 445.519C98.609 444.586 98.549 443.59 98.198 442.68C97.843 441.771 97.077 440.92 96.105 440.886C95.737 440.876 95.375 440.984 95.007 440.99C93.537 441.02 92.46 439.419 92.51 437.944C92.518 437.711 92.536 437.442 92.376 437.269C92.236 437.118 92.01 437.095 91.81 437.048C90.716 436.783 90.184 435.251 90.875 434.36C90.278 434.328 89.924 433.605 90.042 433.02C90.163 432.431 90.603 431.973 91.021 431.548C92.774 429.769 94.854 427.88 97.344 427.978C97.536 427.99 97.738 428.006 97.899 428.114C98.348 428.405 96.946 430.33 98.29 435.834C98.59 437.076 99.536 438.055 100.241 439.117C101.528 441.052 101.375 445.209 106.761 449.662C108.703 451.267 112.684 454.194 116.47 452.877C116.568 452.846 115.265 458.22 108.294 453.994Z" fill="#D3405F"/>
<path d="M112.594 444.016C111.107 444.513 109.605 445.009 108.054 445.26C107.613 445.329 107.141 445.379 106.726 445.199C106.312 445.029 105.988 444.563 106.128 444.135C106.27 443.69 106.786 443.514 107.237 443.396C108.439 443.088 109.643 442.775 110.847 442.463C111.323 442.341 111.817 442.216 112.298 442.311C112.781 442.403 113.247 442.783 113.268 443.269C113.293 443.762 112.687 444.209 112.594 444.016Z" fill="#94DCF8"/>
<path d="M111.744 439.593C111.98 440.032 112.189 440.635 111.823 440.967C111.694 441.082 111.525 441.131 111.361 441.173C110.648 441.365 109.918 441.499 109.193 441.635C108.15 441.829 107.104 442.022 106.061 442.214C105.661 442.286 105.21 442.35 104.883 442.103C104.436 441.763 104.542 441.01 104.947 440.622C105.352 440.231 105.939 440.109 106.492 440.004C107.815 439.751 109.135 439.5 110.456 439.245C110.799 439.182 111.175 439.12 111.484 439.28C111.794 439.444 111.943 439.933 111.744 439.593Z" fill="#94DCF8"/>
<path d="M110.63 436.549C110.832 437.172 110.543 437.914 109.971 438.237C109.72 438.377 109.433 438.439 109.15 438.492C107.85 438.747 106.533 438.905 105.212 438.966C104.738 438.985 104.182 438.958 103.901 438.571C103.616 438.18 103.784 437.599 104.137 437.273C104.49 436.944 104.974 436.808 105.439 436.686C106.854 436.304 108.32 435.918 109.758 436.17C110.015 436.214 110.282 436.289 110.477 436.461C110.672 436.636 110.771 436.945 110.63 436.549Z" fill="#94DCF8"/>
<path d="M203.698 248.077C202.607 281.059 182.758 323.941 165.496 353.914C153.599 374.577 136.504 395.679 114.244 434.334C106.06 429.699 102.099 429.211 93.914 424.576C98.705 410.059 103.53 402.004 108.642 391.739C126.757 355.328 142.715 317.931 156.411 279.782C161.121 266.666 165.663 253.266 173.852 241.82C183.02 245.779 192.908 248.198 203.698 248.077Z" fill="#36A9CE"/>
<path d="M104.352 428.95C117.234 382.378 157.656 347.293 170.767 300.781" stroke="#1B5970" stroke-miterlimit="10"/>
<path d="M234.503 311.821C234.148 317.76 216.926 320.383 216.618 319.139C214.848 311.978 215.677 263.694 211.948 263.694C208.505 263.69 199.936 322.809 194.684 322.437C180.626 321.433 142.76 314.658 134.064 309.762C133.372 309.373 163.479 204.104 167.086 174.463C167.875 167.968 162.265 134.484 182.027 133.556C187.809 133.285 194.136 131.149 199.761 132.649C207.675 134.761 228.037 130.177 228.037 167.137C228.037 175.595 232.251 222.8 232.124 227.74L234.503 311.821Z" fill="#94DCF8"/>
<path d="M249.77 209.559C253.116 210.832 256.801 211.012 260.011 210.055C261.591 209.587 263.181 208.845 264.883 209.206C265.11 209.255 265.345 209.328 265.507 209.493C265.705 209.699 265.745 209.993 265.705 210.244C265.397 212.225 261.567 212.114 261.531 214.143C265.68 213.333 271.838 212.526 274.427 214.552C276.04 215.811 269.627 216.647 264.334 217.49C267.598 218.392 271.216 216.628 274.144 218.398C274.372 218.536 274.601 218.707 274.703 218.943C275.449 220.662 268.335 220.496 264.408 220.692C266.037 221.003 267.237 221.517 268.873 221.638C270.509 221.757 273.202 222.211 273.16 223.867C273.122 225.337 266.097 224.935 262.374 224.335C264.784 225.186 265.599 225.667 268.16 226.707C269.641 227.309 268.634 228.981 267.394 228.913C264.739 228.762 252.43 225.42 242.054 218.699C243.489 215.746 247.204 211.174 249.77 209.559Z" fill="#FFB6B6"/>
<path d="M222.636 152.81C223.515 159.73 223.236 169.148 223.434 176.175C223.885 192.252 240.634 201.682 256.13 205.739C243.293 224.667 241.889 227.4 241.21 227.737C240.713 227.98 222.797 217.485 212.965 208.592C203.658 200.176 203.355 193.367 202.268 186.955C198.758 166.251 204.227 154.069 207.291 142.637C207.73 141.004 208.314 139.232 209.649 138.309C210.984 137.388 221.756 145.892 222.636 152.81Z" fill="#94DCF8"/>
<path d="M212.24 166.074C211.655 167.091 205.036 172.246 205.024 172.595C205.017 172.885 186.109 134.916 186.598 134.68C188.278 133.868 195.203 131.485 199.033 132.038C211.229 133.795 214.259 143.311 214.027 150.957C213.763 159.718 209.168 166.693 208.353 168.108" fill="#0886A8"/>
<path d="M210.042 137.42C209.716 136.884 207.232 134.807 208.23 134.68C209 134.582 211.897 137.246 213.206 138.166C214.946 139.387 218.729 144.09 218.722 146.296C218.716 148.323 215.044 147.932 213.826 147.562C214.958 153.161 220.366 153.755 219.825 154.614C219.559 155.034 218.078 159.045 212.241 166.073C210.215 168.515 208.362 169.904 205.014 172.944C206.116 171.883 210.765 164.117 212.5 157.871C214.599 150.302 212.716 141.821 210.042 137.42Z" fill="#D7F1FF"/>
<path d="M210.042 179.59C215.339 206.745 216.309 234.698 212.905 262.118" stroke="#1B5970" stroke-miterlimit="10"/>
<path d="M196.658 240.458C195.841 247.264 194.952 254.299 191.411 260.191C187.873 266.085 180.923 270.554 174.126 269.09C167.158 267.588 162.686 260.346 162.129 253.334C161.574 246.323 164.048 239.472 166.484 232.871C176.114 236.835 186.287 239.509 196.658 240.458Z" fill="#C6E5FA"/>
<path d="M254.97 159.126L238.703 162.385L297.13 454.073L313.396 450.814L254.97 159.126Z" fill="#CE3657"/>
<path d="M246.892 160.742L238.758 162.37L297.156 454.088L305.29 452.46L246.892 160.742Z" fill="#CE3657"/>
<path d="M239.453 118.738L237.489 119.131L238.959 126.47L240.923 126.077L239.453 118.738Z" fill="#010148"/>
<path d="M237.816 157.871L236.105 149.329C236.105 149.329 235.93 124.802 239.511 124.085C242.766 123.433 252.372 146.071 252.372 146.071L254.135 154.869L237.816 157.871Z" fill="#D3405F"/>
<path d="M254.818 153.239L236.606 156.887L238.693 167.307L256.905 163.659L254.818 153.239Z" fill="#94DCF8"/>
<path d="M205.013 172.944C205.013 172.944 192.372 140.718 192.77 139.004C193.167 137.29 193.536 132.121 193.536 132.121C193.536 132.121 187.248 132.692 186.075 134.677C184.899 136.662 188.73 143.463 188.73 143.463C188.73 143.463 190.096 147.239 188.73 148.691C187.364 150.142 205.013 172.944 205.013 172.944Z" fill="#D7F1FF"/>
<path d="M231.886 222.417L229.762 191.375L246.586 201.656C246.586 201.656 243.884 209.972 239.213 214.999C234.542 220.025 231.886 222.417 231.886 222.417Z" fill="#36A9CE"/>
<path d="M227.491 194.82C231.257 192.493 234.858 188.694 236.635 184.67C237.775 182.094 241.737 174.075 245.064 174.556C247.523 174.915 243.041 180.585 244.039 180.087C245.31 179.453 246.66 179 248.084 178.804C252.043 178.262 258 179.204 258.61 183.101C258.919 185.061 253.877 181.961 252.07 183.397C255.14 184.701 258.95 184.454 259.171 187.705C259.382 190.783 254.78 186.182 252.331 187.15C255.965 189.673 260.594 191.158 259.221 193.139C258.326 194.428 256.473 192.85 255.157 192.007C253.841 191.161 251.82 190.354 250.294 190.761C252.807 191.842 255.771 193.001 257.292 195.256C257.471 195.522 257.649 195.83 257.594 196.147C257.507 196.635 256.901 196.88 256.414 196.778C255.927 196.674 255.536 196.336 255.142 196.039C249.845 192.044 246.226 194.441 244.037 196.867C240.284 201.028 237.01 203.36 232.426 202.888C231.804 202.824 231.162 202.702 230.664 202.331C230.026 201.856 229.732 201.063 229.469 200.314C228.759 198.286 228.047 196.256 227.337 194.227C227.551 194.48 227.767 194.733 227.491 194.82Z" fill="#FFB6B6"/>
<path d="M160.112 148.644C166.633 135.647 181.022 131.048 187.226 137.715C196.923 148.139 194.053 177.159 203.331 182.714C210.439 186.969 220.144 188.512 230.749 186.159C234.602 196.311 238.597 205.591 237.595 206.653C229.334 215.412 212.781 220.181 197.43 217.53C166.655 212.213 147.787 173.206 160.112 148.644Z" fill="#C6E5FA"/>
<path d="M199.541 182.289C199.849 186.518 197.841 190.539 195.888 194.317" stroke="#1B5970" stroke-miterlimit="10"/>
<path d="M197.871 181.138C193.691 181.965 190.021 184.967 188.427 188.867" stroke="#1B5970" stroke-miterlimit="10"/>
<path d="M196.039 179.06C194.499 178.124 192.554 178.034 190.789 178.424C189.023 178.816 187.396 179.647 185.79 180.471" stroke="#1B5970" stroke-miterlimit="10"/>
<path d="M165.706 234.518C163.736 240.924 160.974 250.49 161.847 256.975C163.028 265.753 172.25 276.038 185.751 266.282C193.965 260.347 196.741 244.951 196.658 243.214" stroke="#1B5970" stroke-miterlimit="10"/>
<path d="M209.695 141.544C203.647 144.399 191.878 141.449 192.684 137.52C194.579 128.306 192.371 121.46 190.62 114.203C196.423 114.018 203.435 117.089 209.243 117.37C208.377 123.102 207.744 128.133 208.958 135.064C209.344 137.292 209.695 141.544 209.695 141.544Z" fill="#FFB6B6"/>
<path d="M208.593 133.07C205.774 133.047 201.456 130.838 199.017 127.696C198.049 126.451 197.354 125.048 196.833 123.584C197.667 124.356 198.801 124.795 199.92 125.181C201.82 125.832 203.771 126.379 205.751 126.815C206.557 126.991 207.377 127.153 208.21 127.091C207.966 127.498 208.402 131.957 208.593 133.07Z" fill="#010148"/>
<path d="M201.715 98.763C209.267 99.775 212.007 104.005 214.307 112.063C215.233 115.306 216.335 119.133 214.724 123.261C211.21 132.267 199.983 126.728 198.149 125.437C194.085 122.575 190.658 119.393 189.216 114.908C187.773 110.423 188.563 105.232 191.952 101.774C195.34 98.316 198.044 98.271 201.715 98.763Z" fill="#FFB6B6"/>
<path d="M209.23 109.095C209.062 108.577 208.517 108.289 208.015 108.454C207.513 108.619 207.243 109.172 207.413 109.688C207.581 110.206 208.126 110.492 208.628 110.328C209.129 110.164 209.4 109.612 209.23 109.095Z" fill="#010148"/>
<path d="M201.237 113.574C201.067 113.055 200.524 112.77 200.022 112.934C199.522 113.098 199.249 113.651 199.418 114.168C199.589 114.685 200.131 114.971 200.633 114.809C201.137 114.642 201.407 114.091 201.237 113.574Z" fill="#010148"/>
<path d="M204.524 110.338C205.519 112.264 207.166 113.553 208.741 114.682C208.883 114.783 209.035 114.901 209.109 115.085C209.17 115.234 209.16 115.389 209.135 115.532C209.013 116.268 208.531 116.802 207.92 116.879" stroke="#010148" stroke-width="0.25" stroke-miterlimit="10" stroke-linecap="round"/>
<path d="M209.184 107.687C209.018 108.224 208.652 108.692 208.176 108.973C207.7 109.256 207.121 109.35 206.578 109.234" stroke="#010148" stroke-width="0.5" stroke-miterlimit="10"/>
<path d="M201.189 112.165C201.023 112.704 200.659 113.173 200.183 113.453C199.707 113.735 199.128 113.83 198.583 113.711" stroke="#010148" stroke-width="0.5" stroke-miterlimit="10"/>
<path d="M211.469 119.271C210.878 119.891 210.219 120.474 209.425 120.777C208.627 121.078 207.669 121.058 206.974 120.539" stroke="#010148" stroke-miterlimit="10" stroke-linecap="round"/>
<path d="M200.005 109.908C198.533 109.86 197.109 110.896 196.678 112.327" stroke="#010148" stroke-miterlimit="10" stroke-linecap="round"/>
<path d="M208.191 105.624C206.899 105.503 205.585 106.27 205.032 107.464" stroke="#010148" stroke-miterlimit="10" stroke-linecap="round"/>
<path d="M178.701 109.639C179.594 111.296 180.756 112.17 182.152 113.127C184.381 114.657 183.456 115.32 184.653 117.479C185.6 119.189 192.848 123.504 193.395 119.751C193.669 117.87 190.769 116.269 190.089 114.548C189.451 112.932 189.219 110.502 190.236 108.943C191.121 107.584 192.078 108.03 193.163 107.192C194.156 106.424 194.229 105.321 194.863 104.323C196.491 101.755 198.431 102.083 201.278 101.732C203.388 101.472 205.473 100.713 207.539 101.982C209.337 103.087 209.745 103.406 211.494 105.624C213.389 103.389 215.732 99.588 213.211 93.05C211.82 89.44 207.68 84.404 203.419 86.47C201.536 87.382 201.766 90.242 199.127 89.657C197.17 89.222 196.912 86.859 194.258 87.601C191.779 88.294 192.26 90.362 191.261 92.25C189.882 94.86 188.921 93.601 186.64 93.771C184.306 93.945 182.215 96.194 181.813 98.417C181.814 98.415 175.214 103.167 178.701 109.639Z" fill="#010148"/>
<path d="M192.361 115.705C191.51 114.871 190.25 114.478 189.115 114.752C187.975 115.03 187.011 115.992 186.783 117.169C186.611 118.024 186.811 118.921 187.141 119.731C188.307 122.606 191.211 124.655 194.226 124.736C194.581 124.745 194.943 124.728 195.273 124.6C195.901 124.353 196.332 123.713 196.467 123.035C196.609 122.357 196.492 121.645 196.282 120.981C195.575 118.743 193.778 117.088 192.361 115.705Z" fill="#FFB6B6"/>
<path d="M191.308 105.296C188.991 108.821 193.316 111.073 194.755 113.694C196.299 116.502 195.8 119.121 192.521 116.828C190.715 115.566 187.337 113.358 186.713 111.098C185.898 108.146 188.147 105.681 190.783 105.327C190.841 105.633 190.845 105.945 190.824 106.262" fill="#010148"/>
</g>
<defs>
<clipPath id="clip0_1_2">
<rect width="750" height="500" fill="white"/>
</clipPath>
</defs>
</svg>
