<svg width="306" height="306" viewBox="0 0 306 306" fill="none" xmlns="http://www.w3.org/2000/svg">
<g clip-path="url(#clip0_89_1714)">
<path d="M84.8447 107.713C84.8447 107.713 97.9562 108.025 98.2683 118.952C98.5804 129.878 92.961 142.677 102.639 145.799C112.316 148.921 78.9132 149.545 83.9077 125.819C88.4959 104.025 81.4102 108.962 81.4102 108.962L84.8447 107.713Z" fill="#B75353"/>
<path opacity="0.2" d="M84.8447 107.713C84.8447 107.713 97.9562 108.025 98.2683 118.952C98.5804 129.878 92.961 142.677 102.639 145.799C112.316 148.921 78.9132 149.545 83.9077 125.819C88.4959 104.025 81.4102 108.962 81.4102 108.962L84.8447 107.713Z" fill="#0B0C1E"/>
<path d="M85.3223 112.887C87.836 112.279 89.381 109.749 88.7733 107.235C88.1656 104.722 85.6352 103.177 83.1216 103.784C80.608 104.392 79.063 106.922 79.6707 109.436C80.2784 111.95 82.8087 113.495 85.3223 112.887Z" fill="#007E89"/>
<path d="M94.4601 143.12C92.1021 146.223 89.3358 149.03 85.9233 150.926C80.3443 154.024 61.4666 177.836 55.2278 177.017C46.4291 175.861 46.0019 148.425 43.1035 138.774C57.7707 133.793 58.3399 135.509 55.6862 118.771L79.9 106.964C79.9 106.964 77.4226 131.089 85.7158 133.712C88.3885 134.557 92.9589 135.577 98.0085 137.225C96.8628 139.209 95.8518 141.289 94.4601 143.12Z" fill="#FFA099"/>
<path opacity="0.5" d="M56.7969 130.753C57.1586 128.337 56.6299 124.728 55.6855 118.771L79.8993 106.964C79.8993 106.964 79.3406 112.434 79.6484 118.447C74.4268 128.97 57.1121 130.801 56.7969 130.753Z" fill="#B75353"/>
<path d="M81.2865 91.3173C81.2865 91.3173 82.1182 107.926 71.6806 116.426C61.0807 125.057 47.7495 127.364 38.0169 115.162C28.3877 103.089 27.3754 67.3802 36.1423 58.5814C44.9092 49.7827 75.4511 64.7834 79.016 71.1642C82.5815 77.5449 81.2865 91.3173 81.2865 91.3173Z" fill="#FFA099"/>
<path d="M79.1875 96.2949C79.1875 96.2949 80.6288 88.9265 85.9275 88.1804C91.2262 87.435 89.9128 105.692 79.1459 105.742C68.3784 105.793 79.1875 96.2949 79.1875 96.2949Z" fill="#FFA099"/>
<path d="M54.2493 63.6959C54.2493 63.6959 53.3129 79.9292 76.7262 88.9825C76.7262 88.9825 74.5407 100.221 76.102 107.089C76.102 107.089 80.2115 87.4329 86.1173 88.2077C92.0231 88.9825 87.0959 106.027 78.2874 105.528L79.2238 110.835C79.2238 110.835 97.9546 102.094 92.3353 73.9983C86.7159 45.902 57.059 42.7802 54.2493 63.6959Z" fill="#B75353"/>
<path opacity="0.2" d="M92.3369 73.9976C90.2647 63.6364 84.9225 56.6761 78.8643 53.061C77.9047 63.3145 69.7229 73.041 61.7461 79.7259C65.0631 83.0356 69.8416 86.3196 76.7285 88.9824C76.7285 88.9824 74.543 100.221 76.1042 107.089C76.1042 107.089 80.2138 87.4328 86.1196 88.2076C92.0254 88.9824 87.0982 106.027 78.2897 105.528L79.226 110.835C79.226 110.835 97.9563 102.094 92.3369 73.9976Z" fill="#0B0C1E"/>
<path d="M60.4938 68.6911C60.4938 68.6911 70.1714 57.1408 61.4302 51.5214C52.689 45.902 31.4636 45.891 25.8418 70.8765C20.2224 95.851 34.2709 122.386 42.0751 128.63C42.0751 128.63 27.0903 99.9092 33.3339 77.1201C33.3339 77.1201 38.9539 57.1402 60.4938 68.6911Z" fill="#B75353"/>
<path d="M54.2496 63.6958C54.2496 63.6958 54.331 64.2068 54.5091 65.0832C54.6909 65.959 54.9663 67.2007 55.3775 68.6567C55.577 69.3862 55.8371 70.1616 56.0991 70.9804C56.3836 71.7926 56.7031 72.6396 57.0617 73.4988C57.4087 74.3642 57.8463 75.2204 58.2857 76.0863C58.7533 76.937 59.2264 77.803 59.7882 78.609C60.3188 79.4364 60.929 80.2045 61.5348 80.956C61.8617 81.3098 62.1689 81.6782 62.4914 82.024C62.8286 82.3545 63.1401 82.7076 63.4859 83.0111C64.1665 83.6317 64.8476 84.2094 65.5269 84.7217C65.8745 84.9683 66.2124 85.2088 66.5392 85.4408C66.8782 85.6586 67.2063 85.8686 67.5208 86.0705C67.8329 86.2817 68.1616 86.4279 68.456 86.606C68.7558 86.7737 69.0337 86.9518 69.314 87.0773C69.8709 87.3337 70.3428 87.6109 70.7552 87.7786C71.5735 88.1317 72.0441 88.3582 72.0441 88.3582C72.0441 88.3582 71.5355 88.2915 70.6408 88.1336C70.1916 88.0607 69.6634 87.9059 69.049 87.7431C68.4394 87.5687 67.7589 87.33 67.0331 87.0289C66.6732 86.8673 66.298 86.699 65.91 86.5252C65.5312 86.3318 65.1524 86.1066 64.754 85.8875C63.9755 85.4224 63.1707 84.8918 62.4033 84.2566C61.6334 83.6262 60.8739 82.9261 60.1664 82.1531C59.4755 81.3673 58.8108 80.5338 58.2282 79.647C57.6309 78.7681 57.126 77.8348 56.6646 76.9034C56.2147 75.9658 55.839 75.0147 55.5226 74.0827C55.1866 73.1567 54.9638 72.2301 54.7563 71.3574C54.5611 70.481 54.4167 69.645 54.3267 68.869C54.2208 68.0961 54.1749 67.3819 54.1486 66.7503C54.115 66.1193 54.1278 65.5673 54.1388 65.115C54.1682 64.208 54.2496 63.6958 54.2496 63.6958Z" fill="#B75353"/>
<path d="M47.8815 87.1286C47.8815 87.1286 47.6459 86.9885 47.2327 86.7443C46.8233 86.5087 46.2548 86.1751 45.5761 85.8337C44.8998 85.4903 44.1207 85.128 43.2933 84.8667C42.8802 84.7351 42.4567 84.6256 42.0301 84.5576C41.6036 84.4824 41.1752 84.4511 40.7492 84.4603C40.3227 84.4566 39.9004 84.5209 39.4805 84.598C39.2712 84.6366 39.0674 84.7082 38.8569 84.7504C38.6507 84.8196 38.4475 84.8881 38.2474 84.956C38.0485 85.0387 37.8545 85.1256 37.6549 85.1996C37.4634 85.2926 37.2773 85.3887 37.0876 85.4744C36.7253 85.6758 36.3593 85.8514 36.0423 86.0589C35.7143 86.2504 35.4058 86.4322 35.1415 86.6109C34.8746 86.7853 34.6249 86.9304 34.434 87.0662C34.0405 87.3275 33.7871 87.4659 33.7871 87.4659C33.7871 87.4659 33.8691 87.199 34.0625 86.7517C34.1555 86.5252 34.2816 86.2565 34.4591 85.9689C34.5454 85.8214 34.6372 85.6641 34.7339 85.4989C34.8416 85.3404 34.964 85.1807 35.0888 85.0087C35.3342 84.6623 35.6604 84.3306 36.0111 83.9787C36.1966 83.8116 36.3955 83.6494 36.5974 83.4774C36.811 83.3183 37.0423 83.1727 37.2743 83.0154C37.759 82.732 38.2933 82.4701 38.8796 82.3012C39.4628 82.1237 40.0864 82.0258 40.7125 82.0142C41.3367 82.0154 41.9634 82.0778 42.5442 82.2437C43.1311 82.3893 43.674 82.62 44.1623 82.885C45.1458 83.4126 45.9017 84.0943 46.458 84.732C47.0118 85.3765 47.3717 85.9799 47.5889 86.4169C47.8062 86.8539 47.8815 87.1286 47.8815 87.1286Z" fill="#773737"/>
<path d="M69.1885 85.9518C69.1885 85.9518 68.9333 85.8098 68.4859 85.5608C68.041 85.3239 67.4235 84.9849 66.6781 84.6501C65.9394 84.3068 65.0808 83.961 64.1701 83.7095C63.2582 83.4647 62.2956 83.3074 61.3445 83.349C60.8678 83.3478 60.3959 83.4243 59.929 83.5044C59.6952 83.5454 59.4681 83.6201 59.2362 83.6642C59.0091 83.7315 58.787 83.8123 58.5599 83.8729C58.3402 83.9573 58.126 84.0479 57.9063 84.1225C57.6927 84.218 57.484 84.311 57.2808 84.4016C57.0715 84.4861 56.8843 84.6048 56.6878 84.696C56.4901 84.786 56.3059 84.8876 56.1303 84.9916C55.7723 85.188 55.4332 85.3686 55.1444 85.5516C54.853 85.7303 54.5807 85.8753 54.3726 86.0149C53.9442 86.2817 53.6719 86.4218 53.6719 86.4218C53.6719 86.4218 53.7796 86.1452 54.017 85.6825C54.1321 85.4481 54.2869 85.1727 54.495 84.8771C54.5966 84.7272 54.7013 84.5626 54.8206 84.3961C54.9455 84.2339 55.0856 84.0718 55.2294 83.8961C55.5134 83.5436 55.8787 83.2095 56.2729 82.8588C56.4785 82.6923 56.6952 82.5271 56.9204 82.3582C57.1542 82.2009 57.4039 82.0552 57.6554 81.8998C58.1793 81.6238 58.7472 81.3649 59.3629 81.1984C59.9761 81.0252 60.6254 80.9193 61.2778 80.9028C61.9302 80.8894 62.5838 80.945 63.2013 81.0919C63.8243 81.218 64.4045 81.4414 64.9394 81.6862C66.0073 82.1911 66.8641 82.8575 67.4994 83.5014C68.1377 84.1458 68.5618 84.767 68.8256 85.2156C69.0894 85.666 69.1885 85.9518 69.1885 85.9518Z" fill="#773737"/>
<g opacity="0.8">
<path d="M81.7031 102.985C81.9602 102.696 82.2025 102.4 82.4302 102.102C82.6523 101.804 82.869 101.5 83 101.191C83.0697 101.042 83.1168 100.891 83.1199 100.777C83.1217 100.657 83.0862 100.616 83.0465 100.588C83.0189 100.573 82.9889 100.552 82.9479 100.528C82.8953 100.507 82.8488 100.482 82.7796 100.465C82.6554 100.423 82.4951 100.401 82.3372 100.381L81.91 100.328L81.8745 99.8197C81.8347 99.2474 81.8531 98.6997 81.8696 98.1391C81.8843 97.581 81.9369 97.0234 82.0079 96.4653C82.0875 95.9078 82.1835 95.349 82.3323 94.7933C82.4773 94.2364 82.667 93.6807 82.9418 93.1378C83.0862 92.8679 83.2429 92.5993 83.451 92.3441C83.6523 92.0907 83.8947 91.838 84.2166 91.6537C84.369 91.5589 84.5514 91.4879 84.7301 91.4377L84.8684 91.4059L84.9375 91.3912L84.9718 91.3839L85.0269 91.3759H85.033L85.0459 91.3753L85.2503 91.3673L85.4547 91.3594C85.5385 91.3618 85.6456 91.3759 85.7393 91.3869C85.8353 91.4016 85.9327 91.4089 86.0232 91.4371L86.2858 91.5485C86.4596 91.6121 86.6071 91.7645 86.7429 91.8845C86.8562 92.0326 86.9718 92.1795 87.0263 92.3416C87.1713 92.6574 87.1824 92.9763 87.1842 93.2713C87.1707 93.8649 87.0135 94.4139 86.787 94.9218C86.7993 94.3686 86.7552 93.8208 86.6377 93.3294C86.5746 93.0877 86.481 92.8588 86.3574 92.6984C86.2423 92.5234 86.0936 92.442 85.932 92.409C85.8476 92.3918 85.768 92.3796 85.6879 92.3918C85.6456 92.3943 85.6175 92.3869 85.5655 92.3906L85.3641 92.4292L85.1628 92.4677L85.1505 92.4701L85.1444 92.4714L85.1413 92.472C85.1621 92.4689 85.0905 92.4799 85.1866 92.4653L85.1719 92.472L85.1426 92.4855L85.0844 92.5099C85.0085 92.5485 84.9357 92.587 84.8678 92.6507C84.5832 92.8649 84.3408 93.2725 84.1615 93.7113C83.7943 94.6066 83.5783 95.6391 83.4082 96.6734C83.32 97.1923 83.2503 97.7174 83.178 98.245C83.1071 98.7701 83.0661 99.3105 83.0091 99.8264L82.5471 99.2652C82.76 99.3252 82.9724 99.3876 83.1952 99.5008C83.3041 99.5504 83.4186 99.6269 83.5281 99.7058C83.6401 99.7964 83.7472 99.9047 83.8341 100.044C83.9161 100.188 83.9743 100.35 83.9859 100.511C83.9993 100.67 83.9798 100.82 83.9406 100.946C83.8641 101.203 83.7392 101.397 83.6101 101.57C83.3378 101.907 83.0324 102.162 82.7129 102.394C82.3922 102.623 82.055 102.82 81.7031 102.985Z" fill="#B75353"/>
</g>
<path d="M41.3461 93.0505C41.2787 95.0487 41.7665 96.6864 42.4342 96.709C43.1025 96.7317 43.6986 95.1301 43.7659 93.1319C43.8332 91.1337 43.3461 89.496 42.6778 89.4734C42.0095 89.4513 41.4134 91.0529 41.3461 93.0505Z" fill="#0B0C1E"/>
<path d="M60.9359 91.1477C60.8686 93.1459 61.3563 94.7836 62.024 94.8056C62.6923 94.8282 63.2884 93.2266 63.3557 91.2285C63.4231 89.2303 62.9353 87.5926 62.2676 87.5705C61.5993 87.5485 61.0032 89.1501 60.9359 91.1477Z" fill="#0B0C1E"/>
<g opacity="0.8">
<path d="M47.3825 93.6655L44.7656 100.577L49.4083 104.704" fill="#FFA099"/>
<path d="M47.3823 93.6655C47.3958 93.9997 47.3829 94.3247 47.3548 94.6429C47.3272 94.9617 47.2936 95.2781 47.2403 95.5872C47.1399 96.2078 47.0004 96.8137 46.8321 97.4085C46.4912 98.5964 46.0457 99.7451 45.4802 100.848L45.2727 100.005C46.0059 100.738 46.7232 101.49 47.4172 102.268C48.1063 103.051 48.7874 103.843 49.4074 104.704C48.4802 104.188 47.613 103.605 46.755 103.013C45.9013 102.415 45.0708 101.791 44.2562 101.148L43.9043 100.871L44.0487 100.305C44.356 99.1044 44.7825 97.9489 45.3143 96.8326C45.5824 96.2757 45.8786 95.7292 46.2146 95.198C46.3792 94.9311 46.564 94.6717 46.755 94.4146C46.9453 94.1582 47.151 93.9067 47.3823 93.6655Z" fill="#B75353"/>
</g>
<g opacity="0.8">
<path d="M44.3574 108.844C44.3574 108.844 44.6145 109.046 45.0894 109.349C45.317 109.511 45.6218 109.672 45.9443 109.883C46.2913 110.061 46.6573 110.295 47.0888 110.492C47.3011 110.595 47.5221 110.7 47.751 110.811C47.9847 110.907 48.2259 111.007 48.4743 111.11C48.7173 111.222 48.9811 111.302 49.2485 111.385C49.5184 111.461 49.7804 111.576 50.0613 111.644C50.6261 111.768 51.1996 111.929 51.8006 111.983C52.0992 112.016 52.3973 112.082 52.7008 112.09L53.6139 112.098C53.7663 112.098 53.9187 112.115 54.0705 112.106L54.5246 112.058C54.8269 112.028 55.1286 111.997 55.4279 111.967C56.0172 111.853 56.5962 111.711 57.1623 111.592C57.7113 111.398 58.2419 111.211 58.7449 111.034C59.0063 110.962 59.226 110.815 59.4579 110.712C59.688 110.603 59.9102 110.497 60.1232 110.395C60.5516 110.191 60.9549 110.016 61.2762 109.797C61.6122 109.598 61.9053 109.424 62.147 109.281C62.6373 109 62.9292 108.845 62.9292 108.845C62.9292 108.845 62.7076 109.079 62.3 109.477C62.095 109.675 61.8465 109.919 61.551 110.188C61.3998 110.317 61.2566 110.481 61.0718 110.608C60.8875 110.736 60.6935 110.871 60.491 111.011C60.0779 111.279 59.6556 111.625 59.144 111.877C58.6293 112.121 58.087 112.397 57.5075 112.636C56.9022 112.802 56.2847 113.03 55.6329 113.155C55.3024 113.197 54.9695 113.239 54.6354 113.281L54.1323 113.344C53.964 113.356 53.7939 113.346 53.6249 113.346L52.6102 113.313C52.2736 113.295 51.9444 113.218 51.6151 113.174C50.9499 113.104 50.3361 112.86 49.732 112.689C49.4334 112.592 49.1524 112.459 48.8758 112.339C48.5992 112.218 48.3293 112.101 48.0833 111.953C47.8348 111.812 47.5925 111.676 47.3587 111.544C47.1384 111.392 46.9248 111.245 46.7204 111.104C46.3042 110.837 45.9743 110.517 45.6647 110.267C45.3733 109.991 45.1188 109.755 44.9303 109.538C44.7326 109.331 44.5943 109.151 44.5 109.032C44.4027 108.912 44.3574 108.844 44.3574 108.844Z" fill="#B75353"/>
</g>
<path d="M18.9443 169.204C18.9443 169.204 20.418 194.534 17.0153 216.064C13.6125 237.593 12.2906 274.886 22.9645 298.32L26.3128 295.856L40.6409 171.847L18.9443 169.204Z" fill="#FFA099"/>
<path opacity="0.5" d="M31.1583 187.081C33.5897 188.062 36.061 188.988 38.5567 189.878L40.64 171.847L18.9434 169.203C18.9434 169.203 19.2432 174.388 19.2592 182.049C23.2163 183.737 27.1472 185.464 31.1583 187.081Z" fill="#B75353"/>
<path d="M15.0098 175.269L32.9616 182.613L35.4096 136.917C35.4096 136.917 19.9058 144.261 15.0098 175.269Z" fill="#0A96CC"/>
<path d="M21.9454 266.865C21.9454 266.865 17.5151 284.58 22.4111 306H65.1464H69.2634H117.216C117.216 306 113.499 275.738 111.099 265.27C108.228 252.743 21.9454 266.865 21.9454 266.865Z" fill="#0A96CC"/>
<path opacity="0.2" d="M50.4261 285.344C61.9439 286.569 73.6619 286.862 85.2415 286.832C94.9448 286.806 104.789 286.191 114.274 284.015C113.218 276.734 112.055 269.435 111.1 265.269C108.228 252.742 21.9466 266.864 21.9466 266.864C21.9466 266.864 20.9895 270.697 20.457 276.947C29.6101 281.94 40.0796 284.245 50.4261 285.344Z" fill="#0B0C1E"/>
<path d="M47.2432 134.877L35.4114 136.917C35.4114 136.917 21.9492 174.458 28.0674 192.812C34.1856 211.167 18.5471 240.285 17.8672 271.557C17.8672 271.557 59.3626 288.144 113.747 271.148C113.747 271.148 116.639 144.143 105.762 140.064C94.8849 135.985 86.0477 133.266 86.0477 133.266L60.7072 155.685L47.2432 134.877Z" fill="#0A96CC"/>
<path d="M91.5801 135.054C88.1577 133.916 86.0476 133.267 86.0476 133.267L60.7071 155.685L47.2431 134.877L41.1035 135.85C47.7425 145.375 53.1593 155.808 60.4054 164.843C71.9918 156.203 82.7403 146.603 91.5801 135.054Z" fill="#0EB0E2"/>
<path d="M35.0117 175.924L40.453 248.285L94.2258 246.014L89.7447 171.381L35.0117 175.924Z" fill="#B75353"/>
<path d="M48.3223 171.99L48.6797 177.094L74.4204 175.733L73.3476 169.608L48.3223 171.99Z" fill="#D6D6D6"/>
<path d="M116.776 153.718C111.503 142.489 106.71 140.447 106.71 140.447L103.955 204.645C90.5527 208.117 63.5335 211.215 51.1325 212.521L51.1105 212.414C51.1105 212.414 49.9446 212.308 48.2855 212.201C48.2684 212.187 48.2525 212.173 48.2347 212.158C37.4984 203.175 41.6374 209.215 43.723 211.992C40.2971 211.912 36.9709 212.058 36.9709 212.924C36.9709 214.71 38.6483 215.221 38.6483 215.221C38.6483 215.221 34.5743 216.497 36.9709 218.794C36.9709 218.794 35.0535 220.835 37.2108 221.856C37.2108 221.856 34.8142 224.919 40.0865 225.429C42.3503 225.648 45.2316 225.867 47.7843 226.046C59.7385 227.02 117.27 231.123 120.276 220.149C123.631 207.899 122.047 164.946 116.776 153.718Z" fill="#FFA099"/>
<path d="M123.539 174.861C122.649 166.095 118.578 157.559 116.774 153.718C111.502 142.489 106.709 140.447 106.709 140.447L98.6504 178.941C105.179 180.573 115.787 178.533 123.539 174.861Z" fill="#0A96CC"/>
<path d="M223.6 102.849C223.6 102.849 218.296 97.7497 214.216 101.422C210.136 105.094 219.316 108.766 219.316 108.766C219.316 108.766 208.504 102.646 206.872 109.378C205.24 116.11 212.992 116.925 212.992 116.925C212.992 116.925 207.892 116.925 208.3 119.985C208.708 123.045 214.216 118.761 214.216 118.761C214.216 118.761 207.688 125.697 215.644 128.962C223.6 132.225 224.62 121.006 224.62 121.006C224.62 121.006 221.764 131.613 230.128 131.41C238.492 131.206 237.954 117.5 237.954 117.5L233.393 106.114L223.6 102.849Z" fill="#0B0C1E"/>
<path d="M252.874 123.161C252.874 123.161 250.77 130.212 255.902 132.157C261.035 134.102 260.095 124.26 260.095 124.26C260.095 124.26 259.607 136.674 266.339 135.041C273.071 133.409 270.246 126.144 270.246 126.144C270.246 126.144 272.582 130.678 275.115 128.913C277.648 127.149 271.317 124.215 271.317 124.215C271.317 124.215 280.473 126.842 279.731 118.274C278.988 109.706 268.547 113.938 268.547 113.938C268.547 113.938 279.285 111.619 275.273 104.277C271.261 96.9356 259.324 103.691 259.324 103.691L251.291 112.961L252.874 123.161Z" fill="#0B0C1E"/>
<path d="M216.923 143.121C219.281 146.223 222.048 149.031 225.46 150.926C231.039 154.025 249.917 177.837 256.156 177.017C264.954 175.861 265.382 148.425 268.28 138.774C253.613 133.793 253.044 135.51 255.697 118.772L231.483 106.965C231.483 106.965 233.961 131.089 225.668 133.712C222.995 134.557 218.425 135.578 213.375 137.225C214.521 139.209 215.532 141.289 216.923 143.121Z" fill="#B75353"/>
<path opacity="0.8" d="M254.587 130.753C254.225 128.338 254.754 124.728 255.698 118.772L231.484 106.965C231.484 106.965 232.043 112.434 231.735 118.448C236.957 128.971 254.272 130.801 254.587 130.753Z" fill="#844545"/>
<path d="M228.788 91.9462C228.788 91.9462 227.942 108.85 238.564 117.5C249.352 126.285 265.379 130.251 273.838 116.807C283.099 102.089 283.655 67.5849 274.733 58.6307C265.81 49.6759 234.727 64.9429 231.099 71.4362C227.47 77.9295 228.788 91.9462 228.788 91.9462Z" fill="#B75353"/>
<path d="M230.925 97.0119C230.925 97.0119 229.459 89.5125 224.066 88.7536C218.673 87.9947 220.01 106.575 230.968 106.626C241.927 106.678 230.925 97.0119 230.925 97.0119Z" fill="#B75353"/>
<path d="M239.715 71.4336C239.715 71.4336 242.367 83.4698 232.575 89.1816C232.575 89.1816 233.187 100.198 230.535 100.198C227.884 100.198 228.177 91.946 228.177 91.946C228.177 91.946 225.627 88.7893 222.783 88.7734C222.783 88.7734 223.395 77.5536 224.619 72.0456C225.843 66.5376 239.715 71.4336 239.715 71.4336Z" fill="#0B0C1E"/>
<path d="M223.1 77.7129C223.1 77.7129 243.084 66.378 281.148 78.0923C281.148 78.0923 281.725 60.0242 277.151 53.4452C271.494 45.3087 233.83 40.8037 226.121 55.0988C221.059 64.4851 223.1 77.7129 223.1 77.7129Z" fill="#00D8C8"/>
<path d="M241.464 46.5205C234.557 47.6747 228.683 50.3473 226.121 55.0995C221.059 64.4858 223.1 77.7135 223.1 77.7135C223.1 77.7135 226.492 75.7949 233.128 74.3524C233.785 65.1222 237.474 54.952 241.464 46.5205Z" fill="#00BFB5"/>
<path d="M264.623 87.6827C264.623 87.6827 264.7 87.4037 264.921 86.9575C265.142 86.512 265.509 85.8981 266.072 85.2427C266.638 84.594 267.408 83.8999 268.408 83.3632C268.905 83.0939 269.458 82.8589 270.055 82.7108C270.646 82.5419 271.284 82.4783 271.919 82.4771C272.556 82.4893 273.191 82.589 273.785 82.7696C274.381 82.9416 274.925 83.2084 275.419 83.4966C275.655 83.6564 275.891 83.8045 276.108 83.9667C276.313 84.1417 276.516 84.3069 276.705 84.4771C277.062 84.8351 277.393 85.1723 277.643 85.5254C277.771 85.7005 277.895 85.8626 278.004 86.0242C278.103 86.1925 278.197 86.3522 278.284 86.5028C278.465 86.7953 278.593 87.0689 278.688 87.299C278.884 87.7543 278.968 88.0261 278.968 88.0261C278.968 88.0261 278.711 87.8853 278.31 87.6191C278.115 87.4802 277.861 87.3333 277.589 87.1558C277.32 86.974 277.006 86.7892 276.673 86.5946C276.35 86.3834 275.977 86.2047 275.609 85.9997C275.416 85.9128 275.227 85.8149 275.031 85.72C274.829 85.6441 274.631 85.556 274.428 85.4722C274.225 85.4036 274.018 85.3339 273.808 85.2629C273.594 85.2206 273.387 85.1478 273.173 85.108C272.746 85.0291 272.316 84.9642 271.883 84.9679C271.449 84.9587 271.013 84.9905 270.578 85.067C270.145 85.1362 269.714 85.2476 269.293 85.3816C268.45 85.6478 267.657 86.0162 266.969 86.3657C266.278 86.7133 265.699 87.053 265.283 87.2923C264.863 87.5401 264.623 87.6827 264.623 87.6827Z" fill="#0B0C1E"/>
<path d="M242.936 86.4851C242.936 86.4851 243.037 86.1944 243.305 85.7354C243.574 85.2789 244.005 84.6467 244.655 83.9912C245.301 83.3358 246.172 82.6577 247.26 82.1436C247.805 81.8945 248.395 81.6668 249.029 81.5389C249.658 81.3896 250.323 81.3327 250.987 81.3462C251.652 81.3627 252.312 81.471 252.936 81.6466C253.563 81.8162 254.141 82.0793 254.674 82.3608C254.93 82.5193 255.184 82.6675 255.422 82.8272C255.651 82.9986 255.872 83.1669 256.081 83.3364C256.483 83.6932 256.854 84.0334 257.144 84.3921C257.29 84.5708 257.433 84.736 257.559 84.9006C257.681 85.0702 257.788 85.2379 257.891 85.3902C258.102 85.6907 258.261 85.971 258.378 86.2097C258.619 86.6809 258.729 86.9625 258.729 86.9625C258.729 86.9625 258.452 86.8199 258.015 86.5482C257.803 86.4062 257.526 86.2587 257.23 86.0769C256.936 85.8909 256.59 85.7073 256.226 85.5071C256.048 85.4013 255.86 85.2978 255.659 85.2066C255.46 85.1136 255.269 84.9931 255.056 84.9068C254.849 84.8144 254.636 84.7201 254.419 84.6228C254.196 84.5469 253.978 84.4545 253.754 84.3688C253.523 84.307 253.297 84.225 253.065 84.1558C252.829 84.1105 252.598 84.0347 252.36 83.993C251.884 83.911 251.404 83.8333 250.919 83.8351C249.952 83.7929 248.972 83.9533 248.044 84.2024C247.117 84.4588 246.243 84.8107 245.491 85.1595C244.733 85.4998 244.104 85.845 243.652 86.0861C243.196 86.3401 242.936 86.4851 242.936 86.4851Z" fill="#0B0C1E"/>
<path d="M271.274 93.7097C271.342 95.7428 270.846 97.4099 270.166 97.4332C269.486 97.4558 268.88 95.826 268.811 93.793C268.742 91.7599 269.239 90.0928 269.919 90.0696C270.599 90.0469 271.205 91.6767 271.274 93.7097Z" fill="#0B0C1E"/>
<path d="M251.336 91.7736C251.405 93.8073 250.908 95.4738 250.228 95.497C249.548 95.5197 248.941 93.8899 248.873 91.8568C248.805 89.8238 249.301 88.1567 249.981 88.134C250.661 88.1102 251.268 89.7399 251.336 91.7736Z" fill="#0B0C1E"/>
<g opacity="0.8">
<path d="M265.132 94.3354C265.388 94.4909 265.62 94.6616 265.837 94.841C266.055 95.0203 266.268 95.2027 266.463 95.3973C266.857 95.7822 267.215 96.1898 267.548 96.6139C268.208 97.4646 268.772 98.3771 269.225 99.3581L269.497 99.9456L269.15 100.29C268.469 100.966 267.771 101.625 267.045 102.26C266.314 102.891 265.573 103.513 264.764 104.074C265.221 103.201 265.748 102.391 266.286 101.588C266.827 100.79 267.397 100.016 267.984 99.2584L267.909 100.19C267.218 99.3581 266.636 98.4579 266.152 97.4958C265.911 97.0136 265.697 96.5148 265.52 95.9934C265.428 95.7345 265.354 95.464 265.286 95.1898C265.217 94.9162 265.163 94.6335 265.132 94.3354Z" fill="#844545"/>
</g>
<g opacity="0.8">
<path d="M228.363 103.821C228.002 103.657 227.663 103.451 227.335 103.22C227.01 102.984 226.7 102.724 226.422 102.381C226.291 102.205 226.163 102.007 226.086 101.746C226.046 101.618 226.026 101.465 226.04 101.303C226.051 101.14 226.111 100.974 226.194 100.828C226.283 100.687 226.392 100.576 226.505 100.484C226.617 100.403 226.733 100.326 226.844 100.275C227.071 100.16 227.287 100.097 227.504 100.036L227.033 100.607C226.976 100.081 226.933 99.5313 226.862 98.997C226.789 98.4603 226.718 97.926 226.628 97.3979C226.455 96.3452 226.235 95.2944 225.861 94.3838C225.678 93.937 225.431 93.5221 225.142 93.3042C225.073 93.2393 224.999 93.1995 224.922 93.1604L224.863 93.1353L224.833 93.1218L224.818 93.1145C224.916 93.1292 224.843 93.1181 224.864 93.1212L224.861 93.1206L224.855 93.1194L224.842 93.1169L224.637 93.0778L224.432 93.0386C224.379 93.0349 224.351 93.0423 224.308 93.0398C224.226 93.0276 224.146 93.0392 224.059 93.0569C223.895 93.0906 223.744 93.1732 223.626 93.3519C223.501 93.5153 223.405 93.7479 223.341 93.9945C223.22 94.4951 223.179 95.0521 223.189 95.6157C222.956 95.0992 222.8 94.5398 222.785 93.9358C222.787 93.6353 222.798 93.3109 222.946 92.9896C223.001 92.825 223.119 92.6751 223.234 92.5245C223.373 92.4021 223.523 92.2473 223.699 92.1824L223.967 92.0692C224.059 92.041 224.158 92.0337 224.256 92.0184C224.351 92.0068 224.46 91.9927 224.545 91.9902L224.753 91.9982L224.961 92.0061L224.974 92.0068H224.981L225.037 92.0147L225.072 92.0221L225.142 92.0374L225.283 92.0698C225.464 92.1206 225.651 92.1928 225.805 92.2895C226.133 92.4768 226.379 92.7338 226.584 92.9921C226.796 93.2522 226.955 93.5257 227.102 93.7999C227.382 94.3526 227.575 94.9186 227.722 95.4847C227.873 96.0508 227.971 96.6194 228.052 97.1867C228.124 97.7553 228.178 98.3226 228.193 98.8905C228.209 99.4609 228.228 100.018 228.188 100.601L228.152 101.118L227.717 101.173C227.557 101.193 227.394 101.216 227.267 101.258C227.196 101.275 227.149 101.301 227.095 101.322C227.053 101.346 227.023 101.368 226.995 101.383C226.954 101.411 226.918 101.453 226.92 101.575C226.923 101.692 226.972 101.846 227.042 101.996C227.175 102.31 227.396 102.62 227.622 102.924C227.853 103.227 228.104 103.523 228.363 103.821Z" fill="#844545"/>
</g>
<path d="M228.178 91.9458C228.178 91.9458 234.812 101.467 242.399 100.069L237.208 117.938L236.708 116.641C236.708 116.641 231.917 112.647 230.519 106.358" stroke="white" stroke-miterlimit="10"/>
<path d="M262.462 97.9533C258.09 98.6259 247.223 98.3774 238.594 100.095C238.404 105.324 237.656 113.066 235.75 118.157C239.506 121.904 245.458 125.049 254.812 126.411C254.812 126.411 273.172 131.001 278.068 105.603C278.068 105.603 270.418 96.7293 262.462 97.9533Z" fill="white"/>
<g opacity="0.1">
<path d="M258.147 123.561C247.937 118.933 245.262 109.248 244.607 99.208C242.556 99.4277 240.519 99.7123 238.594 100.096C238.404 105.324 237.656 113.067 235.75 118.158C239.506 121.905 245.458 125.05 254.812 126.412C254.812 126.412 259.609 127.609 264.953 125.39C262.661 125.161 260.373 124.569 258.147 123.561Z" fill="#0B0C1E"/>
</g>
<path d="M292.437 169.205C292.437 169.205 290.963 194.535 294.366 216.064C297.769 237.594 299.091 274.887 288.417 298.32L285.068 295.856L270.74 171.848L292.437 169.205Z" fill="#B75353"/>
<path opacity="0.8" d="M280.224 187.082C277.792 188.062 275.321 188.988 272.825 189.879L270.742 171.847L292.439 169.204C292.439 169.204 292.139 174.388 292.123 182.05C288.166 183.737 284.235 185.464 280.224 187.082Z" fill="#844545"/>
<path d="M296.372 175.269L278.42 182.613L280.441 139.479C280.441 139.479 291.476 144.262 296.372 175.269Z" fill="#00BFB5"/>
<path opacity="0.8" d="M282.105 270.209L285.069 295.856L288.417 298.32C292.037 290.372 294.274 280.83 295.521 270.85C291.03 270.947 286.546 270.88 282.105 270.209Z" fill="#844545"/>
<path d="M282.441 271.9L285.323 296.843L288.998 299.547C292.482 291.896 294.795 282.896 296.236 273.408C291.619 273.077 287.015 272.612 282.441 271.9Z" fill="white"/>
<path d="M289.435 266.866C289.435 266.866 293.865 284.58 288.969 306H246.234H242.117H194.164C194.164 306 197.881 275.738 200.281 265.27C203.153 252.743 289.435 266.866 289.435 266.866Z" fill="#00BFB5"/>
<path opacity="0.2" d="M260.955 285.345C249.437 286.569 237.719 286.862 226.139 286.832C216.436 286.807 206.592 286.191 197.107 284.015C198.163 276.735 199.326 269.435 200.281 265.269C203.153 252.742 289.434 266.865 289.434 266.865C289.434 266.865 290.392 270.697 290.924 276.948C281.77 281.94 271.301 284.245 260.955 285.345Z" fill="#0B0C1E"/>
<path d="M264.14 134.877L280.441 139.48C280.441 139.48 289.435 174.458 283.316 192.814C277.198 211.168 292.837 240.286 293.517 271.558C293.517 271.558 252.021 288.145 197.636 271.15C197.636 271.15 184.382 150.944 201.594 142.138C211.936 136.846 225.336 133.267 225.336 133.267L250.677 155.685L264.14 134.877Z" fill="#00BFB5"/>
<path opacity="0.1" d="M263.331 210.018C236.659 194.486 222.798 165.35 210.748 138.095C207.701 139.276 204.525 140.638 201.594 142.138C184.382 150.944 197.636 271.15 197.636 271.15C252.021 288.145 293.517 271.558 293.517 271.558C293.103 252.517 287.148 234.28 283.931 218.78C276.764 216.581 269.804 213.787 263.331 210.018Z" fill="#0B0C1E"/>
<path d="M219.803 135.055C223.225 133.916 225.335 133.267 225.335 133.267L250.676 155.686L264.14 134.878L270.279 135.85C263.64 145.376 258.223 155.809 250.977 164.844C239.391 156.204 228.642 146.604 219.803 135.055Z" fill="#00D8C8"/>
<path d="M245.673 229.597C233.097 225.323 209.692 217.08 198.105 211.142L204.548 175.173C200.008 173.524 195.513 171.71 190.93 170.215C184.574 186.591 178.337 213.038 178.793 222.708C179.289 233.201 227.942 241.3 244.757 243.789C245.146 239.065 245.449 234.333 245.673 229.597Z" fill="#B75353"/>
<path opacity="0.8" d="M240.206 227.721C239.155 232.676 238.283 237.662 237.559 242.671C240.315 243.119 242.761 243.494 244.756 243.789C245.146 239.065 245.448 234.334 245.672 229.597C244.021 229.036 242.18 228.405 240.206 227.721Z" fill="#844545"/>
<path d="M260.224 239.381C281.818 241.207 264.236 236.713 260.725 235.792C262.85 236.316 268.497 237.561 268.83 236.072C269.03 235.182 254.094 231.385 250.555 230.679C253.338 228.305 259.796 222.611 246.695 229.374C246.69 229.377 246.577 229.426 246.409 229.499C245.353 229.142 244.204 228.75 242.991 228.335C241.983 233.362 241.011 238.398 239.908 243.403C243.404 243.95 246.229 244.358 248.046 244.612C250.711 245.015 253.718 245.49 256.1 245.748C276.661 247.977 258.828 243.25 258.828 243.25C285.793 245.183 260.224 239.381 260.224 239.381Z" fill="white"/>
<path opacity="0.1" d="M254.674 171.318L279.188 170.592L278.826 187.298L254.129 187.662L254.674 171.318Z" fill="#0B0C1E"/>
<path d="M256.672 170.047L281.187 169.321L280.823 186.027L256.127 186.391L256.672 170.047Z" fill="white"/>
<path d="M264.095 166.597L263.754 172.738L274.842 171.885L275.012 167.109L264.095 166.597Z" fill="#D6D6D6"/>
<path d="M118.166 144.156C120.874 147.659 124.051 150.828 127.969 152.968C134.375 156.466 141.16 157.349 148.323 156.424C158.426 155.118 173.808 150.145 177.136 139.249C160.294 133.626 159.641 135.564 162.688 116.668L134.885 103.339C134.885 103.339 137.729 130.573 128.206 133.535C125.138 134.489 119.89 135.641 114.092 137.501C115.408 139.741 116.568 142.089 118.166 144.156Z" fill="#FFA099"/>
<path opacity="0.5" d="M161.412 130.194C160.996 127.467 161.604 123.392 162.688 116.668L134.885 103.339C134.885 103.339 135.527 109.514 135.173 116.302C141.169 128.182 161.05 130.248 161.412 130.194Z" fill="#B75353"/>
<path d="M132.808 88.5066C132.808 88.5066 132.68 110.454 144.401 116.944C156.121 123.434 174.595 123.622 178.365 116.269C179.639 113.785 183.625 64.0254 175.245 54.7658C166.866 45.5063 138.09 60.8779 134.773 67.5022C131.456 74.1264 132.808 88.5066 132.808 88.5066Z" fill="#FFA099"/>
<path d="M134.728 92.6695C134.728 92.6695 133.197 84.3304 127.889 83.424C122.58 82.5177 124.116 103.151 134.886 103.339C145.655 103.528 134.728 92.6695 134.728 92.6695Z" fill="#FFA099"/>
<path d="M136.774 48.633C136.639 48.1574 136.464 47.7064 136.237 47.2866C133.478 47.0344 128.481 47.3135 126.009 52.043C119.675 64.1631 126.098 84.0261 126.098 84.0261C133.676 81.2679 133.273 95.8696 133.273 95.8696L136.99 95.2545L135.382 79.5016L139.653 72.9667L140.353 63.7451C138.295 59.1832 136.989 54.3943 136.595 49.3802C136.571 49.073 136.642 48.8239 136.774 48.633Z" fill="#171A43"/>
<path d="M133.428 90.2473C133.428 90.2473 130.243 115.577 145.766 121.28C161.289 126.982 186.899 129.809 179.885 100.998C179.885 100.998 179.956 111.675 177.421 111.992C174.887 112.309 180.314 100.702 171.76 100.702C163.207 100.702 151.169 95.3165 150.535 101.653C149.902 107.989 148.001 113.374 143.882 110.523C139.764 107.672 137.24 92.8306 136.289 76.3574C135.339 59.8836 133.428 90.2473 133.428 90.2473Z" fill="#171A43"/>
<path d="M133.428 60.7854C133.428 60.7854 146.416 69.3387 166.374 65.5376L161.306 62.6863C161.306 62.6863 183.798 64.5872 186.016 50.0148L182.531 52.5491C182.531 52.5491 188.234 43.6788 183.481 37.0264C183.481 37.0264 176.829 46.2131 167.008 41.7785C157.187 37.3434 135.012 33.2252 135.012 51.2823C135.012 69.3387 133.428 60.7854 133.428 60.7854Z" fill="#171A43"/>
<path d="M164.861 74.0347C164.861 74.0347 164.866 73.9576 164.894 73.8211C164.925 73.6877 164.96 73.4796 165.046 73.2415C165.202 72.7532 165.489 72.0787 166.002 71.3664C166.259 71.0108 166.57 70.6461 166.942 70.2911C167.321 69.9453 167.748 69.5922 168.256 69.3027C168.757 69.0047 169.323 68.744 169.945 68.5781C170.558 68.389 171.23 68.3192 171.899 68.3149C172.569 68.3315 173.24 68.4367 173.858 68.6399C174.481 68.829 175.04 69.1252 175.539 69.4429C175.776 69.6185 176.014 69.7782 176.227 69.9588C176.428 70.1497 176.627 70.3284 176.807 70.5151C177.148 70.9031 177.456 71.2734 177.675 71.6528C177.787 71.8431 177.896 72.0188 177.99 72.1932C178.073 72.3749 178.154 72.5426 178.22 72.7073C178.362 73.028 178.451 73.3254 178.514 73.5732C178.587 73.8138 178.615 74.0218 178.645 74.1534C178.67 74.2887 178.677 74.3646 178.677 74.3646C178.677 74.3646 178.606 74.3389 178.473 74.2899C178.349 74.2354 178.151 74.1699 177.936 74.0635C177.721 73.9564 177.442 73.848 177.148 73.7165C176.858 73.5775 176.535 73.4325 176.192 73.2887C175.861 73.1253 175.49 72.998 175.132 72.8444C174.945 72.7844 174.766 72.7091 174.581 72.6406C174.39 72.5922 174.21 72.5243 174.025 72.4643C173.835 72.4239 173.654 72.3701 173.472 72.3199C173.284 72.2984 173.104 72.2434 172.924 72.2164C172.56 72.1693 172.204 72.1161 171.843 72.1246C171.483 72.1124 171.12 72.1344 170.746 72.1822C170.56 72.2011 170.372 72.2421 170.181 72.2648C169.994 72.3107 169.802 72.3401 169.61 72.389C168.844 72.569 168.073 72.8315 167.376 73.0836C165.867 73.654 164.861 74.0347 164.861 74.0347Z" fill="#171A43"/>
<path d="M143.975 72.8814C143.975 72.8814 143.984 72.8001 144.022 72.6556C144.063 72.5155 144.112 72.2952 144.219 72.0461C144.417 71.535 144.766 70.8288 145.362 70.1036C145.951 69.3741 146.79 68.6164 147.888 68.0387C148.438 67.7572 149.044 67.5014 149.703 67.3551C150.355 67.1892 151.054 67.1109 151.751 67.1317C152.449 67.1433 153.142 67.2712 153.791 67.4677C154.444 67.6556 155.037 67.95 155.576 68.2639C155.832 68.4402 156.089 68.6005 156.322 68.7817C156.547 68.972 156.764 69.155 156.964 69.3447C157.349 69.7376 157.695 70.1158 157.953 70.5081C158.221 70.8924 158.438 71.2566 158.595 71.6018C158.765 71.9365 158.88 72.2474 158.962 72.5087C159.055 72.7615 159.097 72.9812 159.137 73.1195C159.172 73.2621 159.185 73.3423 159.185 73.3423C159.185 73.3423 159.108 73.3178 158.964 73.2713C158.83 73.218 158.615 73.1568 158.381 73.0522C158.147 72.9463 157.843 72.8453 157.523 72.7156C157.208 72.5785 156.853 72.4414 156.48 72.2988C156.297 72.2211 156.109 72.1434 155.909 72.0822C155.71 72.0185 155.524 71.9237 155.317 71.8674C155.112 71.8092 154.916 71.7303 154.712 71.666C154.501 71.6201 154.303 71.5491 154.097 71.4898C153.886 71.4549 153.685 71.3925 153.48 71.3453C153.271 71.3221 153.069 71.2652 152.865 71.237C152.454 71.185 152.049 71.1336 151.641 71.1311C151.232 71.1183 150.821 71.1256 150.404 71.1666C149.988 71.1997 149.568 71.2731 149.145 71.3459C148.303 71.5106 147.461 71.7444 146.703 71.9824C145.943 72.2162 145.271 72.4512 144.774 72.6128C144.537 72.7052 144.323 72.759 144.191 72.8117C144.05 72.8564 143.975 72.8814 143.975 72.8814Z" fill="#171A43"/>
<path d="M132.207 99.1345C131.835 98.9527 131.487 98.7281 131.15 98.4778C130.816 98.222 130.5 97.9398 130.219 97.5757C130.086 97.389 129.96 97.181 129.882 96.9129C129.802 96.6534 129.797 96.285 129.969 95.9741C130.052 95.8223 130.162 95.6975 130.278 95.5983C130.393 95.5053 130.515 95.4202 130.632 95.3639C130.87 95.2342 131.098 95.1663 131.326 95.0983L130.842 95.6901C130.782 95.1308 130.737 94.5475 130.665 93.9796C130.591 93.4092 130.519 92.8407 130.428 92.2788C130.253 91.1589 130.037 90.0377 129.661 89.0536C129.482 88.5646 129.228 88.1148 128.934 87.8626C128.777 87.7311 128.676 87.6429 128.431 87.6111L128.215 87.5683C128.149 87.5585 128.13 87.5726 128.084 87.5683C128.004 87.5548 127.922 87.5701 127.833 87.5879C127.671 87.6307 127.508 87.7194 127.39 87.9208C127.264 88.1044 127.163 88.3541 127.102 88.6191C126.978 89.1546 126.934 89.7445 126.939 90.3412C126.7 89.7911 126.539 89.1986 126.518 88.5628C126.514 88.2464 126.524 87.9067 126.665 87.5658C126.775 87.2231 127.063 86.8749 127.431 86.6815L127.717 86.5548C127.816 86.5224 127.924 86.5144 128.03 86.4979C128.13 86.4856 128.258 86.4685 128.338 86.4704L128.559 86.4801L128.669 86.485L128.724 86.4875L128.751 86.4887L128.766 86.4893H128.772L128.834 86.4991L129.136 86.5726C129.328 86.6399 129.52 86.7237 129.681 86.8351C130.009 87.0542 130.265 87.3314 130.464 87.6123C130.671 87.8939 130.835 88.1858 130.977 88.4789C131.125 88.7715 131.228 89.072 131.333 89.37C131.436 89.668 131.518 89.9679 131.591 90.2684C131.74 90.8682 131.837 91.4704 131.917 92.0708C131.988 92.6723 132.04 93.2727 132.053 93.8737C132.069 94.4771 132.085 95.0677 132.042 95.6828L132.005 96.2134L131.559 96.2752C131.394 96.2978 131.225 96.3235 131.099 96.3701C131.028 96.3896 130.979 96.4172 130.929 96.4404C130.886 96.4661 130.855 96.4876 130.828 96.5065C130.783 96.5414 130.744 96.6045 130.748 96.7379C130.753 96.8664 130.802 97.0292 130.872 97.1908C131.004 97.5243 131.228 97.8529 131.455 98.1773C131.688 98.501 131.943 98.8174 132.207 99.1345Z" fill="#B75353"/>
<path d="M154.018 103.552C154.018 103.552 164.472 105.77 173.342 104.819C173.342 104.819 166.373 114.006 154.018 103.552Z" fill="white"/>
<path d="M140.648 74.0815V83.3686C140.648 87.2695 143.811 90.4324 147.712 90.4324H152.604C156.505 90.4324 159.668 87.2695 159.668 83.3686V74.0815H140.648Z" fill="#CCE8FF"/>
<path d="M139.731 74.3274C139.731 77.6892 139.584 81.0821 139.778 84.4383C140.137 90.6513 146.679 90.7915 151.24 90.7915C155.082 90.7915 159.646 89.0577 160.4 84.7425C161.014 81.2253 160.586 77.396 160.586 73.8354C160.586 73.7271 160.314 73.7222 160.268 73.7222C153.928 73.7222 147.589 73.7222 141.249 73.7222C140.884 73.7222 139.164 74.44 140.05 74.44C144.502 74.44 148.953 74.44 153.405 74.44C155.26 74.44 157.114 74.44 158.969 74.44C158.606 74.44 158.751 75.2375 158.751 75.8935C158.751 77.4162 158.751 78.9389 158.751 80.4615C158.751 83.6898 158.858 86.5736 156.195 88.961C153.894 91.024 147.229 90.3931 144.793 89.0258C140.06 86.3698 141.568 78.3134 141.568 73.8354C141.567 73.5716 139.731 73.8256 139.731 74.3274Z" fill="#0B0C1E"/>
<path d="M165.289 74.4609V83.748C165.289 87.6489 168.136 90.8117 171.649 90.8117H176.053C179.565 90.8117 182.413 87.6489 182.413 83.748V74.4609H165.289Z" fill="#CCE8FF"/>
<path d="M164.418 74.6942C164.418 77.7897 164.418 80.8858 164.418 83.9813C164.418 87.1576 166.296 89.8357 169.261 90.8871C170.884 91.4624 172.999 91.1521 174.68 91.1521C179.052 91.1521 182.468 88.9189 183.235 84.4005C183.783 81.163 183.284 77.5051 183.284 74.2272C183.284 74.1244 183.025 74.1201 182.982 74.1201C177.274 74.1201 171.566 74.1201 165.858 74.1201C165.512 74.1201 163.879 74.8013 164.72 74.8013C168.949 74.8013 173.176 74.8013 177.405 74.8013C178.462 74.8013 179.518 74.8013 180.575 74.8013C180.853 74.8013 181.13 74.8013 181.408 74.8013C182.033 74.8013 181.542 74.8227 181.542 74.745C181.542 76.9604 181.542 79.1765 181.542 81.3919C181.542 84.7579 181.393 90.4709 176.519 90.4709C173.556 90.4709 170.648 90.8412 168.247 88.7377C164.816 85.7316 166.16 78.2634 166.16 74.2272C166.16 73.9775 164.418 74.218 164.418 74.6942Z" fill="#0B0C1E"/>
<path d="M160.275 79.3966C160.275 79.3966 162.81 76.7834 164.789 79.7137" stroke="#0B0C1E" stroke-width="2.0705" stroke-miterlimit="10"/>
<path d="M130.028 84.5264L140.331 78.1947L140.184 75.855L128.799 83.7938C129.262 83.9309 129.671 84.191 130.028 84.5264Z" fill="#0B0C1E"/>
<path d="M171.269 82.9019C171.335 84.8603 170.857 86.4656 170.202 86.4876C169.547 86.5096 168.963 84.9399 168.897 82.9815C168.831 81.0231 169.309 79.4178 169.963 79.3957C170.619 79.3737 171.203 80.9435 171.269 82.9019Z" fill="#0B0C1E"/>
<path d="M152.066 82.2603C152.131 84.2187 151.654 85.824 150.999 85.846C150.344 85.868 149.76 84.2982 149.694 82.3398C149.628 80.3814 150.105 78.7762 150.76 78.7541C151.416 78.7321 152 80.3019 152.066 82.2603Z" fill="#0B0C1E"/>
<path d="M164.078 79.8511L168.583 98.5942L160.57 98.511" fill="#FFA099"/>
<path d="M164.078 79.8511C164.39 80.602 164.676 81.3597 164.946 82.1204C165.22 82.8805 165.477 83.6449 165.723 84.4117C165.982 85.1755 166.2 85.949 166.438 86.7183C166.679 87.4864 166.878 88.2649 167.098 89.0378C167.538 90.5843 167.92 92.1443 168.293 93.7074C168.671 95.2686 168.993 96.8433 169.309 98.4198L169.5 99.3739L168.575 99.3414C167.908 99.3182 167.24 99.2527 166.573 99.2105C165.906 99.1695 165.239 99.1015 164.572 99.0379C163.904 98.9816 163.237 98.8916 162.57 98.8151C161.903 98.7252 161.237 98.6334 160.57 98.5116C161.239 98.4032 161.908 98.3255 162.576 98.2496C163.245 98.1872 163.914 98.1113 164.582 98.0685C165.25 98.0189 165.919 97.9651 166.587 97.9375C167.255 97.9094 167.923 97.8579 168.591 97.8482L167.857 98.7692C167.422 97.2215 166.994 95.6725 166.621 94.1095C166.242 92.5482 165.875 90.9846 165.563 89.4075C165.408 88.6186 165.231 87.8352 165.097 87.0415C164.958 86.2483 164.801 85.4601 164.685 84.662C164.555 83.867 164.436 83.0696 164.335 82.2679C164.23 81.4668 164.141 80.662 164.078 79.8511Z" fill="#B75353"/>
<path d="M126.854 132.804C126.854 132.804 112.472 136.476 103.904 141.678L142.563 303.96L196.725 305.184L187.136 140.76L170 134.64L152.558 146.88L126.854 132.804Z" fill="#B7D1E2"/>
<path opacity="0.1" d="M159.52 194.289C150.115 190.949 140.788 187.397 131.483 183.789C126.632 181.908 121.766 179.585 116.787 178.082C115.233 177.613 113.727 177.072 112.217 176.577L142.562 303.96L196.724 305.184L190.82 203.954C180.281 201.064 169.808 197.942 159.52 194.289Z" fill="#0B0C1E"/>
<path d="M144.297 147.084L153.276 154.317L155.313 253.98L166.329 263.772L173.673 253.164L158.513 153.88L166.329 144.228L161.433 139.332L144.297 143.004V147.084Z" fill="#171A43"/>
<path d="M127.283 126.684L150.825 140.963L143.073 154.427L122.061 132.395L127.283 126.684Z" fill="#CCE8FF"/>
<path d="M158.168 139.332L165.512 154.836L173.305 134.64L167.552 129.744L158.168 139.332Z" fill="#CCE8FF"/>
<path d="M160.35 272.398C151.954 272.626 143.375 273.27 135.01 272.254L136.953 305.999H200.193L194.812 272.377C183.327 272.36 171.826 272.085 160.35 272.398Z" fill="#171A43"/>
<path d="M156.55 275.592C149.91 275.651 143.211 275.704 136.643 275.514L138.586 283.56H158.119C157.664 280.889 157.165 278.229 156.55 275.592Z" fill="#0B0C1E"/>
<path d="M160.589 283.559H201.825L196.445 275.543C184.959 275.539 173.458 275.474 161.983 275.548C161.012 275.554 160.037 275.562 159.061 275.57C159.658 278.215 160.14 280.884 160.589 283.559Z" fill="#0B0C1E"/>
<path d="M122.672 133.619L156.944 305.999H114.92L99.416 140.556L122.672 133.619Z" fill="white"/>
<path opacity="0.1" d="M130.181 199.783C121.745 199.651 113.279 199.373 104.861 198.656L114.921 305.999H156.945L135.843 199.86C133.955 199.832 132.068 199.812 130.181 199.783Z" fill="#171A43"/>
<path d="M122.671 133.619L114.809 135.169L105.539 168.278L119.577 172.25L113.22 183.375L136.798 207.467" fill="white"/>
<path d="M122.672 133.619C120.068 134.22 117.458 134.792 114.848 135.363L115 135.223L113.93 139.386L112.832 143.542L110.624 151.849C109.897 154.621 109.139 157.384 108.375 160.145L106.093 168.432L105.696 167.724L112.724 169.68C115.066 170.332 117.399 171.019 119.736 171.687L120.459 171.894L120.085 172.541L113.679 183.637L113.597 183.004C115.561 185.013 117.495 187.052 119.435 189.083L125.254 195.18C127.201 197.206 129.119 199.259 131.043 201.306C132.968 203.353 134.893 205.4 136.797 207.467C134.772 205.518 132.767 203.55 130.762 201.581C128.757 199.613 126.745 197.651 124.762 195.661L118.793 189.711C116.804 187.728 114.807 185.751 112.841 183.744L112.563 183.46L112.76 183.112L119.068 171.96L119.416 172.813C117.075 172.157 114.728 171.52 112.392 170.848L105.381 168.831L104.828 168.671L104.984 168.122L107.338 159.856C108.118 157.099 108.906 154.344 109.724 151.598L112.15 143.351L113.369 139.229L114.618 135.116L114.654 134.996L114.77 134.975C117.403 134.514 120.034 134.052 122.672 133.619Z" fill="#E5E5E5"/>
<path d="M172.855 135.251L182.444 305.999H213.452L198.559 142.595L172.855 135.251Z" fill="white"/>
<path opacity="0.1" d="M187.326 200.485C183.722 200.449 180.116 200.406 176.512 200.367L182.443 306H213.451L203.847 200.619C198.34 200.584 192.833 200.542 187.326 200.485Z" fill="#171A43"/>
<path d="M174.59 205.937L186.83 178.703L177.191 173.042L190.349 167.687L178.415 136.781L172.855 135.251" fill="white"/>
<path d="M174.59 205.937L186.83 178.703L177.191 173.042L190.349 167.687L178.415 136.781L172.855 135.251" stroke="#E5E5E5" stroke-width="2" stroke-miterlimit="10"/>
<path d="M115.328 234.396C115.328 234.396 218.552 249.492 223.04 234.396C227.528 219.299 223.04 152.796 198.56 142.596L201.008 209.507L134.912 213.588L115.328 234.396Z" fill="white"/>
<path opacity="0.1" d="M182.267 210.665L134.912 213.587L115.328 234.395C115.328 234.395 135.039 237.278 157.609 239.265C166.68 230.438 175.679 221.518 182.267 210.665Z" fill="#171A43"/>
<path d="M161.384 220.191C176.288 215.463 187.901 210.375 187.901 210.375C187.901 210.375 185.018 205.479 176.619 203.213C173.72 202.431 165.344 203.05 155.619 204.197C157.036 209.654 159.074 214.97 161.384 220.191Z" fill="#FFA099"/>
<path d="M173.231 215.355C171.64 210.968 169.882 206.398 167.314 202.494C163.917 202.734 159.914 203.156 155.65 203.683C157.056 209.317 159.084 214.803 161.384 220.191C165.812 218.733 169.92 217.36 173.515 216.147C173.42 215.882 173.326 215.617 173.231 215.355Z" fill="#CCE8FF"/>
<path d="M161.738 202.266C141.253 205.404 107.576 214.403 107.576 214.403L99.4165 140.555C99.4165 140.555 88.8087 143.003 83.5045 151.979C78.2003 160.956 74.0748 243.691 85.1367 247.451C95.3363 250.92 133.892 239.292 171.454 217.934C168.905 212.565 165.118 206.993 161.738 202.266Z" fill="white"/>
</g>
<defs>
<clipPath id="clip0_89_1714">
<rect width="306" height="306" fill="white"/>
</clipPath>
</defs>
</svg>
