<svg width="276" height="52" viewBox="0 0 276 52" fill="none" xmlns="http://www.w3.org/2000/svg">
<path d="M7.3837 20H0.680575V1.09091H7.4391C9.34109 1.09091 10.9784 1.46946 12.351 2.22656C13.7237 2.97751 14.7793 4.05776 15.5179 5.46733C16.2627 6.87689 16.6351 8.56345 16.6351 10.527C16.6351 12.4967 16.2627 14.1894 15.5179 15.6051C14.7793 17.0208 13.7175 18.1072 12.3326 18.8643C10.9538 19.6214 9.30416 20 7.3837 20ZM4.67844 16.5746H7.21751C8.39933 16.5746 9.39341 16.3653 10.1998 15.9467C11.0123 15.522 11.6216 14.8665 12.0279 13.9801C12.4403 13.0876 12.6465 11.9366 12.6465 10.527C12.6465 9.12973 12.4403 7.98793 12.0279 7.10156C11.6216 6.2152 11.0153 5.56274 10.209 5.14418C9.40264 4.72562 8.40856 4.51634 7.22674 4.51634H4.67844V16.5746ZM19.5227 20V5.81818H23.456V20H19.5227ZM21.4986 3.99006C20.9138 3.99006 20.4122 3.79616 19.9936 3.40838C19.5812 3.01444 19.375 2.54356 19.375 1.99574C19.375 1.45407 19.5812 0.989346 19.9936 0.601562C20.4122 0.207622 20.9138 0.0106524 21.4986 0.0106524C22.0833 0.0106524 22.5819 0.207622 22.9943 0.601562C23.4129 0.989346 23.6222 1.45407 23.6222 1.99574C23.6222 2.54356 23.4129 3.01444 22.9943 3.40838C22.5819 3.79616 22.0833 3.99006 21.4986 3.99006ZM38.4064 9.86222L34.8056 10.0838C34.744 9.77604 34.6117 9.49905 34.4086 9.25284C34.2054 9.00047 33.9377 8.80043 33.6053 8.6527C33.2791 8.49882 32.8882 8.42188 32.4327 8.42188C31.8233 8.42188 31.3094 8.55114 30.8908 8.80966C30.4722 9.06203 30.263 9.40057 30.263 9.82528C30.263 10.1638 30.3984 10.45 30.6692 10.6839C30.94 10.9179 31.4048 11.1056 32.0634 11.2472L34.6301 11.7642C36.0089 12.0473 37.0369 12.5028 37.714 13.1307C38.391 13.7585 38.7296 14.5833 38.7296 15.6051C38.7296 16.5346 38.4557 17.3501 37.9078 18.0518C37.3662 18.7536 36.6214 19.3014 35.6735 19.6953C34.7317 20.0831 33.6453 20.277 32.4142 20.277C30.5369 20.277 29.0411 19.8861 27.927 19.1044C26.8191 18.3165 26.1697 17.2455 25.9789 15.8913L29.8475 15.6882C29.9644 16.2607 30.2476 16.6977 30.6969 16.9993C31.1462 17.2947 31.7218 17.4425 32.4235 17.4425C33.1129 17.4425 33.6668 17.3101 34.0854 17.0455C34.5101 16.7746 34.7256 16.4268 34.7317 16.0021C34.7256 15.6451 34.5748 15.3527 34.2793 15.125C33.9838 14.8911 33.5284 14.7126 32.9128 14.5895L30.4569 14.1001C29.0719 13.8232 28.0409 13.343 27.3638 12.6598C26.6929 11.9766 26.3574 11.1056 26.3574 10.0469C26.3574 9.13589 26.6036 8.35109 27.0961 7.69247C27.5946 7.03385 28.2933 6.52604 29.1919 6.16903C30.0968 5.81203 31.1555 5.63352 32.3681 5.63352C34.1593 5.63352 35.5688 6.01207 36.5968 6.76918C37.6309 7.52628 38.2341 8.55729 38.4064 9.86222ZM47.614 20.277C46.1613 20.277 44.9118 19.9692 43.8654 19.3537C42.8252 18.732 42.025 17.8703 41.4648 16.7685C40.9109 15.6667 40.6339 14.3987 40.6339 12.9645C40.6339 11.5118 40.9139 10.2377 41.4741 9.14204C42.0404 8.04025 42.8436 7.18158 43.8839 6.56605C44.9241 5.94437 46.1613 5.63352 47.5955 5.63352C48.8327 5.63352 49.9161 5.85819 50.8455 6.30753C51.775 6.75686 52.5105 7.38778 53.0522 8.20028C53.5939 9.01278 53.8924 9.96686 53.9478 11.0625H50.2362C50.1315 10.3546 49.8545 9.78527 49.4052 9.3544C48.962 8.91738 48.3803 8.69886 47.6602 8.69886C47.0508 8.69886 46.5183 8.86506 46.0629 9.19744C45.6135 9.52367 45.2627 10.0007 45.0103 10.6286C44.7579 11.2564 44.6317 12.0166 44.6317 12.9091C44.6317 13.8139 44.7549 14.5833 45.0011 15.2173C45.2534 15.8513 45.6074 16.3345 46.0629 16.6669C46.5183 16.9993 47.0508 17.1655 47.6602 17.1655C48.1095 17.1655 48.5127 17.0732 48.8697 16.8885C49.2328 16.7038 49.5314 16.4361 49.7653 16.0852C50.0053 15.7282 50.1623 15.3004 50.2362 14.8018H53.9478C53.8862 15.8852 53.5908 16.8393 53.0614 17.6641C52.5382 18.4827 51.815 19.1229 50.8917 19.5845C49.9684 20.0462 48.8758 20.277 47.614 20.277ZM62.8738 20.277C61.4396 20.277 60.1993 19.9723 59.1529 19.3629C58.1126 18.7474 57.3094 17.8918 56.7431 16.7962C56.1768 15.6944 55.8936 14.4171 55.8936 12.9645C55.8936 11.4995 56.1768 10.2192 56.7431 9.12358C57.3094 8.02178 58.1126 7.16619 59.1529 6.55682C60.1993 5.94129 61.4396 5.63352 62.8738 5.63352C64.3079 5.63352 65.5452 5.94129 66.5854 6.55682C67.6318 7.16619 68.4382 8.02178 69.0044 9.12358C69.5707 10.2192 69.8539 11.4995 69.8539 12.9645C69.8539 14.4171 69.5707 15.6944 69.0044 16.7962C68.4382 17.8918 67.6318 18.7474 66.5854 19.3629C65.5452 19.9723 64.3079 20.277 62.8738 20.277ZM62.8922 17.2301C63.5447 17.2301 64.0894 17.0455 64.5265 16.6761C64.9635 16.3007 65.2928 15.7898 65.5144 15.1435C65.7421 14.4972 65.856 13.7616 65.856 12.9368C65.856 12.112 65.7421 11.3764 65.5144 10.7301C65.2928 10.0838 64.9635 9.57292 64.5265 9.19744C64.0894 8.82197 63.5447 8.63423 62.8922 8.63423C62.2336 8.63423 61.6796 8.82197 61.2303 9.19744C60.7871 9.57292 60.4516 10.0838 60.2239 10.7301C60.0023 11.3764 59.8915 12.112 59.8915 12.9368C59.8915 13.7616 60.0023 14.4972 60.2239 15.1435C60.4516 15.7898 60.7871 16.3007 61.2303 16.6761C61.6796 17.0455 62.2336 17.2301 62.8922 17.2301ZM85.176 5.81818L80.2179 20H75.786L70.8279 5.81818H74.9828L77.9281 15.9652H78.0758L81.0119 5.81818H85.176ZM93.1948 20.277C91.736 20.277 90.4803 19.9815 89.4277 19.3906C88.3813 18.7936 87.575 17.9503 87.0087 16.8608C86.4424 15.7652 86.1593 14.4695 86.1593 12.9737C86.1593 11.5149 86.4424 10.2346 87.0087 9.13281C87.575 8.03101 88.3721 7.17235 89.4 6.55682C90.4341 5.94129 91.6467 5.63352 93.0378 5.63352C93.9734 5.63352 94.8444 5.78433 95.6507 6.08594C96.4632 6.38139 97.1711 6.82765 97.7743 7.42472C98.3837 8.02178 98.8577 8.77273 99.1962 9.67756C99.5347 10.5762 99.704 11.6288 99.704 12.8352V13.9155H87.7289V11.478H96.0016C96.0016 10.9117 95.8785 10.41 95.6323 9.97301C95.3861 9.53598 95.0444 9.19437 94.6074 8.94815C94.1766 8.69579 93.6749 8.5696 93.1025 8.5696C92.5054 8.5696 91.976 8.7081 91.5144 8.98508C91.0589 9.25592 90.7019 9.62216 90.4434 10.0838C90.1848 10.5393 90.0525 11.0471 90.0463 11.6072V13.9247C90.0463 14.6264 90.1756 15.2327 90.4341 15.7436C90.6988 16.2545 91.0712 16.6484 91.5513 16.9254C92.0314 17.2024 92.6008 17.3409 93.2594 17.3409C93.6964 17.3409 94.0965 17.2794 94.4597 17.1562C94.8229 17.0331 95.1337 16.8485 95.3922 16.6023C95.6507 16.3561 95.8477 16.0545 95.9831 15.6974L99.6209 15.9375C99.4363 16.8116 99.0577 17.5748 98.4853 18.2273C97.919 18.8736 97.1865 19.3783 96.2878 19.7415C95.3953 20.0985 94.3643 20.277 93.1948 20.277ZM102.271 20V5.81818H106.084V8.29261H106.232C106.49 7.4124 106.924 6.74763 107.534 6.2983C108.143 5.8428 108.845 5.61506 109.639 5.61506C109.836 5.61506 110.048 5.62737 110.276 5.65199C110.503 5.67661 110.704 5.71046 110.876 5.75355V9.24361C110.691 9.18821 110.436 9.13897 110.11 9.09588C109.783 9.05279 109.485 9.03125 109.214 9.03125C108.635 9.03125 108.118 9.15743 107.663 9.4098C107.213 9.65601 106.856 10.0007 106.592 10.4439C106.333 10.8871 106.204 11.398 106.204 11.9766V20H102.271Z" fill="black"/>
<path d="M119.001 20V1.09091H131.742V4.38707H122.999V8.89276H131.087V12.1889H122.999V16.7038H131.779V20H119.001ZM138.134 5.81818L140.738 10.7763L143.406 5.81818H147.441L143.332 12.9091L147.551 20H143.535L140.738 15.0973L137.986 20H133.924L138.134 12.9091L134.071 5.81818H138.134ZM149.777 25.3182V5.81818H153.654V8.20028H153.83C154.002 7.81865 154.252 7.43087 154.578 7.03693C154.91 6.63684 155.341 6.30445 155.87 6.03977C156.406 5.76894 157.071 5.63352 157.865 5.63352C158.899 5.63352 159.853 5.90436 160.727 6.44602C161.601 6.98153 162.3 7.79096 162.823 8.87429C163.346 9.95147 163.608 11.3026 163.608 12.9276C163.608 14.5095 163.352 15.8452 162.841 16.9347C162.337 18.018 161.647 18.8397 160.773 19.3999C159.905 19.9538 158.933 20.2308 157.855 20.2308C157.092 20.2308 156.443 20.1046 155.907 19.8523C155.378 19.5999 154.944 19.2829 154.605 18.9013C154.267 18.5135 154.008 18.1226 153.83 17.7287H153.71V25.3182H149.777ZM153.627 12.9091C153.627 13.7524 153.744 14.4879 153.978 15.1158C154.212 15.7436 154.55 16.233 154.993 16.5838C155.436 16.9285 155.975 17.1009 156.609 17.1009C157.249 17.1009 157.791 16.9254 158.234 16.5746C158.677 16.2176 159.013 15.7251 159.24 15.0973C159.474 14.4633 159.591 13.7339 159.591 12.9091C159.591 12.0904 159.477 11.3703 159.25 10.7486C159.022 10.1269 158.686 9.64062 158.243 9.28977C157.8 8.93892 157.255 8.76349 156.609 8.76349C155.969 8.76349 155.427 8.93276 154.984 9.27131C154.547 9.60985 154.212 10.09 153.978 10.7116C153.744 11.3333 153.627 12.0658 153.627 12.9091ZM172.693 20.277C171.234 20.277 169.978 19.9815 168.926 19.3906C167.879 18.7936 167.073 17.9503 166.507 16.8608C165.94 15.7652 165.657 14.4695 165.657 12.9737C165.657 11.5149 165.94 10.2346 166.507 9.13281C167.073 8.03101 167.87 7.17235 168.898 6.55682C169.932 5.94129 171.145 5.63352 172.536 5.63352C173.471 5.63352 174.342 5.78433 175.149 6.08594C175.961 6.38139 176.669 6.82765 177.272 7.42472C177.882 8.02178 178.356 8.77273 178.694 9.67756C179.033 10.5762 179.202 11.6288 179.202 12.8352V13.9155H167.227V11.478H175.5C175.5 10.9117 175.377 10.41 175.13 9.97301C174.884 9.53598 174.542 9.19437 174.105 8.94815C173.675 8.69579 173.173 8.5696 172.6 8.5696C172.003 8.5696 171.474 8.7081 171.012 8.98508C170.557 9.25592 170.2 9.62216 169.941 10.0838C169.683 10.5393 169.551 11.0471 169.544 11.6072V13.9247C169.544 14.6264 169.674 15.2327 169.932 15.7436C170.197 16.2545 170.569 16.6484 171.049 16.9254C171.529 17.2024 172.099 17.3409 172.757 17.3409C173.194 17.3409 173.595 17.2794 173.958 17.1562C174.321 17.0331 174.632 16.8485 174.89 16.6023C175.149 16.3561 175.346 16.0545 175.481 15.6974L179.119 15.9375C178.934 16.8116 178.556 17.5748 177.983 18.2273C177.417 18.8736 176.685 19.3783 175.786 19.7415C174.893 20.0985 173.862 20.277 172.693 20.277ZM181.769 20V5.81818H185.582V8.29261H185.73C185.988 7.4124 186.422 6.74763 187.032 6.2983C187.641 5.8428 188.343 5.61506 189.137 5.61506C189.334 5.61506 189.546 5.62737 189.774 5.65199C190.002 5.67661 190.202 5.71046 190.374 5.75355V9.24361C190.189 9.18821 189.934 9.13897 189.608 9.09588C189.281 9.05279 188.983 9.03125 188.712 9.03125C188.133 9.03125 187.616 9.15743 187.161 9.4098C186.712 9.65601 186.355 10.0007 186.09 10.4439C185.831 10.8871 185.702 11.398 185.702 11.9766V20H181.769ZM192.407 20V5.81818H196.341V20H192.407ZM194.383 3.99006C193.799 3.99006 193.297 3.79616 192.878 3.40838C192.466 3.01444 192.26 2.54356 192.26 1.99574C192.26 1.45407 192.466 0.989346 192.878 0.601562C193.297 0.207622 193.799 0.0106524 194.383 0.0106524C194.968 0.0106524 195.467 0.207622 195.879 0.601562C196.298 0.989346 196.507 1.45407 196.507 1.99574C196.507 2.54356 196.298 3.01444 195.879 3.40838C195.467 3.79616 194.968 3.99006 194.383 3.99006ZM205.955 20.277C204.496 20.277 203.24 19.9815 202.188 19.3906C201.141 18.7936 200.335 17.9503 199.768 16.8608C199.202 15.7652 198.919 14.4695 198.919 12.9737C198.919 11.5149 199.202 10.2346 199.768 9.13281C200.335 8.03101 201.132 7.17235 202.16 6.55682C203.194 5.94129 204.406 5.63352 205.798 5.63352C206.733 5.63352 207.604 5.78433 208.411 6.08594C209.223 6.38139 209.931 6.82765 210.534 7.42472C211.143 8.02178 211.617 8.77273 211.956 9.67756C212.295 10.5762 212.464 11.6288 212.464 12.8352V13.9155H200.489V11.478H208.761C208.761 10.9117 208.638 10.41 208.392 9.97301C208.146 9.53598 207.804 9.19437 207.367 8.94815C206.936 8.69579 206.435 8.5696 205.862 8.5696C205.265 8.5696 204.736 8.7081 204.274 8.98508C203.819 9.25592 203.462 9.62216 203.203 10.0838C202.945 10.5393 202.812 11.0471 202.806 11.6072V13.9247C202.806 14.6264 202.935 15.2327 203.194 15.7436C203.459 16.2545 203.831 16.6484 204.311 16.9254C204.791 17.2024 205.361 17.3409 206.019 17.3409C206.456 17.3409 206.856 17.2794 207.219 17.1562C207.583 17.0331 207.893 16.8485 208.152 16.6023C208.411 16.3561 208.607 16.0545 208.743 15.6974L212.381 15.9375C212.196 16.8116 211.817 17.5748 211.245 18.2273C210.679 18.8736 209.946 19.3783 209.048 19.7415C208.155 20.0985 207.124 20.277 205.955 20.277ZM218.964 11.8011V20H215.031V5.81818H218.779V8.32031H218.945C219.259 7.4955 219.786 6.84304 220.524 6.36293C221.263 5.87666 222.158 5.63352 223.211 5.63352C224.196 5.63352 225.054 5.84896 225.787 6.27983C226.519 6.7107 227.089 7.32623 227.495 8.12642C227.901 8.92045 228.104 9.86837 228.104 10.9702V20H224.171V11.6719C224.177 10.804 223.956 10.1269 223.506 9.64062C223.057 9.1482 222.438 8.90199 221.651 8.90199C221.121 8.90199 220.653 9.01586 220.247 9.24361C219.847 9.47135 219.533 9.80374 219.305 10.2408C219.084 10.6716 218.97 11.1918 218.964 11.8011ZM237.612 20.277C236.159 20.277 234.91 19.9692 233.863 19.3537C232.823 18.732 232.023 17.8703 231.463 16.7685C230.909 15.6667 230.632 14.3987 230.632 12.9645C230.632 11.5118 230.912 10.2377 231.472 9.14204C232.038 8.04025 232.842 7.18158 233.882 6.56605C234.922 5.94437 236.159 5.63352 237.594 5.63352C238.831 5.63352 239.914 5.85819 240.844 6.30753C241.773 6.75686 242.509 7.38778 243.05 8.20028C243.592 9.01278 243.89 9.96686 243.946 11.0625H240.234C240.13 10.3546 239.853 9.78527 239.403 9.3544C238.96 8.91738 238.378 8.69886 237.658 8.69886C237.049 8.69886 236.516 8.86506 236.061 9.19744C235.612 9.52367 235.261 10.0007 235.008 10.6286C234.756 11.2564 234.63 12.0166 234.63 12.9091C234.63 13.8139 234.753 14.5833 234.999 15.2173C235.251 15.8513 235.605 16.3345 236.061 16.6669C236.516 16.9993 237.049 17.1655 237.658 17.1655C238.108 17.1655 238.511 17.0732 238.868 16.8885C239.231 16.7038 239.529 16.4361 239.763 16.0852C240.003 15.7282 240.16 15.3004 240.234 14.8018H243.946C243.884 15.8852 243.589 16.8393 243.059 17.6641C242.536 18.4827 241.813 19.1229 240.89 19.5845C239.966 20.0462 238.874 20.277 237.612 20.277ZM252.927 20.277C251.468 20.277 250.213 19.9815 249.16 19.3906C248.114 18.7936 247.307 17.9503 246.741 16.8608C246.175 15.7652 245.892 14.4695 245.892 12.9737C245.892 11.5149 246.175 10.2346 246.741 9.13281C247.307 8.03101 248.105 7.17235 249.132 6.55682C250.167 5.94129 251.379 5.63352 252.77 5.63352C253.706 5.63352 254.577 5.78433 255.383 6.08594C256.196 6.38139 256.904 6.82765 257.507 7.42472C258.116 8.02178 258.59 8.77273 258.929 9.67756C259.267 10.5762 259.436 11.6288 259.436 12.8352V13.9155H247.461V11.478H255.734C255.734 10.9117 255.611 10.41 255.365 9.97301C255.118 9.53598 254.777 9.19437 254.34 8.94815C253.909 8.69579 253.407 8.5696 252.835 8.5696C252.238 8.5696 251.708 8.7081 251.247 8.98508C250.791 9.25592 250.434 9.62216 250.176 10.0838C249.917 10.5393 249.785 11.0471 249.779 11.6072V13.9247C249.779 14.6264 249.908 15.2327 250.167 15.7436C250.431 16.2545 250.804 16.6484 251.284 16.9254C251.764 17.2024 252.333 17.3409 252.992 17.3409C253.429 17.3409 253.829 17.2794 254.192 17.1562C254.555 17.0331 254.866 16.8485 255.125 16.6023C255.383 16.3561 255.58 16.0545 255.716 15.6974L259.353 15.9375C259.169 16.8116 258.79 17.5748 258.218 18.2273C257.651 18.8736 256.919 19.3783 256.02 19.7415C255.128 20.0985 254.097 20.277 252.927 20.277ZM267.229 20.2308C266.152 20.2308 265.176 19.9538 264.302 19.3999C263.434 18.8397 262.745 18.018 262.234 16.9347C261.729 15.8452 261.477 14.5095 261.477 12.9276C261.477 11.3026 261.739 9.95147 262.262 8.87429C262.785 7.79096 263.48 6.98153 264.348 6.44602C265.222 5.90436 266.18 5.63352 267.22 5.63352C268.014 5.63352 268.676 5.76894 269.205 6.03977C269.74 6.30445 270.171 6.63684 270.498 7.03693C270.83 7.43087 271.082 7.81865 271.255 8.20028H271.375V1.09091H275.299V20H271.421V17.7287H271.255C271.07 18.1226 270.808 18.5135 270.47 18.9013C270.137 19.2829 269.703 19.5999 269.168 19.8523C268.639 20.1046 267.992 20.2308 267.229 20.2308ZM268.475 17.1009C269.109 17.1009 269.645 16.9285 270.082 16.5838C270.525 16.233 270.864 15.7436 271.098 15.1158C271.338 14.4879 271.458 13.7524 271.458 12.9091C271.458 12.0658 271.341 11.3333 271.107 10.7116C270.873 10.09 270.534 9.60985 270.091 9.27131C269.648 8.93276 269.109 8.76349 268.475 8.76349C267.829 8.76349 267.284 8.93892 266.841 9.28977C266.398 9.64062 266.063 10.1269 265.835 10.7486C265.607 11.3703 265.493 12.0904 265.493 12.9091C265.493 13.7339 265.607 14.4633 265.835 15.0973C266.069 15.7251 266.404 16.2176 266.841 16.5746C267.284 16.9254 267.829 17.1009 268.475 17.1009ZM95.7177 51H89.0146V32.0909H95.7731C97.6751 32.0909 99.3124 32.4695 100.685 33.2266C102.058 33.9775 103.113 35.0578 103.852 36.4673C104.597 37.8769 104.969 39.5634 104.969 41.527C104.969 43.4967 104.597 45.1894 103.852 46.6051C103.113 48.0208 102.051 49.1072 100.667 49.8643C99.2878 50.6214 97.6381 51 95.7177 51ZM93.0124 47.5746H95.5515C96.7333 47.5746 97.7274 47.3653 98.5337 46.9467C99.3462 46.522 99.9556 45.8665 100.362 44.9801C100.774 44.0876 100.98 42.9366 100.98 41.527C100.98 40.1297 100.774 38.9879 100.362 38.1016C99.9556 37.2152 99.3493 36.5627 98.543 36.1442C97.7366 35.7256 96.7425 35.5163 95.5607 35.5163H93.0124V47.5746ZM114.264 51.277C112.83 51.277 111.59 50.9723 110.544 50.3629C109.503 49.7474 108.7 48.8918 108.134 47.7962C107.567 46.6944 107.284 45.4171 107.284 43.9645C107.284 42.4995 107.567 41.2192 108.134 40.1236C108.7 39.0218 109.503 38.1662 110.544 37.5568C111.59 36.9413 112.83 36.6335 114.264 36.6335C115.699 36.6335 116.936 36.9413 117.976 37.5568C119.022 38.1662 119.829 39.0218 120.395 40.1236C120.961 41.2192 121.244 42.4995 121.244 43.9645C121.244 45.4171 120.961 46.6944 120.395 47.7962C119.829 48.8918 119.022 49.7474 117.976 50.3629C116.936 50.9723 115.699 51.277 114.264 51.277ZM114.283 48.2301C114.935 48.2301 115.48 48.0455 115.917 47.6761C116.354 47.3007 116.683 46.7898 116.905 46.1435C117.133 45.4972 117.247 44.7616 117.247 43.9368C117.247 43.112 117.133 42.3764 116.905 41.7301C116.683 41.0838 116.354 40.5729 115.917 40.1974C115.48 39.822 114.935 39.6342 114.283 39.6342C113.624 39.6342 113.07 39.822 112.621 40.1974C112.178 40.5729 111.842 41.0838 111.615 41.7301C111.393 42.3764 111.282 43.112 111.282 43.9368C111.282 44.7616 111.393 45.4972 111.615 46.1435C111.842 46.7898 112.178 47.3007 112.621 47.6761C113.07 48.0455 113.624 48.2301 114.283 48.2301ZM130.21 51.277C128.757 51.277 127.508 50.9692 126.461 50.3537C125.421 49.732 124.621 48.8703 124.061 47.7685C123.507 46.6667 123.23 45.3987 123.23 43.9645C123.23 42.5118 123.51 41.2377 124.07 40.142C124.636 39.0402 125.439 38.1816 126.48 37.5661C127.52 36.9444 128.757 36.6335 130.191 36.6335C131.428 36.6335 132.512 36.8582 133.441 37.3075C134.371 37.7569 135.106 38.3878 135.648 39.2003C136.19 40.0128 136.488 40.9669 136.544 42.0625H132.832C132.727 41.3546 132.45 40.7853 132.001 40.3544C131.558 39.9174 130.976 39.6989 130.256 39.6989C129.646 39.6989 129.114 39.8651 128.659 40.1974C128.209 40.5237 127.858 41.0007 127.606 41.6286C127.354 42.2564 127.227 43.0166 127.227 43.9091C127.227 44.8139 127.351 45.5833 127.597 46.2173C127.849 46.8513 128.203 47.3345 128.659 47.6669C129.114 47.9993 129.646 48.1655 130.256 48.1655C130.705 48.1655 131.108 48.0732 131.465 47.8885C131.829 47.7038 132.127 47.4361 132.361 47.0852C132.601 46.7282 132.758 46.3004 132.832 45.8018H136.544C136.482 46.8852 136.186 47.8393 135.657 48.6641C135.134 49.4827 134.411 50.1229 133.487 50.5845C132.564 51.0462 131.472 51.277 130.21 51.277ZM146.605 36.8182V39.7727H138.065V36.8182H146.605ZM140.004 33.4205H143.937V46.642C143.937 47.0052 143.992 47.2884 144.103 47.4915C144.214 47.6884 144.368 47.8269 144.565 47.907C144.768 47.987 145.002 48.027 145.266 48.027C145.451 48.027 145.636 48.0116 145.82 47.9808C146.005 47.9439 146.147 47.9162 146.245 47.8977L146.864 50.8246C146.667 50.8861 146.39 50.9569 146.033 51.0369C145.676 51.1231 145.242 51.1754 144.731 51.1939C143.783 51.2308 142.952 51.1046 142.238 50.8153C141.53 50.526 140.979 50.0767 140.585 49.4673C140.191 48.858 139.997 48.0885 140.004 47.1591V33.4205ZM155.423 51.277C153.988 51.277 152.748 50.9723 151.702 50.3629C150.661 49.7474 149.858 48.8918 149.292 47.7962C148.726 46.6944 148.442 45.4171 148.442 43.9645C148.442 42.4995 148.726 41.2192 149.292 40.1236C149.858 39.0218 150.661 38.1662 151.702 37.5568C152.748 36.9413 153.988 36.6335 155.423 36.6335C156.857 36.6335 158.094 36.9413 159.134 37.5568C160.181 38.1662 160.987 39.0218 161.553 40.1236C162.12 41.2192 162.403 42.4995 162.403 43.9645C162.403 45.4171 162.12 46.6944 161.553 47.7962C160.987 48.8918 160.181 49.7474 159.134 50.3629C158.094 50.9723 156.857 51.277 155.423 51.277ZM155.441 48.2301C156.094 48.2301 156.638 48.0455 157.075 47.6761C157.512 47.3007 157.842 46.7898 158.063 46.1435C158.291 45.4972 158.405 44.7616 158.405 43.9368C158.405 43.112 158.291 42.3764 158.063 41.7301C157.842 41.0838 157.512 40.5729 157.075 40.1974C156.638 39.822 156.094 39.6342 155.441 39.6342C154.782 39.6342 154.228 39.822 153.779 40.1974C153.336 40.5729 153 41.0838 152.773 41.7301C152.551 42.3764 152.44 43.112 152.44 43.9368C152.44 44.7616 152.551 45.4972 152.773 46.1435C153 46.7898 153.336 47.3007 153.779 47.6761C154.228 48.0455 154.782 48.2301 155.441 48.2301ZM164.96 51V36.8182H168.773V39.2926H168.921C169.18 38.4124 169.614 37.7476 170.223 37.2983C170.832 36.8428 171.534 36.6151 172.328 36.6151C172.525 36.6151 172.737 36.6274 172.965 36.652C173.193 36.6766 173.393 36.7105 173.565 36.7536V40.2436C173.381 40.1882 173.125 40.139 172.799 40.0959C172.473 40.0528 172.174 40.0312 171.903 40.0312C171.325 40.0312 170.808 40.1574 170.352 40.4098C169.903 40.656 169.546 41.0007 169.281 41.4439C169.023 41.8871 168.893 42.398 168.893 42.9766V51H164.96ZM187.399 40.8622L183.798 41.0838C183.736 40.776 183.604 40.4991 183.401 40.2528C183.198 40.0005 182.93 39.8004 182.597 39.6527C182.271 39.4988 181.88 39.4219 181.425 39.4219C180.816 39.4219 180.302 39.5511 179.883 39.8097C179.464 40.062 179.255 40.4006 179.255 40.8253C179.255 41.1638 179.391 41.45 179.661 41.6839C179.932 41.9179 180.397 42.1056 181.056 42.2472L183.622 42.7642C185.001 43.0473 186.029 43.5028 186.706 44.1307C187.383 44.7585 187.722 45.5833 187.722 46.6051C187.722 47.5346 187.448 48.3501 186.9 49.0518C186.358 49.7536 185.614 50.3014 184.666 50.6953C183.724 51.0831 182.637 51.277 181.406 51.277C179.529 51.277 178.033 50.8861 176.919 50.1044C175.811 49.3165 175.162 48.2455 174.971 46.8913L178.84 46.6882C178.957 47.2607 179.24 47.6977 179.689 47.9993C180.138 48.2947 180.714 48.4425 181.416 48.4425C182.105 48.4425 182.659 48.3101 183.078 48.0455C183.502 47.7746 183.718 47.4268 183.724 47.0021C183.718 46.6451 183.567 46.3527 183.271 46.125C182.976 45.8911 182.521 45.7126 181.905 45.5895L179.449 45.1001C178.064 44.8232 177.033 44.343 176.356 43.6598C175.685 42.9766 175.35 42.1056 175.35 41.0469C175.35 40.1359 175.596 39.3511 176.088 38.6925C176.587 38.0339 177.285 37.526 178.184 37.169C179.089 36.812 180.148 36.6335 181.36 36.6335C183.151 36.6335 184.561 37.0121 185.589 37.7692C186.623 38.5263 187.226 39.5573 187.399 40.8622Z" fill="#0165FC"/>
</svg>
