<svg width="404" height="269" viewBox="0 0 404 269" fill="none" xmlns="http://www.w3.org/2000/svg">
<g clip-path="url(#clip0_1_3)">
<path d="M44.6188 199.796C36.8911 199.852 30.1427 204.141 29.1882 208.948C28.2321 213.755 32.4767 218.643 38.8998 221.336C44.8095 223.814 52.0945 224.575 58.6015 226.373C65.1081 228.172 71.4105 231.764 71.0496 236.214C70.7022 240.506 64.2457 244.097 64.9772 248.37C65.5477 251.686 70.3041 254.087 75.0874 255.548C94.5764 261.501 117.892 257.938 138.118 253.046C158.345 248.154 178.841 241.914 200.474 242.807C210.217 243.21 219.634 245.06 229.122 246.508C291.225 255.981 250.285 235.272 303.476 243.386C335.252 248.234 369.063 212.803 368.487 205.892C366.996 187.987 302.508 197.622 231.946 196.241C168.701 195.002 105.218 199.352 44.6188 199.796Z" fill="#E9F8FF"/>
<path d="M364.499 195.93H25.2829V201.808H364.499V195.93Z" fill="#C6E5FA"/>
<path d="M249.236 25.0939H192.723V45.7903H249.236V25.0939Z" fill="#D7F1FF"/>
<path d="M220.98 22.9479H186.196V47.4075H220.98V22.9479Z" fill="#C6E5FA"/>
<path d="M247.891 32.9972H189.493V36.7599H247.891V32.9972Z" fill="white"/>
<path d="M214.513 30.4099H207.45V35.5839H214.513V30.4099Z" fill="#D7F1FF"/>
<path d="M230.682 100.751C227.928 100.751 225.224 98.886 223.775 95.977C222.677 93.7729 222.245 91.0845 222.416 87.5154C222.709 81.4161 224.425 75.4706 226.084 69.721C226.847 67.0805 227.635 64.3502 228.271 61.6478L229.394 61.9114C228.751 64.6418 227.958 67.3861 227.192 70.0401C225.55 75.7262 223.854 81.606 223.568 87.5703C223.407 90.9344 223.801 93.4431 224.808 95.4638C225.837 97.5303 228.047 99.5989 230.681 99.5989C230.705 99.5989 230.728 99.5983 230.752 99.5983C233.704 99.558 236.008 96.9481 236.896 94.5406C237.922 91.7645 237.762 88.6317 237.436 85.6593C236.79 79.7806 235.534 73.9524 233.702 68.3362C233.461 67.5949 233.208 66.8492 232.954 66.1014C231.282 61.1674 229.553 56.0661 230.529 50.9082L231.662 51.1218C230.743 55.9832 232.422 60.9393 234.047 65.7318C234.302 66.4839 234.556 67.2339 234.799 67.9795C236.655 73.6705 237.927 79.5767 238.581 85.5339C238.923 88.6463 239.086 91.9394 237.978 94.9392C236.922 97.7966 234.284 100.701 230.767 100.75C230.739 100.751 230.711 100.751 230.682 100.751Z" fill="#C6E5FA"/>
<path d="M228.891 51.6647C228.827 54.9492 228.619 58.231 228.266 61.4988C228.214 61.99 228.297 62.6668 228.79 62.7141C229.277 62.7604 229.494 62.1229 229.539 61.6365C229.846 58.3918 230.153 55.1488 230.46 51.9041C229.955 51.7744 229.427 51.7368 228.891 51.6647Z" fill="#C6E5FA"/>
<path d="M228.64 26.6418C229.018 34.0409 228.879 41.4669 228.223 48.8461C228.143 49.7483 228.068 50.7146 228.511 51.5044C228.955 52.2925 230.143 52.7202 230.789 52.0849C231.182 51.698 231.232 51.0912 231.256 50.5408C231.596 42.9109 231.762 35.274 231.75 27.6365C231.75 27.4337 231.74 27.2088 231.599 27.0641C231.47 26.9334 231.271 26.9091 231.088 26.8946C230.335 26.8354 229.578 26.8182 228.64 26.6418Z" fill="#E9F8FF"/>
<path d="M232.387 31.1965H227.913V34.7241H232.387V31.1965Z" fill="#C6E5FA"/>
<path d="M227.683 19.1469C227.683 19.1469 227.551 18.7391 227.075 22.0849C226.599 25.4307 226.662 26.2748 227.725 27.2094C228.79 28.1444 231.208 28.1014 232.157 27.3928C232.958 26.7951 233.751 25.4878 233.232 23.1867C232.643 20.5677 232.06 19.1899 232.06 19.1899L227.683 19.1469Z" fill="#C6E5FA"/>
<path d="M228.206 39.3348C227.646 42.3632 227.397 45.4486 227.462 48.5276C227.482 49.4869 227.541 50.4762 227.966 51.337C228.39 52.1973 229.272 52.9015 230.23 52.8338C231.075 52.7735 231.791 52.1284 232.163 51.3682C232.534 50.607 232.619 49.7424 232.669 48.8972C232.86 45.7101 232.645 42.4982 232.031 39.3633C230.787 39.3714 229.543 39.3784 228.206 39.3348Z" fill="#C6E5FA"/>
<path d="M378.418 135.281H267.353V201.837H378.418V135.281Z" fill="#D7F1FF"/>
<path d="M370.616 136.248H275.155V195.172H370.616V136.248Z" fill="#E9F8FF"/>
<path d="M321.181 142.384H279.329V164.565H321.181V142.384Z" fill="#D7F1FF"/>
<path d="M309.664 151.982H290.845V154.968H309.664V151.982Z" fill="#C6E5FA"/>
<path d="M366.442 142.384H324.59V164.565H366.442V142.384Z" fill="#D7F1FF"/>
<path d="M354.926 151.982H336.107V154.968H354.926V151.982Z" fill="#C6E5FA"/>
<path d="M321.181 168.234H279.329V190.415H321.181V168.234Z" fill="#D7F1FF"/>
<path d="M309.664 177.832H290.845V180.819H309.664V177.832Z" fill="#C6E5FA"/>
<path d="M366.442 168.234H324.59V190.415H366.442V168.234Z" fill="#D7F1FF"/>
<path d="M354.926 177.832H336.107V180.819H354.926V177.832Z" fill="#C6E5FA"/>
<path d="M263.651 132.96L266.89 130.803L377.965 130.496L382.119 132.96H263.651Z" fill="#D7F1FF"/>
<path d="M382.119 132.888H263.651V137.674H382.119V132.888Z" fill="#C6E5FA"/>
<path d="M369.658 127.875H317.448V132.746H369.658V127.875Z" fill="#E9F8FF"/>
<path d="M364.125 97.4646H363.035H324.072H322.981H322.887V127.743H324.072V107.541H326.758V124.173C326.758 125.372 327.732 126.346 328.933 126.346C330.134 126.346 331.108 125.373 331.108 124.173V107.541H334.068V124.173C334.068 125.372 335.042 126.346 336.242 126.346C337.444 126.346 338.417 125.373 338.417 124.173V107.541H341.378V124.173C341.378 125.372 342.351 126.346 343.551 126.346C344.754 126.346 345.726 125.373 345.726 124.173V107.541H348.686V124.173C348.686 125.372 349.66 126.346 350.862 126.346C352.063 126.346 353.037 125.373 353.037 124.173V107.541H355.997V124.173C355.997 125.372 356.97 126.346 358.171 126.346C359.372 126.346 360.346 125.373 360.346 124.173V107.541H363.034V127.743H364.22V97.4646H364.125ZM363.034 98.3652V99.3336H324.072V98.3652H363.034ZM360.346 106.642V104.561H361.092V102.482H355.252V104.561H355.997V106.642H353.037V104.561H353.782V102.482H347.943V104.561H348.687V106.642H345.727V104.561H346.474V102.482H340.633H340.633V104.561H340.633H341.378V106.642H338.417V104.561H339.164V102.482H333.324V104.561H334.068V106.642H331.108V104.561H331.853V102.482H326.014V104.561H326.759V106.642H324.073V100.049H363.035V106.642H360.346Z" fill="#E9F8FF"/>
<path d="M136.648 144.455H25.5834V211.011H136.648V144.455Z" fill="#D7F1FF"/>
<path d="M128.846 145.421H33.3844V204.346H128.846V145.421Z" fill="#E9F8FF"/>
<path d="M79.4102 151.557H37.5585V173.738H79.4102V151.557Z" fill="#D7F1FF"/>
<path d="M67.8946 161.155H49.0752V164.142H67.8946V161.155Z" fill="#C6E5FA"/>
<path d="M124.672 151.557H82.8205V173.738H124.672V151.557Z" fill="#D7F1FF"/>
<path d="M113.156 161.155H94.3367V164.142H113.156V161.155Z" fill="#C6E5FA"/>
<path d="M79.4102 177.408H37.5585V199.589H79.4102V177.408Z" fill="#D7F1FF"/>
<path d="M67.8946 187.006H49.0752V189.992H67.8946V187.006Z" fill="#C6E5FA"/>
<path d="M124.672 177.408H82.8205V199.589H124.672V177.408Z" fill="#D7F1FF"/>
<path d="M113.156 187.006H94.3367V189.992H113.156V187.006Z" fill="#C6E5FA"/>
<path d="M21.8812 142.134L25.1202 139.977L136.194 139.669L140.349 142.134H21.8812Z" fill="#D7F1FF"/>
<path d="M140.35 142.062H21.8812V146.848H140.35V142.062Z" fill="#C6E5FA"/>
<path d="M74.0909 137.047H21.8812V141.919H74.0909V137.047Z" fill="#E9F8FF"/>
<path d="M68.5577 106.638H67.4675H28.5046H27.4138H27.319V136.916H28.5046V116.714H31.191V133.346C31.191 134.546 32.1643 135.518 33.3656 135.518C34.5662 135.518 35.5401 134.546 35.5401 133.346V116.714H38.5001V133.346C38.5001 134.546 39.4746 135.518 40.6747 135.518C41.8765 135.518 42.8493 134.546 42.8493 133.346V116.714H45.8104V133.346C45.8104 134.546 46.7832 135.518 47.9839 135.518C49.1862 135.518 50.159 134.546 50.159 133.346V116.714H53.119V133.346C53.119 134.546 54.0934 135.518 55.2941 135.518C56.4954 135.518 57.4693 134.546 57.4693 133.346V116.714H60.4292V133.346C60.4292 134.546 61.4026 135.518 62.6033 135.518C63.8045 135.518 64.7784 134.546 64.7784 133.346V116.714H67.4664V136.916H68.6525V106.638H68.5577ZM67.4675 107.539V108.507H28.5046V107.539H67.4675ZM64.779 115.816V113.734H65.525V111.655H59.6848V113.734H60.4298V115.816H57.4698V113.734H58.2148V111.655H52.3756V113.734H53.1195V115.816H50.1596V113.734H50.9062V111.655H45.0659L45.0654 113.734H45.8109V115.816H42.8499V113.734H43.5964V111.655H37.7557V113.734H38.5001V115.816H35.5401V113.734H36.2851V111.655H30.446V113.734H31.191V115.816H28.5046V109.222H67.4675V115.816H64.779Z" fill="#E9F8FF"/>
<path d="M79.4102 18.759H26.3855V97.2532H79.4102V18.759Z" fill="#E9F8FF"/>
<path d="M74.023 24.4634H31.7727V91.8872H74.023V24.4634Z" fill="#D7F1FF"/>
<path d="M79.4102 47.8002H26.3855V52.7654H79.4102V47.8002Z" fill="#E9F8FF"/>
<path d="M79.4102 69.4768H26.3855V74.442H79.4102V69.4768Z" fill="#E9F8FF"/>
<path d="M39.5586 27.2599H34.1719V47.4634H39.5586V27.2599Z" fill="#C6E5FA"/>
<path d="M46.7331 27.2599H41.3464V47.4634H46.7331V27.2599Z" fill="#C6E5FA"/>
<path d="M60.7072 52.7654H55.3205V69.8658H60.7072V52.7654Z" fill="#C6E5FA"/>
<path d="M67.8817 52.7654H62.495V69.8658H67.8817V52.7654Z" fill="#C6E5FA"/>
<path d="M40.4528 74.8708H35.0661V91.9711H40.4528V74.8708Z" fill="#C6E5FA"/>
<path d="M47.6273 74.8708H42.2406V91.9711H47.6273V74.8708Z" fill="#C6E5FA"/>
<path d="M38.4387 58.0061L57.1121 82.1569" stroke="white" stroke-miterlimit="10"/>
<path d="M41.3465 42.0334L68.9628 77.4935" stroke="white" stroke-miterlimit="10"/>
<path d="M47.7927 28.1858L75.409 63.6459" stroke="white" stroke-miterlimit="10"/>
<path d="M139.806 18.759H86.7814V97.2532H139.806V18.759Z" fill="#E9F8FF"/>
<path d="M134.419 24.4634H92.1686V91.8872H134.419V24.4634Z" fill="#D7F1FF"/>
<path d="M139.806 47.8002H86.7814V52.7654H139.806V47.8002Z" fill="#E9F8FF"/>
<path d="M139.806 69.4768H86.7814V74.442H139.806V69.4768Z" fill="#E9F8FF"/>
<path d="M98.8502 74.1445H93.4635V91.2448H98.8502V74.1445Z" fill="#C6E5FA"/>
<path d="M106.025 74.1445H100.638V91.2448H106.025V74.1445Z" fill="#C6E5FA"/>
<path d="M114.656 74.1445H109.27V91.2448H114.656V74.1445Z" fill="#C6E5FA"/>
<path d="M121.831 74.1445H116.445V91.2448H121.831V74.1445Z" fill="#C6E5FA"/>
<path d="M99.7444 30.7758H94.3577V47.8761H99.7444V30.7758Z" fill="#C6E5FA"/>
<path d="M106.919 30.7758H101.532V47.8761H106.919V30.7758Z" fill="#C6E5FA"/>
<path d="M98.8346 58.0061L117.508 82.1569" stroke="white" stroke-miterlimit="10"/>
<path d="M101.742 42.0334L129.359 77.4935" stroke="white" stroke-miterlimit="10"/>
<path d="M108.189 28.1858L135.805 63.6459" stroke="white" stroke-miterlimit="10"/>
<path d="M267.006 76.1442C270.27 84.19 273.593 92.338 278.825 99.2691C281.725 103.108 285.578 106.725 290.363 107.257C295.406 107.818 300.312 104.683 303.158 100.489C306.005 96.2961 307.147 91.1969 307.943 86.193L301.094 82.916C300.133 86.0004 299.172 89.0847 298.21 92.1691C297.855 93.3059 297.485 94.4739 296.734 95.3992C295.002 97.5367 291.649 97.7379 289.171 96.5425C286.691 95.3465 284.918 93.0826 283.372 90.8069C279.998 85.8374 277.264 80.4342 275.259 74.7723C272.576 75.2705 269.892 75.7682 267.006 76.1442Z" fill="#F79A9A"/>
<path d="M303.79 234.814C302.561 237.199 300.46 239.123 297.976 240.142C297.017 240.537 295.993 240.805 295.118 241.363C294.88 241.517 294.647 241.699 294.51 241.949C294.244 242.436 294.429 243.076 294.816 243.475C295.2 243.875 295.745 244.081 296.282 244.223C297.509 244.549 298.8 244.621 300.054 244.427C302.529 244.05 304.766 242.684 307.236 242.283C307.795 242.191 308.383 242.141 308.859 241.837C309.32 241.54 309.611 241.041 309.814 240.532C310.515 238.763 310.326 236.783 310.129 234.892C308.035 234.353 305.789 234.416 303.79 234.814Z" fill="#94DCF8"/>
<path d="M297.673 245.575C297.931 245.594 298.186 245.429 298.44 245.488C298.594 245.524 298.728 245.613 298.868 245.687C299.532 246.037 300.372 246.023 301.025 245.651C301.522 245.365 302.007 244.865 302.562 245.002C302.712 245.04 302.846 245.12 302.991 245.168C303.489 245.336 304.035 245.1 304.446 244.774C304.858 244.447 305.193 244.029 305.631 243.74C306.069 243.451 306.672 243.312 307.109 243.6C307.274 243.709 307.401 243.867 307.56 243.986C308.198 244.455 309.172 244.087 309.605 243.421C309.674 243.316 309.749 243.193 309.873 243.168C309.981 243.143 310.088 243.205 310.192 243.246C310.755 243.47 311.466 242.962 311.438 242.355C311.711 242.524 312.092 242.32 312.22 242.026C312.349 241.73 312.3 241.391 312.248 241.073C312.03 239.748 311.701 238.272 310.574 237.544C310.487 237.487 310.392 237.434 310.289 237.43C310.002 237.418 310.019 238.701 307.719 240.702C307.201 241.153 306.479 241.291 305.839 241.539C304.673 241.989 303.448 243.862 299.693 244.149C298.341 244.253 295.68 244.304 294.422 242.548C294.39 242.501 293.293 245.269 297.673 245.575Z" fill="#36A9CE"/>
<path d="M298.88 239.855C299.383 240.538 299.888 241.221 300.492 241.811C300.667 241.981 300.858 242.147 301.094 242.199C301.331 242.252 301.619 242.146 301.69 241.915C301.765 241.677 301.592 241.438 301.431 241.249C300.999 240.738 300.566 240.228 300.133 239.716C299.962 239.514 299.782 239.308 299.542 239.198C299.301 239.09 298.978 239.114 298.816 239.32C298.654 239.527 298.781 239.912 298.88 239.855Z" fill="#D3405F"/>
<path d="M300.632 238.177C300.391 238.297 300.111 238.495 300.17 238.758C300.191 238.846 300.249 238.921 300.309 238.991C300.563 239.296 300.841 239.583 301.12 239.866L302.318 241.093C302.47 241.249 302.651 241.417 302.869 241.41C303.172 241.4 303.36 241.034 303.302 240.739C303.245 240.441 303.025 240.206 302.815 239.988C302.312 239.466 301.81 238.946 301.305 238.425C301.175 238.289 301.029 238.145 300.842 238.121C300.655 238.097 300.436 238.265 300.632 238.177Z" fill="#D3405F"/>
<path d="M302.064 237.186C301.784 237.397 301.682 237.812 301.833 238.128C301.9 238.269 302.007 238.386 302.114 238.499C302.607 239.011 303.136 239.489 303.699 239.926C303.902 240.083 304.155 240.244 304.399 240.161C304.643 240.079 304.753 239.77 304.698 239.518C304.644 239.264 304.473 239.054 304.307 238.854C303.805 238.25 303.28 237.627 302.568 237.29C302.441 237.228 302.301 237.177 302.159 237.194C302.021 237.21 301.88 237.315 302.064 237.186Z" fill="#D3405F"/>
<path d="M304.822 131.464C294.674 164.362 303.754 200.516 301.346 234.9C306.454 236.69 307.278 236.488 312.66 235.897C316.063 201.057 319.467 166.211 322.421 131.326C316.572 131.666 310.724 132.004 304.822 131.464Z" fill="#0886A8"/>
<path d="M312.39 231.946C315.573 216.973 308.769 201.896 306.679 186.733C305.073 175.065 306.315 163.012 310.271 151.916C310.817 150.388 311.996 148.557 313.559 148.99C314.369 149.213 314.881 149.995 315.273 150.738C318.967 157.749 318.597 166.114 318.133 174.025C317.006 193.292 315.876 212.606 312.39 231.946Z" fill="#027691"/>
<path d="M342.692 233.851C342.535 236.528 341.396 239.139 339.539 241.076C338.821 241.825 337.995 242.484 337.424 243.348C337.265 243.586 337.126 243.847 337.101 244.13C337.058 244.683 337.486 245.193 338.002 245.402C338.517 245.612 339.097 245.578 339.647 245.491C340.898 245.294 342.109 244.833 343.176 244.152C345.287 242.804 346.777 240.65 348.872 239.282C349.346 238.972 349.863 238.689 350.175 238.218C350.476 237.762 350.54 237.188 350.518 236.639C350.442 234.737 349.465 233.004 348.516 231.355C346.384 231.711 344.358 232.678 342.692 233.851Z" fill="#94DCF8"/>
<path d="M341.467 246.166C341.711 246.077 341.877 245.823 342.133 245.775C342.287 245.745 342.448 245.773 342.605 245.785C343.353 245.836 344.116 245.481 344.56 244.877C344.899 244.413 345.14 243.761 345.705 243.662C345.856 243.634 346.01 243.655 346.163 243.64C346.685 243.592 347.09 243.154 347.333 242.689C347.577 242.226 347.714 241.707 347.996 241.264C348.279 240.823 348.773 240.454 349.291 240.539C349.486 240.573 349.666 240.667 349.86 240.709C350.633 240.88 351.372 240.148 351.501 239.366C351.521 239.241 351.54 239.098 351.642 239.024C351.733 238.959 351.854 238.971 351.966 238.967C352.571 238.943 353.015 238.191 352.744 237.648C353.063 237.695 353.326 237.351 353.325 237.029C353.323 236.707 353.14 236.418 352.964 236.15C352.225 235.026 351.327 233.809 350.001 233.599C349.898 233.584 349.79 233.572 349.694 233.611C349.426 233.717 349.963 234.881 348.671 237.643C348.382 238.266 347.779 238.683 347.294 239.168C346.409 240.052 346.05 242.262 342.734 244.042C341.539 244.684 339.127 245.808 337.267 244.714C337.217 244.686 337.338 247.659 341.467 246.166Z" fill="#36A9CE"/>
<path d="M340.249 240.448C340.983 240.867 341.724 241.288 342.517 241.583C342.743 241.667 342.987 241.743 343.224 241.692C343.461 241.646 343.682 241.433 343.653 241.193C343.626 240.944 343.371 240.797 343.146 240.686C342.544 240.397 341.941 240.105 341.338 239.812C341.1 239.697 340.852 239.58 340.588 239.579C340.323 239.576 340.037 239.727 339.974 239.982C339.908 240.24 340.18 240.54 340.249 240.448Z" fill="#D3405F"/>
<path d="M341.168 238.205C340.996 238.41 340.821 238.706 340.98 238.921C341.036 238.995 341.12 239.039 341.202 239.079C341.559 239.255 341.93 239.403 342.299 239.551C342.828 239.763 343.361 239.975 343.892 240.187C344.095 240.268 344.328 240.35 344.525 240.253C344.798 240.122 344.822 239.713 344.648 239.465C344.476 239.216 344.179 239.09 343.897 238.976C343.226 238.703 342.555 238.43 341.884 238.156C341.709 238.086 341.517 238.015 341.337 238.067C341.156 238.12 341.027 238.363 341.168 238.205Z" fill="#D3405F"/>
<path d="M342.077 236.717C341.905 237.023 341.979 237.445 342.247 237.676C342.365 237.776 342.51 237.839 342.653 237.897C343.314 238.168 343.993 238.39 344.684 238.562C344.932 238.623 345.23 238.667 345.418 238.493C345.61 238.317 345.583 237.993 345.431 237.784C345.279 237.572 345.037 237.45 344.806 237.336C344.099 236.986 343.366 236.627 342.579 236.607C342.438 236.603 342.289 236.615 342.168 236.686C342.046 236.758 341.96 236.91 342.077 236.717Z" fill="#D3405F"/>
<path d="M312.85 127.464C309.938 144.978 315.889 169.694 321.836 187.329C325.935 199.486 332.733 212.424 340.403 235.166C345.216 233.586 347.36 233.746 352.173 232.165C351.178 224.002 349.48 219.243 347.867 213.287C342.149 192.167 337.675 170.754 334.474 149.183C333.374 141.766 332.392 134.218 329.277 127.315C324.015 128.435 318.536 128.666 312.85 127.464Z" fill="#0886A8"/>
<path d="M321.156 142.856C321.798 145.299 322.644 147.725 324.047 149.827C325.45 151.93 327.465 153.7 329.888 154.432" stroke="#1B5970" stroke-miterlimit="10"/>
<path d="M346.197 233.37C344.317 207.441 326.678 184.665 324.671 158.743" stroke="#1B5970" stroke-miterlimit="10"/>
<path d="M301.925 78.4156C297.697 86.3727 301.587 93.4447 303.099 105.405C305.361 123.354 298.069 131.432 298.488 132.172C298.665 132.485 298.237 135.97 325.238 141.159C326.081 137.677 327.425 131.143 327.412 127.563C328.907 131.518 328.424 135.421 328.804 139.629C335.982 137.689 339.568 136.997 339.134 135.675C336.714 128.293 331.539 117.7 330.211 110.048C327.964 97.0902 332.986 91.7408 330.397 82.845C329.914 81.1874 329.262 79.5417 328.155 78.2155C326.896 76.7064 325.128 75.7074 323.318 74.9316C319.256 73.1906 306.571 69.6662 301.925 78.4156Z" fill="#36A9CE"/>
<path d="M314.991 129.356C313.619 127.801 312.341 126.081 311.43 124.212C309.647 120.557 309.444 116.592 309.817 112.597C310.47 105.589 311.273 98.5718 310.604 91.5273C310.276 88.0824 317.642 81.0126 308.867 77.5269C303.792 75.5105 310.619 73.9008 310.497 72.8812C310.299 71.2118 304.186 73.119 301.736 78.4097C297.951 86.5868 301.398 93.4393 302.908 105.4C305.173 123.348 297.879 131.427 298.299 132.166C298.477 132.479 298.237 135.969 325.238 141.158C325.265 141.045 325.405 140.451 325.164 139.757C323.163 133.987 317.066 131.708 314.991 129.356Z" fill="#027691"/>
<path d="M304.143 90.143C303.332 87.1038 302.521 84.0641 301.709 81.0239C301.639 80.7624 301.569 80.4853 301.643 80.2249C301.717 79.9629 301.994 79.7397 302.252 79.8236C302.487 79.9016 302.586 80.1738 302.651 80.4138C303.569 83.7316 304.39 87.078 305.111 90.4448C304.742 90.7466 304.079 90.3334 304.143 90.143Z" fill="#D3405F"/>
<path d="M301.863 86.0897C301.658 87.9947 301.716 89.9272 302.035 91.8167C302.153 92.5107 302.308 93.2047 302.602 93.8428C302.98 94.6638 303.587 95.3777 304.334 95.8824C305.053 96.3698 305.965 96.6657 306.798 96.415C308.041 96.0421 308.64 94.6595 309.015 93.4172C309.696 91.1614 310.171 88.8265 310.187 86.469C307.484 86.8972 304.711 86.873 301.863 86.0897Z" fill="#0886A8"/>
<path d="M277.53 82.9973C277.952 86.229 278.134 89.5329 279.23 92.6043C280.327 95.6731 282.545 98.5611 285.681 99.466C288.814 100.37 292.694 100.462 295.454 98.7284C303.614 93.6055 305.433 80.3594 305.747 79.8274" stroke="#010148" stroke-width="3" stroke-miterlimit="10"/>
<path d="M307.788 61.3971C301.561 65.5101 301.69 75.8053 304.073 78.5426C304.559 79.1021 305.068 79.7639 305.806 79.8322" stroke="#010148" stroke-width="2" stroke-miterlimit="10"/>
<path d="M308.84 75.6557C312.006 77.1481 315.993 76.6532 318.759 74.4231C317.679 70.6964 318.711 65.1389 319.629 61.3444C316.59 61.2475 312.919 62.8529 309.879 62.9998C310.332 65.9981 310.663 68.6278 310.028 72.2518C309.825 73.4171 309.413 74.1611 308.84 75.6557Z" fill="#FFB6B6"/>
<path d="M310.218 71.2097C311.695 71.1978 313.955 70.0422 315.232 68.3992C315.739 67.7482 316.103 67.0149 316.376 66.2499C315.938 66.6539 315.345 66.8836 314.76 67.0848C313.764 67.4248 312.743 67.7111 311.706 67.9392C311.285 68.0306 310.854 68.1151 310.419 68.0834C310.547 68.2959 310.319 70.6276 310.218 71.2097Z" fill="#010148"/>
<path d="M313.82 53.2711C309.866 53.8 308.431 56.0117 307.227 60.2253C306.743 61.9216 306.165 63.9225 307.009 66.0809C308.849 70.7895 314.727 67.894 315.687 67.2188C317.815 65.7221 319.609 64.0586 320.363 61.7129C321.12 59.3678 320.706 56.653 318.932 54.8448C317.157 53.0371 315.741 53.014 313.82 53.2711Z" fill="#FFB6B6"/>
<path d="M309.885 58.6732C309.973 58.4026 310.257 58.2525 310.521 58.3386C310.784 58.4241 310.925 58.7135 310.837 58.9836C310.749 59.2542 310.463 59.4043 310.2 59.3183C309.938 59.2322 309.795 58.9438 309.885 58.6732Z" fill="#010148"/>
<path d="M314.07 61.0157C314.158 60.7445 314.443 60.5955 314.706 60.681C314.968 60.7666 315.11 61.056 315.022 61.3261C314.933 61.5962 314.648 61.7463 314.386 61.6607C314.122 61.5741 313.981 61.2857 314.07 61.0157Z" fill="#010148"/>
<path d="M312.348 59.3236C311.829 60.3308 310.966 61.0044 310.141 61.5951C310.066 61.6478 309.986 61.7097 309.948 61.806C309.916 61.884 309.922 61.9652 309.934 62.04C309.998 62.4252 310.25 62.7039 310.572 62.7442" stroke="#010148" stroke-width="0.25" stroke-miterlimit="10" stroke-linecap="round"/>
<path d="M309.909 57.9367C309.996 58.2175 310.188 58.4618 310.437 58.6092C310.685 58.7566 310.989 58.8061 311.273 58.7453" stroke="#010148" stroke-width="0.5" stroke-miterlimit="10"/>
<path d="M314.095 60.2791C314.183 60.5605 314.374 60.8058 314.622 60.9516C314.872 61.0996 315.174 61.1485 315.46 61.0872" stroke="#010148" stroke-width="0.5" stroke-miterlimit="10"/>
<path d="M308.713 63.9946C309.022 64.3184 309.368 64.6229 309.783 64.7811C310.2 64.9388 310.702 64.928 311.067 64.6574" stroke="#010148" stroke-miterlimit="10" stroke-linecap="round"/>
<path d="M314.715 59.0988C315.485 59.074 316.231 59.6152 316.457 60.3636" stroke="#010148" stroke-miterlimit="10" stroke-linecap="round"/>
<path d="M310.429 56.8585C311.106 56.7961 311.793 57.1969 312.082 57.821" stroke="#010148" stroke-miterlimit="10" stroke-linecap="round"/>
<path d="M319.689 64.6934C320.303 67.3216 323.4 68.4885 324.939 70.7061C326.321 72.694 326.487 75.582 328.509 76.9162C330.192 78.0278 332.611 77.6167 334.168 78.902C335.936 80.3627 335.714 83.2582 337.262 84.9486C337.98 85.7335 339.015 86.1704 340.062 86.3571C344.369 87.12 348.857 83.2017 348.678 78.8385C348.612 77.238 348.027 75.7052 347.834 74.1154C347.644 72.5251 347.963 70.6997 349.271 69.7743C349.816 69.3896 350.471 69.2046 351.061 68.8979C353.835 67.4657 354.546 63.4022 352.845 60.787C351.142 58.1734 347.652 57.0861 344.586 57.6709C342.828 58.0072 340.661 58.685 339.516 57.3121C339.081 56.7918 338.938 56.0951 338.63 55.4915C337.902 54.0593 336.226 53.2523 334.619 53.3002C333.012 53.3475 331.493 54.1459 330.316 55.2418C329.519 55.9837 329.502 58.323 328.705 59.0638C326.822 60.8187 324.519 58.4682 323.15 58.776C322.31 58.9659 319.249 62.7991 319.689 64.6934Z" fill="#CE3657"/>
<path d="M322.273 61.1668C324.228 63.031 327.459 62.3144 329.963 63.328C332.207 64.2372 333.93 66.5624 336.353 66.5732C338.371 66.5829 340.171 64.9156 342.177 65.141C344.458 65.3966 345.859 67.9413 348.081 68.5095C349.112 68.7742 350.218 68.5729 351.196 68.1565C355.219 66.4408 356.828 60.7068 354.284 57.1539C353.352 55.8509 352.023 54.8873 350.991 53.6628C349.958 52.4367 349.226 50.7339 349.812 49.2442C350.057 48.6255 350.503 48.1117 350.831 47.5328C352.367 44.8175 350.733 41.029 347.877 39.7695C345.02 38.5133 341.504 39.5118 339.258 41.6778C337.97 42.92 336.529 44.6718 334.817 44.1504C334.171 43.9519 333.668 43.4467 333.081 43.1105C331.686 42.3105 329.841 42.551 328.522 43.4704C327.202 44.3893 326.369 45.8871 325.984 47.4484C325.725 48.5039 326.993 50.4709 326.733 51.5275C326.118 54.026 322.902 53.3179 321.924 54.324C321.327 54.9416 320.867 59.8229 322.273 61.1668Z" fill="#CE3657"/>
<path d="M307.406 51.2886C306.608 51.421 306.096 52.2549 305.889 53.0581C305.639 54.0286 305.69 55.1106 306.198 55.9601C306.705 56.8096 307.72 57.3594 308.674 57.1458C309.627 56.9317 310.294 56.0784 311.014 55.3995C311.736 54.7216 312.81 54.1664 313.647 54.6656C313.096 55.0051 312.768 55.6948 312.851 56.3442C312.932 56.9946 313.418 57.566 314.035 57.7371C314.725 57.9286 315.449 57.6419 316.138 57.4229C316.825 57.2034 317.632 57.0662 318.209 57.4977C318.797 57.9361 318.907 58.8185 318.706 59.5399C318.506 60.263 318.06 60.8833 317.696 61.5381C317.6 61.714 317.505 61.9222 317.575 62.1105C317.679 62.394 318.077 62.4145 318.347 62.2843C318.616 62.1551 318.845 61.9276 319.136 61.8635C319.694 61.7409 320.196 62.2552 320.763 62.2982C321.304 62.3397 321.788 61.9475 322.148 61.5257C323.95 59.4124 323.978 56.0209 322.399 53.7629C320.821 51.506 317.875 50.4488 315.191 50.9357C314.557 51.0508 313.862 51.2337 313.304 50.9136C312.855 50.6559 312.622 50.1416 312.291 49.7392C311.559 48.8466 310.241 48.5233 309.183 48.9757C308.124 49.4277 307.554 51.8013 307.406 51.2886Z" fill="#CE3657"/>
<path d="M318.717 62.1293C319.162 61.693 319.822 61.4886 320.416 61.6311C321.012 61.7764 321.517 62.2789 321.637 62.8954C321.727 63.342 321.622 63.8116 321.449 64.2345C320.838 65.7377 319.318 66.8099 317.74 66.8519C317.554 66.8573 317.365 66.8476 317.191 66.7809C316.863 66.6517 316.637 66.3176 316.565 65.9626C316.491 65.6075 316.553 65.2357 316.662 64.8882C317.034 63.718 317.975 62.8529 318.717 62.1293Z" fill="#FFB6B6"/>
<path d="M318.427 64.8344C318.485 65.2088 318.859 65.5671 319.248 65.4961C319.482 65.4531 319.736 65.2761 319.851 65.0792C320.034 64.7709 319.755 64.2114 319.446 64.008C319.01 63.7218 318.369 64.4605 318.427 64.8344Z" fill="#36A9CE"/>
<path d="M319.409 65.1652C321.038 67.7756 320.245 72.9926 317.894 74.9816C314.619 77.7528 305.78 80.0711 305.79 80.0458" stroke="#010148" stroke-width="2" stroke-miterlimit="10"/>
<path d="M254.754 72.2055C256.673 72.2873 258.609 71.5987 260.015 70.3365C261.959 71.3829 264.252 71.8009 266.444 71.505C267.562 71.3555 269.38 70.9418 270.008 70.0325C272.449 72.6499 274.147 73.6377 276.171 75.2334C278.216 76.8452 281.151 78.1047 282.031 79.037C282.563 79.5976 283.091 80.1846 283.393 80.8867C283.44 80.9959 283.481 81.1202 283.432 81.2278C283.392 81.3171 283.3 81.3709 283.215 81.4193C280.981 82.6825 278.736 83.9501 276.331 84.8738C273.927 85.7986 271.338 86.3759 268.75 86.1984C267.581 86.1177 266.425 85.8852 265.296 85.5689C262.592 84.8098 260.031 83.5605 257.783 81.9057C256.472 80.9405 255.24 79.8015 254.526 78.3624C253.55 76.4025 253.679 73.9702 254.754 72.2055Z" fill="#F17185"/>
<path d="M271.497 72.0581C269.017 68.3255 270.054 59.7261 270.054 59.7261L258.066 56.7864L259.149 73.3278C259.149 73.3278 258.838 76.438 265.438 75.1328C272.036 73.8276 272.608 73.7329 271.497 72.0581Z" fill="#F17185"/>
<path d="M270.182 68.7806C267.608 68.6703 265.369 68.1318 263.459 66.7846C261.548 65.4364 259.739 63.7428 259.353 61.764C262.075 63.7218 266.167 63.7853 269.85 63.5001C269.731 63.8778 269.904 67.0057 270.182 68.7806Z" fill="#010148"/>
<path d="M265.737 47.1874C267.977 47.5942 270.162 48.1429 270.347 54.1196C270.496 58.9535 272.591 59.8826 271.48 63.4157C270.529 66.4462 265.787 67.6648 262.333 65.3944C260.23 64.0112 258.932 62.9272 257.189 56.7423C254.812 48.3113 263.284 46.742 265.737 47.1874Z" fill="#F17185"/>
<path d="M274.139 46.3794C273.952 48.2737 272.895 50.1093 270.642 51.5598C269.838 52.0768 269.28 51.7448 268.919 51.4043C267.031 49.6246 263.884 49.3766 261.746 50.8378C259.609 52.2984 258.702 55.3182 259.679 57.7199C257.161 57.6359 254.816 55.7008 254.257 53.2442C254.049 52.3334 253.599 51.4382 253.917 49.8995C254.195 48.555 254.491 47.6937 255.712 46.622C257.569 44.9881 258.968 45.0758 264.152 45.1511C264.152 45.1511 265.684 45.2157 266.376 44.9251C267.763 44.3436 268.326 42.4821 270.619 42.4902C272.865 42.4977 274.326 44.4856 274.139 46.3794Z" fill="#010148"/>
<path d="M256.414 54.7313C255.636 54.8556 255.317 55.7169 255.389 56.4228C255.504 57.5601 255.863 58.4311 256.741 59.4764C257.335 60.1844 257.773 60.3566 258.521 60.4115C259.164 60.4588 259.795 59.9822 259.958 59.3113C260.348 57.6967 258.496 54.4009 256.414 54.7313Z" fill="#F17185"/>
<path d="M258.258 57.5176C257.963 57.0059 257.472 56.7353 257.159 56.9139C256.848 57.0931 256.835 57.6526 257.13 58.1643C257.424 58.6764 257.916 58.9465 258.228 58.7679C258.539 58.5893 258.552 58.0292 258.258 57.5176Z" fill="#CE3657"/>
<path d="M264.563 56.3394C264.532 56.072 264.289 55.8804 264.021 55.9122C263.754 55.9434 263.563 56.1844 263.594 56.4529C263.626 56.7197 263.869 56.9112 264.137 56.8806C264.405 56.8488 264.595 56.6073 264.563 56.3394Z" fill="#010148"/>
<path d="M268.938 55.3376C268.907 55.0697 268.664 54.8781 268.396 54.9099C268.129 54.9416 267.937 55.1832 267.969 55.4511C268.001 55.718 268.244 55.91 268.511 55.8794C268.78 55.8471 268.97 55.605 268.938 55.3376Z" fill="#010148"/>
<path d="M266.379 55.7771C267.594 58.1406 267.408 57.7118 268.269 59.2386C268.539 59.7164 266.775 59.7132 266.319 59.2865" stroke="#010148" stroke-width="0.25" stroke-miterlimit="10"/>
<path d="M269.005 53.8662C268.422 53.6477 267.669 53.8269 267.274 54.2772" stroke="#010148" stroke-miterlimit="10"/>
<path d="M264.624 54.8722C263.945 54.6651 263.054 54.8604 262.58 55.3198" stroke="#010148" stroke-miterlimit="10"/>
<path d="M268.259 61.8501C267.808 61.9351 267.342 61.9943 266.891 61.9077C266.441 61.8216 266.003 61.5703 265.786 61.1658" stroke="#010148" stroke-miterlimit="10"/>
<path d="M274.864 232.426C277.781 214.581 275.756 211.378 272.238 199.071C266.109 177.63 271.809 154.531 269.499 132.353C264.225 132.175 256.715 131.932 251.241 132.478C247.901 152.96 253.196 174.244 258.072 194.416C261.286 207.71 267.744 219.163 267.022 233.257C266.162 238.137 260.948 240.229 258.519 242.054C257.945 242.486 256.239 245.437 258.709 246.307C262.197 247.536 265.388 246.407 268.174 243.586C269.258 242.489 270.33 241.333 271.601 240.616C272.46 240.133 274.824 238.815 275.369 236.411C275.734 234.796 274.857 234.651 274.867 232.467C274.867 232.453 274.865 232.441 274.864 232.426Z" fill="#F17185"/>
<path d="M260.048 195.848C261.24 196.642 263.126 195.891 263.446 194.496" stroke="#1B5970" stroke-miterlimit="10" stroke-linecap="round"/>
<path d="M257.263 244.373C256.91 245.998 258.03 248.373 261.304 248.331C262.595 248.314 264.165 248.196 265.25 247.501C266.544 246.674 267.725 245.674 268.757 244.538C269.429 243.797 270.454 242.353 271.285 241.796C272.608 240.905 273.997 240.574 275.193 239.522C276.634 238.257 276.759 236.59 275.508 235.138C274.228 238.438 270.595 240.027 267.736 242.115C266.146 243.276 264.695 244.691 262.869 245.424C261.043 246.159 258.301 246.036 257.263 244.373Z" fill="#36A9CE"/>
<path d="M257.311 245.015C257.099 243.887 257.547 242.713 258.25 241.812C258.954 240.913 259.892 240.242 260.814 239.582C262.243 238.563 263.671 237.545 265.099 236.523C267.099 237.971 269.428 238.945 271.852 239.342C269.746 241.995 267.075 244.176 264.082 245.692C262.938 246.27 261.706 246.761 260.433 246.719C259.161 246.681 257.517 246.116 257.311 245.015Z" fill="#94DCF8"/>
<path d="M252.678 142.394C252.68 141.907 252.245 141.536 251.761 141.598C246.704 142.243 241.574 142.316 236.499 141.815C236.027 141.769 235.58 142.134 235.609 142.609C235.613 142.682 235.628 142.742 235.658 142.783C235.801 142.984 235.823 143.227 235.787 143.474C234.138 154.497 233.99 164.888 233.726 174.98C233.554 181.565 232.759 188.116 231.965 194.657C230.745 204.697 229.795 213.807 228.882 223.552C228.864 223.545 228.842 223.541 228.825 223.533C228.822 225.562 228.191 229.088 226.541 230.274C224.891 231.458 222.918 232.091 220.982 232.705C217.262 233.887 212.8 234.042 213.149 235.54C213.582 237.4 216.975 237.226 218.227 237.319C223.819 237.727 224.686 237.714 230.273 237.239C231.765 237.112 233.518 236.776 234.138 235.412C234.37 234.899 234.395 234.322 234.415 233.759C234.494 231.565 235.083 229.474 236.2 225.44C239.166 217.887 241.675 210.779 242.934 202.433C243.705 197.32 243.9 192.135 244.575 187.007C246.487 172.461 252.641 157.04 252.678 142.394Z" fill="#F17185"/>
<path d="M234.184 190.223C235.598 190.785 237.403 189.869 237.779 188.396" stroke="#1B5970" stroke-miterlimit="10" stroke-linecap="round"/>
<path d="M244.116 189.996C246.03 175.45 252.183 160.029 252.222 145.384C252.223 144.897 251.788 144.525 251.303 144.587C247.841 145.028 245.173 145.605 241.683 145.51C239.919 155.883 240.437 166.201 241.478 184.955C241.927 193.052 242.27 206.786 242.476 205.423C243.247 200.309 243.442 195.125 244.116 189.996Z" fill="#CE3657"/>
<path d="M234.289 235.089C234.194 236.283 234.006 237.821 233.042 238.481C232.226 239.04 231.165 238.866 230.206 238.722C228.919 238.53 227.62 238.431 226.319 238.404C225.044 238.378 223.766 238.418 222.496 238.559C221.083 238.714 219.678 238.992 218.26 239.047C216.84 239.102 215.378 238.922 214.137 238.217C213.632 237.93 213.157 237.542 212.895 237.006C212.632 236.47 212.624 235.766 212.989 235.292C213.806 236.211 214.973 236.725 216.16 236.941C217.347 237.157 218.563 237.012 219.771 237.01C232.344 236.993 234.285 235.029 234.289 235.089Z" fill="#36A9CE"/>
<path d="M212.98 235.494C213.337 233.859 214.63 232.553 216.111 231.768C217.591 230.983 219.26 230.645 220.904 230.316L224.774 229.54C225.108 229.472 225.463 229.407 225.783 229.521C226.084 229.63 226.308 229.879 226.518 230.121C227.861 231.668 228.446 234.526 228.467 236.572C228.47 236.749 223.966 237.479 219.409 237.65C217.499 237.722 215.486 237.622 213.86 236.619C213.351 236.305 212.924 235.743 212.98 235.494Z" fill="#94DCF8"/>
<path d="M288.431 86.377C287.448 82.9316 279.386 77.4645 279.305 77.5097C266.508 84.5731 260.421 78.6421 255.423 71.8526C255.2 71.5486 248.06 72.6687 245.036 77.8825C241.761 83.5331 241.749 92.1594 241.675 100.963C241.618 107.521 241.326 112.631 240.318 119.123C240.329 119.129 240.34 119.134 240.351 119.139C236.998 133.257 230.871 146.663 226.133 160.433C225.903 161.107 225.677 161.862 225.975 162.51C226.22 163.04 226.758 163.364 227.272 163.644C237.148 169.014 257.431 174.769 262.565 167.678C263.448 166.458 263.885 164.93 264.935 163.819C265.36 163.369 265.951 162.952 266.606 163.067C267.394 163.208 267.938 163.984 268.118 164.706C268.372 165.74 268.154 166.861 268.099 167.903C268.068 168.474 268.056 169.06 268.156 169.624C268.32 170.549 271.04 169.189 271.057 169.17C274.972 164.602 274.392 121.189 275.465 118.234C274.103 118.105 272.497 117.867 270.752 117.568C271.998 114.721 274.08 111.953 277.095 108.126C282.313 101.5 290.451 93.4565 288.431 86.377Z" fill="#94DCF8"/>
<path d="M250.496 95.3325C250.719 86.9672 251.928 79.0591 253.906 71.9796C251.594 72.4718 247.23 74.0971 245.036 77.8825C241.761 83.5331 241.748 92.1594 241.674 100.963C241.617 107.521 241.325 112.631 240.317 119.123C240.328 119.129 240.339 119.134 240.35 119.139C236.997 133.257 230.869 146.663 226.132 160.433C225.901 161.107 225.675 161.862 225.973 162.51C226.218 163.04 226.757 163.364 227.27 163.644C237.147 169.014 257.429 174.769 262.563 167.678C263.446 166.458 263.883 164.93 264.933 163.819C265.358 163.369 265.949 162.952 266.604 163.067C267.392 163.208 267.937 163.984 268.116 164.706C268.37 165.74 268.151 166.861 268.097 167.903C268.065 168.474 268.055 169.06 268.155 169.624C268.318 170.549 271.038 169.189 271.055 169.17C272.572 167.401 273.413 159.812 273.937 151.003C259.9 145.878 249.768 122.773 250.496 95.3325Z" fill="#36A9CE"/>
<path d="M235.208 106.074C233.537 112.984 233.405 120.261 234.823 127.227C235.323 129.674 236.021 132.109 237.229 134.296C239.381 138.196 243.348 141.532 245.413 146.211C245.413 146.211 248.197 151.258 249.492 151.508C250.704 151.742 249.599 150.972 249.39 149.539C250.262 151.553 251.781 152.065 252.105 151.636C252.698 150.846 251.337 149.261 250.634 148.238C251.51 149.734 253.776 151.902 254.616 151.397C255.237 151.023 253.066 148.521 252.29 147.083C253.187 148.629 255.519 151.228 256.16 150.68C257.071 149.903 253.853 147.317 253.488 145.293C254.844 145.83 257.635 145.583 257.268 144.398C256.95 143.372 251.381 143.319 249.514 140.523C247.296 137.207 245.847 134.367 243.916 131.478C242.739 129.719 241.548 127.927 240.939 125.901C240.167 123.342 240.379 120.605 240.618 117.943C240.911 114.699 241.235 111.46 241.59 108.222C239.352 107.707 237.164 106.978 235.208 106.074Z" fill="#F17185"/>
<path d="M251.649 72.9716C246.948 73.607 243.023 77.0976 240.661 81.2068C238.299 85.3177 232.209 106.852 233.236 108.302C233.903 109.247 242.847 111.276 244.536 110.779C245.224 110.577 245.899 110.246 246.349 109.69C247.047 108.828 247.07 107.624 247.072 106.516C247.082 97.0557 247.753 87.5961 249.078 78.2284C249.335 76.4068 249.696 74.4388 251.649 72.9716Z" fill="#36A9CE"/>
<path d="M244.178 93.2741C244.409 102.304 243.614 111.436 245.218 120.318C246.823 129.202 251.147 138.051 259.888 143.675" stroke="#1B5970" stroke-miterlimit="10" stroke-linecap="round"/>
<path d="M252.832 101.709C252.928 105.242 253.887 108.75 255.601 111.844" stroke="#1B5970" stroke-miterlimit="10" stroke-linecap="round"/>
<path d="M255.548 92.048C254.656 96.1906 255.595 100.693 258.068 104.135" stroke="#1B5970" stroke-miterlimit="10" stroke-linecap="round"/>
<path d="M239.577 146.084C238.807 151.889 242.673 157.115 249.953 160.115" stroke="#1B5970" stroke-miterlimit="10" stroke-linecap="round"/>
<path d="M281.322 118.933C281.155 119.995 275.965 118.867 274.31 118.418C265.464 116.015 262.56 108.87 265.944 106.946C270.853 105.254 282.403 110.795 281.322 118.933Z" fill="#027691"/>
<path d="M277.19 116.902C274.875 115.265 272.056 114.804 269.738 113.168C267.915 117.247 266.027 121.425 262.955 124.619C258.854 128.883 253.138 130.89 247.584 132.342C246.779 132.551 245.951 132.746 245.144 132.633C240.901 132.046 239.189 128.525 238.544 129.483C238.134 130.089 238.995 131.404 239.799 132.409C238.874 132.075 237.974 131.316 236.175 130.56C235.901 130.446 235.819 130.998 235.953 131.261C236.088 131.525 236.316 131.728 236.539 131.923C236.943 132.28 237.348 132.637 237.753 132.995C235.32 131.632 235.01 132.219 235.201 132.537C235.315 132.728 235.423 132.89 235.818 133.185C236.344 133.581 236.889 133.951 237.449 134.295C234.324 133.435 234.66 134.147 235.632 134.843C236.14 135.209 236.825 135.291 237.284 135.716C236.139 136.028 235.732 135.238 235.647 136.164C235.62 136.456 238.634 137.938 242.014 138.306C242.013 138.309 242.013 138.314 242.012 138.318C245.829 138.846 258.107 138.002 265.45 133.468C270.741 130.2 272.919 126.896 276.18 120.006C276.386 119.57 277.463 117.174 277.19 116.902Z" fill="#F79A9A"/>
<path d="M278.763 77.7684C285.148 74.9219 290.852 86.5238 290.026 95.1335C288.76 108.275 282.288 119.046 281.18 119.023C280.072 119 279.238 115.506 272.096 115.609C265.43 115.707 262.504 111.857 263.943 106.769C266.114 99.0878 265.973 98.9054 270.157 90.1656C271.633 87.0877 276.723 78.6798 278.763 77.7684Z" fill="#94DCF8"/>
<path d="M271.82 95.4536C269.83 102.719 267.656 106.95 265.957 109.705C265.009 111.241 264.336 113.312 266.946 114.469C272.21 116.8 277.407 114.789 281.18 119.022" stroke="#1B5970" stroke-miterlimit="10" stroke-linecap="round"/>
<path d="M321.559 84.7054C317.991 86.2333 315.156 90.0972 312.822 94.1586C310.488 98.22 307.094 106.587 304.459 107.118C303.083 107.396 291.968 99.7581 291.21 97.2785C290.817 95.991 291.083 94.4723 290.898 93.0885C290.475 89.9036 286.231 86.6594 285.72 87.3217C284.921 88.3595 286.872 89.7427 287.448 90.9543C286.633 89.6884 284.526 89.0481 284.09 89.8901C283.401 91.219 285.934 91.7602 287.006 93.046C285.833 92.3665 283.079 91.5746 284.081 92.7743C284.924 93.7836 285.596 94.3889 286.832 95.7441C285.729 94.9161 283.335 95.2782 284.555 96.0158C289.777 99.1685 296.89 118.292 303.053 119.335C310.027 120.516 318.031 109.873 322.479 102.281C324.713 98.4734 326.693 92.7765 326.181 88.0873C325.921 85.7093 322.731 84.2045 321.559 84.7054Z" fill="#FFB6B6"/>
<path d="M319.326 76.2793C316.81 76.8501 314.884 78.8337 313.252 80.8286C310.173 84.5892 307.567 88.7372 305.516 93.1418C305.4 93.3909 305.282 93.6631 305.338 93.9332C305.374 94.1156 305.485 94.2727 305.596 94.4233C309.35 99.53 315.036 103.182 321.246 104.475C325.223 98.7499 329.338 92.6404 329.782 85.6856C329.889 83.9953 329.751 82.2204 328.891 80.7624C328.264 79.6999 327.297 78.881 326.285 78.1725C324.074 76.6257 321.316 75.8273 319.326 76.2793Z" fill="#36A9CE"/>
<path d="M305.337 93.9332C309.444 100.013 317.457 103.835 322.012 104.574C322.276 104.617 322.559 104.652 322.799 104.534C323.085 104.392 323.227 104.071 323.348 103.775C324.237 101.578 325.128 99.3815 326.017 97.1865C327.085 94.5481 328.173 91.7624 327.803 88.9411" stroke="#1B5970" stroke-miterlimit="10" stroke-linecap="round"/>
<path d="M219.283 48.052H98.9364V215.772H219.283V48.052Z" fill="#027691"/>
<path d="M212.842 53.8118H105.377V207.791H212.842V53.8118Z" fill="white"/>
<path d="M186.267 43.6146H133.686V59.6335H186.267V43.6146Z" fill="#94DCF8"/>
<path d="M176.99 47.118H143.27V56.2624H176.99V47.118Z" fill="#027691"/>
<path d="M141.462 51.69C141.462 53.2459 140.199 54.5075 138.641 54.5075C137.084 54.5075 135.82 53.2459 135.82 51.69C135.82 50.1341 137.084 48.8725 138.641 48.8725C140.199 48.8725 141.462 50.1341 141.462 51.69Z" fill="#027691"/>
<path d="M184.439 51.69C184.439 53.2459 183.176 54.5075 181.618 54.5075C180.06 54.5075 178.797 53.2459 178.797 51.69C178.797 50.1341 180.06 48.8725 181.618 48.8725C183.176 48.8725 184.439 50.1341 184.439 51.69Z" fill="#027691"/>
<path d="M170.496 69.1481H115.589V74.2198H170.496V69.1481Z" fill="#E9F8FF"/>
<path d="M170.496 79.2899H115.589V84.3622H170.496V79.2899Z" fill="#E9F8FF"/>
<path d="M170.496 89.4317H115.589V94.5035H170.496V89.4317Z" fill="#E9F8FF"/>
<path d="M204.085 83.6785C204.085 91.1513 198.019 97.2092 190.537 97.2092C183.055 97.2092 176.99 91.1513 176.99 83.6785C176.99 76.2057 183.055 70.1478 190.537 70.1478C198.019 70.1473 204.085 76.2052 204.085 83.6785Z" fill="#94DCF8"/>
<path d="M179.591 75.6928L186.578 91.9377H193.564L201.483 70.1369H196.223L190.535 87.6327L184.713 75.3937L179.591 75.6928Z" fill="#027691"/>
<path d="M158.889 120.042H120.423V122.943H158.889V120.042Z" fill="#E9F8FF"/>
<path d="M158.889 125.843H120.423V128.743H158.889V125.843Z" fill="#E9F8FF"/>
<path d="M158.889 131.643H120.423V134.545H158.889V131.643Z" fill="#E9F8FF"/>
<path d="M158.889 113.279H117.585" stroke="#36A9CE" stroke-miterlimit="10"/>
<path d="M114.458 113.279C114.458 114.764 115.662 115.968 117.149 115.968C118.635 115.968 119.84 114.764 119.84 113.279C119.84 111.794 118.635 110.591 117.149 110.591C115.662 110.591 114.458 111.794 114.458 113.279Z" fill="#94DCF8"/>
<path d="M205.802 108.964H174.745V136.172H205.802V108.964Z" fill="#E9F8FF"/>
<path d="M158.889 151.371H120.423V154.272H158.889V151.371Z" fill="#E9F8FF"/>
<path d="M158.889 157.172H120.423V160.073H158.889V157.172Z" fill="#E9F8FF"/>
<path d="M158.889 162.973H120.423V165.873H158.889V162.973Z" fill="#E9F8FF"/>
<path d="M158.889 144.608H117.585" stroke="#36A9CE" stroke-miterlimit="10"/>
<path d="M114.458 144.608C114.458 146.093 115.662 147.297 117.149 147.297C118.635 147.297 119.84 146.093 119.84 144.608C119.84 143.124 118.635 141.92 117.149 141.92C115.662 141.92 114.458 143.124 114.458 144.608Z" fill="#94DCF8"/>
<path d="M205.802 140.293H174.745V167.5H205.802V140.293Z" fill="#E9F8FF"/>
<path d="M158.889 182.702H120.423V185.602H158.889V182.702Z" fill="#E9F8FF"/>
<path d="M158.889 188.502H120.423V191.402H158.889V188.502Z" fill="#E9F8FF"/>
<path d="M158.889 194.302H120.423V197.203H158.889V194.302Z" fill="#E9F8FF"/>
<path d="M158.889 175.938H117.585" stroke="#36A9CE" stroke-miterlimit="10"/>
<path d="M114.458 175.938C114.458 177.423 115.662 178.626 117.149 178.626C118.635 178.626 119.84 177.423 119.84 175.938C119.84 174.453 118.635 173.249 117.149 173.249C115.662 173.249 114.458 174.453 114.458 175.938Z" fill="#94DCF8"/>
<path d="M205.802 171.623H174.745V198.83H205.802V171.623Z" fill="#E9F8FF"/>
<path fill-rule="evenodd" clip-rule="evenodd" d="M197.502 124.722C197.422 126.092 197.521 127.369 197.124 128.679C195.858 129.028 193.963 127.748 193.236 129.299C192.963 129.881 193.026 130.789 193.058 131.464C193.069 131.697 193.131 131.967 193.194 132.244H184.724C184.649 131.839 184.826 131.318 184.89 130.838C185.088 129.351 185.059 127.741 184.818 126.259C184.612 124.992 183.584 123.835 182.893 122.733C181.274 120.147 180.675 117.143 182.741 114.573C185.334 111.348 189.444 109.758 193.412 111.385C195.397 112.199 196.705 113.463 197.467 115.442C197.924 116.629 198.524 119.099 197.573 120.202L197.659 120.375C198.238 121.23 198.808 122.379 199.155 123.408C199.71 125.05 198.591 124.221 197.502 124.722Z" fill="#0886A8"/>
<path fill-rule="evenodd" clip-rule="evenodd" d="M197.467 125.662C197.467 125.662 190.98 124.274 189.419 125.314C188.336 126.035 188.552 126.873 188.465 128.346C188.378 129.818 188.465 132.244 188.465 132.244H189.593C189.593 132.244 189.655 126.873 190.362 126.526C191.067 126.18 197.467 127.046 197.467 127.046V125.662Z" fill="#E9F8FF"/>
<path fill-rule="evenodd" clip-rule="evenodd" d="M185.904 149.103C183.194 149.681 181.342 151.63 180.345 154.175C179.6 156.077 178.365 159.88 179.131 161.974C179.946 164.201 183.201 163.244 184.732 162.62C186.659 161.836 188.098 160.53 188.765 158.459C189.344 156.662 189.05 154.333 188.534 152.612C188.263 151.708 187.938 150.79 187.337 150.01C186.588 149.034 186.097 149.119 184.992 149.363" fill="#0886A8"/>
<path fill-rule="evenodd" clip-rule="evenodd" d="M194.82 149.103C197.529 149.681 199.382 151.63 200.378 154.175C201.124 156.077 202.358 159.88 201.592 161.974C200.777 164.201 197.523 163.244 195.991 162.62C194.064 161.836 192.625 160.53 191.958 158.459C191.379 156.662 191.673 154.333 192.189 152.612C192.46 151.708 192.786 150.79 193.386 150.01C194.135 149.034 194.626 149.119 195.73 149.363" fill="#0886A8"/>
<path fill-rule="evenodd" clip-rule="evenodd" d="M186.033 152.351L189.733 150.012V145.464C189.733 145.464 190.482 144.815 190.86 145.464C191.238 146.114 190.86 150.012 190.86 150.012L194.881 152.351L193.84 153.521L190.457 151.702L186.814 153.521L186.033 152.351Z" fill="#0886A8"/>
<path d="M195.203 178.603C195.203 179.003 194.703 179.328 194.086 179.328H189.216C188.599 179.328 188.1 179.003 188.1 178.603V175.23C188.1 174.83 188.599 174.505 189.216 174.505H194.086C194.703 174.505 195.203 174.83 195.203 175.23V178.603Z" fill="#0886A8"/>
<path d="M189.617 176.916C189.617 177.565 189.089 178.093 188.439 178.093H186.697C186.047 178.093 185.521 177.566 185.521 176.916C185.521 176.267 186.047 175.74 186.697 175.74H188.439C189.089 175.74 189.617 176.267 189.617 176.916Z" fill="#0886A8"/>
<path d="M195.203 185.838C195.203 186.238 194.703 186.563 194.086 186.563H189.216C188.599 186.563 188.1 186.238 188.1 185.838V182.464C188.1 182.065 188.599 181.74 189.216 181.74H194.086C194.703 181.74 195.203 182.065 195.203 182.464V185.838Z" fill="#0886A8"/>
<path d="M189.617 184.152C189.617 184.8 189.089 185.328 188.439 185.328H186.697C186.047 185.328 185.521 184.8 185.521 184.152C185.521 183.502 186.047 182.975 186.697 182.975H188.439C189.089 182.975 189.617 183.502 189.617 184.152Z" fill="#0886A8"/>
<path d="M195.203 193.074C195.203 193.474 194.703 193.799 194.086 193.799H189.216C188.599 193.799 188.1 193.474 188.1 193.074V189.702C188.1 189.3 188.599 188.976 189.216 188.976H194.086C194.703 188.976 195.203 189.3 195.203 189.702V193.074Z" fill="#0886A8"/>
<path d="M189.617 191.387C189.617 192.036 189.089 192.563 188.439 192.563H186.697C186.047 192.563 185.521 192.036 185.521 191.387C185.521 190.738 186.047 190.211 186.697 190.211H188.439C189.089 190.212 189.617 190.738 189.617 191.387Z" fill="#0886A8"/>
<path d="M115.242 237.204C116.472 239.589 118.572 241.513 121.057 242.533C122.016 242.927 123.039 243.195 123.914 243.753C124.153 243.908 124.386 244.088 124.522 244.339C124.788 244.827 124.603 245.466 124.217 245.866C123.832 246.265 123.287 246.471 122.75 246.614C121.523 246.939 120.233 247.01 118.978 246.818C116.503 246.44 114.267 245.075 111.796 244.673C111.238 244.581 110.649 244.532 110.173 244.228C109.712 243.931 109.422 243.431 109.218 242.923C108.517 241.153 108.706 239.174 108.903 237.282C110.997 236.743 113.243 236.807 115.242 237.204Z" fill="#027691"/>
<path d="M121.359 247.965C121.1 247.984 120.846 247.819 120.592 247.878C120.437 247.915 120.303 248.004 120.164 248.078C119.501 248.427 118.66 248.414 118.007 248.042C117.51 247.754 117.025 247.256 116.469 247.392C116.32 247.431 116.186 247.511 116.041 247.559C115.543 247.726 114.997 247.491 114.586 247.164C114.175 246.839 113.839 246.42 113.401 246.131C112.963 245.841 112.361 245.702 111.923 245.99C111.758 246.099 111.631 246.257 111.472 246.376C110.834 246.845 109.861 246.477 109.426 245.812C109.358 245.707 109.283 245.583 109.159 245.559C109.05 245.534 108.944 245.595 108.84 245.637C108.277 245.86 107.566 245.352 107.595 244.744C107.322 244.915 106.94 244.71 106.812 244.416C106.683 244.12 106.732 243.781 106.785 243.463C107.003 242.137 107.332 240.662 108.459 239.933C108.546 239.875 108.641 239.824 108.743 239.819C109.031 239.808 109.014 241.09 111.313 243.092C111.831 243.542 112.553 243.68 113.193 243.928C114.361 244.378 115.585 246.252 119.34 246.54C120.692 246.642 123.353 246.692 124.611 244.937C124.643 244.892 125.739 247.66 121.359 247.965Z" fill="#D3405F"/>
<path d="M120.153 242.247C119.649 242.928 119.145 243.611 118.54 244.202C118.366 244.371 118.174 244.537 117.938 244.589C117.702 244.642 117.414 244.536 117.343 244.306C117.267 244.067 117.44 243.829 117.601 243.639C118.033 243.128 118.467 242.618 118.9 242.106C119.071 241.904 119.251 241.698 119.491 241.588C119.732 241.481 120.055 241.504 120.216 241.71C120.379 241.918 120.251 242.303 120.153 242.247Z" fill="#94DCF8"/>
<path d="M118.401 240.568C118.641 240.688 118.921 240.886 118.863 241.148C118.842 241.235 118.784 241.311 118.724 241.381C118.47 241.686 118.191 241.973 117.913 242.256L116.715 243.483C116.563 243.64 116.382 243.808 116.164 243.8C115.86 243.79 115.673 243.425 115.731 243.129C115.788 242.832 116.008 242.597 116.218 242.378C116.721 241.857 117.224 241.337 117.727 240.816C117.858 240.68 118.004 240.535 118.19 240.512C118.377 240.487 118.596 240.655 118.401 240.568Z" fill="#94DCF8"/>
<path d="M116.969 239.576C117.248 239.788 117.351 240.202 117.2 240.519C117.134 240.66 117.026 240.777 116.918 240.89C116.426 241.403 115.897 241.88 115.333 242.317C115.13 242.475 114.877 242.636 114.633 242.552C114.389 242.47 114.279 242.162 114.334 241.908C114.389 241.655 114.56 241.445 114.725 241.246C115.228 240.64 115.754 240.017 116.465 239.68C116.592 239.619 116.731 239.568 116.873 239.585C117.012 239.6 117.152 239.706 116.969 239.576Z" fill="#94DCF8"/>
<path d="M114.21 133.852C124.358 166.753 115.279 202.907 117.686 237.291C112.578 239.081 111.755 238.88 106.373 238.288C102.969 203.447 99.5655 168.601 96.6115 133.716C102.46 134.056 108.308 134.393 114.21 133.852Z" fill="#36A9CE"/>
<path d="M106.644 234.338C103.46 219.364 110.263 204.287 112.353 189.124C113.96 177.454 112.717 165.403 108.762 154.306C108.216 152.78 107.037 150.947 105.474 151.38C104.662 151.604 104.151 152.387 103.76 153.129C100.065 160.14 100.437 168.505 100.899 176.416C102.026 195.682 103.156 214.996 106.644 234.338Z" fill="#0886A8"/>
<path d="M59.5544 231.933C59.1811 234.591 59.785 237.372 61.2265 239.635C61.7824 240.511 62.4632 241.319 62.8538 242.278C62.9615 242.543 63.0466 242.825 63.0154 243.108C62.9491 243.659 62.4293 244.075 61.882 244.178C61.3364 244.283 60.774 244.136 60.2531 243.943C59.0637 243.504 57.967 242.816 57.054 241.938C55.2494 240.202 54.2119 237.799 52.4263 236.046C52.0223 235.649 51.5714 235.27 51.3586 234.747C51.1523 234.241 51.2035 233.665 51.3322 233.132C51.7809 231.281 53.0797 229.774 54.3337 228.343C56.3531 229.11 58.1507 230.456 59.5544 231.933Z" fill="#027691"/>
<path d="M58.3344 244.249C58.1119 244.114 57.9993 243.832 57.758 243.734C57.6125 243.677 57.4499 243.672 57.2926 243.652C56.5498 243.555 55.8716 243.058 55.5543 242.378C55.3135 241.857 55.2047 241.17 54.6698 240.962C54.5271 240.906 54.3719 240.896 54.2254 240.851C53.7234 240.702 53.411 240.192 53.265 239.689C53.1174 239.187 53.0851 238.651 52.896 238.162C52.7048 237.673 52.2921 237.215 51.7686 237.197C51.5703 237.191 51.3753 237.249 51.1771 237.253C50.3853 237.269 49.8051 236.407 49.832 235.614C49.8364 235.489 49.8461 235.344 49.7599 235.251C49.6845 235.169 49.5627 235.157 49.455 235.132C48.8657 234.989 48.5791 234.165 48.9513 233.686C48.6297 233.668 48.4391 233.279 48.5026 232.965C48.5678 232.648 48.8048 232.401 49.03 232.173C49.9743 231.216 51.0947 230.199 52.436 230.252C52.5394 230.259 52.6482 230.267 52.7349 230.325C52.9768 230.482 52.2216 231.518 52.9455 234.479C53.1071 235.147 53.6167 235.674 53.9965 236.245C54.6897 237.286 54.6073 239.522 57.5086 241.918C58.5547 242.782 60.6991 244.356 62.7385 243.648C62.7913 243.631 62.0894 246.522 58.3344 244.249Z" fill="#D3405F"/>
<path d="M60.6506 238.881C59.8496 239.148 59.0406 239.415 58.2051 239.55C57.9675 239.587 57.7133 239.614 57.4897 239.517C57.2667 239.426 57.0922 239.175 57.1676 238.945C57.2441 238.705 57.5221 238.611 57.765 238.547C58.4125 238.381 59.061 238.213 59.7096 238.045C59.966 237.979 60.2321 237.912 60.4912 237.963C60.7514 238.013 61.0024 238.217 61.0137 238.479C61.0272 238.744 60.7007 238.984 60.6506 238.881Z" fill="#94DCF8"/>
<path d="M60.1928 236.501C60.3199 236.737 60.4325 237.062 60.2353 237.24C60.1658 237.302 60.0748 237.328 59.9865 237.351C59.6024 237.454 59.2092 237.526 58.8186 237.6C58.2568 237.704 57.6933 237.808 57.1315 237.911C56.9161 237.95 56.6731 237.984 56.497 237.851C56.2562 237.668 56.3133 237.263 56.5314 237.055C56.7496 236.844 57.0658 236.779 57.3637 236.722C58.0763 236.586 58.7874 236.451 59.499 236.314C59.6837 236.28 59.8863 236.247 60.0527 236.333C60.2197 236.421 60.3 236.684 60.1928 236.501Z" fill="#94DCF8"/>
<path d="M59.5927 234.863C59.7015 235.199 59.5458 235.598 59.2377 235.772C59.1025 235.847 58.9479 235.88 58.7955 235.909C58.0952 236.046 57.3858 236.131 56.6742 236.164C56.4189 236.174 56.1194 236.159 55.968 235.951C55.8145 235.741 55.905 235.428 56.0951 235.253C56.2853 235.076 56.546 235.003 56.7965 234.937C57.5587 234.732 58.3484 234.524 59.123 234.659C59.2614 234.683 59.4052 234.723 59.5103 234.816C59.6153 234.91 59.6686 235.076 59.5927 234.863Z" fill="#94DCF8"/>
<path d="M109.725 133.465C109.138 151.21 98.4456 174.28 89.1472 190.406C82.7387 201.522 73.5301 212.875 61.5394 233.672C57.131 231.178 54.9973 230.916 50.5883 228.422C53.1691 220.612 55.7682 216.278 58.5218 210.756C68.2798 191.166 76.8758 171.047 84.2534 150.523C86.7905 143.466 89.2371 136.257 93.6483 130.099C98.5868 132.229 103.913 133.531 109.725 133.465Z" fill="#36A9CE"/>
<path d="M56.2109 230.775C63.15 205.719 84.924 186.844 91.9865 161.82" stroke="#1B5970" stroke-miterlimit="10"/>
<path d="M126.319 167.76C126.128 170.955 116.851 172.366 116.685 171.697C115.731 167.844 116.178 141.867 114.169 141.867C112.315 141.865 107.699 173.671 104.87 173.471C97.2972 172.931 76.9 169.286 72.2158 166.652C71.843 166.443 88.0607 109.808 90.0037 93.8611C90.4287 90.3668 87.4067 72.3524 98.0519 71.8531C101.166 71.7073 104.575 70.5582 107.605 71.3652C111.868 72.5014 122.836 70.0352 122.836 89.9197C122.836 94.4701 125.106 119.866 125.037 122.524L126.319 167.76Z" fill="#94DCF8"/>
<path d="M134.543 112.743C136.345 113.428 138.33 113.524 140.059 113.01C140.91 112.758 141.767 112.359 142.684 112.553C142.806 112.579 142.932 112.618 143.02 112.707C143.126 112.818 143.148 112.976 143.126 113.111C142.961 114.177 140.897 114.117 140.878 115.209C143.113 114.773 146.43 114.339 147.825 115.429C148.694 116.106 145.239 116.556 142.388 117.01C144.146 117.495 146.095 116.546 147.672 117.498C147.795 117.572 147.918 117.664 147.973 117.791C148.375 118.716 144.543 118.627 142.428 118.732C143.305 118.9 143.952 119.176 144.833 119.241C145.714 119.305 147.165 119.55 147.142 120.44C147.122 121.231 143.338 121.015 141.332 120.692C142.63 121.15 143.069 121.409 144.449 121.968C145.247 122.292 144.704 123.192 144.036 123.155C142.606 123.074 135.976 121.276 130.386 117.66C131.159 116.071 133.161 113.612 134.543 112.743Z" fill="#FFB6B6"/>
<path d="M119.927 82.2118C120.4 85.9347 120.25 91.0016 120.356 94.7822C120.599 103.432 129.622 108.505 137.969 110.688C131.054 120.871 130.298 122.341 129.932 122.523C129.664 122.653 120.013 117.007 114.717 112.222C109.704 107.695 109.541 104.031 108.955 100.582C107.064 89.443 110.01 82.8891 111.661 76.7387C111.897 75.8601 112.212 74.9068 112.931 74.4102C113.65 73.9147 119.453 78.4899 119.927 82.2118Z" fill="#94DCF8"/>
<path d="M114.327 89.3478C114.011 89.895 110.446 92.6683 110.44 92.8561C110.436 93.0121 100.251 72.5848 100.514 72.4578C101.419 72.021 105.149 70.7389 107.212 71.0364C113.782 71.9817 115.414 77.1013 115.289 81.2149C115.147 85.9283 112.672 89.6808 112.233 90.4421" fill="#0886A8"/>
<path d="M113.143 73.932C112.967 73.6436 111.629 72.5262 112.167 72.4578C112.581 72.4051 114.142 73.8383 114.847 74.3333C115.784 74.9902 117.822 77.5204 117.818 78.7072C117.815 79.7978 115.837 79.5874 115.181 79.3883C115.791 82.4006 118.704 82.7202 118.412 83.1823C118.269 83.4083 117.471 85.5662 114.327 89.3473C113.236 90.6611 112.238 91.4083 110.434 93.0439C111.028 92.473 113.532 88.2949 114.467 84.9346C115.597 80.8625 114.583 76.2997 113.143 73.932Z" fill="#D7F1FF"/>
<path d="M113.143 96.6194C115.996 111.229 116.518 126.268 114.685 141.019" stroke="#1B5970" stroke-miterlimit="10"/>
<path d="M105.933 129.366C105.493 133.028 105.014 136.813 103.107 139.983C101.201 143.154 97.4572 145.558 93.7959 144.77C90.0424 143.962 87.6335 140.066 87.3335 136.294C87.0345 132.522 88.3672 128.836 89.6794 125.285C94.8667 127.417 100.347 128.856 105.933 129.366Z" fill="#C6E5FA"/>
<path d="M137.344 85.6101L128.581 87.363L160.054 244.291L168.816 242.538L137.344 85.6101Z" fill="#CE3657"/>
<path d="M132.993 86.4789L128.611 87.355L160.068 244.3L164.449 243.424L132.993 86.4789Z" fill="#CE3657"/>
<path d="M128.985 63.8811L127.927 64.0927L128.719 68.0411L129.777 67.8295L128.985 63.8811Z" fill="#010148"/>
<path d="M128.104 84.9346L127.182 80.339C127.182 80.339 127.088 67.1435 129.017 66.7577C130.77 66.407 135.944 78.5862 135.944 78.5862L136.894 83.3195L128.104 84.9346Z" fill="#D3405F"/>
<path d="M137.262 82.4424L127.452 84.405L128.576 90.0114L138.386 88.0488L137.262 82.4424Z" fill="#94DCF8"/>
<path d="M110.434 93.0439C110.434 93.0439 103.624 75.7063 103.839 74.7842C104.053 73.862 104.251 71.0811 104.251 71.0811C104.251 71.0811 100.864 71.3883 100.232 72.4562C99.5989 73.5242 101.663 77.1831 101.663 77.1831C101.663 77.1831 102.398 79.2146 101.663 79.9958C100.927 80.7764 110.434 93.0439 110.434 93.0439Z" fill="#D7F1FF"/>
<path d="M124.909 119.66L123.765 102.96L132.828 108.491C132.828 108.491 131.372 112.965 128.856 115.669C126.34 118.373 124.909 119.66 124.909 119.66Z" fill="#36A9CE"/>
<path d="M122.542 104.813C124.57 103.561 126.51 101.517 127.467 99.3525C128.081 97.9666 130.216 93.6524 132.008 93.9111C133.332 94.1043 130.918 97.1547 131.456 96.8868C132.14 96.5457 132.868 96.302 133.635 96.1966C135.767 95.905 138.976 96.4118 139.305 98.5083C139.471 99.5628 136.755 97.895 135.782 98.6676C137.435 99.3691 139.488 99.2363 139.607 100.985C139.72 102.641 137.241 100.166 135.922 100.687C137.88 102.044 140.373 102.843 139.634 103.909C139.152 104.602 138.153 103.753 137.445 103.3C136.736 102.845 135.647 102.41 134.825 102.629C136.179 103.211 137.775 103.835 138.595 105.048C138.691 105.191 138.787 105.357 138.757 105.527C138.71 105.79 138.384 105.921 138.122 105.867C137.859 105.811 137.649 105.629 137.436 105.469C134.583 103.32 132.634 104.609 131.455 105.914C129.433 108.153 127.669 109.408 125.2 109.154C124.865 109.119 124.519 109.054 124.251 108.854C123.907 108.599 123.749 108.172 123.607 107.769C123.225 106.678 122.841 105.586 122.459 104.494C122.574 104.63 122.69 104.766 122.542 104.813Z" fill="#FFB6B6"/>
<path d="M86.247 79.9705C89.7596 72.9781 97.5105 70.5038 100.852 74.0907C106.076 79.6988 104.53 95.3115 109.528 98.3001C113.356 100.589 118.584 101.419 124.297 100.154C126.372 105.615 128.524 110.608 127.984 111.179C123.535 115.892 114.618 118.457 106.349 117.031C89.7715 114.171 79.6079 93.1848 86.247 79.9705Z" fill="#C6E5FA"/>
<path d="M107.486 98.0715C107.652 100.347 106.57 102.51 105.518 104.543" stroke="#1B5970" stroke-miterlimit="10"/>
<path d="M106.587 97.4522C104.335 97.8972 102.358 99.5122 101.499 101.61" stroke="#1B5970" stroke-miterlimit="10"/>
<path d="M105.6 96.3343C104.77 95.8307 103.722 95.7823 102.772 95.9921C101.82 96.203 100.944 96.6501 100.079 97.0934" stroke="#1B5970" stroke-miterlimit="10"/>
<path d="M89.2603 126.171C88.1991 129.617 86.7113 134.764 87.1816 138.253C87.8177 142.975 92.7853 148.508 100.058 143.26C104.482 140.067 105.978 131.784 105.933 130.849" stroke="#1B5970" stroke-miterlimit="10"/>
<path d="M112.956 76.1507C109.698 77.6867 103.358 76.0996 103.792 73.9858C104.813 69.0286 103.624 65.3455 102.681 61.4412C105.807 61.3417 109.584 62.9939 112.712 63.1451C112.246 66.2289 111.905 68.9356 112.559 72.6644C112.767 73.8631 112.956 76.1507 112.956 76.1507Z" fill="#FFB6B6"/>
<path d="M112.362 71.5917C110.844 71.5793 108.518 70.3908 107.204 68.7004C106.682 68.0306 106.308 67.2758 106.027 66.4882C106.477 66.9035 107.087 67.1397 107.69 67.3474C108.714 67.6976 109.765 67.9919 110.831 68.2265C111.265 68.3212 111.707 68.4083 112.156 68.375C112.024 68.5939 112.259 70.9929 112.362 71.5917Z" fill="#010148"/>
<path d="M108.657 53.1345C112.725 53.6789 114.201 55.9547 115.44 60.2899C115.939 62.0346 116.532 64.0936 115.665 66.3144C113.772 71.1596 107.724 68.1797 106.736 67.4851C104.547 65.9453 102.701 64.2334 101.924 61.8205C101.147 59.4076 101.573 56.6148 103.398 54.7544C105.223 52.894 106.68 52.8698 108.657 53.1345Z" fill="#FFB6B6"/>
<path d="M112.705 58.6931C112.615 58.4144 112.321 58.2595 112.051 58.3482C111.78 58.437 111.635 58.7345 111.726 59.0121C111.817 59.2908 112.111 59.4447 112.381 59.3565C112.651 59.2682 112.797 58.9713 112.705 58.6931Z" fill="#010148"/>
<path d="M108.4 61.1028C108.308 60.8236 108.016 60.6703 107.745 60.7585C107.476 60.8467 107.329 61.1442 107.42 61.4224C107.512 61.7005 107.804 61.8544 108.074 61.7672C108.346 61.6774 108.491 61.381 108.4 61.1028Z" fill="#010148"/>
<path d="M110.17 59.3618C110.706 60.398 111.593 61.0915 112.442 61.6989C112.518 61.7533 112.6 61.8167 112.64 61.9157C112.673 61.9959 112.668 62.0793 112.654 62.1562C112.588 62.5522 112.329 62.8395 112 62.8809" stroke="#010148" stroke-width="0.25" stroke-miterlimit="10" stroke-linecap="round"/>
<path d="M112.68 57.9356C112.591 58.2245 112.394 58.4763 112.137 58.6275C111.881 58.7797 111.569 58.8303 111.277 58.7679" stroke="#010148" stroke-width="0.5" stroke-miterlimit="10"/>
<path d="M108.374 60.3448C108.284 60.6347 108.088 60.8871 107.832 61.0377C107.575 61.1894 107.264 61.2405 106.97 61.1765" stroke="#010148" stroke-width="0.5" stroke-miterlimit="10"/>
<path d="M113.911 64.1678C113.593 64.5014 113.238 64.815 112.81 64.978C112.38 65.14 111.864 65.1292 111.49 64.85" stroke="#010148" stroke-miterlimit="10" stroke-linecap="round"/>
<path d="M107.736 59.1305C106.943 59.1047 106.176 59.662 105.944 60.4319" stroke="#010148" stroke-miterlimit="10" stroke-linecap="round"/>
<path d="M112.146 56.8257C111.45 56.7606 110.742 57.1733 110.444 57.8156" stroke="#010148" stroke-miterlimit="10" stroke-linecap="round"/>
<path d="M96.2603 58.9858C96.7413 59.8772 97.3672 60.3475 98.1192 60.8623C99.3199 61.6855 98.8216 62.0422 99.4664 63.2037C99.9765 64.1237 103.881 66.4452 104.175 64.426C104.323 63.4141 102.761 62.5527 102.395 61.6268C102.051 60.7574 101.926 59.4501 102.474 58.6113C102.951 57.8802 103.466 58.1201 104.05 57.6693C104.585 57.2561 104.625 56.6627 104.966 56.1258C105.843 54.7442 106.888 54.9207 108.422 54.7318C109.558 54.5919 110.681 54.1836 111.794 54.8663C112.763 55.4608 112.983 55.6324 113.925 56.8257C114.946 55.6233 116.208 53.5783 114.85 50.0609C114.1 48.1187 111.87 45.4094 109.575 46.5209C108.561 47.0115 108.685 48.5502 107.263 48.2355C106.209 48.0014 106.07 46.7301 104.64 47.1293C103.305 47.5022 103.564 48.6148 103.026 49.6305C102.283 51.0347 101.765 50.3573 100.537 50.4488C99.2795 50.5424 98.1532 51.7524 97.9366 52.9483C97.9371 52.9473 94.3819 55.5038 96.2603 58.9858Z" fill="#010148"/>
<path d="M103.618 62.2493C103.16 61.8006 102.481 61.5892 101.87 61.7366C101.256 61.8861 100.737 62.4037 100.614 63.0369C100.521 63.4969 100.629 63.9795 100.807 64.4153C101.435 65.962 102.999 67.0644 104.623 67.108C104.814 67.1128 105.009 67.1037 105.187 67.0348C105.525 66.9019 105.757 66.5576 105.83 66.1928C105.907 65.8281 105.844 65.445 105.731 65.0878C105.35 63.8837 104.382 62.9933 103.618 62.2493Z" fill="#FFB6B6"/>
<path d="M103.051 56.6492C101.803 58.5457 104.133 59.7573 104.908 61.1674C105.74 62.6781 105.471 64.0871 103.705 62.8535C102.732 62.1745 100.912 60.9866 100.576 59.7707C100.137 58.1825 101.349 56.8564 102.768 56.6659C102.8 56.8306 102.802 56.9984 102.791 57.169" fill="#010148"/>
</g>
<defs>
<clipPath id="clip0_1_3">
<rect width="404" height="269" fill="white"/>
</clipPath>
</defs>
</svg>
