<svg width="313" height="29" viewBox="0 0 313 29" fill="none" xmlns="http://www.w3.org/2000/svg">
<path d="M0.87682 10V0.545454H2.02171V8.98438H6.41659V10H0.87682ZM10.9223 10.1477C10.2821 10.1477 9.72045 9.99538 9.23726 9.6907C8.75715 9.38601 8.38167 8.95975 8.11084 8.41193C7.84308 7.86411 7.70921 7.22396 7.70921 6.49148C7.70921 5.75284 7.84308 5.10807 8.11084 4.55717C8.38167 4.00627 8.75715 3.57848 9.23726 3.27379C9.72045 2.96911 10.2821 2.81676 10.9223 2.81676C11.5624 2.81676 12.1226 2.96911 12.6027 3.27379C13.0859 3.57848 13.4613 4.00627 13.7291 4.55717C13.9999 5.10807 14.1353 5.75284 14.1353 6.49148C14.1353 7.22396 13.9999 7.86411 13.7291 8.41193C13.4613 8.95975 13.0859 9.38601 12.6027 9.6907C12.1226 9.99538 11.5624 10.1477 10.9223 10.1477ZM10.9223 9.16903C11.4085 9.16903 11.8086 9.04439 12.1226 8.7951C12.4365 8.54581 12.6688 8.21804 12.8196 7.81179C12.9705 7.40554 13.0459 6.96544 13.0459 6.49148C13.0459 6.01752 12.9705 5.57588 12.8196 5.16655C12.6688 4.75722 12.4365 4.42637 12.1226 4.17401C11.8086 3.92164 11.4085 3.79545 10.9223 3.79545C10.436 3.79545 10.0359 3.92164 9.72199 4.17401C9.40807 4.42637 9.17571 4.75722 9.0249 5.16655C8.8741 5.57588 8.7987 6.01752 8.7987 6.49148C8.7987 6.96544 8.8741 7.40554 9.0249 7.81179C9.17571 8.21804 9.40807 8.54581 9.72199 8.7951C10.0359 9.04439 10.436 9.16903 10.9223 9.16903ZM15.7984 10V2.90909H16.851V3.98011H16.9248C17.0541 3.62926 17.288 3.34458 17.6266 3.12606C17.9651 2.90755 18.3467 2.79829 18.7714 2.79829C18.8515 2.79829 18.9515 2.79983 19.0715 2.80291C19.1915 2.80599 19.2823 2.81061 19.3439 2.81676V3.92472C19.307 3.91548 19.2223 3.90163 19.09 3.88317C18.9607 3.86162 18.8238 3.85085 18.6791 3.85085C18.3344 3.85085 18.0266 3.92318 17.7558 4.06783C17.4881 4.2094 17.2757 4.40637 17.1187 4.65874C16.9649 4.90803 16.8879 5.19271 16.8879 5.51278V10H15.7984ZM23.3925 10.1477C22.7093 10.1477 22.1199 9.99692 21.6244 9.69531C21.132 9.39062 20.7519 8.96591 20.4842 8.42116C20.2195 7.87334 20.0871 7.23627 20.0871 6.50994C20.0871 5.78362 20.2195 5.14347 20.4842 4.58949C20.7519 4.03243 21.1243 3.59848 21.6013 3.28764C22.0815 2.97372 22.6416 2.81676 23.2817 2.81676C23.6511 2.81676 24.0158 2.87831 24.3758 3.00142C24.7359 3.12453 25.0637 3.32457 25.3592 3.60156C25.6546 3.87547 25.89 4.23864 26.0655 4.69105C26.2409 5.14347 26.3286 5.70052 26.3286 6.36222V6.82386H20.8627V5.8821H25.2207C25.2207 5.48201 25.1406 5.125 24.9806 4.81108C24.8236 4.49716 24.599 4.24941 24.3066 4.06783C24.0173 3.88625 23.6757 3.79545 23.2817 3.79545C22.8478 3.79545 22.4723 3.90317 22.1553 4.11861C21.8414 4.33097 21.5998 4.60795 21.4305 4.94957C21.2613 5.29119 21.1766 5.65743 21.1766 6.0483V6.67614C21.1766 7.21165 21.269 7.6656 21.4536 8.038C21.6414 8.40732 21.9014 8.68892 22.2338 8.88281C22.5662 9.07363 22.9524 9.16903 23.3925 9.16903C23.6788 9.16903 23.9373 9.12902 24.1681 9.04901C24.402 8.96591 24.6036 8.8428 24.7729 8.67969C24.9421 8.51349 25.0729 8.30729 25.1653 8.06108L26.2178 8.35653C26.107 8.71354 25.9208 9.02746 25.6592 9.2983C25.3976 9.56605 25.0745 9.77533 24.6898 9.92614C24.3051 10.0739 23.8726 10.1477 23.3925 10.1477ZM27.9859 10V2.90909H29.0385V4.01705H29.1308C29.2785 3.63849 29.5171 3.34458 29.8464 3.1353C30.1757 2.92294 30.5712 2.81676 31.0328 2.81676C31.5006 2.81676 31.8899 2.92294 32.2008 3.1353C32.5147 3.34458 32.7594 3.63849 32.9348 4.01705H33.0087C33.1902 3.6508 33.4626 3.35997 33.8258 3.14453C34.1889 2.92602 34.6244 2.81676 35.1322 2.81676C35.7662 2.81676 36.2848 3.01527 36.688 3.41229C37.0912 3.80623 37.2927 4.42022 37.2927 5.25426V10H36.2033V5.25426C36.2033 4.73106 36.0601 4.35713 35.7739 4.13246C35.4877 3.90779 35.1507 3.79545 34.7629 3.79545C34.2643 3.79545 33.8781 3.94626 33.6042 4.24787C33.3303 4.5464 33.1933 4.92495 33.1933 5.38352V10H32.0854V5.14347C32.0854 4.74029 31.9546 4.4156 31.693 4.16939C31.4314 3.9201 31.0944 3.79545 30.682 3.79545C30.3988 3.79545 30.1341 3.87086 29.8879 4.02166C29.6448 4.17247 29.4478 4.38175 29.297 4.6495C29.1493 4.91418 29.0754 5.22041 29.0754 5.56818V10H27.9859ZM42.941 10V2.90909H44.0305V10H42.941ZM43.495 1.72727C43.2826 1.72727 43.0995 1.65495 42.9456 1.5103C42.7948 1.36565 42.7194 1.19176 42.7194 0.988636C42.7194 0.785511 42.7948 0.611624 42.9456 0.466974C43.0995 0.322325 43.2826 0.25 43.495 0.25C43.7073 0.25 43.8889 0.322325 44.0397 0.466974C44.1936 0.611624 44.2706 0.785511 44.2706 0.988636C44.2706 1.19176 44.1936 1.36565 44.0397 1.5103C43.8889 1.65495 43.7073 1.72727 43.495 1.72727ZM46.026 12.6591V2.90909H47.0785V4.03551H47.2078C47.2878 3.91241 47.3986 3.75544 47.5402 3.56463C47.6848 3.37074 47.891 3.19839 48.1588 3.04759C48.4296 2.8937 48.7959 2.81676 49.2575 2.81676C49.8546 2.81676 50.3808 2.96603 50.8363 3.26456C51.2918 3.56309 51.6473 3.98627 51.9027 4.53409C52.1582 5.08191 52.2859 5.72822 52.2859 6.47301C52.2859 7.22396 52.1582 7.87488 51.9027 8.42578C51.6473 8.9736 51.2934 9.39832 50.841 9.69993C50.3885 9.99846 49.8669 10.1477 49.276 10.1477C48.8205 10.1477 48.4558 10.0723 48.1819 9.92152C47.908 9.76764 47.6971 9.59375 47.5494 9.39986C47.4017 9.20289 47.2878 9.03977 47.2078 8.91051H47.1155V12.6591H46.026ZM47.097 6.45455C47.097 6.99006 47.1755 7.46248 47.3324 7.8718C47.4894 8.27805 47.7187 8.59659 48.0203 8.82741C48.3219 9.05516 48.6912 9.16903 49.1282 9.16903C49.5837 9.16903 49.9638 9.04901 50.2685 8.80895C50.5763 8.56581 50.8071 8.23958 50.961 7.83026C51.1179 7.41785 51.1964 6.95928 51.1964 6.45455C51.1964 5.95597 51.1195 5.50663 50.9656 5.10653C50.8148 4.70336 50.5855 4.38482 50.2777 4.15092C49.9731 3.91394 49.5899 3.79545 49.1282 3.79545C48.6851 3.79545 48.3127 3.90779 48.0111 4.13246C47.7094 4.35405 47.4817 4.66489 47.3278 5.06499C47.1739 5.462 47.097 5.92519 47.097 6.45455ZM58.9706 4.49716L57.9919 4.77415C57.9303 4.61103 57.8395 4.45253 57.7195 4.29865C57.6026 4.14169 57.4425 4.01243 57.2394 3.91087C57.0363 3.8093 56.7762 3.75852 56.4592 3.75852C56.0253 3.75852 55.6636 3.85855 55.3743 4.05859C55.0881 4.25556 54.945 4.50639 54.945 4.81108C54.945 5.08191 55.0435 5.29581 55.2405 5.45277C55.4374 5.60973 55.7452 5.74053 56.1638 5.84517L57.2163 6.10369C57.8503 6.25758 58.3227 6.49302 58.6336 6.81001C58.9444 7.12393 59.0998 7.52865 59.0998 8.02415C59.0998 8.4304 58.9829 8.79356 58.749 9.11364C58.5182 9.43371 58.195 9.68608 57.7795 9.87074C57.364 10.0554 56.8808 10.1477 56.3299 10.1477C55.6067 10.1477 55.0081 9.99077 54.5341 9.67685C54.0602 9.36293 53.7601 8.90436 53.6339 8.30114L54.668 8.04261C54.7665 8.42424 54.9527 8.71046 55.2266 8.90128C55.5036 9.09209 55.8652 9.1875 56.3115 9.1875C56.8193 9.1875 57.2225 9.07978 57.521 8.86435C57.8226 8.64583 57.9734 8.38423 57.9734 8.07955C57.9734 7.83333 57.8872 7.62713 57.7149 7.46094C57.5425 7.29167 57.2779 7.16548 56.9209 7.08239L55.739 6.8054C55.0897 6.65152 54.6126 6.413 54.3079 6.08984C54.0063 5.76361 53.8555 5.35582 53.8555 4.86648C53.8555 4.46638 53.9678 4.11245 54.1925 3.80469C54.4203 3.49692 54.7296 3.25533 55.1204 3.0799C55.5144 2.90447 55.9606 2.81676 56.4592 2.81676C57.1609 2.81676 57.7118 2.97064 58.1119 3.27841C58.5151 3.58617 58.8013 3.99242 58.9706 4.49716ZM65.2086 7.10085V2.90909H66.2981V10H65.2086V8.79972H65.1347C64.9685 9.1598 64.71 9.46603 64.3592 9.71839C64.0083 9.96768 63.5651 10.0923 63.0296 10.0923C62.5864 10.0923 62.1925 9.99538 61.8478 9.80149C61.5031 9.60452 61.2323 9.30907 61.0353 8.91513C60.8383 8.51811 60.7398 8.01799 60.7398 7.41477V2.90909H61.8293V7.34091C61.8293 7.85795 61.974 8.27036 62.2633 8.57812C62.5556 8.88589 62.928 9.03977 63.3805 9.03977C63.6513 9.03977 63.9267 8.97053 64.2068 8.83203C64.49 8.69354 64.7269 8.48118 64.9177 8.19496C65.1116 7.90874 65.2086 7.54403 65.2086 7.10085ZM68.2935 10V2.90909H69.3461V4.01705H69.4384C69.5862 3.63849 69.8247 3.34458 70.154 3.1353C70.4833 2.92294 70.8788 2.81676 71.3404 2.81676C71.8082 2.81676 72.1975 2.92294 72.5084 3.1353C72.8223 3.34458 73.067 3.63849 73.2424 4.01705H73.3163C73.4979 3.6508 73.7702 3.35997 74.1334 3.14453C74.4966 2.92602 74.932 2.81676 75.4399 2.81676C76.0738 2.81676 76.5924 3.01527 76.9956 3.41229C77.3988 3.80623 77.6004 4.42022 77.6004 5.25426V10H76.5109V5.25426C76.5109 4.73106 76.3678 4.35713 76.0815 4.13246C75.7953 3.90779 75.4583 3.79545 75.0705 3.79545C74.572 3.79545 74.1857 3.94626 73.9118 4.24787C73.6379 4.5464 73.5009 4.92495 73.5009 5.38352V10H72.393V5.14347C72.393 4.74029 72.2622 4.4156 72.0006 4.16939C71.739 3.9201 71.402 3.79545 70.9896 3.79545C70.7064 3.79545 70.4417 3.87086 70.1955 4.02166C69.9524 4.17247 69.7554 4.38175 69.6046 4.6495C69.4569 4.91418 69.383 5.22041 69.383 5.56818V10H68.2935ZM85.9262 10.1477C85.3353 10.1477 84.8136 9.99846 84.3612 9.69993C83.9088 9.39832 83.5549 8.9736 83.2994 8.42578C83.044 7.87488 82.9162 7.22396 82.9162 6.47301C82.9162 5.72822 83.044 5.08191 83.2994 4.53409C83.5549 3.98627 83.9103 3.56309 84.3658 3.26456C84.8213 2.96603 85.3476 2.81676 85.9446 2.81676C86.4063 2.81676 86.771 2.8937 87.0388 3.04759C87.3096 3.19839 87.5158 3.37074 87.6574 3.56463C87.802 3.75544 87.9143 3.91241 87.9944 4.03551H88.0867V0.545454H89.1762V10H88.1236V8.91051H87.9944C87.9143 9.03977 87.8005 9.20289 87.6527 9.39986C87.505 9.59375 87.2942 9.76764 87.0203 9.92152C86.7464 10.0723 86.3817 10.1477 85.9262 10.1477ZM86.0739 9.16903C86.5109 9.16903 86.8803 9.05516 87.1819 8.82741C87.4835 8.59659 87.7128 8.27805 87.8697 7.8718C88.0267 7.46248 88.1052 6.99006 88.1052 6.45455C88.1052 5.92519 88.0282 5.462 87.8743 5.06499C87.7205 4.66489 87.4927 4.35405 87.1911 4.13246C86.8895 3.90779 86.5171 3.79545 86.0739 3.79545C85.6123 3.79545 85.2276 3.91394 84.9198 4.15092C84.6151 4.38482 84.3858 4.70336 84.2319 5.10653C84.0811 5.50663 84.0057 5.95597 84.0057 6.45455C84.0057 6.95928 84.0827 7.41785 84.2366 7.83026C84.3935 8.23958 84.6243 8.56581 84.929 8.80895C85.2368 9.04901 85.6184 9.16903 86.0739 9.16903ZM94.2035 10.1477C93.5634 10.1477 93.0017 9.99538 92.5185 9.6907C92.0384 9.38601 91.6629 8.95975 91.3921 8.41193C91.1243 7.86411 90.9905 7.22396 90.9905 6.49148C90.9905 5.75284 91.1243 5.10807 91.3921 4.55717C91.6629 4.00627 92.0384 3.57848 92.5185 3.27379C93.0017 2.96911 93.5634 2.81676 94.2035 2.81676C94.8437 2.81676 95.4038 2.96911 95.8839 3.27379C96.3671 3.57848 96.7426 4.00627 97.0103 4.55717C97.2812 5.10807 97.4166 5.75284 97.4166 6.49148C97.4166 7.22396 97.2812 7.86411 97.0103 8.41193C96.7426 8.95975 96.3671 9.38601 95.8839 9.6907C95.4038 9.99538 94.8437 10.1477 94.2035 10.1477ZM94.2035 9.16903C94.6898 9.16903 95.0899 9.04439 95.4038 8.7951C95.7177 8.54581 95.9501 8.21804 96.1009 7.81179C96.2517 7.40554 96.3271 6.96544 96.3271 6.49148C96.3271 6.01752 96.2517 5.57588 96.1009 5.16655C95.9501 4.75722 95.7177 4.42637 95.4038 4.17401C95.0899 3.92164 94.6898 3.79545 94.2035 3.79545C93.7173 3.79545 93.3172 3.92164 93.0032 4.17401C92.6893 4.42637 92.457 4.75722 92.3062 5.16655C92.1553 5.57588 92.0799 6.01752 92.0799 6.49148C92.0799 6.96544 92.1553 7.40554 92.3062 7.81179C92.457 8.21804 92.6893 8.54581 93.0032 8.7951C93.3172 9.04439 93.7173 9.16903 94.2035 9.16903ZM100.169 0.545454V10H99.0797V0.545454H100.169ZM105.045 10.1477C104.405 10.1477 103.843 9.99538 103.36 9.6907C102.88 9.38601 102.505 8.95975 102.234 8.41193C101.966 7.86411 101.832 7.22396 101.832 6.49148C101.832 5.75284 101.966 5.10807 102.234 4.55717C102.505 4.00627 102.88 3.57848 103.36 3.27379C103.843 2.96911 104.405 2.81676 105.045 2.81676C105.685 2.81676 106.246 2.96911 106.726 3.27379C107.209 3.57848 107.584 4.00627 107.852 4.55717C108.123 5.10807 108.258 5.75284 108.258 6.49148C108.258 7.22396 108.123 7.86411 107.852 8.41193C107.584 8.95975 107.209 9.38601 106.726 9.6907C106.246 9.99538 105.685 10.1477 105.045 10.1477ZM105.045 9.16903C105.532 9.16903 105.932 9.04439 106.246 8.7951C106.56 8.54581 106.792 8.21804 106.943 7.81179C107.093 7.40554 107.169 6.96544 107.169 6.49148C107.169 6.01752 107.093 5.57588 106.943 5.16655C106.792 4.75722 106.56 4.42637 106.246 4.17401C105.932 3.92164 105.532 3.79545 105.045 3.79545C104.559 3.79545 104.159 3.92164 103.845 4.17401C103.531 4.42637 103.299 4.75722 103.148 5.16655C102.997 5.57588 102.922 6.01752 102.922 6.49148C102.922 6.96544 102.997 7.40554 103.148 7.81179C103.299 8.21804 103.531 8.54581 103.845 8.7951C104.159 9.04439 104.559 9.16903 105.045 9.16903ZM109.921 10V2.90909H110.974V3.98011H111.048C111.177 3.62926 111.411 3.34458 111.75 3.12606C112.088 2.90755 112.47 2.79829 112.894 2.79829C112.975 2.79829 113.075 2.79983 113.195 2.80291C113.315 2.80599 113.405 2.81061 113.467 2.81676V3.92472C113.43 3.91548 113.345 3.90163 113.213 3.88317C113.084 3.86162 112.947 3.85085 112.802 3.85085C112.457 3.85085 112.15 3.92318 111.879 4.06783C111.611 4.2094 111.399 4.40637 111.242 4.65874C111.088 4.90803 111.011 5.19271 111.011 5.51278V10H109.921ZM123.437 4.49716L122.459 4.77415C122.397 4.61103 122.306 4.45253 122.186 4.29865C122.069 4.14169 121.909 4.01243 121.706 3.91087C121.503 3.8093 121.243 3.75852 120.926 3.75852C120.492 3.75852 120.13 3.85855 119.841 4.05859C119.555 4.25556 119.412 4.50639 119.412 4.81108C119.412 5.08191 119.51 5.29581 119.707 5.45277C119.904 5.60973 120.212 5.74053 120.631 5.84517L121.683 6.10369C122.317 6.25758 122.79 6.49302 123.1 6.81001C123.411 7.12393 123.567 7.52865 123.567 8.02415C123.567 8.4304 123.45 8.79356 123.216 9.11364C122.985 9.43371 122.662 9.68608 122.246 9.87074C121.831 10.0554 121.348 10.1477 120.797 10.1477C120.073 10.1477 119.475 9.99077 119.001 9.67685C118.527 9.36293 118.227 8.90436 118.101 8.30114L119.135 8.04261C119.233 8.42424 119.419 8.71046 119.693 8.90128C119.97 9.09209 120.332 9.1875 120.778 9.1875C121.286 9.1875 121.689 9.07978 121.988 8.86435C122.289 8.64583 122.44 8.38423 122.44 8.07955C122.44 7.83333 122.354 7.62713 122.182 7.46094C122.009 7.29167 121.745 7.16548 121.388 7.08239L120.206 6.8054C119.556 6.65152 119.079 6.413 118.775 6.08984C118.473 5.76361 118.322 5.35582 118.322 4.86648C118.322 4.46638 118.435 4.11245 118.659 3.80469C118.887 3.49692 119.196 3.25533 119.587 3.0799C119.981 2.90447 120.427 2.81676 120.926 2.81676C121.628 2.81676 122.179 2.97064 122.579 3.27841C122.982 3.58617 123.268 3.99242 123.437 4.49716ZM125.207 10V2.90909H126.296V10H125.207ZM125.761 1.72727C125.548 1.72727 125.365 1.65495 125.211 1.5103C125.06 1.36565 124.985 1.19176 124.985 0.988636C124.985 0.785511 125.06 0.611624 125.211 0.466974C125.365 0.322325 125.548 0.25 125.761 0.25C125.973 0.25 126.155 0.322325 126.305 0.466974C126.459 0.611624 126.536 0.785511 126.536 0.988636C126.536 1.19176 126.459 1.36565 126.305 1.5103C126.155 1.65495 125.973 1.72727 125.761 1.72727ZM131.375 2.90909V3.83239H127.701V2.90909H131.375ZM128.772 1.21023H129.861V7.96875C129.861 8.27652 129.906 8.50734 129.995 8.66122C130.087 8.81203 130.204 8.91359 130.346 8.96591C130.491 9.01515 130.643 9.03977 130.803 9.03977C130.923 9.03977 131.021 9.03362 131.098 9.02131C131.175 9.00592 131.237 8.99361 131.283 8.98438L131.505 9.96307C131.431 9.99077 131.328 10.0185 131.195 10.0462C131.063 10.0769 130.895 10.0923 130.692 10.0923C130.384 10.0923 130.083 10.0262 129.787 9.89382C129.495 9.76148 129.252 9.5599 129.058 9.28906C128.867 9.01823 128.772 8.67661 128.772 8.2642V1.21023ZM138.757 10.1662C138.308 10.1662 137.9 10.0816 137.534 9.91229C137.168 9.73994 136.877 9.49219 136.661 9.16903C136.446 8.8428 136.338 8.44886 136.338 7.98722C136.338 7.58097 136.418 7.25166 136.578 6.99929C136.738 6.74384 136.952 6.5438 137.22 6.39915C137.488 6.2545 137.783 6.14678 138.106 6.07599C138.432 6.00213 138.76 5.94366 139.09 5.90057C139.52 5.84517 139.87 5.80362 140.137 5.77592C140.408 5.74515 140.605 5.69437 140.728 5.62358C140.855 5.55279 140.918 5.42969 140.918 5.25426V5.21733C140.918 4.76184 140.793 4.40791 140.544 4.15554C140.298 3.90317 139.924 3.77699 139.422 3.77699C138.902 3.77699 138.494 3.89086 138.199 4.11861C137.903 4.34635 137.695 4.58949 137.575 4.84801L136.541 4.47869C136.726 4.04782 136.972 3.71236 137.28 3.4723C137.591 3.22917 137.929 3.0599 138.295 2.96449C138.665 2.866 139.028 2.81676 139.385 2.81676C139.613 2.81676 139.874 2.84446 140.17 2.89986C140.468 2.95218 140.756 3.06143 141.033 3.22763C141.313 3.39382 141.545 3.64465 141.73 3.98011C141.915 4.31558 142.007 4.76491 142.007 5.32812V10H140.918V9.03977H140.862C140.788 9.19366 140.665 9.35831 140.493 9.53374C140.321 9.70916 140.091 9.85843 139.805 9.98153C139.519 10.1046 139.17 10.1662 138.757 10.1662ZM138.923 9.1875C139.354 9.1875 139.717 9.10286 140.013 8.93359C140.311 8.76432 140.536 8.54581 140.687 8.27805C140.841 8.0103 140.918 7.72869 140.918 7.43324V6.43608C140.871 6.49148 140.77 6.54226 140.613 6.58842C140.459 6.63151 140.281 6.66998 140.077 6.70383C139.877 6.73461 139.682 6.76231 139.491 6.78693C139.303 6.80848 139.151 6.82694 139.034 6.84233C138.751 6.87926 138.486 6.93928 138.24 7.02237C137.997 7.10239 137.8 7.22396 137.649 7.38707C137.501 7.54711 137.428 7.76562 137.428 8.04261C137.428 8.42116 137.568 8.70739 137.848 8.90128C138.131 9.09209 138.489 9.1875 138.923 9.1875ZM143.996 10V2.90909H145.048V4.01705H145.141C145.288 3.63849 145.527 3.34458 145.856 3.1353C146.185 2.92294 146.581 2.81676 147.043 2.81676C147.51 2.81676 147.9 2.92294 148.211 3.1353C148.524 3.34458 148.769 3.63849 148.945 4.01705H149.018C149.2 3.6508 149.472 3.35997 149.836 3.14453C150.199 2.92602 150.634 2.81676 151.142 2.81676C151.776 2.81676 152.295 3.01527 152.698 3.41229C153.101 3.80623 153.303 4.42022 153.303 5.25426V10H152.213V5.25426C152.213 4.73106 152.07 4.35713 151.784 4.13246C151.497 3.90779 151.16 3.79545 150.773 3.79545C150.274 3.79545 149.888 3.94626 149.614 4.24787C149.34 4.5464 149.203 4.92495 149.203 5.38352V10H148.095V5.14347C148.095 4.74029 147.964 4.4156 147.703 4.16939C147.441 3.9201 147.104 3.79545 146.692 3.79545C146.409 3.79545 146.144 3.87086 145.898 4.02166C145.655 4.17247 145.458 4.38175 145.307 4.6495C145.159 4.91418 145.085 5.22041 145.085 5.56818V10H143.996ZM158.268 10.1477C157.584 10.1477 156.995 9.99692 156.499 9.69531C156.007 9.39062 155.627 8.96591 155.359 8.42116C155.094 7.87334 154.962 7.23627 154.962 6.50994C154.962 5.78362 155.094 5.14347 155.359 4.58949C155.627 4.03243 155.999 3.59848 156.476 3.28764C156.956 2.97372 157.517 2.81676 158.157 2.81676C158.526 2.81676 158.891 2.87831 159.251 3.00142C159.611 3.12453 159.939 3.32457 160.234 3.60156C160.53 3.87547 160.765 4.23864 160.94 4.69105C161.116 5.14347 161.204 5.70052 161.204 6.36222V6.82386H155.738V5.8821H160.096C160.096 5.48201 160.016 5.125 159.856 4.81108C159.699 4.49716 159.474 4.24941 159.182 4.06783C158.892 3.88625 158.551 3.79545 158.157 3.79545C157.723 3.79545 157.347 3.90317 157.03 4.11861C156.716 4.33097 156.475 4.60795 156.306 4.94957C156.136 5.29119 156.052 5.65743 156.052 6.0483V6.67614C156.052 7.21165 156.144 7.6656 156.329 8.038C156.516 8.40732 156.776 8.68892 157.109 8.88281C157.441 9.07363 157.827 9.16903 158.268 9.16903C158.554 9.16903 158.812 9.12902 159.043 9.04901C159.277 8.96591 159.479 8.8428 159.648 8.67969C159.817 8.51349 159.948 8.30729 160.04 8.06108L161.093 8.35653C160.982 8.71354 160.796 9.02746 160.534 9.2983C160.273 9.56605 159.949 9.77533 159.565 9.92614C159.18 10.0739 158.748 10.1477 158.268 10.1477ZM165.945 2.90909V3.83239H162.27V2.90909H165.945ZM163.341 1.21023H164.431V7.96875C164.431 8.27652 164.475 8.50734 164.564 8.66122C164.657 8.81203 164.774 8.91359 164.915 8.96591C165.06 9.01515 165.212 9.03977 165.372 9.03977C165.492 9.03977 165.591 9.03362 165.668 9.02131C165.745 9.00592 165.806 8.99361 165.852 8.98438L166.074 9.96307C166 9.99077 165.897 10.0185 165.765 10.0462C165.632 10.0769 165.465 10.0923 165.261 10.0923C164.954 10.0923 164.652 10.0262 164.357 9.89382C164.064 9.76148 163.821 9.5599 163.627 9.28906C163.436 9.01823 163.341 8.67661 163.341 8.2642V1.21023ZM169.209 8.70739L169.135 9.20597C169.082 9.55682 169.002 9.93229 168.895 10.3324C168.79 10.7325 168.681 11.1095 168.567 11.4634C168.453 11.8174 168.359 12.099 168.285 12.3082H167.454C167.494 12.1113 167.547 11.8512 167.611 11.5281C167.676 11.2049 167.741 10.8433 167.805 10.4432C167.873 10.0462 167.928 9.63991 167.971 9.22443L168.027 8.70739H169.209ZM177.764 10.1477C177.099 10.1477 176.527 9.99077 176.047 9.67685C175.567 9.36293 175.197 8.93052 174.939 8.37962C174.68 7.82872 174.551 7.19934 174.551 6.49148C174.551 5.77131 174.683 5.13577 174.948 4.58487C175.216 4.03089 175.588 3.59848 176.065 3.28764C176.545 2.97372 177.105 2.81676 177.746 2.81676C178.244 2.81676 178.694 2.90909 179.094 3.09375C179.494 3.27841 179.821 3.53693 180.077 3.86932C180.332 4.2017 180.491 4.58949 180.552 5.03267H179.463C179.38 4.70952 179.195 4.4233 178.909 4.17401C178.626 3.92164 178.244 3.79545 177.764 3.79545C177.339 3.79545 176.967 3.90625 176.647 4.12784C176.33 4.34635 176.082 4.65566 175.904 5.05575C175.728 5.45277 175.64 5.91903 175.64 6.45455C175.64 7.00237 175.727 7.4794 175.899 7.88565C176.074 8.2919 176.321 8.60736 176.638 8.83203C176.958 9.0567 177.333 9.16903 177.764 9.16903C178.047 9.16903 178.304 9.11979 178.535 9.02131C178.766 8.92282 178.961 8.78125 179.121 8.59659C179.281 8.41193 179.395 8.19034 179.463 7.93182H180.552C180.491 8.35038 180.339 8.72739 180.095 9.06286C179.855 9.39524 179.537 9.65992 179.14 9.85689C178.746 10.0508 178.287 10.1477 177.764 10.1477ZM185.026 10.1477C184.386 10.1477 183.824 9.99538 183.341 9.6907C182.861 9.38601 182.485 8.95975 182.214 8.41193C181.947 7.86411 181.813 7.22396 181.813 6.49148C181.813 5.75284 181.947 5.10807 182.214 4.55717C182.485 4.00627 182.861 3.57848 183.341 3.27379C183.824 2.96911 184.386 2.81676 185.026 2.81676C185.666 2.81676 186.226 2.96911 186.706 3.27379C187.189 3.57848 187.565 4.00627 187.833 4.55717C188.103 5.10807 188.239 5.75284 188.239 6.49148C188.239 7.22396 188.103 7.86411 187.833 8.41193C187.565 8.95975 187.189 9.38601 186.706 9.6907C186.226 9.99538 185.666 10.1477 185.026 10.1477ZM185.026 9.16903C185.512 9.16903 185.912 9.04439 186.226 8.7951C186.54 8.54581 186.772 8.21804 186.923 7.81179C187.074 7.40554 187.149 6.96544 187.149 6.49148C187.149 6.01752 187.074 5.57588 186.923 5.16655C186.772 4.75722 186.54 4.42637 186.226 4.17401C185.912 3.92164 185.512 3.79545 185.026 3.79545C184.54 3.79545 184.139 3.92164 183.826 4.17401C183.512 4.42637 183.279 4.75722 183.128 5.16655C182.978 5.57588 182.902 6.01752 182.902 6.49148C182.902 6.96544 182.978 7.40554 183.128 7.81179C183.279 8.21804 183.512 8.54581 183.826 8.7951C184.139 9.04439 184.54 9.16903 185.026 9.16903ZM190.991 5.73438V10H189.902V2.90909H190.955V4.01705H191.047C191.213 3.65696 191.465 3.36766 191.804 3.14915C192.142 2.92756 192.58 2.81676 193.115 2.81676C193.595 2.81676 194.015 2.91525 194.375 3.11222C194.735 3.30611 195.015 3.60156 195.216 3.99858C195.416 4.39252 195.516 4.8911 195.516 5.49432V10H194.426V5.56818C194.426 5.01113 194.281 4.57718 193.992 4.26633C193.703 3.95241 193.306 3.79545 192.801 3.79545C192.453 3.79545 192.142 3.87086 191.869 4.02166C191.598 4.17247 191.384 4.39252 191.227 4.68182C191.07 4.97112 190.991 5.32197 190.991 5.73438ZM202.529 4.49716L201.55 4.77415C201.489 4.61103 201.398 4.45253 201.278 4.29865C201.161 4.14169 201.001 4.01243 200.798 3.91087C200.595 3.8093 200.335 3.75852 200.018 3.75852C199.584 3.75852 199.222 3.85855 198.933 4.05859C198.647 4.25556 198.504 4.50639 198.504 4.81108C198.504 5.08191 198.602 5.29581 198.799 5.45277C198.996 5.60973 199.304 5.74053 199.722 5.84517L200.775 6.10369C201.409 6.25758 201.881 6.49302 202.192 6.81001C202.503 7.12393 202.658 7.52865 202.658 8.02415C202.658 8.4304 202.541 8.79356 202.308 9.11364C202.077 9.43371 201.754 9.68608 201.338 9.87074C200.923 10.0554 200.439 10.1477 199.889 10.1477C199.165 10.1477 198.567 9.99077 198.093 9.67685C197.619 9.36293 197.319 8.90436 197.193 8.30114L198.227 8.04261C198.325 8.42424 198.511 8.71046 198.785 8.90128C199.062 9.09209 199.424 9.1875 199.87 9.1875C200.378 9.1875 200.781 9.07978 201.08 8.86435C201.381 8.64583 201.532 8.38423 201.532 8.07955C201.532 7.83333 201.446 7.62713 201.273 7.46094C201.101 7.29167 200.836 7.16548 200.479 7.08239L199.298 6.8054C198.648 6.65152 198.171 6.413 197.867 6.08984C197.565 5.76361 197.414 5.35582 197.414 4.86648C197.414 4.46638 197.526 4.11245 197.751 3.80469C197.979 3.49692 198.288 3.25533 198.679 3.0799C199.073 2.90447 199.519 2.81676 200.018 2.81676C200.72 2.81676 201.27 2.97064 201.67 3.27841C202.074 3.58617 202.36 3.99242 202.529 4.49716ZM207.271 10.1477C206.588 10.1477 205.999 9.99692 205.503 9.69531C205.011 9.39062 204.631 8.96591 204.363 8.42116C204.098 7.87334 203.966 7.23627 203.966 6.50994C203.966 5.78362 204.098 5.14347 204.363 4.58949C204.631 4.03243 205.003 3.59848 205.48 3.28764C205.96 2.97372 206.52 2.81676 207.161 2.81676C207.53 2.81676 207.895 2.87831 208.255 3.00142C208.615 3.12453 208.943 3.32457 209.238 3.60156C209.534 3.87547 209.769 4.23864 209.944 4.69105C210.12 5.14347 210.208 5.70052 210.208 6.36222V6.82386H204.742V5.8821H209.1C209.1 5.48201 209.02 5.125 208.86 4.81108C208.703 4.49716 208.478 4.24941 208.186 4.06783C207.896 3.88625 207.555 3.79545 207.161 3.79545C206.727 3.79545 206.351 3.90317 206.034 4.11861C205.72 4.33097 205.479 4.60795 205.309 4.94957C205.14 5.29119 205.056 5.65743 205.056 6.0483V6.67614C205.056 7.21165 205.148 7.6656 205.333 8.038C205.52 8.40732 205.78 8.68892 206.113 8.88281C206.445 9.07363 206.831 9.16903 207.271 9.16903C207.558 9.16903 207.816 9.12902 208.047 9.04901C208.281 8.96591 208.482 8.8428 208.652 8.67969C208.821 8.51349 208.952 8.30729 209.044 8.06108L210.097 8.35653C209.986 8.71354 209.8 9.02746 209.538 9.2983C209.277 9.56605 208.953 9.77533 208.569 9.92614C208.184 10.0739 207.752 10.1477 207.271 10.1477ZM214.746 10.1477C214.081 10.1477 213.508 9.99077 213.028 9.67685C212.548 9.36293 212.179 8.93052 211.92 8.37962C211.662 7.82872 211.532 7.19934 211.532 6.49148C211.532 5.77131 211.665 5.13577 211.929 4.58487C212.197 4.03089 212.57 3.59848 213.047 3.28764C213.527 2.97372 214.087 2.81676 214.727 2.81676C215.226 2.81676 215.675 2.90909 216.075 3.09375C216.475 3.27841 216.803 3.53693 217.058 3.86932C217.314 4.2017 217.472 4.58949 217.534 5.03267H216.444C216.361 4.70952 216.177 4.4233 215.89 4.17401C215.607 3.92164 215.226 3.79545 214.746 3.79545C214.321 3.79545 213.948 3.90625 213.628 4.12784C213.311 4.34635 213.064 4.65566 212.885 5.05575C212.71 5.45277 212.622 5.91903 212.622 6.45455C212.622 7.00237 212.708 7.4794 212.88 7.88565C213.056 8.2919 213.302 8.60736 213.619 8.83203C213.939 9.0567 214.315 9.16903 214.746 9.16903C215.029 9.16903 215.286 9.11979 215.516 9.02131C215.747 8.92282 215.943 8.78125 216.103 8.59659C216.263 8.41193 216.377 8.19034 216.444 7.93182H217.534C217.472 8.35038 217.32 8.72739 217.077 9.06286C216.837 9.39524 216.518 9.65992 216.121 9.85689C215.727 10.0508 215.269 10.1477 214.746 10.1477ZM222.21 2.90909V3.83239H218.536V2.90909H222.21ZM219.607 1.21023H220.696V7.96875C220.696 8.27652 220.741 8.50734 220.83 8.66122C220.922 8.81203 221.039 8.91359 221.181 8.96591C221.326 9.01515 221.478 9.03977 221.638 9.03977C221.758 9.03977 221.856 9.03362 221.933 9.02131C222.01 9.00592 222.072 8.99361 222.118 8.98438L222.34 9.96307C222.266 9.99077 222.163 10.0185 222.03 10.0462C221.898 10.0769 221.73 10.0923 221.527 10.0923C221.219 10.0923 220.918 10.0262 220.622 9.89382C220.33 9.76148 220.087 9.5599 219.893 9.28906C219.702 9.01823 219.607 8.67661 219.607 8.2642V1.21023ZM226.746 10.1477C226.063 10.1477 225.473 9.99692 224.978 9.69531C224.486 9.39062 224.105 8.96591 223.838 8.42116C223.573 7.87334 223.441 7.23627 223.441 6.50994C223.441 5.78362 223.573 5.14347 223.838 4.58949C224.105 4.03243 224.478 3.59848 224.955 3.28764C225.435 2.97372 225.995 2.81676 226.635 2.81676C227.005 2.81676 227.369 2.87831 227.729 3.00142C228.089 3.12453 228.417 3.32457 228.713 3.60156C229.008 3.87547 229.244 4.23864 229.419 4.69105C229.594 5.14347 229.682 5.70052 229.682 6.36222V6.82386H224.216V5.8821H228.574C228.574 5.48201 228.494 5.125 228.334 4.81108C228.177 4.49716 227.952 4.24941 227.66 4.06783C227.371 3.88625 227.029 3.79545 226.635 3.79545C226.201 3.79545 225.826 3.90317 225.509 4.11861C225.195 4.33097 224.953 4.60795 224.784 4.94957C224.615 5.29119 224.53 5.65743 224.53 6.0483V6.67614C224.53 7.21165 224.622 7.6656 224.807 8.038C224.995 8.40732 225.255 8.68892 225.587 8.88281C225.92 9.07363 226.306 9.16903 226.746 9.16903C227.032 9.16903 227.291 9.12902 227.522 9.04901C227.756 8.96591 227.957 8.8428 228.126 8.67969C228.296 8.51349 228.426 8.30729 228.519 8.06108L229.571 8.35653C229.461 8.71354 229.274 9.02746 229.013 9.2983C228.751 9.56605 228.428 9.77533 228.043 9.92614C227.659 10.0739 227.226 10.1477 226.746 10.1477ZM234.423 2.90909V3.83239H230.749V2.90909H234.423ZM231.82 1.21023H232.909V7.96875C232.909 8.27652 232.954 8.50734 233.043 8.66122C233.135 8.81203 233.252 8.91359 233.394 8.96591C233.538 9.01515 233.691 9.03977 233.851 9.03977C233.971 9.03977 234.069 9.03362 234.146 9.02131C234.223 9.00592 234.285 8.99361 234.331 8.98438L234.553 9.96307C234.479 9.99077 234.376 10.0185 234.243 10.0462C234.111 10.0769 233.943 10.0923 233.74 10.0923C233.432 10.0923 233.131 10.0262 232.835 9.89382C232.543 9.76148 232.3 9.5599 232.106 9.28906C231.915 9.01823 231.82 8.67661 231.82 8.2642V1.21023ZM240.531 7.10085V2.90909H241.62V10H240.531V8.79972H240.457C240.291 9.1598 240.032 9.46603 239.681 9.71839C239.331 9.96768 238.887 10.0923 238.352 10.0923C237.909 10.0923 237.515 9.99538 237.17 9.80149C236.825 9.60452 236.555 9.30907 236.358 8.91513C236.161 8.51811 236.062 8.01799 236.062 7.41477V2.90909H237.152V7.34091C237.152 7.85795 237.296 8.27036 237.586 8.57812C237.878 8.88589 238.25 9.03977 238.703 9.03977C238.974 9.03977 239.249 8.97053 239.529 8.83203C239.812 8.69354 240.049 8.48118 240.24 8.19496C240.434 7.90874 240.531 7.54403 240.531 7.10085ZM243.616 10V2.90909H244.668V3.98011H244.742C244.871 3.62926 245.105 3.34458 245.444 3.12606C245.782 2.90755 246.164 2.79829 246.589 2.79829C246.669 2.79829 246.769 2.79983 246.889 2.80291C247.009 2.80599 247.1 2.81061 247.161 2.81676V3.92472C247.124 3.91548 247.04 3.90163 246.907 3.88317C246.778 3.86162 246.641 3.85085 246.496 3.85085C246.152 3.85085 245.844 3.92318 245.573 4.06783C245.305 4.2094 245.093 4.40637 244.936 4.65874C244.782 4.90803 244.705 5.19271 244.705 5.51278V10H243.616ZM254.196 10.1662C253.746 10.1662 253.338 10.0816 252.972 9.91229C252.606 9.73994 252.315 9.49219 252.1 9.16903C251.884 8.8428 251.777 8.44886 251.777 7.98722C251.777 7.58097 251.857 7.25166 252.017 6.99929C252.177 6.74384 252.391 6.5438 252.658 6.39915C252.926 6.2545 253.222 6.14678 253.545 6.07599C253.871 6.00213 254.199 5.94366 254.528 5.90057C254.959 5.84517 255.308 5.80362 255.576 5.77592C255.847 5.74515 256.044 5.69437 256.167 5.62358C256.293 5.55279 256.356 5.42969 256.356 5.25426V5.21733C256.356 4.76184 256.231 4.40791 255.982 4.15554C255.736 3.90317 255.362 3.77699 254.86 3.77699C254.34 3.77699 253.932 3.89086 253.637 4.11861C253.342 4.34635 253.134 4.58949 253.014 4.84801L251.98 4.47869C252.164 4.04782 252.411 3.71236 252.718 3.4723C253.029 3.22917 253.368 3.0599 253.734 2.96449C254.103 2.866 254.466 2.81676 254.823 2.81676C255.051 2.81676 255.313 2.84446 255.608 2.89986C255.907 2.95218 256.195 3.06143 256.472 3.22763C256.752 3.39382 256.984 3.64465 257.169 3.98011C257.353 4.31558 257.446 4.76491 257.446 5.32812V10H256.356V9.03977H256.301C256.227 9.19366 256.104 9.35831 255.931 9.53374C255.759 9.70916 255.53 9.85843 255.244 9.98153C254.957 10.1046 254.608 10.1662 254.196 10.1662ZM254.362 9.1875C254.793 9.1875 255.156 9.10286 255.451 8.93359C255.75 8.76432 255.975 8.54581 256.125 8.27805C256.279 8.0103 256.356 7.72869 256.356 7.43324V6.43608C256.31 6.49148 256.208 6.54226 256.051 6.58842C255.898 6.63151 255.719 6.66998 255.516 6.70383C255.316 6.73461 255.12 6.76231 254.93 6.78693C254.742 6.80848 254.59 6.82694 254.473 6.84233C254.189 6.87926 253.925 6.93928 253.679 7.02237C253.435 7.10239 253.238 7.22396 253.088 7.38707C252.94 7.54711 252.866 7.76562 252.866 8.04261C252.866 8.42116 253.006 8.70739 253.286 8.90128C253.569 9.09209 253.928 9.1875 254.362 9.1875ZM262.112 10.1477C261.521 10.1477 260.999 9.99846 260.547 9.69993C260.094 9.39832 259.74 8.9736 259.485 8.42578C259.23 7.87488 259.102 7.22396 259.102 6.47301C259.102 5.72822 259.23 5.08191 259.485 4.53409C259.74 3.98627 260.096 3.56309 260.551 3.26456C261.007 2.96603 261.533 2.81676 262.13 2.81676C262.592 2.81676 262.957 2.8937 263.224 3.04759C263.495 3.19839 263.701 3.37074 263.843 3.56463C263.988 3.75544 264.1 3.91241 264.18 4.03551H264.272V0.545454H265.362V10H264.309V8.91051H264.18C264.1 9.03977 263.986 9.20289 263.838 9.39986C263.691 9.59375 263.48 9.76764 263.206 9.92152C262.932 10.0723 262.567 10.1477 262.112 10.1477ZM262.259 9.16903C262.696 9.16903 263.066 9.05516 263.367 8.82741C263.669 8.59659 263.898 8.27805 264.055 7.8718C264.212 7.46248 264.291 6.99006 264.291 6.45455C264.291 5.92519 264.214 5.462 264.06 5.06499C263.906 4.66489 263.678 4.35405 263.377 4.13246C263.075 3.90779 262.703 3.79545 262.259 3.79545C261.798 3.79545 261.413 3.91394 261.105 4.15092C260.801 4.38482 260.571 4.70336 260.417 5.10653C260.267 5.50663 260.191 5.95597 260.191 6.45455C260.191 6.95928 260.268 7.41785 260.422 7.83026C260.579 8.23958 260.81 8.56581 261.115 8.80895C261.422 9.04901 261.804 9.16903 262.259 9.16903ZM267.508 10V2.90909H268.598V10H267.508ZM268.062 1.72727C267.85 1.72727 267.667 1.65495 267.513 1.5103C267.362 1.36565 267.287 1.19176 267.287 0.988636C267.287 0.785511 267.362 0.611624 267.513 0.466974C267.667 0.322325 267.85 0.25 268.062 0.25C268.275 0.25 268.456 0.322325 268.607 0.466974C268.761 0.611624 268.838 0.785511 268.838 0.988636C268.838 1.19176 268.761 1.36565 268.607 1.5103C268.456 1.65495 268.275 1.72727 268.062 1.72727ZM270.593 12.6591V2.90909H271.646V4.03551H271.775C271.855 3.91241 271.966 3.75544 272.108 3.56463C272.252 3.37074 272.458 3.19839 272.726 3.04759C272.997 2.8937 273.363 2.81676 273.825 2.81676C274.422 2.81676 274.948 2.96603 275.404 3.26456C275.859 3.56309 276.215 3.98627 276.47 4.53409C276.726 5.08191 276.853 5.72822 276.853 6.47301C276.853 7.22396 276.726 7.87488 276.47 8.42578C276.215 8.9736 275.861 9.39832 275.408 9.69993C274.956 9.99846 274.434 10.1477 273.843 10.1477C273.388 10.1477 273.023 10.0723 272.749 9.92152C272.475 9.76764 272.265 9.59375 272.117 9.39986C271.969 9.20289 271.855 9.03977 271.775 8.91051H271.683V12.6591H270.593ZM271.664 6.45455C271.664 6.99006 271.743 7.46248 271.9 7.8718C272.057 8.27805 272.286 8.59659 272.588 8.82741C272.889 9.05516 273.259 9.16903 273.696 9.16903C274.151 9.16903 274.531 9.04901 274.836 8.80895C275.144 8.56581 275.374 8.23958 275.528 7.83026C275.685 7.41785 275.764 6.95928 275.764 6.45455C275.764 5.95597 275.687 5.50663 275.533 5.10653C275.382 4.70336 275.153 4.38482 274.845 4.15092C274.54 3.91394 274.157 3.79545 273.696 3.79545C273.252 3.79545 272.88 3.90779 272.578 4.13246C272.277 4.35405 272.049 4.66489 271.895 5.06499C271.741 5.462 271.664 5.92519 271.664 6.45455ZM278.515 10V2.90909H279.605V10H278.515ZM279.069 1.72727C278.857 1.72727 278.674 1.65495 278.52 1.5103C278.369 1.36565 278.294 1.19176 278.294 0.988636C278.294 0.785511 278.369 0.611624 278.52 0.466974C278.674 0.322325 278.857 0.25 279.069 0.25C279.282 0.25 279.463 0.322325 279.614 0.466974C279.768 0.611624 279.845 0.785511 279.845 0.988636C279.845 1.19176 279.768 1.36565 279.614 1.5103C279.463 1.65495 279.282 1.72727 279.069 1.72727ZM286.623 4.49716L285.644 4.77415C285.583 4.61103 285.492 4.45253 285.372 4.29865C285.255 4.14169 285.095 4.01243 284.892 3.91087C284.689 3.8093 284.429 3.75852 284.112 3.75852C283.678 3.75852 283.316 3.85855 283.027 4.05859C282.74 4.25556 282.597 4.50639 282.597 4.81108C282.597 5.08191 282.696 5.29581 282.893 5.45277C283.09 5.60973 283.398 5.74053 283.816 5.84517L284.869 6.10369C285.503 6.25758 285.975 6.49302 286.286 6.81001C286.597 7.12393 286.752 7.52865 286.752 8.02415C286.752 8.4304 286.635 8.79356 286.401 9.11364C286.17 9.43371 285.847 9.68608 285.432 9.87074C285.016 10.0554 284.533 10.1477 283.982 10.1477C283.259 10.1477 282.66 9.99077 282.186 9.67685C281.713 9.36293 281.412 8.90436 281.286 8.30114L282.32 8.04261C282.419 8.42424 282.605 8.71046 282.879 8.90128C283.156 9.09209 283.518 9.1875 283.964 9.1875C284.472 9.1875 284.875 9.07978 285.173 8.86435C285.475 8.64583 285.626 8.38423 285.626 8.07955C285.626 7.83333 285.54 7.62713 285.367 7.46094C285.195 7.29167 284.93 7.16548 284.573 7.08239L283.391 6.8054C282.742 6.65152 282.265 6.413 281.96 6.08984C281.659 5.76361 281.508 5.35582 281.508 4.86648C281.508 4.46638 281.62 4.11245 281.845 3.80469C282.073 3.49692 282.382 3.25533 282.773 3.0799C283.167 2.90447 283.613 2.81676 284.112 2.81676C284.813 2.81676 285.364 2.97064 285.764 3.27841C286.167 3.58617 286.454 3.99242 286.623 4.49716ZM291.273 10.1477C290.608 10.1477 290.036 9.99077 289.556 9.67685C289.075 9.36293 288.706 8.93052 288.448 8.37962C288.189 7.82872 288.06 7.19934 288.06 6.49148C288.06 5.77131 288.192 5.13577 288.457 4.58487C288.725 4.03089 289.097 3.59848 289.574 3.28764C290.054 2.97372 290.614 2.81676 291.254 2.81676C291.753 2.81676 292.202 2.90909 292.602 3.09375C293.003 3.27841 293.33 3.53693 293.586 3.86932C293.841 4.2017 294 4.58949 294.061 5.03267H292.972C292.889 4.70952 292.704 4.4233 292.418 4.17401C292.135 3.92164 291.753 3.79545 291.273 3.79545C290.848 3.79545 290.476 3.90625 290.156 4.12784C289.839 4.34635 289.591 4.65566 289.412 5.05575C289.237 5.45277 289.149 5.91903 289.149 6.45455C289.149 7.00237 289.235 7.4794 289.408 7.88565C289.583 8.2919 289.829 8.60736 290.146 8.83203C290.467 9.0567 290.842 9.16903 291.273 9.16903C291.556 9.16903 291.813 9.11979 292.044 9.02131C292.275 8.92282 292.47 8.78125 292.63 8.59659C292.79 8.41193 292.904 8.19034 292.972 7.93182H294.061C294 8.35038 293.847 8.72739 293.604 9.06286C293.364 9.39524 293.046 9.65992 292.649 9.85689C292.255 10.0508 291.796 10.1477 291.273 10.1477ZM295.654 10V2.90909H296.743V10H295.654ZM296.208 1.72727C295.996 1.72727 295.812 1.65495 295.659 1.5103C295.508 1.36565 295.432 1.19176 295.432 0.988636C295.432 0.785511 295.508 0.611624 295.659 0.466974C295.812 0.322325 295.996 0.25 296.208 0.25C296.42 0.25 296.602 0.322325 296.753 0.466974C296.907 0.611624 296.983 0.785511 296.983 0.988636C296.983 1.19176 296.907 1.36565 296.753 1.5103C296.602 1.65495 296.42 1.72727 296.208 1.72727ZM299.828 5.73438V10H298.739V2.90909H299.791V4.01705H299.884C300.05 3.65696 300.302 3.36766 300.641 3.14915C300.979 2.92756 301.416 2.81676 301.952 2.81676C302.432 2.81676 302.852 2.91525 303.212 3.11222C303.572 3.30611 303.852 3.60156 304.052 3.99858C304.252 4.39252 304.352 4.8911 304.352 5.49432V10H303.263V5.56818C303.263 5.01113 303.118 4.57718 302.829 4.26633C302.54 3.95241 302.143 3.79545 301.638 3.79545C301.29 3.79545 300.979 3.87086 300.705 4.02166C300.435 4.17247 300.221 4.39252 300.064 4.68182C299.907 4.97112 299.828 5.32197 299.828 5.73438ZM309.206 12.8068C308.679 12.8068 308.227 12.7391 307.848 12.6037C307.47 12.4714 307.154 12.2959 306.902 12.0774C306.653 11.862 306.454 11.6312 306.306 11.3849L307.174 10.7756C307.273 10.9048 307.397 11.0526 307.548 11.2188C307.699 11.388 307.905 11.5342 308.167 11.6573C308.432 11.7835 308.778 11.8466 309.206 11.8466C309.778 11.8466 310.25 11.7081 310.623 11.4311C310.995 11.1541 311.181 10.7202 311.181 10.1293V8.68892H311.089C311.009 8.81818 310.895 8.97822 310.747 9.16903C310.603 9.35677 310.394 9.5245 310.12 9.67223C309.849 9.81688 309.483 9.8892 309.021 9.8892C308.448 9.8892 307.934 9.75379 307.479 9.48295C307.027 9.21212 306.668 8.81818 306.403 8.30114C306.142 7.78409 306.011 7.15625 306.011 6.41761C306.011 5.69129 306.139 5.05883 306.394 4.52024C306.65 3.97857 307.005 3.56001 307.461 3.26456C307.916 2.96603 308.442 2.81676 309.039 2.81676C309.501 2.81676 309.867 2.8937 310.138 3.04759C310.412 3.19839 310.621 3.37074 310.766 3.56463C310.914 3.75544 311.028 3.91241 311.108 4.03551H311.218V2.90909H312.271V10.2031C312.271 10.8125 312.132 11.308 311.855 11.6896C311.582 12.0743 311.212 12.3559 310.747 12.5344C310.286 12.716 309.772 12.8068 309.206 12.8068ZM309.169 8.91051C309.606 8.91051 309.975 8.81049 310.277 8.61044C310.578 8.41039 310.807 8.12263 310.964 7.74716C311.121 7.37169 311.2 6.92235 311.2 6.39915C311.2 5.88826 311.123 5.43738 310.969 5.04652C310.815 4.65566 310.587 4.34943 310.286 4.12784C309.984 3.90625 309.612 3.79545 309.169 3.79545C308.707 3.79545 308.322 3.91241 308.015 4.14631C307.71 4.38021 307.481 4.69413 307.327 5.08807C307.176 5.48201 307.1 5.91903 307.1 6.39915C307.1 6.89157 307.177 7.32706 307.331 7.70561C307.488 8.08108 307.719 8.37654 308.024 8.59197C308.332 8.80433 308.713 8.91051 309.169 8.91051ZM65.1157 26.1477C64.4324 26.1477 63.8431 25.9969 63.3476 25.6953C62.8551 25.3906 62.4751 24.9659 62.2073 24.4212C61.9426 23.8733 61.8103 23.2363 61.8103 22.5099C61.8103 21.7836 61.9426 21.1435 62.2073 20.5895C62.4751 20.0324 62.8474 19.5985 63.3245 19.2876C63.8046 18.9737 64.3647 18.8168 65.0049 18.8168C65.3742 18.8168 65.7389 18.8783 66.099 19.0014C66.4591 19.1245 66.7868 19.3246 67.0823 19.6016C67.3778 19.8755 67.6132 20.2386 67.7886 20.6911C67.964 21.1435 68.0518 21.7005 68.0518 22.3622V22.8239H62.5858V21.8821H66.9438C66.9438 21.482 66.8638 21.125 66.7037 20.8111C66.5468 20.4972 66.3221 20.2494 66.0297 20.0678C65.7404 19.8862 65.3988 19.7955 65.0049 19.7955C64.5709 19.7955 64.1955 19.9032 63.8785 20.1186C63.5645 20.331 63.3229 20.608 63.1537 20.9496C62.9844 21.2912 62.8998 21.6574 62.8998 22.0483V22.6761C62.8998 23.2116 62.9921 23.6656 63.1768 24.038C63.3645 24.4073 63.6246 24.6889 63.9569 24.8828C64.2893 25.0736 64.6756 25.169 65.1157 25.169C65.4019 25.169 65.6604 25.129 65.8912 25.049C66.1251 24.9659 66.3267 24.8428 66.496 24.6797C66.6653 24.5135 66.7961 24.3073 66.8884 24.0611L67.941 24.3565C67.8302 24.7135 67.644 25.0275 67.3824 25.2983C67.1208 25.5661 66.7976 25.7753 66.4129 25.9261C66.0282 26.0739 65.5958 26.1477 65.1157 26.1477ZM70.7986 16.5455V26H69.7091V16.5455H70.7986ZM72.794 26V18.9091H73.8835V26H72.794ZM73.348 17.7273C73.1357 17.7273 72.9525 17.6549 72.7987 17.5103C72.6478 17.3656 72.5724 17.1918 72.5724 16.9886C72.5724 16.7855 72.6478 16.6116 72.7987 16.467C72.9525 16.3223 73.1357 16.25 73.348 16.25C73.5604 16.25 73.742 16.3223 73.8928 16.467C74.0466 16.6116 74.1236 16.7855 74.1236 16.9886C74.1236 17.1918 74.0466 17.3656 73.8928 17.5103C73.742 17.6549 73.5604 17.7273 73.348 17.7273ZM78.9628 18.9091V19.8324H75.2881V18.9091H78.9628ZM76.3591 17.2102H77.4486V23.9688C77.4486 24.2765 77.4932 24.5073 77.5825 24.6612C77.6748 24.812 77.7918 24.9136 77.9333 24.9659C78.078 25.0152 78.2303 25.0398 78.3904 25.0398C78.5104 25.0398 78.6089 25.0336 78.6858 25.0213C78.7628 25.0059 78.8243 24.9936 78.8705 24.9844L79.0921 25.9631C79.0182 25.9908 78.9151 26.0185 78.7828 26.0462C78.6504 26.0769 78.4827 26.0923 78.2796 26.0923C77.9718 26.0923 77.6702 26.0262 77.3747 25.8938C77.0824 25.7615 76.8392 25.5599 76.6453 25.2891C76.4545 25.0182 76.3591 24.6766 76.3591 24.2642V17.2102ZM81.3957 26.0739C81.1679 26.0739 80.9725 25.9923 80.8094 25.8292C80.6463 25.6661 80.5647 25.4706 80.5647 25.2429C80.5647 25.0152 80.6463 24.8197 80.8094 24.6566C80.9725 24.4935 81.1679 24.4119 81.3957 24.4119C81.6234 24.4119 81.8189 24.4935 81.982 24.6566C82.1451 24.8197 82.2267 25.0152 82.2267 25.2429C82.2267 25.3937 82.1882 25.5322 82.1112 25.6584C82.0374 25.7846 81.9374 25.8861 81.8112 25.9631C81.6881 26.0369 81.5496 26.0739 81.3957 26.0739ZM90.9033 26H87.9857V16.5455H91.0326C91.9497 16.5455 92.7345 16.7347 93.387 17.1133C94.0394 17.4888 94.5396 18.0289 94.8873 18.7337C95.2351 19.4354 95.409 20.2756 95.409 21.2543C95.409 22.2391 95.2336 23.087 94.8827 23.7979C94.5319 24.5058 94.021 25.0505 93.3501 25.4322C92.6791 25.8107 91.8635 26 90.9033 26ZM89.1306 24.9844H90.8295C91.6112 24.9844 92.259 24.8336 92.773 24.532C93.287 24.2304 93.6701 23.801 93.9225 23.244C94.1749 22.6869 94.301 22.0237 94.301 21.2543C94.301 20.491 94.1764 19.8339 93.9271 19.283C93.6778 18.729 93.3054 18.3043 92.8099 18.0089C92.3144 17.7103 91.6974 17.5611 90.9587 17.5611H89.1306V24.9844ZM100.062 26.1477C99.4223 26.1477 98.8606 25.9954 98.3774 25.6907C97.8973 25.386 97.5218 24.9598 97.251 24.4119C96.9832 23.8641 96.8493 23.224 96.8493 22.4915C96.8493 21.7528 96.9832 21.1081 97.251 20.5572C97.5218 20.0063 97.8973 19.5785 98.3774 19.2738C98.8606 18.9691 99.4223 18.8168 100.062 18.8168C100.703 18.8168 101.263 18.9691 101.743 19.2738C102.226 19.5785 102.601 20.0063 102.869 20.5572C103.14 21.1081 103.275 21.7528 103.275 22.4915C103.275 23.224 103.14 23.8641 102.869 24.4119C102.601 24.9598 102.226 25.386 101.743 25.6907C101.263 25.9954 100.703 26.1477 100.062 26.1477ZM100.062 25.169C100.549 25.169 100.949 25.0444 101.263 24.7951C101.577 24.5458 101.809 24.218 101.96 23.8118C102.111 23.4055 102.186 22.9654 102.186 22.4915C102.186 22.0175 102.111 21.5759 101.96 21.1665C101.809 20.7572 101.577 20.4264 101.263 20.174C100.949 19.9216 100.549 19.7955 100.062 19.7955C99.5761 19.7955 99.176 19.9216 98.8621 20.174C98.5482 20.4264 98.3158 20.7572 98.165 21.1665C98.0142 21.5759 97.9388 22.0175 97.9388 22.4915C97.9388 22.9654 98.0142 23.4055 98.165 23.8118C98.3158 24.218 98.5482 24.5458 98.8621 24.7951C99.176 25.0444 99.5761 25.169 100.062 25.169ZM106.028 21.7344V26H104.939V18.9091H105.991V20.017H106.083C106.25 19.657 106.502 19.3677 106.841 19.1491C107.179 18.9276 107.616 18.8168 108.152 18.8168C108.632 18.8168 109.052 18.9152 109.412 19.1122C109.772 19.3061 110.052 19.6016 110.252 19.9986C110.452 20.3925 110.552 20.8911 110.552 21.4943V26H109.463V21.5682C109.463 21.0111 109.318 20.5772 109.029 20.2663C108.739 19.9524 108.342 19.7955 107.838 19.7955C107.49 19.7955 107.179 19.8709 106.905 20.0217C106.634 20.1725 106.42 20.3925 106.263 20.6818C106.107 20.9711 106.028 21.322 106.028 21.7344ZM115.516 26.1477C114.833 26.1477 114.243 25.9969 113.748 25.6953C113.256 25.3906 112.875 24.9659 112.608 24.4212C112.343 23.8733 112.211 23.2363 112.211 22.5099C112.211 21.7836 112.343 21.1435 112.608 20.5895C112.875 20.0324 113.248 19.5985 113.725 19.2876C114.205 18.9737 114.765 18.8168 115.405 18.8168C115.775 18.8168 116.139 18.8783 116.499 19.0014C116.859 19.1245 117.187 19.3246 117.483 19.6016C117.778 19.8755 118.014 20.2386 118.189 20.6911C118.364 21.1435 118.452 21.7005 118.452 22.3622V22.8239H112.986V21.8821H117.344C117.344 21.482 117.264 21.125 117.104 20.8111C116.947 20.4972 116.723 20.2494 116.43 20.0678C116.141 19.8862 115.799 19.7955 115.405 19.7955C114.971 19.7955 114.596 19.9032 114.279 20.1186C113.965 20.331 113.723 20.608 113.554 20.9496C113.385 21.2912 113.3 21.6574 113.3 22.0483V22.6761C113.3 23.2116 113.392 23.6656 113.577 24.038C113.765 24.4073 114.025 24.6889 114.357 24.8828C114.69 25.0736 115.076 25.169 115.516 25.169C115.802 25.169 116.061 25.129 116.292 25.049C116.526 24.9659 116.727 24.8428 116.896 24.6797C117.066 24.5135 117.196 24.3073 117.289 24.0611L118.341 24.3565C118.231 24.7135 118.044 25.0275 117.783 25.2983C117.521 25.5661 117.198 25.7753 116.813 25.9261C116.429 26.0739 115.996 26.1477 115.516 26.1477ZM122.99 26.1477C122.325 26.1477 121.753 25.9908 121.273 25.6768C120.793 25.3629 120.423 24.9305 120.165 24.3796C119.906 23.8287 119.777 23.1993 119.777 22.4915C119.777 21.7713 119.909 21.1358 120.174 20.5849C120.442 20.0309 120.814 19.5985 121.291 19.2876C121.771 18.9737 122.332 18.8168 122.972 18.8168C123.47 18.8168 123.92 18.9091 124.32 19.0938C124.72 19.2784 125.048 19.5369 125.303 19.8693C125.558 20.2017 125.717 20.5895 125.778 21.0327H124.689C124.606 20.7095 124.421 20.4233 124.135 20.174C123.852 19.9216 123.47 19.7955 122.99 19.7955C122.565 19.7955 122.193 19.9062 121.873 20.1278C121.556 20.3464 121.308 20.6557 121.13 21.0558C120.954 21.4528 120.867 21.919 120.867 22.4545C120.867 23.0024 120.953 23.4794 121.125 23.8857C121.301 24.2919 121.547 24.6074 121.864 24.832C122.184 25.0567 122.559 25.169 122.99 25.169C123.273 25.169 123.53 25.1198 123.761 25.0213C123.992 24.9228 124.187 24.7812 124.347 24.5966C124.507 24.4119 124.621 24.1903 124.689 23.9318H125.778C125.717 24.3504 125.565 24.7274 125.321 25.0629C125.081 25.3952 124.763 25.6599 124.366 25.8569C123.972 26.0508 123.513 26.1477 122.99 26.1477ZM133.114 26.1662C132.665 26.1662 132.257 26.0816 131.891 25.9123C131.524 25.7399 131.234 25.4922 131.018 25.169C130.803 24.8428 130.695 24.4489 130.695 23.9872C130.695 23.581 130.775 23.2517 130.935 22.9993C131.095 22.7438 131.309 22.5438 131.577 22.3991C131.845 22.2545 132.14 22.1468 132.463 22.076C132.789 22.0021 133.117 21.9437 133.446 21.9006C133.877 21.8452 134.227 21.8036 134.494 21.7759C134.765 21.7451 134.962 21.6944 135.085 21.6236C135.211 21.5528 135.275 21.4297 135.275 21.2543V21.2173C135.275 20.7618 135.15 20.4079 134.901 20.1555C134.654 19.9032 134.281 19.777 133.779 19.777C133.259 19.777 132.851 19.8909 132.555 20.1186C132.26 20.3464 132.052 20.5895 131.932 20.848L130.898 20.4787C131.083 20.0478 131.329 19.7124 131.637 19.4723C131.948 19.2292 132.286 19.0599 132.652 18.9645C133.022 18.866 133.385 18.8168 133.742 18.8168C133.97 18.8168 134.231 18.8445 134.527 18.8999C134.825 18.9522 135.113 19.0614 135.39 19.2276C135.67 19.3938 135.902 19.6446 136.087 19.9801C136.272 20.3156 136.364 20.7649 136.364 21.3281V26H135.275V25.0398H135.219C135.145 25.1937 135.022 25.3583 134.85 25.5337C134.678 25.7092 134.448 25.8584 134.162 25.9815C133.876 26.1046 133.526 26.1662 133.114 26.1662ZM133.28 25.1875C133.711 25.1875 134.074 25.1029 134.37 24.9336C134.668 24.7643 134.893 24.5458 135.044 24.2781C135.198 24.0103 135.275 23.7287 135.275 23.4332V22.4361C135.228 22.4915 135.127 22.5423 134.97 22.5884C134.816 22.6315 134.638 22.67 134.434 22.7038C134.234 22.7346 134.039 22.7623 133.848 22.7869C133.66 22.8085 133.508 22.8269 133.391 22.8423C133.108 22.8793 132.843 22.9393 132.597 23.0224C132.354 23.1024 132.157 23.224 132.006 23.3871C131.858 23.5471 131.785 23.7656 131.785 24.0426C131.785 24.4212 131.925 24.7074 132.205 24.9013C132.488 25.0921 132.846 25.1875 133.28 25.1875ZM142.009 28.6591V18.9091H143.061V20.0355H143.191C143.271 19.9124 143.382 19.7554 143.523 19.5646C143.668 19.3707 143.874 19.1984 144.142 19.0476C144.413 18.8937 144.779 18.8168 145.24 18.8168C145.837 18.8168 146.364 18.966 146.819 19.2646C147.275 19.5631 147.63 19.9863 147.886 20.5341C148.141 21.0819 148.269 21.7282 148.269 22.473C148.269 23.224 148.141 23.8749 147.886 24.4258C147.63 24.9736 147.276 25.3983 146.824 25.6999C146.371 25.9985 145.85 26.1477 145.259 26.1477C144.803 26.1477 144.439 26.0723 144.165 25.9215C143.891 25.7676 143.68 25.5937 143.532 25.3999C143.385 25.2029 143.271 25.0398 143.191 24.9105H143.098V28.6591H142.009ZM143.08 22.4545C143.08 22.9901 143.158 23.4625 143.315 23.8718C143.472 24.2781 143.702 24.5966 144.003 24.8274C144.305 25.0552 144.674 25.169 145.111 25.169C145.567 25.169 145.947 25.049 146.251 24.8089C146.559 24.5658 146.79 24.2396 146.944 23.8303C147.101 23.4179 147.179 22.9593 147.179 22.4545C147.179 21.956 147.102 21.5066 146.949 21.1065C146.798 20.7034 146.568 20.3848 146.261 20.1509C145.956 19.9139 145.573 19.7955 145.111 19.7955C144.668 19.7955 144.296 19.9078 143.994 20.1325C143.692 20.354 143.465 20.6649 143.311 21.065C143.157 21.462 143.08 21.9252 143.08 22.4545ZM154.4 23.1009V18.9091H155.489V26H154.4V24.7997H154.326C154.159 25.1598 153.901 25.466 153.55 25.7184C153.199 25.9677 152.756 26.0923 152.221 26.0923C151.777 26.0923 151.383 25.9954 151.039 25.8015C150.694 25.6045 150.423 25.3091 150.226 24.9151C150.029 24.5181 149.931 24.018 149.931 23.4148V18.9091H151.02V23.3409C151.02 23.858 151.165 24.2704 151.454 24.5781C151.747 24.8859 152.119 25.0398 152.571 25.0398C152.842 25.0398 153.118 24.9705 153.398 24.832C153.681 24.6935 153.918 24.4812 154.109 24.195C154.303 23.9087 154.4 23.544 154.4 23.1009ZM157.484 26V18.9091H158.537V19.9801H158.611C158.74 19.6293 158.974 19.3446 159.313 19.1261C159.651 18.9076 160.033 18.7983 160.457 18.7983C160.537 18.7983 160.638 18.7998 160.758 18.8029C160.878 18.806 160.968 18.8106 161.03 18.8168V19.9247C160.993 19.9155 160.908 19.9016 160.776 19.8832C160.647 19.8616 160.51 19.8509 160.365 19.8509C160.02 19.8509 159.713 19.9232 159.442 20.0678C159.174 20.2094 158.962 20.4064 158.805 20.6587C158.651 20.908 158.574 21.1927 158.574 21.5128V26H157.484ZM166.79 23.1009V18.9091H167.88V26H166.79V24.7997H166.716C166.55 25.1598 166.292 25.466 165.941 25.7184C165.59 25.9677 165.147 26.0923 164.611 26.0923C164.168 26.0923 163.774 25.9954 163.429 25.8015C163.085 25.6045 162.814 25.3091 162.617 24.9151C162.42 24.5181 162.321 24.018 162.321 23.4148V18.9091H163.411V23.3409C163.411 23.858 163.556 24.2704 163.845 24.5781C164.137 24.8859 164.51 25.0398 164.962 25.0398C165.233 25.0398 165.508 24.9705 165.788 24.832C166.071 24.6935 166.308 24.4812 166.499 24.195C166.693 23.9087 166.79 23.544 166.79 23.1009ZM174.898 20.4972L173.919 20.7741C173.858 20.611 173.767 20.4525 173.647 20.2987C173.53 20.1417 173.37 20.0124 173.167 19.9109C172.964 19.8093 172.703 19.7585 172.386 19.7585C171.953 19.7585 171.591 19.8585 171.302 20.0586C171.015 20.2556 170.872 20.5064 170.872 20.8111C170.872 21.0819 170.971 21.2958 171.168 21.4528C171.365 21.6097 171.672 21.7405 172.091 21.8452L173.144 22.1037C173.778 22.2576 174.25 22.493 174.561 22.81C174.872 23.1239 175.027 23.5286 175.027 24.0241C175.027 24.4304 174.91 24.7936 174.676 25.1136C174.445 25.4337 174.122 25.6861 173.707 25.8707C173.291 26.0554 172.808 26.1477 172.257 26.1477C171.534 26.1477 170.935 25.9908 170.461 25.6768C169.987 25.3629 169.687 24.9044 169.561 24.3011L170.595 24.0426C170.694 24.4242 170.88 24.7105 171.154 24.9013C171.431 25.0921 171.792 25.1875 172.239 25.1875C172.747 25.1875 173.15 25.0798 173.448 24.8643C173.75 24.6458 173.901 24.3842 173.901 24.0795C173.901 23.8333 173.814 23.6271 173.642 23.4609C173.47 23.2917 173.205 23.1655 172.848 23.0824L171.666 22.8054C171.017 22.6515 170.54 22.413 170.235 22.0898C169.934 21.7636 169.783 21.3558 169.783 20.8665C169.783 20.4664 169.895 20.1125 170.12 19.8047C170.348 19.4969 170.657 19.2553 171.048 19.0799C171.442 18.9045 171.888 18.8168 172.386 18.8168C173.088 18.8168 173.639 18.9706 174.039 19.2784C174.442 19.5862 174.729 19.9924 174.898 20.4972ZM184.792 23.1009V18.9091H185.882V26H184.792V24.7997H184.718C184.552 25.1598 184.294 25.466 183.943 25.7184C183.592 25.9677 183.149 26.0923 182.613 26.0923C182.17 26.0923 181.776 25.9954 181.431 25.8015C181.087 25.6045 180.816 25.3091 180.619 24.9151C180.422 24.5181 180.323 24.018 180.323 23.4148V18.9091H181.413V23.3409C181.413 23.858 181.557 24.2704 181.847 24.5781C182.139 24.8859 182.512 25.0398 182.964 25.0398C183.235 25.0398 183.51 24.9705 183.79 24.832C184.073 24.6935 184.31 24.4812 184.501 24.195C184.695 23.9087 184.792 23.544 184.792 23.1009ZM188.967 16.5455V26H187.877V16.5455H188.967ZM192.051 16.5455V26H190.962V16.5455H192.051ZM196.134 26.1662C195.684 26.1662 195.276 26.0816 194.91 25.9123C194.544 25.7399 194.253 25.4922 194.038 25.169C193.822 24.8428 193.715 24.4489 193.715 23.9872C193.715 23.581 193.795 23.2517 193.955 22.9993C194.115 22.7438 194.329 22.5438 194.596 22.3991C194.864 22.2545 195.16 22.1468 195.483 22.076C195.809 22.0021 196.137 21.9437 196.466 21.9006C196.897 21.8452 197.246 21.8036 197.514 21.7759C197.785 21.7451 197.982 21.6944 198.105 21.6236C198.231 21.5528 198.294 21.4297 198.294 21.2543V21.2173C198.294 20.7618 198.169 20.4079 197.92 20.1555C197.674 19.9032 197.3 19.777 196.798 19.777C196.278 19.777 195.87 19.8909 195.575 20.1186C195.28 20.3464 195.072 20.5895 194.952 20.848L193.918 20.4787C194.102 20.0478 194.349 19.7124 194.656 19.4723C194.967 19.2292 195.306 19.0599 195.672 18.9645C196.041 18.866 196.404 18.8168 196.761 18.8168C196.989 18.8168 197.251 18.8445 197.546 18.8999C197.845 18.9522 198.133 19.0614 198.41 19.2276C198.69 19.3938 198.922 19.6446 199.107 19.9801C199.291 20.3156 199.384 20.7649 199.384 21.3281V26H198.294V25.0398H198.239C198.165 25.1937 198.042 25.3583 197.869 25.5337C197.697 25.7092 197.468 25.8584 197.182 25.9815C196.895 26.1046 196.546 26.1662 196.134 26.1662ZM196.3 25.1875C196.731 25.1875 197.094 25.1029 197.389 24.9336C197.688 24.7643 197.912 24.5458 198.063 24.2781C198.217 24.0103 198.294 23.7287 198.294 23.4332V22.4361C198.248 22.4915 198.146 22.5423 197.989 22.5884C197.836 22.6315 197.657 22.67 197.454 22.7038C197.254 22.7346 197.058 22.7623 196.868 22.7869C196.68 22.8085 196.528 22.8269 196.411 22.8423C196.127 22.8793 195.863 22.9393 195.617 23.0224C195.373 23.1024 195.176 23.224 195.026 23.3871C194.878 23.5471 194.804 23.7656 194.804 24.0426C194.804 24.4212 194.944 24.7074 195.224 24.9013C195.507 25.0921 195.866 25.1875 196.3 25.1875ZM201.372 26V18.9091H202.425V20.017H202.517C202.665 19.6385 202.903 19.3446 203.233 19.1353C203.562 18.9229 203.957 18.8168 204.419 18.8168C204.887 18.8168 205.276 18.9229 205.587 19.1353C205.901 19.3446 206.146 19.6385 206.321 20.017H206.395C206.576 19.6508 206.849 19.36 207.212 19.1445C207.575 18.926 208.011 18.8168 208.518 18.8168C209.152 18.8168 209.671 19.0153 210.074 19.4123C210.477 19.8062 210.679 20.4202 210.679 21.2543V26H209.589V21.2543C209.589 20.7311 209.446 20.3571 209.16 20.1325C208.874 19.9078 208.537 19.7955 208.149 19.7955C207.651 19.7955 207.264 19.9463 206.99 20.2479C206.717 20.5464 206.58 20.925 206.58 21.3835V26H205.472V21.1435C205.472 20.7403 205.341 20.4156 205.079 20.1694C204.818 19.9201 204.481 19.7955 204.068 19.7955C203.785 19.7955 203.52 19.8709 203.274 20.0217C203.031 20.1725 202.834 20.3817 202.683 20.6495C202.536 20.9142 202.462 21.2204 202.462 21.5682V26H201.372ZM215.552 26.1477C214.887 26.1477 214.314 25.9908 213.834 25.6768C213.354 25.3629 212.985 24.9305 212.726 24.3796C212.468 23.8287 212.339 23.1993 212.339 22.4915C212.339 21.7713 212.471 21.1358 212.736 20.5849C213.003 20.0309 213.376 19.5985 213.853 19.2876C214.333 18.9737 214.893 18.8168 215.533 18.8168C216.032 18.8168 216.481 18.9091 216.881 19.0938C217.281 19.2784 217.609 19.5369 217.865 19.8693C218.12 20.2017 218.278 20.5895 218.34 21.0327H217.251C217.167 20.7095 216.983 20.4233 216.697 20.174C216.413 19.9216 216.032 19.7955 215.552 19.7955C215.127 19.7955 214.755 19.9062 214.434 20.1278C214.117 20.3464 213.87 20.6557 213.691 21.0558C213.516 21.4528 213.428 21.919 213.428 22.4545C213.428 23.0024 213.514 23.4794 213.687 23.8857C213.862 24.2919 214.108 24.6074 214.425 24.832C214.745 25.0567 215.121 25.169 215.552 25.169C215.835 25.169 216.092 25.1198 216.323 25.0213C216.553 24.9228 216.749 24.7812 216.909 24.5966C217.069 24.4119 217.183 24.1903 217.251 23.9318H218.34C218.278 24.3504 218.126 24.7274 217.883 25.0629C217.643 25.3952 217.324 25.6599 216.927 25.8569C216.533 26.0508 216.075 26.1477 215.552 26.1477ZM222.813 26.1477C222.173 26.1477 221.612 25.9954 221.128 25.6907C220.648 25.386 220.273 24.9598 220.002 24.4119C219.734 23.8641 219.6 23.224 219.6 22.4915C219.6 21.7528 219.734 21.1081 220.002 20.5572C220.273 20.0063 220.648 19.5785 221.128 19.2738C221.612 18.9691 222.173 18.8168 222.813 18.8168C223.454 18.8168 224.014 18.9691 224.494 19.2738C224.977 19.5785 225.352 20.0063 225.62 20.5572C225.891 21.1081 226.026 21.7528 226.026 22.4915C226.026 23.224 225.891 23.8641 225.62 24.4119C225.352 24.9598 224.977 25.386 224.494 25.6907C224.014 25.9954 223.454 26.1477 222.813 26.1477ZM222.813 25.169C223.3 25.169 223.7 25.0444 224.014 24.7951C224.328 24.5458 224.56 24.218 224.711 23.8118C224.862 23.4055 224.937 22.9654 224.937 22.4915C224.937 22.0175 224.862 21.5759 224.711 21.1665C224.56 20.7572 224.328 20.4264 224.014 20.174C223.7 19.9216 223.3 19.7955 222.813 19.7955C222.327 19.7955 221.927 19.9216 221.613 20.174C221.299 20.4264 221.067 20.7572 220.916 21.1665C220.765 21.5759 220.69 22.0175 220.69 22.4915C220.69 22.9654 220.765 23.4055 220.916 23.8118C221.067 24.218 221.299 24.5458 221.613 24.7951C221.927 25.0444 222.327 25.169 222.813 25.169ZM227.69 26V18.9091H228.742V19.9801H228.816C228.945 19.6293 229.179 19.3446 229.518 19.1261C229.856 18.9076 230.238 18.7983 230.663 18.7983C230.743 18.7983 230.843 18.7998 230.963 18.8029C231.083 18.806 231.173 18.8106 231.235 18.8168V19.9247C231.198 19.9155 231.113 19.9016 230.981 19.8832C230.852 19.8616 230.715 19.8509 230.57 19.8509C230.226 19.8509 229.918 19.9232 229.647 20.0678C229.379 20.2094 229.167 20.4064 229.01 20.6587C228.856 20.908 228.779 21.1927 228.779 21.5128V26H227.69ZM232.526 28.6591V18.9091H233.579V20.0355H233.708C233.788 19.9124 233.899 19.7554 234.041 19.5646C234.185 19.3707 234.392 19.1984 234.659 19.0476C234.93 18.8937 235.296 18.8168 235.758 18.8168C236.355 18.8168 236.881 18.966 237.337 19.2646C237.792 19.5631 238.148 19.9863 238.403 20.5341C238.659 21.0819 238.786 21.7282 238.786 22.473C238.786 23.224 238.659 23.8749 238.403 24.4258C238.148 24.9736 237.794 25.3983 237.341 25.6999C236.889 25.9985 236.367 26.1477 235.776 26.1477C235.321 26.1477 234.956 26.0723 234.682 25.9215C234.408 25.7676 234.198 25.5937 234.05 25.3999C233.902 25.2029 233.788 25.0398 233.708 24.9105H233.616V28.6591H232.526ZM233.597 22.4545C233.597 22.9901 233.676 23.4625 233.833 23.8718C233.99 24.2781 234.219 24.5966 234.521 24.8274C234.822 25.0552 235.192 25.169 235.629 25.169C236.084 25.169 236.464 25.049 236.769 24.8089C237.077 24.5658 237.308 24.2396 237.461 23.8303C237.618 23.4179 237.697 22.9593 237.697 22.4545C237.697 21.956 237.62 21.5066 237.466 21.1065C237.315 20.7034 237.086 20.3848 236.778 20.1509C236.474 19.9139 236.09 19.7955 235.629 19.7955C235.186 19.7955 234.813 19.9078 234.512 20.1325C234.21 20.354 233.982 20.6649 233.828 21.065C233.674 21.462 233.597 21.9252 233.597 22.4545ZM243.421 26.1477C242.738 26.1477 242.149 25.9969 241.653 25.6953C241.161 25.3906 240.781 24.9659 240.513 24.4212C240.248 23.8733 240.116 23.2363 240.116 22.5099C240.116 21.7836 240.248 21.1435 240.513 20.5895C240.781 20.0324 241.153 19.5985 241.63 19.2876C242.11 18.9737 242.67 18.8168 243.311 18.8168C243.68 18.8168 244.045 18.8783 244.405 19.0014C244.765 19.1245 245.093 19.3246 245.388 19.6016C245.683 19.8755 245.919 20.2386 246.094 20.6911C246.27 21.1435 246.357 21.7005 246.357 22.3622V22.8239H240.892V21.8821H245.249C245.249 21.482 245.169 21.125 245.009 20.8111C244.852 20.4972 244.628 20.2494 244.335 20.0678C244.046 19.8862 243.704 19.7955 243.311 19.7955C242.877 19.7955 242.501 19.9032 242.184 20.1186C241.87 20.331 241.629 20.608 241.459 20.9496C241.29 21.2912 241.205 21.6574 241.205 22.0483V22.6761C241.205 23.2116 241.298 23.6656 241.482 24.038C241.67 24.4073 241.93 24.6889 242.263 24.8828C242.595 25.0736 242.981 25.169 243.421 25.169C243.708 25.169 243.966 25.129 244.197 25.049C244.431 24.9659 244.632 24.8428 244.802 24.6797C244.971 24.5135 245.102 24.3073 245.194 24.0611L246.247 24.3565C246.136 24.7135 245.95 25.0275 245.688 25.2983C245.426 25.5661 245.103 25.7753 244.719 25.9261C244.334 26.0739 243.901 26.1477 243.421 26.1477ZM248.015 26V18.9091H249.067V19.9801H249.141C249.27 19.6293 249.504 19.3446 249.843 19.1261C250.181 18.9076 250.563 18.7983 250.988 18.7983C251.068 18.7983 251.168 18.7998 251.288 18.8029C251.408 18.806 251.499 18.8106 251.56 18.8168V19.9247C251.523 19.9155 251.439 19.9016 251.306 19.8832C251.177 19.8616 251.04 19.8509 250.895 19.8509C250.551 19.8509 250.243 19.9232 249.972 20.0678C249.704 20.2094 249.492 20.4064 249.335 20.6587C249.181 20.908 249.104 21.1927 249.104 21.5128V26H248.015Z" fill="black"/>
</svg>
